<svg width="176" height="46" viewBox="0 0 176 46" fill="none" xmlns="http://www.w3.org/2000/svg">
<path d="M43.9361 41.33C43.9361 42.918 39.3707 44.7044 28.3211 44.5721C18.7933 44.4398 16.8745 42.3887 16.8745 40.8007C16.8745 39.2127 23.6895 37.9556 30.9015 37.9556C38.0474 37.8894 43.9361 39.742 43.9361 41.33Z" fill="#120D24" stroke="#120D24" stroke-width="1.87559" stroke-miterlimit="10" stroke-linecap="round" stroke-linejoin="round"/>
<path d="M6.64666 25.5467C6.64666 25.5467 10.9595 11.1568 18.0148 7.14191C18.8134 6.7519 21.9486 3.39123 27.5091 5.40606C31.6304 6.9296 30.8342 11.1717 39.7454 15.2239C42.6123 18.9642 41.1393 22.5986 41.1393 22.5986C41.1393 22.5986 38.2679 21.2768 36.8548 21.3007C34.3524 21.3081 27.9807 23.729 25.5326 23.8688C23.732 23.9281 21.9562 22.3804 20.1461 22.5673C18.596 22.7094 15.8292 24.5576 14.324 24.9596C12.4313 25.397 6.64666 25.5467 6.64666 25.5467Z" fill="white"/>
<path d="M26.875 29.6081C27.1779 32.4531 27.3579 35.2249 27.7837 38.1432C28.1243 40.4778 26.7919 42.8812 23.8925 43.0517C20.797 43.272 19.0788 41.3487 18.8492 38.3808C18.5391 34.7654 18.3851 31.3541 18.3682 28.9793" fill="white"/>
<path d="M26.875 29.6081C27.1779 32.4531 27.3579 35.2249 27.7837 38.1432C28.1243 40.4778 26.7919 42.8812 23.8925 43.0517C20.797 43.272 19.0788 41.3487 18.8492 38.3808C18.5391 34.7654 18.3851 31.3541 18.3682 28.9793" stroke="#120D24" stroke-width="1.87559" stroke-miterlimit="10" stroke-linecap="round" stroke-linejoin="round"/>
<path d="M41.0354 22.8928C41.0354 22.8928 36.7274 21.2913 35.2505 21.3104C32.6843 21.3131 27.9326 23.977 25.357 24.1073C23.4926 24.1619 19.8367 22.4162 17.9629 22.5984C16.349 22.7357 13.568 24.7754 11.9352 25.1679C10.0378 25.6691 4.06176 25.8047 4.06176 25.8047C4.06176 25.8047 3.32769 31.3957 10.2819 30.1777C12.6212 29.7733 17.8408 27.7215 24.7741 29.3887C29.1246 30.416 32.9638 26.2093 35.7806 26.2892C41.733 26.4726 41.0354 22.8928 41.0354 22.8928Z" stroke="#120D24" stroke-width="1.87559" stroke-miterlimit="10" stroke-linecap="round" stroke-linejoin="round"/>
<path d="M27.2505 14.1114C27.1984 13.0812 25.6954 12.5851 23.1505 13.1668C20.9979 13.6492 19.1973 13.7085 19.2494 14.7388C19.3016 15.7691 21.1732 16.4848 23.366 16.3261C25.5636 16.1037 27.3027 15.1417 27.2505 14.1114Z" fill="#120D24"/>
<path d="M13.1022 8.4065C14.7162 8.26921 17.7649 8.79132 17.8406 9.50258C17.9164 10.2138 15.7142 11.4441 10.4777 11.1211" fill="#120D24"/>
<path d="M13.0262 19.0901C13.0049 18.5111 11.6744 18.2845 9.46272 18.6983C7.51564 19.0034 5.90644 19.0769 5.9916 19.6606C6.01295 20.2395 7.65765 20.5536 9.59058 20.4399C11.5235 20.3261 13.0523 19.6052 13.0262 19.0901Z" fill="#120D24"/>
<path d="M9.14014 25.6669C9.23249 27.0209 9.87797 29.5705 10.483 30.0642" stroke="#120D24" stroke-width="1.87559" stroke-miterlimit="10" stroke-linecap="round" stroke-linejoin="round"/>
<path d="M15.3901 23.563C15.5582 25.6282 15.802 28.4047 16.0572 28.4236" stroke="#120D24" stroke-width="1.87559" stroke-miterlimit="10" stroke-linecap="round" stroke-linejoin="round"/>
<path d="M23.0153 23.6775C23.2236 26.0665 22.7112 28.6588 22.1323 28.6802" stroke="#120D24" stroke-width="1.87559" stroke-miterlimit="10" stroke-linecap="round" stroke-linejoin="round"/>
<path d="M30.0737 22.7881C30.6152 25.0092 30.9084 26.2498 30.3982 27.9441" stroke="#120D24" stroke-width="1.87559" stroke-miterlimit="10" stroke-linecap="round" stroke-linejoin="round"/>
<path d="M35.6738 21.6624C35.7709 22.9526 35.8705 25.0769 35.6768 25.9607" stroke="#120D24" stroke-width="1.87559" stroke-miterlimit="10" stroke-linecap="round" stroke-linejoin="round"/>
<path d="M40.7229 18.4469C35.4537 20.3026 34.5602 18.5045 34.4798 17.857C34.4041 17.1458 35.1553 15.6617 39.2245 16.155" fill="#120D24"/>
<path d="M31.0839 9.16706C31.0625 8.58812 31.2121 7.08615 29.0004 7.5C26 7.5 25.6018 8.18442 25.687 8.76808C25.7721 9.35173 27.353 9.66105 29.2859 9.54734C31.2189 9.43363 31.169 9.75071 31.0839 9.16706Z" fill="#120D24"/>
<path d="M4.06671 25.7409C4.06671 25.7409 6.78076 14.2413 12.1021 8.81743C17.4234 3.39352 22.4834 1.82847 26.8014 4.57154C31.1194 7.31462 31.3305 9.42052 36.665 13.4603C41.9995 17.5 41.0403 22.829 41.0403 22.829C41.0403 22.829 36.7323 21.2275 35.2554 21.2466C32.6892 21.2493 27.9376 23.9132 25.3619 24.0435C23.4975 24.0981 19.8417 22.3524 17.9678 22.5346C16.3539 22.6719 13.573 24.7116 11.9402 25.1041C10.0427 25.6054 4.06671 25.7409 4.06671 25.7409Z" stroke="#120D24" stroke-width="1.87559" stroke-miterlimit="10" stroke-linecap="round" stroke-linejoin="round"/>
<path d="M77.1039 34.8621C76.963 35.6207 76.3291 35.9655 75.2021 35.9655C74.4273 35.9655 73.8637 35.6896 73.582 35.2069C73.4411 34.4483 73.3707 33.8276 73.3002 33.2069C73.2298 32.5862 73.1594 31.8965 73.0889 31.2069C73.0185 30.5172 72.948 29.6896 72.8072 28.7241C72.7367 27.8276 72.5254 26.6552 72.3141 25.2758C72.2437 24.7241 72.2437 24.2414 72.2437 23.7586C72.2437 23.2759 72.2436 22.7931 72.1732 22.3103C71.6097 23 71.1166 23.6896 70.6236 24.2414C70.1305 24.8621 69.6374 25.4138 69.0739 25.8965C68.44 26.8621 67.4538 27.8276 66.2564 28.8621H65.9746C65.4111 28.8621 64.8476 28.7241 64.2841 28.4483C63.7206 28.1724 63.3684 27.8965 63.2275 27.6207C62.9457 27.1379 62.5231 26.4483 62.1005 25.6896C61.6074 24.8621 61.0439 23.8965 60.3395 22.8621L59.2829 21.2759C59.142 21.9655 59.0012 22.8621 58.8603 23.9655C58.7194 25.069 58.5081 26.3103 58.3672 27.7586V28.3793C58.3672 28.7931 58.3672 29.2758 58.2968 29.7586C58.2968 30.3103 58.2263 30.8621 58.1559 31.4827L57.8037 35.5517C57.7333 36.3103 57.0993 36.7241 55.8314 36.7241C55.4088 36.7241 55.127 36.7241 54.9157 36.6552C54.7044 36.5862 54.4931 36.5172 54.3522 36.3103C54.2113 36.1034 54.1409 35.8965 54.0704 35.5517C54 35.2069 54 34.7931 54 34.2414C54 32.5862 54 31.7586 54.0704 31.7586V31.8276C54.2113 31.5517 54.2818 31.2069 54.3522 30.7241C54.4226 30.2414 54.4931 29.8276 54.4931 29.3448C54.5635 28.8621 54.5635 28.3103 54.5635 27.6207C54.5635 27.5517 54.5635 27.3448 54.6339 26.931C54.7044 26.5172 54.7748 26.1034 54.8453 25.6207C54.9157 25.1379 54.9861 24.6552 55.0566 24.2414C55.127 23.7586 55.127 23.4827 55.127 23.3448V23.069C55.1975 22.4483 55.2679 21.6896 55.2679 20.931C55.3383 20.1724 55.4088 19.2759 55.5497 18.3793L56.3245 14.8621C56.7471 14.5172 57.4515 14.3103 58.2968 14.3103C58.7194 14.3103 59.142 14.3793 59.4942 14.5862C59.9169 15.2069 60.3395 15.7586 60.7621 16.3793C61.1848 17 61.6074 17.6207 62.1005 18.3103C62.5935 19 63.0866 19.8276 63.6501 20.7931C64.2136 21.6896 64.8476 22.8621 65.6224 24.1724C66.7494 23.1379 67.4538 22.3103 67.7356 21.6896C67.806 21.6896 68.7217 20.5172 70.3418 18.2414L72.1732 15.9655C72.3845 15.8276 72.7367 15.8276 73.0889 15.8276C73.8637 15.8276 74.5681 16.0345 75.2021 16.5172C75.6952 18.7931 75.9769 20.3793 75.9769 21.3448V21.6896C75.9769 21.8276 75.9769 22.1724 76.0473 22.6552C76.1178 23.1379 76.1882 23.6896 76.2587 24.3103C76.3291 24.8621 76.3995 25.4138 76.47 25.9655C76.5404 26.5172 76.6109 26.8621 76.6813 27C76.6813 27.7586 76.6813 28.5862 76.7517 29.4827C76.8222 30.3793 76.8926 31.2069 77.0335 32.1034C77.1039 32.4483 77.1039 32.7241 77.1744 33C77.1744 33.2759 77.2448 33.5517 77.2448 33.7586C77.2448 33.9655 77.2448 34.1724 77.1744 34.3793C77.1039 34.5862 77.1039 34.7241 77.1039 34.8621Z" fill="#120D24"/>
<path d="M88.6558 23.069V23.6207C88.6558 23.7586 88.6558 23.8966 88.6558 24.1035C88.6558 24.2414 88.6558 24.4483 88.5854 24.5862L88.2332 26.4483V26.7931C88.2332 26.931 88.2332 27.2069 88.1627 27.4138C88.1627 27.6897 88.0923 27.9655 88.0923 28.2414C88.0218 28.5172 88.0218 28.7931 88.0218 29C88.0218 29.2759 87.9514 29.4828 87.9514 29.6207C87.9514 29.7586 87.9514 29.8966 87.9514 29.9655C87.9514 30.0345 87.9514 30.1724 87.9514 30.3103C87.9514 30.5862 87.9514 30.7931 87.881 31.1379C87.8105 31.2759 87.8105 31.6207 87.8105 31.9655C87.8105 32.3103 87.881 32.6552 87.9514 33C87.6697 34.2414 87.0357 34.8621 86.0496 34.8621C84.7112 34.8621 84.0068 33.6207 84.0068 31.069C84.0068 30.2414 84.0773 29.4138 84.1477 28.5862C84.2182 27.7586 84.359 27 84.4295 26.3103C84.5703 25.6207 84.6408 25 84.7817 24.4483C84.9225 23.8966 84.993 23.4828 85.0634 23.2069C85.486 22.5862 86.0496 22.3103 86.8244 22.3103C87.5288 22.2414 88.1627 22.5172 88.6558 23.069ZM89.9941 16.2414C90.0646 16.4483 90.0646 16.6552 90.0646 16.8621C90.0646 17.7586 89.7828 18.4483 89.2897 19.069C88.4445 19.4138 87.5992 19.5517 86.7539 19.5517C86.1904 19.2069 85.7678 18.8621 85.4156 18.4483C85.0634 18.0345 84.9225 17.6207 84.9225 17.2069C84.9225 16.8621 85.3452 15.9655 86.1904 14.5862C86.5426 14.6552 86.9653 14.6552 87.3175 14.7241C87.7401 14.7241 88.0923 14.7931 88.4445 14.931C88.7967 15.069 89.0784 15.2069 89.3602 15.4138C89.6419 15.5517 89.8533 15.8276 89.9941 16.2414Z" fill="#120D24"/>
<path d="M111.478 32.2414C111.549 32.4483 111.619 32.7242 111.619 32.931C111.619 33.4828 111.408 33.9655 111.056 34.4483C110.633 34.931 110.281 35.1379 109.858 35.1379C109.647 35.1379 109.365 35 109.013 34.7931C108.661 34.5862 108.238 34.1724 107.604 33.5517C107.182 33 106.9 32.5862 106.688 32.3793C106.477 32.1035 106.266 31.8966 106.055 31.6897C105.843 31.4828 105.632 31.2759 105.35 31C105.068 30.7242 104.716 30.3104 104.153 29.8276L102.673 31.5517C102.11 32.4483 101.617 33.2069 101.265 33.8276C100.913 34.4483 100.56 35 100.279 35.4138C99.9968 35.8276 99.715 36.1035 99.4333 36.3104C99.1515 36.5173 98.8698 36.5862 98.5176 36.5862C98.0245 36.5862 97.5314 36.4483 97.1088 36.1035C96.6862 35.8276 96.4749 35.4138 96.4749 34.931C96.4749 34.7931 96.5453 34.5862 96.6862 34.2414C96.8271 33.8966 97.0384 33.6207 97.1793 33.2759C97.3906 32.931 97.5314 32.6552 97.6723 32.4483C97.8132 32.1724 97.8836 32.0345 97.9541 31.9655C98.3063 31.5517 98.6585 31 99.0107 30.4483C99.3629 29.8966 99.7855 29.2759 100.279 28.6552L101.546 27.069C101.124 26.7931 100.56 26.2414 99.7855 25.4828C99.6446 25.4138 99.3629 25.2069 99.0107 25C98.6585 24.7931 98.2358 24.4483 97.8836 24.1724C97.461 23.8276 97.1793 23.5517 96.8271 23.2069C96.5453 22.8621 96.334 22.5173 96.334 22.2414C96.334 21.6897 96.5453 21.2069 96.8975 20.8621C97.2497 20.5173 97.7428 20.3104 98.2358 20.3104C98.3767 20.3104 98.5176 20.3104 98.588 20.3104C98.6585 20.3104 98.7993 20.3793 98.9402 20.5173C99.0811 20.6552 99.3629 20.7931 99.715 21.069C100.067 21.3448 100.56 21.6897 101.194 22.2414C101.406 22.5173 101.758 22.8621 102.392 23.2759L103.871 24.3104C104.223 23.9655 104.575 23.6207 104.787 23.2759C105.068 22.8621 105.209 22.6552 105.35 22.5173C105.773 22.0345 106.055 21.6207 106.336 21.3448C106.618 21.069 106.829 20.8621 107.041 20.6552C107.252 20.5173 107.393 20.3793 107.534 20.3104C107.675 20.2414 107.816 20.2414 108.027 20.2414C108.52 20.2414 108.943 20.3793 109.295 20.7242C109.647 21.069 109.858 21.4138 109.858 21.8966C109.858 22.1724 109.788 22.4483 109.647 22.7931C109.506 23.1379 109.224 23.4828 108.943 23.8966L107.182 26.0345C107.041 26.1724 106.9 26.3104 106.759 26.4483C106.618 26.5862 106.548 26.6552 106.477 26.7242C106.97 27.2759 107.675 28.0345 108.52 29C109.365 29.9655 110.422 31.1379 111.478 32.2414Z" fill="#120D24"/>
<path d="M125.988 20.0345C126.27 20.3103 126.482 20.7241 126.482 21.4138C126.482 22.5862 125.988 23.2069 125.073 23.2069H124.932C124.509 23.2069 124.016 23.2759 123.453 23.2759C122.889 23.3448 122.255 23.3448 121.551 23.4828C121.48 23.8966 121.41 24.5172 121.41 25.2069C121.339 25.8966 121.339 26.7931 121.339 27.8276C121.339 27.8966 121.339 27.9655 121.339 28.1035C121.339 28.1724 121.339 28.3103 121.339 28.3793V30.2414C121.339 30.6552 121.41 31 121.551 31.2759C121.692 31.5517 121.903 31.6897 122.114 31.8276L123.312 32.1724C124.227 32.4483 124.721 33 124.721 33.8276C124.721 34.3103 124.509 34.7241 124.157 35.069C123.805 35.4138 123.312 35.6207 122.748 35.6207C122.607 35.6207 122.326 35.5517 121.903 35.4828C121.48 35.4138 121.058 35.2759 120.635 35.069C120.212 34.931 119.79 34.7241 119.438 34.4483C119.085 34.1724 118.804 33.8966 118.663 33.6207C118.381 33 118.099 32.3103 117.888 31.6207C117.677 30.931 117.606 30.1724 117.606 29.4138C117.606 28.5862 117.606 27.9655 117.677 27.6207C117.677 27.2759 117.747 26.931 117.747 26.6552C117.747 26.3793 117.818 26.0345 117.818 25.6897C117.818 25.2759 117.888 24.6552 117.888 23.8276C117.324 23.8966 116.55 24.0345 115.563 24.3103C114.93 24.3103 114.436 24.1724 114.014 23.8276C113.591 23.4828 113.38 23.069 113.38 22.5862C113.38 22.1724 113.521 21.8276 113.732 21.5517C113.943 21.2069 114.436 20.931 115.211 20.7241C115.493 20.6552 115.704 20.5862 115.916 20.5862C116.127 20.5862 116.338 20.5172 116.55 20.5172C116.761 20.5172 116.972 20.4483 117.254 20.4483C117.536 20.4483 117.818 20.3793 118.17 20.3793C118.17 19.6897 118.24 18.931 118.311 18.1035C118.381 17.2759 118.522 16.4483 118.663 15.6897C118.874 14.931 119.085 14.3103 119.438 13.8276C119.79 13.3448 120.283 13.069 120.846 13.069C121.833 13.069 122.466 13.5517 122.678 14.4483C122.678 14.4483 122.678 14.6552 122.607 15C122.537 15.3448 122.466 15.6897 122.396 16.1035C122.326 16.5172 122.255 16.931 122.185 17.2759C122.114 17.6207 121.903 17.8276 121.903 17.9655L121.762 19.9655C121.973 19.9655 122.114 19.8966 122.326 19.8966C122.466 19.8966 122.678 19.8966 122.889 19.8966H123.241C123.453 19.8966 123.594 19.8966 123.805 19.8966C123.946 19.8966 124.157 19.8966 124.298 19.8966C125.073 19.8276 125.636 19.8966 125.988 20.0345Z" fill="#120D24"/>
<path d="M140.006 34.4483C139.654 34.7241 139.09 34.931 138.245 35.1379C137.47 35.3448 136.625 35.5517 135.709 35.7586L134.018 35.4138C133.737 35.3448 133.385 35.1379 132.821 34.8621C132.258 34.5862 131.694 34.1034 131.06 33.4828C130.497 32.8621 129.933 32.1034 129.51 31.1379C129.088 30.1724 128.876 29 128.876 27.6207C128.876 27.1379 129.017 26.5862 129.229 25.8965C129.44 25.2069 129.792 24.5862 130.285 24.0345C130.778 23.4828 131.342 22.931 132.046 22.5172C132.751 22.1034 133.596 21.8965 134.512 21.8965C136.413 21.8965 138.104 22.5172 139.654 23.6896C140.992 25.4828 141.626 27.4828 141.626 29.6897C141.696 31.2069 141.133 32.8621 140.006 34.4483ZM137.963 28.6552C137.822 27.6207 137.47 26.7241 136.906 26.1724C136.343 25.6207 135.709 25.2759 134.864 25.2759C134.3 25.2759 133.807 25.5517 133.314 26.1034C132.821 26.6552 132.61 27.4138 132.61 28.3793C132.61 28.7931 132.68 29.2069 132.751 29.6897C132.821 30.1724 133.032 30.5172 133.314 30.931C133.596 31.3448 133.878 31.6207 134.3 31.8276C134.723 32.0345 135.146 32.1724 135.709 32.1724C136.625 32.1724 137.188 31.8965 137.54 31.3448C137.893 30.7931 138.033 30.1724 138.033 29.3448C138.033 29.2069 138.033 29.1379 138.033 29.069C137.963 28.931 137.963 28.7931 137.963 28.6552Z" fill="#120D24"/>
<path d="M158.249 21.5517C158.672 21.8276 158.883 22.3103 158.883 23.1379C158.883 23.6897 158.742 24.1724 158.39 24.5862C158.038 25 157.686 25.2069 157.122 25.2069C156.77 25.2069 156.418 25.1379 156.066 24.931C155.714 24.7241 155.361 24.6552 154.939 24.6552C154.587 24.6552 154.305 24.7241 153.953 24.8621C153.6 25 153.248 25.2759 152.826 25.6897L151.558 26.931C151.558 27.1379 151.558 27.3448 151.558 27.4828C151.558 27.6897 151.558 27.8966 151.558 28.1034C151.558 28.4483 151.558 28.7931 151.558 29.1379C151.558 29.4828 151.558 29.8966 151.487 30.3103L151.839 34.0345C151.769 35.2759 151.135 35.8966 149.867 35.8966C149.233 35.8966 148.74 35.6897 148.458 35.2759C148.177 34.8621 147.965 34.3103 147.824 33.6207C147.683 32.931 147.683 32.1034 147.683 31.1379C147.683 30.1724 147.683 29.1379 147.683 27.9655C147.613 26.2414 147.613 25.4138 147.543 25.4138C147.402 25 147.331 24.6552 147.261 24.3103C147.19 23.9655 147.19 23.6897 147.19 23.4828C147.19 23 147.402 22.5862 147.754 22.3103C148.106 21.9655 148.67 21.8276 149.374 21.8276C149.797 21.8276 150.36 22.1724 150.994 22.8621C151.628 22.3793 152.121 22.0345 152.473 21.7586C152.826 21.4828 153.107 21.3448 153.319 21.2069C153.53 21.069 153.812 21.069 154.023 21C154.234 21 154.516 21 154.868 21C155.15 21 155.432 21 155.714 21.069C155.995 21.1379 156.277 21.2069 156.559 21.2069L158.249 21.5517Z" fill="#120D24"/>
<path d="M176 23.4828C176 24.1034 175.93 24.5172 175.93 24.7241C175.93 25 175.859 25.2069 175.718 25.5517C175.577 25.8965 175.366 26.2414 175.084 26.7931C174.803 27.3448 174.45 28.2414 173.887 29.4138C173.676 30.7241 173.112 31.9655 172.196 33.2069C171.774 34.5172 171.281 35.4828 170.717 36.0345C170.647 36.3103 170.435 36.6552 170.154 37.2069C169.872 37.7586 169.52 38.2414 169.167 38.8621C168.815 39.4138 168.463 40.0345 168.181 40.5862C167.829 41.1379 167.618 41.5517 167.477 41.8965C167.406 42.0345 167.266 42.2414 167.125 42.5862C166.913 42.931 166.702 43.2759 166.42 43.6207C166.139 43.9655 165.857 44.3103 165.505 44.5862C165.152 44.8621 164.8 45 164.448 45C163.955 45 163.462 44.8621 163.039 44.5172C162.617 44.1724 162.405 43.8276 162.405 43.4138C162.405 43.2069 162.476 42.931 162.687 42.5862C162.898 42.2414 163.11 41.8965 163.391 41.4827C163.673 41.069 163.955 40.6552 164.237 40.2414C164.518 39.8276 164.8 39.4138 165.012 39.069C165.082 38.8621 165.223 38.5172 165.505 38.1034C165.716 37.6896 165.998 37.2069 166.209 36.7241C166.491 36.2414 166.702 35.7586 166.984 35.3448C167.195 34.8621 167.406 34.5172 167.477 34.3103C167.406 34.2414 167.266 34.1034 166.984 33.8965C166.773 33.6896 166.491 33.4138 166.279 33.1379C165.998 32.8621 165.716 32.6552 165.434 32.3793C165.152 32.1034 164.871 31.9655 164.659 31.8276C164.378 31.4138 164.096 31.069 163.885 30.7931C163.673 30.5172 163.462 30.3103 163.251 30.1724C163.039 30.0345 162.898 29.8276 162.687 29.6897C162.476 29.5517 162.264 29.2759 162.053 29C161.842 28.7241 161.49 28.3103 161.208 27.8276C160.856 27.3448 160.433 26.6552 160.01 25.8965C160.01 25.8276 159.94 25.6897 159.94 25.5517C159.94 25 160.151 24.5172 160.574 24.1034C160.997 23.6897 161.419 23.4828 161.842 23.4828C162.124 23.4828 162.476 23.6207 162.898 23.8965C163.321 24.1724 163.744 24.7241 164.237 25.4138C164.8 26.2414 165.152 26.8621 165.434 27.2069C165.716 27.6207 165.998 27.8965 166.209 28.1034C166.42 28.3103 166.632 28.5862 166.843 28.7241C167.054 28.931 167.406 29.2759 167.9 29.7586C168.252 29.8965 168.674 30.3103 169.238 30.931L170.717 27C170.999 26.3103 171.351 25.5517 171.633 24.7931C171.985 24.0345 172.196 23.3448 172.267 22.6552C172.901 22.2414 173.464 22.0345 174.098 22.0345C175.225 21.9655 175.859 22.4483 176 23.4828Z" fill="#120D24"/>
</svg>
