<svg width="176" height="71" viewBox="0 0 176 71" fill="none" xmlns="http://www.w3.org/2000/svg">
<path d="M5.29131 67.2323C4.48131 67.2323 3.75631 67.0573 3.11631 66.7073C2.48631 66.3573 1.99131 65.8773 1.63131 65.2673C1.27131 64.6473 1.09131 63.9473 1.09131 63.1673C1.09131 62.3873 1.27131 61.6923 1.63131 61.0823C1.99131 60.4623 2.48631 59.9823 3.11631 59.6423C3.75631 59.2923 4.48131 59.1173 5.29131 59.1173C6.01131 59.1173 6.65131 59.2623 7.21131 59.5523C7.78131 59.8423 8.22131 60.2623 8.53131 60.8123L7.43631 61.5173C7.18631 61.1373 6.87631 60.8523 6.50631 60.6623C6.13631 60.4723 5.72631 60.3773 5.27631 60.3773C4.75631 60.3773 4.28631 60.4923 3.86631 60.7223C3.45631 60.9523 3.13131 61.2823 2.89131 61.7123C2.66131 62.1323 2.54631 62.6173 2.54631 63.1673C2.54631 63.7273 2.66131 64.2223 2.89131 64.6523C3.13131 65.0723 3.45631 65.3973 3.86631 65.6273C4.28631 65.8573 4.75631 65.9723 5.27631 65.9723C5.72631 65.9723 6.13631 65.8773 6.50631 65.6873C6.87631 65.4973 7.18631 65.2123 7.43631 64.8323L8.53131 65.5223C8.22131 66.0723 7.78131 66.4973 7.21131 66.7973C6.65131 67.0873 6.01131 67.2323 5.29131 67.2323Z" fill="white"/>
<path d="M17.2863 59.1923V67.1423H15.8463V60.4523H12.4263L12.3363 62.2223C12.2863 63.2923 12.1913 64.1873 12.0513 64.9073C11.9113 65.6173 11.6813 66.1873 11.3613 66.6173C11.0413 67.0473 10.5963 67.2623 10.0263 67.2623C9.76627 67.2623 9.47127 67.2173 9.14127 67.1273L9.23127 65.9123C9.36127 65.9423 9.48127 65.9573 9.59127 65.9573C9.99127 65.9573 10.2913 65.7823 10.4913 65.4323C10.6913 65.0823 10.8213 64.6673 10.8813 64.1873C10.9413 63.7073 10.9963 63.0223 11.0463 62.1323L11.1813 59.1923H17.2863Z" fill="white"/>
<path d="M27.4656 59.1923L23.6106 67.9373C23.2706 68.7473 22.8706 69.3173 22.4106 69.6473C21.9606 69.9773 21.4156 70.1423 20.7756 70.1423C20.3856 70.1423 20.0056 70.0773 19.6356 69.9473C19.2756 69.8273 18.9756 69.6473 18.7356 69.4073L19.3506 68.3273C19.7606 68.7173 20.2356 68.9123 20.7756 68.9123C21.1256 68.9123 21.4156 68.8173 21.6456 68.6273C21.8856 68.4473 22.1006 68.1323 22.2906 67.6823L22.5456 67.1273L19.0356 59.1923H20.5356L23.3106 65.5523L26.0556 59.1923H27.4656Z" fill="white"/>
<path d="M35.585 59.1923V67.1423H34.145V63.9323C33.285 64.3323 32.43 64.5323 31.58 64.5323C30.59 64.5323 29.825 64.3023 29.285 63.8423C28.745 63.3823 28.475 62.6923 28.475 61.7723V59.1923H29.915V61.6823C29.915 62.2323 30.085 62.6473 30.425 62.9273C30.775 63.2073 31.26 63.3473 31.88 63.3473C32.58 63.3473 33.335 63.1723 34.145 62.8223V59.1923H35.585Z" fill="white"/>
<path d="M41.5156 59.1173C42.6156 59.1173 43.4556 59.3873 44.0356 59.9273C44.6256 60.4673 44.9206 61.2723 44.9206 62.3423V67.1423H43.5556V66.0923C43.3156 66.4623 42.9706 66.7473 42.5206 66.9473C42.0806 67.1373 41.5556 67.2323 40.9456 67.2323C40.0556 67.2323 39.3406 67.0173 38.8006 66.5873C38.2706 66.1573 38.0056 65.5923 38.0056 64.8923C38.0056 64.1923 38.2606 63.6323 38.7706 63.2123C39.2806 62.7823 40.0906 62.5673 41.2006 62.5673H43.4806V62.2823C43.4806 61.6623 43.3006 61.1873 42.9406 60.8573C42.5806 60.5273 42.0506 60.3623 41.3506 60.3623C40.8806 60.3623 40.4206 60.4423 39.9706 60.6023C39.5206 60.7523 39.1406 60.9573 38.8306 61.2173L38.2306 60.1373C38.6406 59.8073 39.1306 59.5573 39.7006 59.3873C40.2706 59.2073 40.8756 59.1173 41.5156 59.1173ZM41.1856 66.1223C41.7356 66.1223 42.2106 66.0023 42.6106 65.7623C43.0106 65.5123 43.3006 65.1623 43.4806 64.7123V63.6023H41.2606C40.0406 63.6023 39.4306 64.0123 39.4306 64.8323C39.4306 65.2323 39.5856 65.5473 39.8956 65.7773C40.2056 66.0073 40.6356 66.1223 41.1856 66.1223Z" fill="white"/>
<path d="M47.8136 59.1923H49.2536V64.9823L54.1286 59.1923H55.4336V67.1423H53.9936V61.3523L49.1336 67.1423H47.8136V59.1923ZM51.5336 58.1573C50.7936 58.1573 50.2186 57.9823 49.8086 57.6323C49.3986 57.2723 49.1886 56.7573 49.1786 56.0873H50.1536C50.1636 56.4573 50.2886 56.7573 50.5286 56.9873C50.7786 57.2073 51.1086 57.3173 51.5186 57.3173C51.9286 57.3173 52.2586 57.2073 52.5086 56.9873C52.7586 56.7573 52.8886 56.4573 52.8986 56.0873H53.9036C53.8936 56.7573 53.6786 57.2723 53.2586 57.6323C52.8386 57.9823 52.2636 58.1573 51.5336 58.1573Z" fill="white"/>
<path d="M58.5286 59.1923H59.9686V62.5673H64.4986V59.1923H65.9386V67.1423H64.4986V63.8123H59.9686V67.1423H58.5286V59.1923Z" fill="white"/>
<path d="M72.4436 67.2323C71.6536 67.2323 70.9436 67.0573 70.3136 66.7073C69.6836 66.3573 69.1886 65.8773 68.8286 65.2673C68.4786 64.6473 68.3036 63.9473 68.3036 63.1673C68.3036 62.3873 68.4786 61.6923 68.8286 61.0823C69.1886 60.4623 69.6836 59.9823 70.3136 59.6423C70.9436 59.2923 71.6536 59.1173 72.4436 59.1173C73.2336 59.1173 73.9386 59.2923 74.5586 59.6423C75.1886 59.9823 75.6786 60.4623 76.0286 61.0823C76.3886 61.6923 76.5686 62.3873 76.5686 63.1673C76.5686 63.9473 76.3886 64.6473 76.0286 65.2673C75.6786 65.8773 75.1886 66.3573 74.5586 66.7073C73.9386 67.0573 73.2336 67.2323 72.4436 67.2323ZM72.4436 65.9723C72.9536 65.9723 73.4086 65.8573 73.8086 65.6273C74.2186 65.3873 74.5386 65.0573 74.7686 64.6373C74.9986 64.2073 75.1136 63.7173 75.1136 63.1673C75.1136 62.6173 74.9986 62.1323 74.7686 61.7123C74.5386 61.2823 74.2186 60.9523 73.8086 60.7223C73.4086 60.4923 72.9536 60.3773 72.4436 60.3773C71.9336 60.3773 71.4736 60.4923 71.0636 60.7223C70.6636 60.9523 70.3436 61.2823 70.1036 61.7123C69.8736 62.1323 69.7586 62.6173 69.7586 63.1673C69.7586 63.7173 69.8736 64.2073 70.1036 64.6373C70.3436 65.0573 70.6636 65.3873 71.0636 65.6273C71.4736 65.8573 71.9336 65.9723 72.4436 65.9723Z" fill="white"/>
<path d="M86.133 63.2123C86.133 63.3223 86.123 63.4673 86.103 63.6473H79.653C79.743 64.3473 80.048 64.9123 80.568 65.3423C81.098 65.7623 81.753 65.9723 82.533 65.9723C83.483 65.9723 84.248 65.6523 84.828 65.0123L85.623 65.9423C85.263 66.3623 84.813 66.6823 84.273 66.9023C83.743 67.1223 83.148 67.2323 82.488 67.2323C81.648 67.2323 80.903 67.0623 80.253 66.7223C79.603 66.3723 79.098 65.8873 78.738 65.2673C78.388 64.6473 78.213 63.9473 78.213 63.1673C78.213 62.3973 78.383 61.7023 78.723 61.0823C79.073 60.4623 79.548 59.9823 80.148 59.6423C80.758 59.2923 81.443 59.1173 82.203 59.1173C82.963 59.1173 83.638 59.2923 84.228 59.6423C84.828 59.9823 85.293 60.4623 85.623 61.0823C85.963 61.7023 86.133 62.4123 86.133 63.2123ZM82.203 60.3323C81.513 60.3323 80.933 60.5423 80.463 60.9623C80.003 61.3823 79.733 61.9323 79.653 62.6123H84.753C84.673 61.9423 84.398 61.3973 83.928 60.9773C83.468 60.5473 82.893 60.3323 82.203 60.3323Z" fill="white"/>
<path d="M96.4603 67.2323C95.6503 67.2323 94.9252 67.0573 94.2852 66.7073C93.6553 66.3573 93.1602 65.8773 92.8002 65.2673C92.4402 64.6473 92.2603 63.9473 92.2603 63.1673C92.2603 62.3873 92.4402 61.6923 92.8002 61.0823C93.1602 60.4623 93.6553 59.9823 94.2852 59.6423C94.9252 59.2923 95.6503 59.1173 96.4603 59.1173C97.1803 59.1173 97.8203 59.2623 98.3802 59.5523C98.9502 59.8423 99.3903 60.2623 99.7003 60.8123L98.6053 61.5173C98.3553 61.1373 98.0452 60.8523 97.6752 60.6623C97.3052 60.4723 96.8952 60.3773 96.4453 60.3773C95.9253 60.3773 95.4552 60.4923 95.0352 60.7223C94.6252 60.9523 94.3003 61.2823 94.0603 61.7123C93.8303 62.1323 93.7153 62.6173 93.7153 63.1673C93.7153 63.7273 93.8303 64.2223 94.0603 64.6523C94.3003 65.0723 94.6252 65.3973 95.0352 65.6273C95.4552 65.8573 95.9253 65.9723 96.4453 65.9723C96.8952 65.9723 97.3052 65.8773 97.6752 65.6873C98.0452 65.4973 98.3553 65.2123 98.6053 64.8323L99.7003 65.5223C99.3903 66.0723 98.9502 66.4973 98.3802 66.7973C97.8203 67.0873 97.1803 67.2323 96.4603 67.2323Z" fill="white"/>
<path d="M108.455 59.1923V67.1423H107.015V60.4523H103.595L103.505 62.2223C103.455 63.2923 103.36 64.1873 103.22 64.9073C103.08 65.6173 102.85 66.1873 102.53 66.6173C102.21 67.0473 101.765 67.2623 101.195 67.2623C100.935 67.2623 100.64 67.2173 100.31 67.1273L100.4 65.9123C100.53 65.9423 100.65 65.9573 100.76 65.9573C101.16 65.9573 101.46 65.7823 101.66 65.4323C101.86 65.0823 101.99 64.6673 102.05 64.1873C102.11 63.7073 102.165 63.0223 102.215 62.1323L102.35 59.1923H108.455Z" fill="white"/>
<path d="M118.635 59.1923L114.78 67.9373C114.44 68.7473 114.04 69.3173 113.58 69.6473C113.13 69.9773 112.585 70.1423 111.945 70.1423C111.555 70.1423 111.175 70.0773 110.805 69.9473C110.445 69.8273 110.145 69.6473 109.905 69.4073L110.52 68.3273C110.93 68.7173 111.405 68.9123 111.945 68.9123C112.295 68.9123 112.585 68.8173 112.815 68.6273C113.055 68.4473 113.27 68.1323 113.46 67.6823L113.715 67.1273L110.205 59.1923H111.705L114.48 65.5523L117.225 59.1923H118.635Z" fill="white"/>
<path d="M126.754 59.1923V67.1423H125.314V63.9323C124.454 64.3323 123.599 64.5323 122.749 64.5323C121.759 64.5323 120.994 64.3023 120.454 63.8423C119.914 63.3823 119.644 62.6923 119.644 61.7723V59.1923H121.084V61.6823C121.084 62.2323 121.254 62.6473 121.594 62.9273C121.944 63.2073 122.429 63.3473 123.049 63.3473C123.749 63.3473 124.504 63.1723 125.314 62.8223V59.1923H126.754Z" fill="white"/>
<path d="M132.685 59.1173C133.785 59.1173 134.625 59.3873 135.205 59.9273C135.795 60.4673 136.09 61.2723 136.09 62.3423V67.1423H134.725V66.0923C134.485 66.4623 134.14 66.7473 133.69 66.9473C133.25 67.1373 132.725 67.2323 132.115 67.2323C131.225 67.2323 130.51 67.0173 129.97 66.5873C129.44 66.1573 129.175 65.5923 129.175 64.8923C129.175 64.1923 129.43 63.6323 129.94 63.2123C130.45 62.7823 131.26 62.5673 132.37 62.5673H134.65V62.2823C134.65 61.6623 134.47 61.1873 134.11 60.8573C133.75 60.5273 133.22 60.3623 132.52 60.3623C132.05 60.3623 131.59 60.4423 131.14 60.6023C130.69 60.7523 130.31 60.9573 130 61.2173L129.4 60.1373C129.81 59.8073 130.3 59.5573 130.87 59.3873C131.44 59.2073 132.045 59.1173 132.685 59.1173ZM132.355 66.1223C132.905 66.1223 133.38 66.0023 133.78 65.7623C134.18 65.5123 134.47 65.1623 134.65 64.7123V63.6023H132.43C131.21 63.6023 130.6 64.0123 130.6 64.8323C130.6 65.2323 130.755 65.5473 131.065 65.7773C131.375 66.0073 131.805 66.1223 132.355 66.1223Z" fill="white"/>
<path d="M146.168 63.2123C146.168 63.3223 146.158 63.4673 146.138 63.6473H139.688C139.778 64.3473 140.083 64.9123 140.603 65.3423C141.133 65.7623 141.788 65.9723 142.568 65.9723C143.518 65.9723 144.283 65.6523 144.863 65.0123L145.658 65.9423C145.298 66.3623 144.848 66.6823 144.308 66.9023C143.778 67.1223 143.183 67.2323 142.523 67.2323C141.683 67.2323 140.938 67.0623 140.288 66.7223C139.638 66.3723 139.133 65.8873 138.773 65.2673C138.423 64.6473 138.248 63.9473 138.248 63.1673C138.248 62.3973 138.418 61.7023 138.758 61.0823C139.108 60.4623 139.583 59.9823 140.183 59.6423C140.793 59.2923 141.478 59.1173 142.238 59.1173C142.998 59.1173 143.673 59.2923 144.263 59.6423C144.863 59.9823 145.328 60.4623 145.658 61.0823C145.998 61.7023 146.168 62.4123 146.168 63.2123ZM142.238 60.3323C141.548 60.3323 140.968 60.5423 140.498 60.9623C140.038 61.3823 139.768 61.9323 139.688 62.6123H144.788C144.708 61.9423 144.433 61.3973 143.963 60.9773C143.503 60.5473 142.928 60.3323 142.238 60.3323Z" fill="white"/>
<path d="M154.29 60.4523H151.38V67.1423H149.94V60.4523H147.03V59.1923H154.29V60.4523Z" fill="white"/>
<path d="M159.176 67.2323C158.366 67.2323 157.641 67.0573 157.001 66.7073C156.37 66.3573 155.876 65.8773 155.516 65.2673C155.156 64.6473 154.976 63.9473 154.976 63.1673C154.976 62.3873 155.156 61.6923 155.516 61.0823C155.876 60.4623 156.37 59.9823 157.001 59.6423C157.641 59.2923 158.366 59.1173 159.176 59.1173C159.896 59.1173 160.536 59.2623 161.096 59.5523C161.666 59.8423 162.106 60.2623 162.416 60.8123L161.321 61.5173C161.071 61.1373 160.76 60.8523 160.391 60.6623C160.021 60.4723 159.611 60.3773 159.161 60.3773C158.641 60.3773 158.171 60.4923 157.751 60.7223C157.34 60.9523 157.016 61.2823 156.776 61.7123C156.546 62.1323 156.431 62.6173 156.431 63.1673C156.431 63.7273 156.546 64.2223 156.776 64.6523C157.016 65.0723 157.34 65.3973 157.751 65.6273C158.171 65.8573 158.641 65.9723 159.161 65.9723C159.611 65.9723 160.021 65.8773 160.391 65.6873C160.76 65.4973 161.071 65.2123 161.321 64.8323L162.416 65.5223C162.106 66.0723 161.666 66.4973 161.096 66.7973C160.536 67.0873 159.896 67.2323 159.176 67.2323Z" fill="white"/>
<path d="M170.706 59.1923V67.1423H169.416V64.6223H167.106H166.941L165.201 67.1423H163.656L165.591 64.4273C164.991 64.2473 164.531 63.9523 164.211 63.5423C163.891 63.1223 163.731 62.6023 163.731 61.9823C163.731 61.0723 164.041 60.3823 164.661 59.9123C165.281 59.4323 166.136 59.1923 167.226 59.1923H170.706ZM165.201 62.0273C165.201 62.5573 165.366 62.9523 165.696 63.2123C166.036 63.4623 166.541 63.5873 167.211 63.5873H169.416V60.4523H167.271C165.891 60.4523 165.201 60.9773 165.201 62.0273Z" fill="white"/>
<path d="M32.927 32.0949C32.7289 32.8874 32.0553 33.2836 30.9062 33.2836C30.1534 33.2836 29.6383 33.0261 29.3609 32.511C29.1232 31.243 28.9053 29.8958 28.7071 28.4694C28.5487 27.043 28.4298 25.4976 28.3505 23.8335C28.3505 23.2391 28.3109 22.625 28.2317 21.991C28.192 21.357 28.1128 20.5843 27.9939 19.673C27.8751 18.722 27.7364 17.5532 27.5779 16.1663C27.4194 14.7399 27.2609 12.937 27.1024 10.7577L24.9627 13.7889C24.3684 14.621 23.7344 15.3937 23.0608 16.1069C22.3872 16.7805 21.7136 17.4541 21.04 18.1277C20.406 19.3164 19.1183 20.7627 17.1767 22.4665C17.0975 22.4665 17.0381 22.4863 16.9984 22.5259C16.9984 22.5259 16.9588 22.5259 16.8796 22.5259C15.9682 22.5259 15.1956 22.2485 14.5616 21.6938C13.9276 21.1391 13.254 20.307 12.5408 19.1975C11.8672 18.0881 11.0549 16.7013 10.104 15.0371C9.19263 13.3729 7.98411 11.4313 6.47842 9.21244C6.47842 9.25206 6.4388 9.52942 6.35955 10.0445C6.28031 10.5596 6.18125 11.2134 6.06238 12.0059C5.94351 12.7984 5.82464 13.6701 5.70577 14.621C5.5869 15.5324 5.44822 16.4437 5.28972 17.355C5.17085 18.2664 5.05198 19.0985 4.93311 19.8513C4.85386 20.6042 4.79443 21.1787 4.75481 21.5749V22.5259C4.79443 23.1202 4.77462 23.8137 4.69537 24.6061C4.61612 25.3986 4.53688 26.2901 4.45763 27.2807L3.86328 33.4025C3.78403 34.195 3.15006 34.5912 1.96136 34.5912C1.12927 34.5912 0.594351 34.4129 0.35661 34.0563C0.11887 33.6997 0 33.0063 0 31.9761C0 30.827 0.0198124 29.9157 0.0594358 29.2421C0.099059 28.5685 0.138682 28.0534 0.178306 27.6967C0.217929 27.3401 0.257553 27.0826 0.297176 26.9241C0.376423 26.7656 0.435858 26.6071 0.475481 26.4486C0.515104 26.2901 0.554728 26.092 0.594351 25.8543C0.673598 25.5769 0.713222 25.1608 0.713222 24.6061C0.752845 23.3382 0.772656 22.4665 0.772656 21.991C0.81228 21.4759 0.832091 21.0796 0.832091 20.8023C0.871715 20.5249 0.931149 20.2079 1.0104 19.8513C1.08964 19.4551 1.20851 18.7419 1.36701 17.7117C1.48588 17.0381 1.56512 16.4635 1.60475 15.988C1.64437 15.5126 1.66418 15.1361 1.66418 14.8588V14.4427C1.70381 13.6503 1.76324 12.8578 1.84249 12.0653C1.92173 11.2332 2.02079 10.3615 2.13966 9.45017C2.25853 8.49921 2.39722 7.46901 2.55571 6.35955C2.75383 5.21047 3.01138 3.92271 3.32836 2.49627C3.7246 2.10004 4.41801 1.90192 5.40859 1.90192C5.9237 1.90192 6.31993 1.98117 6.59729 2.13966C7.31052 3.13025 8.00392 4.10102 8.67752 5.05198C9.35112 6.00294 10.0643 7.07277 10.8172 8.26147C11.6097 9.45018 12.4417 10.7974 13.3135 12.3031C14.1852 13.8087 15.1559 15.5918 16.2258 17.6522L18.306 15.6314C19.3758 14.5616 20.0692 13.6701 20.3862 12.9568C20.4655 12.8776 20.8221 12.4021 21.4561 11.5304C22.1297 10.6587 23.0806 9.37093 24.3089 7.66712L26.8647 4.3982C27.142 4.2397 27.459 4.16045 27.8156 4.16045C28.6477 4.16045 29.4006 4.45763 30.0742 5.05198C30.7874 7.98411 31.144 10.203 31.144 11.7087V12.3031C31.144 12.5012 31.1836 12.9965 31.2629 13.7889C31.3421 14.5418 31.4412 15.3739 31.56 16.2852C31.6789 17.1965 31.7978 18.0683 31.9166 18.9004C32.0355 19.7324 32.1346 20.2872 32.2138 20.5645C32.2138 21.674 32.2732 22.8825 32.3921 24.1901C32.511 25.458 32.6695 26.825 32.8676 28.2911C32.9468 28.7666 33.0063 29.2222 33.0459 29.6581C33.0855 30.0543 33.1053 30.4109 33.1053 30.7279C33.1053 31.2827 33.0459 31.7383 32.927 32.0949Z" fill="white"/>
<path d="M49.4449 5.58689C49.4449 6.26049 49.326 6.81522 49.0883 7.25108C48.8901 7.64731 48.6128 7.94449 48.2562 8.1426C47.8996 8.34072 47.5033 8.4794 47.0675 8.55865C46.6712 8.59827 46.275 8.61808 45.8788 8.61808C45.324 8.22185 44.8486 7.786 44.4523 7.31051C44.0957 6.79541 43.9174 6.30012 43.9174 5.82464C43.9174 5.46803 44.0759 5.07179 44.3929 4.63593C44.7099 4.16045 44.9872 3.70478 45.225 3.26893L47.959 3.50667C48.9496 3.74441 49.4449 4.43782 49.4449 5.58689ZM47.4241 14.205V14.4427C47.4241 14.7993 47.3646 15.3937 47.2458 16.2258C47.1665 17.0182 47.0278 18.0683 46.8297 19.3758C46.8694 19.5739 46.8892 19.8513 46.8892 20.2079C46.8892 20.4457 46.8099 20.9806 46.6514 21.8127C46.4929 22.6448 46.4137 23.358 46.4137 23.9523C46.4137 24.0712 46.4137 24.1901 46.4137 24.3089C46.4533 24.4278 46.4731 24.5269 46.4731 24.6061C46.3543 25.1608 46.2948 25.9533 46.2948 26.9835C46.2948 27.4194 46.2948 27.8949 46.2948 28.41C46.3344 28.8854 46.3741 29.4006 46.4137 29.9553C46.0967 31.1044 45.4825 31.6789 44.5712 31.6789C43.7787 31.6789 43.224 31.2628 42.907 30.4308C42.6297 29.559 42.491 28.4298 42.491 27.043C42.491 25.6561 42.5306 24.3882 42.6098 23.2391C42.7287 22.09 42.8674 21.0202 43.0259 20.0296C43.1844 18.9994 43.3429 18.0286 43.5014 17.1173C43.6995 16.1663 43.8778 15.2352 44.0363 14.3239C44.4325 13.7295 44.9872 13.4323 45.7005 13.4323C46.4533 13.4323 47.0279 13.6899 47.4241 14.205Z" fill="white"/>
<path d="M79.0017 28.8854C79.1206 29.1232 79.1801 29.3609 79.1801 29.5987C79.1801 30.193 78.9819 30.7477 78.5857 31.2628C78.1895 31.7383 77.7734 31.9761 77.3376 31.9761C76.9017 31.9761 75.9111 31.2628 74.3658 29.8364C73.7715 28.9251 73.2564 28.2515 72.8205 27.8156C72.3846 27.3401 71.9488 26.9043 71.5129 26.508C71.1167 26.1118 70.6808 25.676 70.2054 25.2005C69.7299 24.6854 69.1157 23.9325 68.3629 22.9419L65.3911 26.6269C64.8364 27.5382 64.3609 28.2911 63.9647 28.8854C63.6081 29.4798 63.2713 30.0345 62.9543 30.5496C62.6769 31.0647 62.3797 31.5798 62.0628 32.0949C61.7458 32.5704 61.3495 33.145 60.8741 33.8186C60.5967 34.0959 60.2005 34.2346 59.6854 34.2346C59.1306 34.2346 58.6353 34.0761 58.1995 33.7591C57.8032 33.4818 57.6051 33.1053 57.6051 32.6299C57.6051 32.4317 57.6844 32.1742 57.8429 31.8572C58.041 31.5006 58.2589 31.144 58.4967 30.7874C58.7344 30.3911 58.9721 29.9949 59.2099 29.5987C59.4476 29.2024 59.6259 28.826 59.7448 28.4694C60.141 27.8354 60.5174 27.2807 60.8741 26.8052C61.2307 26.2901 61.6269 25.7552 62.0628 25.2005C62.4986 24.6061 63.0137 23.9325 63.6081 23.1797C64.2024 22.3872 64.9156 21.4164 65.7477 20.2674C65.3119 19.99 64.9553 19.7324 64.6779 19.4947C64.4005 19.2173 64.0637 18.9004 63.6675 18.5437C63.2713 18.1871 62.776 17.7711 62.1816 17.2956C61.5873 16.7805 60.7552 16.1663 59.6854 15.4531C58.8929 14.8984 58.3183 14.4625 57.9617 14.1455C57.6447 13.7889 57.4863 13.3729 57.4863 12.8974C57.4863 11.5502 58.1202 10.8766 59.3882 10.8766C59.7448 10.8766 60.0618 10.9559 60.3391 11.1144L63.4892 13.5512C63.6477 13.7889 63.9647 14.1257 64.4402 14.5616C64.9553 14.9578 65.4704 15.3541 65.9855 15.7503C66.5402 16.1465 67.0157 16.5031 67.4119 16.8201C67.8478 17.0975 68.0855 17.256 68.1251 17.2956C68.6402 16.8994 69.0761 16.5031 69.4327 16.1069C69.8289 15.671 70.1459 15.2946 70.3837 14.9776C70.661 14.6607 70.8591 14.4031 70.978 14.205C71.0969 14.0069 71.1563 13.9276 71.1563 13.9672C71.9488 12.8182 72.5828 12.0059 73.0582 11.5304C73.5733 11.0153 74.0488 10.7577 74.4847 10.7577C75.7526 10.7577 76.3866 11.3125 76.3866 12.4219C76.3866 13.0163 75.9507 13.8682 75.079 14.9776L72.5233 18.1871L70.8591 19.9702C71.6516 21.04 73.0186 22.5457 74.9602 24.4872L79.0017 28.8854Z" fill="white"/>
<path d="M100.979 10.7577C101.296 10.9955 101.455 11.4512 101.455 12.1248C101.455 13.3135 100.959 13.9078 99.9689 13.9078H99.7311C99.7311 13.9078 99.434 13.9474 98.8396 14.0267C98.2849 14.0663 97.6509 14.1257 96.9377 14.205C96.2245 14.2842 95.531 14.3833 94.8574 14.5022C94.2235 14.5814 93.8471 14.6607 93.7282 14.7399V15.3342C93.7282 15.7701 93.6886 16.3645 93.6093 17.1173C93.5301 17.8305 93.4904 18.4843 93.4904 19.0787C93.4904 19.2768 93.4904 19.4749 93.4904 19.673C93.5301 19.8711 93.5697 20.0692 93.6093 20.2674C93.4508 20.7428 93.3716 21.5353 93.3716 22.6448C93.4112 24.1505 93.4508 25.2797 93.4904 26.0326C93.5301 26.7458 93.6489 27.2807 93.8471 27.6373C94.0452 27.9939 94.382 28.2713 94.8574 28.4694C95.3329 28.6675 96.0263 28.9647 96.9377 29.3609C97.8886 29.6779 98.3641 30.2326 98.3641 31.0251C98.3641 31.5402 98.166 31.9761 97.7698 32.3327C97.4132 32.6893 96.9377 32.8676 96.3433 32.8676C96.066 32.8676 95.6499 32.8082 95.0952 32.6893C94.5405 32.5704 93.9659 32.4119 93.3716 32.2138C92.8168 31.9761 92.3017 31.7185 91.8263 31.4412C91.3508 31.1242 91.0338 30.7874 90.8753 30.4308C90.3998 29.4005 90.0234 28.41 89.746 27.459C89.4687 26.4684 89.33 25.4382 89.33 24.3684C89.33 23.2589 89.3498 22.4268 89.3894 21.8721C89.429 21.3174 89.4687 20.8815 89.5083 20.5645C89.5479 20.2475 89.5875 19.9702 89.6272 19.7324C89.6668 19.4551 89.6866 19.0787 89.6866 18.6032C89.6866 18.2862 89.6668 17.9692 89.6272 17.6522C89.6272 17.2956 89.6272 16.9588 89.6272 16.6418C89.6272 16.206 89.6272 15.8494 89.6272 15.572C89.6668 15.255 89.7064 14.9974 89.746 14.7993C88.6762 14.8786 87.0913 15.1956 84.9912 15.7503C84.3573 15.7503 83.8025 15.5918 83.327 15.2748C82.8516 14.9578 82.6138 14.5022 82.6138 13.9078C82.6138 13.7493 82.6733 13.5314 82.7921 13.254C82.911 12.9767 83.1091 12.7191 83.3865 12.4814C83.7035 12.204 84.1195 11.9861 84.6346 11.8276C85.1893 11.6295 85.8629 11.5304 86.6554 11.5304H87.012C87.8837 11.5304 88.8941 11.3521 90.0432 10.9955C90.0432 10.9559 90.0432 10.7974 90.0432 10.52C90.0828 10.203 90.1026 9.86622 90.1026 9.50961C90.1423 9.11338 90.1621 8.73695 90.1621 8.38034C90.2017 8.02373 90.2215 7.76618 90.2215 7.60769V7.31051C90.2611 6.87466 90.3404 6.26049 90.4593 5.46803C90.5781 4.63593 90.7564 3.82366 90.9942 3.03119C91.2319 2.1991 91.5291 1.48588 91.8857 0.891525C92.2819 0.297175 92.7574 0 93.3121 0C94.382 0 95.0358 0.47548 95.2735 1.42644C95.2735 1.50569 95.2141 1.78305 95.0952 2.25853C95.0159 2.73401 94.9169 3.26893 94.798 3.86328C94.6791 4.45763 94.5603 5.03217 94.4414 5.58689C94.3225 6.14162 94.2631 6.49823 94.2631 6.65673C94.2631 6.73597 94.2433 6.9539 94.2037 7.31051C94.164 7.66713 94.1244 8.06336 94.0848 8.49922C94.0848 8.93507 94.065 9.37093 94.0254 9.80679C93.9857 10.2426 93.9659 10.5596 93.9659 10.7577C93.8867 10.7577 94.4216 10.6983 95.5707 10.5794C95.7688 10.5794 95.9471 10.5794 96.1056 10.5794C96.3037 10.5398 96.482 10.52 96.6405 10.52C96.7594 10.52 96.8584 10.5398 96.9377 10.5794C97.0169 10.5794 97.0962 10.5794 97.1754 10.5794C97.532 10.5398 97.8688 10.52 98.1858 10.52C98.5028 10.4804 98.8 10.4606 99.0773 10.4606C99.9491 10.4606 100.583 10.5596 100.979 10.7577Z" fill="white"/>
<path d="M121.941 31.3223C121.188 31.8374 119.187 32.4317 115.938 33.1053L113.442 32.6299C113.125 32.511 112.55 32.2138 111.718 31.7383C110.926 31.2628 110.093 30.5694 109.222 29.6581C108.39 28.7468 107.637 27.5977 106.963 26.2109C106.329 24.824 106.012 23.1797 106.012 21.2778C106.012 19.7324 106.448 18.3654 107.32 17.1767C108.191 15.9484 109.519 14.6408 111.302 13.254C112.253 13.0163 113.184 12.8974 114.095 12.8974C116.75 12.8974 119.187 13.7889 121.406 15.572C123.308 18.1871 124.259 21.0598 124.259 24.1901C124.259 26.6467 123.486 29.0241 121.941 31.3223ZM116.532 16.8201C115.938 16.5428 115.304 16.4041 114.63 16.4041C114.155 16.4041 113.64 16.5229 113.085 16.7607C112.57 16.9984 112.075 17.355 111.599 17.8305C111.163 18.306 110.807 18.9202 110.529 19.673C110.252 20.3862 110.113 21.2381 110.113 22.2287C110.113 23.0212 110.212 23.8137 110.41 24.6061C110.648 25.3986 110.985 26.1316 111.421 26.8052C111.896 27.4788 112.491 28.0335 113.204 28.4694C113.917 28.8656 114.769 29.0638 115.76 29.0638C116.671 29.0638 117.701 28.826 118.85 28.3505C119.841 27.1222 120.336 25.6561 120.336 23.9523C120.336 20.1881 119.068 17.8107 116.532 16.8201Z" fill="white"/>
<path d="M148.085 12.4814C148.56 12.7984 148.798 13.3531 148.798 14.1455C148.798 15.6909 148.164 16.4635 146.896 16.4635C146.302 16.4635 145.707 16.3248 145.113 16.0475C144.519 15.7701 143.944 15.6314 143.389 15.6314C142.755 15.6314 142.141 15.7503 141.547 15.988C140.992 16.2258 140.358 16.7013 139.645 17.4145L137.446 19.5541V20.8023C137.446 21.3966 137.426 22.0702 137.387 22.8231C137.387 23.5363 137.367 24.3089 137.327 25.141C137.367 26.6071 137.545 28.5883 137.862 31.0845C137.743 32.511 137.03 33.2242 135.722 33.2242C135.009 33.2242 134.494 33.0459 134.177 32.6893C133.9 32.2931 133.702 31.778 133.583 31.144C133.464 30.51 133.404 29.7968 133.404 29.0043C133.404 28.2118 133.365 27.3996 133.285 26.5675C133.325 26.3694 133.345 26.1316 133.345 25.8543C133.345 25.5769 133.345 25.2797 133.345 24.9627V24.0118L132.988 19.673C132.949 19.4749 132.929 19.2966 132.929 19.1381C132.929 18.9796 132.929 18.8211 132.929 18.6626C132.929 18.3456 132.968 17.989 133.048 17.5928C132.652 16.1663 132.453 15.1163 132.453 14.4427C132.453 13.888 132.612 13.4918 132.929 13.254C133.246 12.9767 133.82 12.838 134.652 12.838C135.207 12.838 135.643 13.0361 135.96 13.4323C136.277 13.7889 136.673 14.2446 137.149 14.7993L139.764 12.8974C140.438 12.3823 141.052 12.0455 141.606 11.887C142.201 11.7285 142.775 11.6493 143.33 11.6493C144.162 11.6493 145.034 11.7483 145.945 11.9464L148.085 12.4814Z" fill="white"/>
<path d="M175.534 14.5616C175.494 15.3541 175.395 16.0673 175.237 16.7013C175.078 17.2956 174.841 17.9098 174.524 18.5437C174.246 19.1777 173.91 19.8711 173.513 20.624C173.157 21.3372 172.76 22.2287 172.325 23.2985C172.087 24.8439 171.631 26.2703 170.958 27.5779C170.324 28.8854 169.61 30.1336 168.818 31.3223C168.065 32.511 167.312 33.6601 166.559 34.7695C165.807 35.9186 165.232 37.0875 164.836 38.2762C164.202 39.1479 163.706 39.9007 163.35 40.5347C162.993 41.2083 162.656 41.8423 162.339 42.4366C162.022 43.031 161.646 43.6253 161.21 44.2197C160.774 44.8537 160.14 45.5867 159.308 46.4188C159.071 46.498 158.833 46.5377 158.595 46.5377C158.08 46.5377 157.585 46.3792 157.109 46.0622C156.673 45.7848 156.455 45.4282 156.455 44.9924C156.455 44.7546 156.535 44.5367 156.693 44.3386L160.556 38.5734C160.675 38.2168 160.913 37.7017 161.27 37.0281C161.626 36.3545 162.022 35.6214 162.458 34.829C162.894 34.0365 163.31 33.2638 163.706 32.511C164.103 31.7185 164.36 31.0845 164.479 30.6091C164.202 30.4506 163.865 30.193 163.469 29.8364C163.072 29.4402 162.656 29.0439 162.221 28.6477C161.785 28.2118 161.349 27.8156 160.913 27.459C160.517 27.0628 160.14 26.7854 159.784 26.6269C159.071 25.6363 158.496 24.9627 158.06 24.6061C157.664 24.2099 157.248 23.8137 156.812 23.4174C156.376 23.0212 155.861 22.4466 155.267 21.6938C154.712 20.9013 153.9 19.6136 152.83 17.8305C152.79 17.7513 152.77 17.6324 152.77 17.4739C152.77 16.9588 152.949 16.4635 153.305 15.988C153.702 15.5126 154.177 15.2748 154.732 15.2748C155.128 15.2748 155.623 15.572 156.218 16.1663C156.812 16.7607 157.387 17.4343 157.941 18.1871C158.536 18.9004 159.071 19.5938 159.546 20.2674C160.021 20.9013 160.319 21.2976 160.438 21.4561C160.675 21.6938 161.032 22.09 161.507 22.6448C162.022 23.1995 162.577 23.774 163.172 24.3684C163.766 24.9627 164.34 25.5175 164.895 26.0326C165.49 26.5477 165.965 26.8845 166.322 27.043C166.639 26.6467 167.055 25.775 167.57 24.4278C168.124 23.041 168.699 21.6146 169.293 20.1485C169.729 19.039 170.205 17.9296 170.72 16.8201C171.275 15.671 171.592 14.6408 171.671 13.7295C172.344 13.2936 172.998 13.0757 173.632 13.0757C174.742 13.0757 175.376 13.571 175.534 14.5616Z" fill="white"/>
</svg>
