<svg width="397" height="208" viewBox="0 0 397 208" fill="none" xmlns="http://www.w3.org/2000/svg">
<path d="M204.5 195C200.5 189 195.5 186 189 184" stroke="#FFC700" stroke-width="2" stroke-linecap="round" stroke-linejoin="round"/>
<path d="M97.25 206.5C94.25 204 94.25 197.5 97.25 195" stroke="#22C06B" stroke-width="2" stroke-linecap="round" stroke-linejoin="round"/>
<path d="M8 32C9.96103 33.9132 11.84 35.4572 14 37" stroke="#22C06B" stroke-width="2" stroke-linecap="round" stroke-linejoin="round"/>
<path d="M354 106C355.961 107.913 357.84 109.457 360 111" stroke="#FFC700" stroke-width="2" stroke-linecap="round" stroke-linejoin="round"/>
<path d="M389.25 52.5C384.5 50 386 43.5 391 44.5" stroke="#22C06B" stroke-width="2" stroke-linecap="round" stroke-linejoin="round"/>
<path d="M3.03396 166.325C7.8574 163.969 12.2154 169.02 8.45448 172.463" stroke="#FFC700" stroke-width="2" stroke-linecap="round" stroke-linejoin="round"/>
<path d="M207.25 12.5C204.25 10 204.25 3.5 207.25 1" stroke="#FFC700" stroke-width="2" stroke-linecap="round" stroke-linejoin="round"/>
<path d="M131 30C132.333 32.6667 133.667 35.3333 135 38" stroke="#DF7E7E" stroke-width="2" stroke-linecap="round" stroke-linejoin="round"/>
<path d="M266 31.9611C277.5 28 272.5 43 285.707 40.7854" stroke="#DF7E7E" stroke-width="2" stroke-linecap="round" stroke-linejoin="round"/>
<path d="M45.1741 117.337C46.968 114.886 45.5078 110.457 47 108C48.2192 105.993 52.4344 105.967 53.5 103.898C54.7326 101.504 51.4107 97.0519 52.5 94.5C53.3933 92.4075 58.7158 92.2482 59.5535 89.9999" stroke="#DF7E7E" stroke-width="2" stroke-linecap="round" stroke-linejoin="round"/>
<path d="M372.106 174C373.85 176.486 378.514 176.528 380.361 178.73C381.869 180.53 380.538 184.53 382.155 186.204C384.026 188.141 389.31 186.426 391.376 188.278C393.07 189.797 391.51 194.888 393.37 196.404" stroke="#DF7E7E" stroke-width="2" stroke-linecap="round" stroke-linejoin="round"/>
<path d="M289.523 200.307C290.775 189.942 301.54 190.277 301.475 180.429" stroke="#22C06B" stroke-width="2" stroke-linecap="round" stroke-linejoin="round"/>
</svg>
