<svg width="761" height="215" viewBox="0 0 761 215" fill="none" xmlns="http://www.w3.org/2000/svg">
<path d="M650.25 18.5C647.25 16 647.25 9.5 650.25 7" stroke="white" stroke-width="2" stroke-linecap="round" stroke-linejoin="round"/>
<path d="M711 48C697.5 48 695.5 66 683 66" stroke="white" stroke-width="2" stroke-linecap="round" stroke-linejoin="round"/>
<path d="M200.19 1C196.898 4.41486 194.976 9.37018 194.171 14.3051" stroke="white" stroke-width="2" stroke-linecap="round" stroke-linejoin="round"/>
<path d="M15.8405 90C9.20006 94.0192 4.63502 104.989 4.7581 110.939" stroke="white" stroke-width="2" stroke-linecap="round" stroke-linejoin="round"/>
<path d="M752 25C755.214 33.876 757.728 42.7834 759.5 52" stroke="white" stroke-width="2" stroke-linecap="round" stroke-linejoin="round"/>
<path d="M28.1301 193.896C24.4534 188.754 19.1141 186.153 12.9474 185.681" stroke="white" stroke-width="2" stroke-linecap="round" stroke-linejoin="round"/>
<path d="M660.186 126C665.714 127.57 670.76 137.321 676.277 138.888" stroke="white" stroke-width="2" stroke-linecap="round" stroke-linejoin="round"/>
<path d="M310 194C313.773 196.797 319.801 203.602 322 208" stroke="white" stroke-width="2" stroke-linecap="round" stroke-linejoin="round"/>
<path d="M175 194C176.961 195.913 178.84 197.457 181 199" stroke="white" stroke-width="2" stroke-linecap="round" stroke-linejoin="round"/>
<path d="M404 181C405.961 182.913 407.84 184.457 410 186" stroke="white" stroke-width="2" stroke-linecap="round" stroke-linejoin="round"/>
<path d="M611 209C604.471 211.535 598.74 212.704 592 214" stroke="white" stroke-width="2" stroke-linecap="round" stroke-linejoin="round"/>
<path d="M721.663 168.202C735.329 170.893 743.731 179.134 747.777 190.541" stroke="white" stroke-width="2" stroke-linecap="round" stroke-linejoin="round"/>
<path d="M21.6467 21.1069C24.7659 11.0685 34.7611 21.6206 36.8353 11.9797" stroke="white" stroke-width="2" stroke-linecap="round" stroke-linejoin="round"/>
<path d="M348.761 14.2508C343.311 16.7607 343.143 8.03012 337.239 10.7493" stroke="white" stroke-width="2" stroke-linecap="round" stroke-linejoin="round"/>
</svg>
