<svg width="560" height="291" viewBox="0 0 560 291" fill="none" xmlns="http://www.w3.org/2000/svg">
<path fill-rule="evenodd" clip-rule="evenodd" d="M10 0C4.47715 0 0 4.47715 0 9.99999V232C0 237.523 4.47715 242 9.99999 242H86V265.188C86 269.45 90.9908 271.758 94.2383 268.997L126 242H530C535.523 242 540 237.523 540 232V10C540 4.47715 535.523 0 530 0H10Z" fill="#FFE8E8"/>
<mask id="path-2-inside-1" fill="white">
<path fill-rule="evenodd" clip-rule="evenodd" d="M30 20C24.4772 20 20 24.4771 20 30V252C20 257.523 24.4771 262 30 262H106V285.188C106 289.45 110.991 291.758 114.238 288.997L146 262H550C555.523 262 560 257.523 560 252V30C560 24.4772 555.523 20 550 20H30Z"/>
</mask>
<path d="M106 262H108V260H106V262ZM114.238 288.997L115.534 290.521L115.534 290.521L114.238 288.997ZM146 262V260H145.265L144.705 260.476L146 262ZM22 30C22 25.5817 25.5817 22 30 22V18C23.3726 18 18 23.3726 18 30H22ZM22 252V30H18V252H22ZM30 260C25.5817 260 22 256.418 22 252H18C18 258.627 23.3726 264 30 264V260ZM106 260H30V264H106V260ZM108 285.188V262H104V285.188H108ZM112.943 287.474C110.994 289.13 108 287.745 108 285.188H104C104 291.155 110.987 294.386 115.534 290.521L112.943 287.474ZM144.705 260.476L112.943 287.474L115.534 290.521L147.295 263.524L144.705 260.476ZM550 260H146V264H550V260ZM558 252C558 256.418 554.418 260 550 260V264C556.627 264 562 258.627 562 252H558ZM558 30V252H562V30H558ZM550 22C554.418 22 558 25.5817 558 30H562C562 23.3726 556.627 18 550 18V22ZM30 22H550V18H30V22Z" fill="#120D24" mask="url(#path-2-inside-1)"/>
</svg>
