<svg width="560" height="291" viewBox="0 0 560 291" fill="none" xmlns="http://www.w3.org/2000/svg">
<path fill-rule="evenodd" clip-rule="evenodd" d="M530 0C535.523 0 540 4.47715 540 9.99999V232C540 237.523 535.523 242 530 242H454V265.188C454 269.45 449.009 271.758 445.762 268.997L414 242H10C4.47717 242 0 237.523 0 232V10C0 4.47715 4.47717 0 10 0H530Z" fill="#E9FFF3"/>
<mask id="path-2-inside-1" fill="white">
<path fill-rule="evenodd" clip-rule="evenodd" d="M550 20C555.523 20 560 24.4771 560 30V252C560 257.523 555.523 262 550 262H474V285.188C474 289.45 469.009 291.758 465.762 288.997L434 262H30C24.4772 262 20 257.523 20 252V30C20 24.4772 24.4772 20 30 20H550Z"/>
</mask>
<path d="M474 262H472V260H474V262ZM465.762 288.997L464.466 290.521L465.762 288.997ZM434 262V260H434.735L435.295 260.476L434 262ZM558 30C558 25.5817 554.418 22 550 22V18C556.627 18 562 23.3726 562 30H558ZM558 252V30H562V252H558ZM550 260C554.418 260 558 256.418 558 252H562C562 258.627 556.627 264 550 264V260ZM474 260H550V264H474V260ZM472 285.188V262H476V285.188H472ZM467.057 287.474C469.006 289.13 472 287.745 472 285.188H476C476 291.155 469.013 294.386 464.466 290.521L467.057 287.474ZM435.295 260.476L467.057 287.474L464.466 290.521L432.705 263.524L435.295 260.476ZM30 260H434V264H30V260ZM22 252C22 256.418 25.5817 260 30 260V264C23.3726 264 18 258.627 18 252H22ZM22 30V252H18V30H22ZM30 22C25.5817 22 22 25.5817 22 30H18C18 23.3726 23.3726 18 30 18V22ZM550 22H30V18H550V22Z" fill="#120D24" mask="url(#path-2-inside-1)"/>
</svg>
