<svg width="431" height="196" viewBox="0 0 431 196" fill="none" xmlns="http://www.w3.org/2000/svg">
<path d="M72.0378 59.2613L159.122 51.1998L173.122 138.467L84.1293 153.134L72.0378 59.2613Z" fill="#DF7E7E"/>
<path d="M249.797 171.978L169.625 155.856L183.926 77.8616L261.07 89.6453L249.797 171.978Z" fill="#22C06B"/>
<path d="M360.664 72.4575L338.327 159.001L261.851 143.388L277.509 53.5014L360.664 72.4575Z" fill="#FFC700"/>
<path d="M350.664 62.4575L328.327 149.001L251.851 133.388L267.509 43.5014L350.664 62.4575Z" stroke="#120D24" stroke-linecap="round" stroke-linejoin="round"/>
<path d="M81.0378 51.1122L168.122 43.0506L182.122 130.317L93.1293 144.985L81.0378 51.1122Z" stroke="#120D24" stroke-linecap="round" stroke-linejoin="round"/>
<path d="M242.538 161.785L162.366 145.663L176.666 67.6683L253.811 79.4519L242.538 161.785Z" stroke="#120D24" stroke-linecap="round" stroke-linejoin="round"/>
<path d="M283.5 183C279.5 177 274.5 174 268 172" stroke="#FFC700" stroke-width="2" stroke-linecap="round" stroke-linejoin="round"/>
<path d="M160.25 194.5C157.25 192 157.249 185.5 160.25 183" stroke="#22C06B" stroke-width="2" stroke-linecap="round" stroke-linejoin="round"/>
<path d="M70.9995 20C72.9605 21.9132 74.8396 23.4572 76.9995 25" stroke="#22C06B" stroke-width="2" stroke-linecap="round" stroke-linejoin="round"/>
<path d="M327.881 31.1037C323.131 28.6037 324.631 22.1037 329.631 23.1037" stroke="#22C06B" stroke-width="2" stroke-linecap="round" stroke-linejoin="round"/>
<path d="M66.0335 154.325C70.8569 151.969 75.2149 157.02 71.454 160.463" stroke="#FFC700" stroke-width="2" stroke-linecap="round" stroke-linejoin="round"/>
<path d="M274.25 15.5C271.25 13 271.25 6.5 274.25 4" stroke="#FFC700" stroke-width="2" stroke-linecap="round" stroke-linejoin="round"/>
<path d="M162.5 1C163.833 3.66667 169.666 7.33333 171 10" stroke="#DF7E7E" stroke-width="2" stroke-linecap="round" stroke-linejoin="round"/>
<path d="M366.001 8.96328C377.501 5.00221 372.501 20.0022 385.708 17.7876" stroke="#DF7E7E" stroke-width="2" stroke-linecap="round" stroke-linejoin="round"/>
<path d="M7.17285 133.337C8.96681 130.886 7.5066 126.457 8.99878 124C10.218 121.993 14.4331 121.967 15.4988 119.898C16.7314 117.504 13.4094 113.052 14.4988 110.5C15.392 108.407 20.7146 108.248 21.5523 106" stroke="#DF7E7E" stroke-width="2" stroke-linecap="round" stroke-linejoin="round"/>
<path d="M350.089 186.28C354.093 176.637 364.368 179.866 366.964 170.366" stroke="#22C06B" stroke-width="2" stroke-linecap="round" stroke-linejoin="round"/>
<path d="M421.5 71.6038C417.5 65.6038 412.5 62.6038 406 60.6038" stroke="#FFC700" stroke-width="2" stroke-linecap="round" stroke-linejoin="round"/>
<path d="M406.113 115.101C415.323 110.186 421.219 119.199 429.252 113.5" stroke="#22C06B" stroke-width="2" stroke-linecap="round" stroke-linejoin="round"/>
<path d="M373 106.604C374.961 108.517 376.84 110.061 379 111.604" stroke="#FFC700" stroke-width="2" stroke-linecap="round" stroke-linejoin="round"/>
<path d="M3.85076 44.5044C14.0927 46.5299 12.9511 57.2395 22.7769 57.9134" stroke="#22C06B" stroke-width="2" stroke-linecap="round" stroke-linejoin="round"/>
<path d="M227.382 38.2941C225.027 39.6931 223.049 41.1085 221 42.7956" stroke="#FFC700" stroke-width="2" stroke-linecap="round" stroke-linejoin="round"/>
</svg>
