<svg width="253" height="285" viewBox="0 0 253 285" fill="none" xmlns="http://www.w3.org/2000/svg">
<path d="M74.9918 162.656C74.5034 162.656 74.0597 162.371 73.8559 161.927L64.8553 142.33C64.6694 141.926 64.7129 141.452 64.9696 141.088C65.2263 140.724 65.6573 140.524 66.1011 140.564L76.3517 141.468C76.7566 141.504 77.1188 141.734 77.3228 142.085L88.1765 160.778C88.401 161.165 88.4019 161.642 88.1788 162.029C87.9557 162.417 87.5426 162.656 87.0955 162.656H74.9918Z" fill="white" stroke="#9ED5D2" stroke-width="2.5" stroke-linecap="round" stroke-linejoin="round"/>
<path fill-rule="evenodd" clip-rule="evenodd" d="M37.8524 141.38C37.7464 140.652 38.3105 140 39.0454 140H46.3789C47.7962 140 49.0222 140.987 49.3243 142.372L51.9442 154.858C51.9442 154.858 72.6235 154.858 86.6428 155.55C96.4412 156.033 102.32 162.333 105.184 167.157C107.823 171.601 102.401 171.567 97.1695 171.534C96.7226 171.531 96.2772 171.528 95.8382 171.528C93.8188 171.528 87.5116 171.232 80.2861 170.854L70.9654 186H57.2477L66.3034 170.091C58.363 169.645 51.9719 169.267 51.9719 169.267L37.8524 162.484C36.4709 161.744 36.5768 160.757 37.198 159.318L39.7627 154.992L37.8524 141.38Z" fill="white"/>
<path d="M37.8524 141.38L39.0903 141.206L39.0893 141.199L37.8524 141.38ZM49.3243 142.372L50.5477 142.116L50.5456 142.106L49.3243 142.372ZM51.9442 154.858L50.7209 155.115C50.8423 155.694 51.3528 156.108 51.9442 156.108V154.858ZM86.6428 155.55L86.7043 154.301L86.6428 155.55ZM105.184 167.157L106.259 166.519L105.184 167.157ZM97.1695 171.534L97.1774 170.284L97.1695 171.534ZM80.2861 170.854L80.3514 169.606C79.8946 169.582 79.4612 169.809 79.2215 170.199L80.2861 170.854ZM70.9654 186V187.25C71.3995 187.25 71.8025 187.025 72.03 186.655L70.9654 186ZM57.2477 186L56.1613 185.382C55.9411 185.768 55.9433 186.243 56.167 186.628C56.3908 187.013 56.8024 187.25 57.2477 187.25V186ZM66.3034 170.091L67.3897 170.71C67.6038 170.334 67.6081 169.874 67.4012 169.494C67.1943 169.113 66.8056 168.867 66.3736 168.843L66.3034 170.091ZM51.9719 169.267L51.4306 170.394C51.5771 170.464 51.7359 170.506 51.8982 170.515L51.9719 169.267ZM37.8524 162.484L37.2623 163.586C37.2784 163.594 37.2946 163.603 37.3111 163.611L37.8524 162.484ZM37.198 159.318L36.1227 158.681C36.0956 158.726 36.0715 158.774 36.0504 158.823L37.198 159.318ZM39.7627 154.992L40.838 155.629C40.9827 155.385 41.04 155.099 41.0006 154.818L39.7627 154.992ZM39.0454 138.75C37.5485 138.75 36.3996 140.078 36.6154 141.56L39.0893 141.199C39.0898 141.202 39.0898 141.21 39.0871 141.219C39.0849 141.227 39.0817 141.232 39.079 141.235C39.0763 141.238 39.0719 141.242 39.0648 141.245C39.0565 141.249 39.0486 141.25 39.0454 141.25V138.75ZM46.3789 138.75H39.0454V141.25H46.3789V138.75ZM50.5456 142.106C50.1183 140.147 48.3839 138.75 46.3789 138.75V141.25C47.2085 141.25 47.9262 141.828 48.103 142.639L50.5456 142.106ZM53.1676 154.602L50.5477 142.116L48.1009 142.629L50.7209 155.115L53.1676 154.602ZM86.7043 154.301C79.671 153.954 70.9777 153.781 64.0519 153.695C60.587 153.652 57.5608 153.63 55.4007 153.619C54.3206 153.614 53.4569 153.611 52.863 153.61C52.5661 153.609 52.3366 153.609 52.1812 153.608C52.1036 153.608 52.0444 153.608 52.0046 153.608C51.9847 153.608 51.9697 153.608 51.9596 153.608C51.9545 153.608 51.9507 153.608 51.9482 153.608C51.9469 153.608 51.9459 153.608 51.9452 153.608C51.9449 153.608 51.9447 153.608 51.9445 153.608C51.9443 153.608 51.9442 153.608 51.9442 154.858C51.9442 156.108 51.9443 156.108 51.9444 156.108C51.9446 156.108 51.9448 156.108 51.9451 156.108C51.9457 156.108 51.9466 156.108 51.9478 156.108C51.9503 156.108 51.954 156.108 51.9589 156.108C51.9688 156.108 51.9836 156.108 52.0033 156.108C52.0426 156.108 52.1013 156.108 52.1785 156.108C52.3329 156.109 52.5614 156.109 52.8573 156.11C53.4491 156.111 54.3105 156.114 55.3881 156.119C57.5435 156.13 60.5633 156.151 64.0207 156.195C70.9392 156.281 79.5953 156.454 86.5812 156.798L86.7043 154.301ZM106.259 166.519C103.276 161.494 97.078 154.813 86.7043 154.301L86.5812 156.798C95.8044 157.253 101.365 163.172 104.11 167.795L106.259 166.519ZM97.1617 172.784C98.4612 172.792 99.8185 172.801 101.064 172.737C102.295 172.674 103.513 172.537 104.513 172.214C105.486 171.899 106.546 171.31 106.96 170.136C107.366 168.985 106.981 167.735 106.259 166.519L104.11 167.795C104.707 168.801 104.634 169.213 104.602 169.305C104.578 169.374 104.45 169.607 103.744 169.835C103.064 170.055 102.11 170.18 100.936 170.241C99.7758 170.3 98.4936 170.292 97.1774 170.284L97.1617 172.784ZM95.8382 172.778C96.2726 172.778 96.7141 172.781 97.1617 172.784L97.1774 170.284C96.7312 170.281 96.2818 170.278 95.8382 170.278V172.778ZM80.2207 172.102C87.4271 172.479 93.7772 172.778 95.8382 172.778V170.278C93.8604 170.278 87.5961 169.985 80.3514 169.606L80.2207 172.102ZM79.2215 170.199L69.9009 185.345L72.03 186.655L81.3506 171.509L79.2215 170.199ZM70.9654 184.75H57.2477V187.25H70.9654V184.75ZM58.334 186.618L67.3897 170.71L65.2171 169.473L56.1613 185.382L58.334 186.618ZM51.9719 169.267C51.8982 170.515 51.8982 170.515 51.8983 170.515C51.8983 170.515 51.8984 170.515 51.8985 170.515C51.8987 170.515 51.899 170.515 51.8994 170.515C51.9002 170.515 51.9013 170.515 51.9029 170.515C51.906 170.516 51.9107 170.516 51.9168 170.516C51.9292 170.517 51.9477 170.518 51.9721 170.52C52.0208 170.522 52.0934 170.527 52.1886 170.532C52.379 170.543 52.6598 170.56 53.0215 170.581C53.7449 170.624 54.7922 170.685 56.0877 170.76C58.6785 170.91 62.2621 171.116 66.2332 171.339L66.3736 168.843C62.4043 168.62 58.8222 168.414 56.2324 168.264C54.9375 168.189 53.8907 168.128 53.1677 168.085C52.8062 168.064 52.5256 168.048 52.3354 168.037C52.2403 168.031 52.1679 168.027 52.1192 168.024C52.0948 168.022 52.0764 168.021 52.0641 168.021C52.0579 168.02 52.0533 168.02 52.0502 168.02C52.0487 168.02 52.0475 168.02 52.0467 168.02C52.0463 168.02 52.0461 168.02 52.0459 168.02C52.0458 168.02 52.0457 168.02 52.0456 168.019C52.0456 168.019 52.0456 168.019 51.9719 169.267ZM37.3111 163.611L51.4306 170.394L52.5132 168.141L38.3937 161.357L37.3111 163.611ZM36.0504 158.823C35.7348 159.553 35.4177 160.439 35.5349 161.327C35.6717 162.362 36.336 163.09 37.2623 163.586L38.4424 161.382C38.2002 161.252 38.0976 161.151 38.0574 161.1C38.0273 161.063 38.0186 161.039 38.0134 160.999C37.9935 160.849 38.0399 160.522 38.3456 159.814L36.0504 158.823ZM38.6875 154.354L36.1227 158.681L38.2733 159.956L40.838 155.629L38.6875 154.354ZM36.6145 141.553L38.5249 155.165L41.0006 154.818L39.0902 141.206L36.6145 141.553Z" fill="#9ED5D2"/>
<path d="M68.8547 165.325L65.8398 170.903M83.3262 166.079L80.0099 171.355" stroke="#9ED5D2" stroke-width="2.5" stroke-linecap="round" stroke-linejoin="round"/>
<path d="M33.5742 144.408L22.6441 144.408" stroke="#9ED5D2" stroke-width="2.5" stroke-linecap="round"/>
<path d="M34.7178 169.42L22.6431 169.42" stroke="#9ED5D2" stroke-width="2.5" stroke-linecap="round"/>
<line x1="28.4424" y1="156.439" x2="12.25" y2="156.439" stroke="#9ED5D2" stroke-width="2.5" stroke-linecap="round"/>
<path d="M202.992 162.656C202.503 162.656 202.06 162.371 201.856 161.927L192.855 142.33C192.669 141.926 192.713 141.452 192.97 141.088C193.226 140.724 193.657 140.524 194.101 140.564L204.352 141.468C204.757 141.504 205.119 141.734 205.323 142.085L216.176 160.778C216.401 161.165 216.402 161.642 216.179 162.029C215.956 162.417 215.543 162.656 215.095 162.656H202.992Z" fill="white" stroke="#9ED5D2" stroke-width="2.5" stroke-linecap="round" stroke-linejoin="round"/>
<path fill-rule="evenodd" clip-rule="evenodd" d="M165.852 141.38C165.746 140.652 166.31 140 167.045 140H174.379C175.796 140 177.022 140.987 177.324 142.372L179.944 154.858C179.944 154.858 200.623 154.858 214.643 155.55C224.441 156.033 230.32 162.333 233.184 167.157C235.823 171.601 230.401 171.567 225.17 171.534C224.723 171.531 224.277 171.528 223.838 171.528C221.819 171.528 215.512 171.232 208.286 170.854L198.965 186H185.248L194.303 170.091C186.363 169.645 179.972 169.267 179.972 169.267L165.852 162.484C164.471 161.744 164.577 160.757 165.198 159.318L167.763 154.992L165.852 141.38Z" fill="white"/>
<path d="M165.852 141.38L167.09 141.206L167.089 141.199L165.852 141.38ZM177.324 142.372L178.548 142.116L178.546 142.106L177.324 142.372ZM179.944 154.858L178.721 155.115C178.842 155.694 179.353 156.108 179.944 156.108V154.858ZM214.643 155.55L214.704 154.301L214.643 155.55ZM233.184 167.157L234.259 166.519L233.184 167.157ZM225.17 171.534L225.177 170.284L225.17 171.534ZM208.286 170.854L208.351 169.606C207.895 169.582 207.461 169.809 207.222 170.199L208.286 170.854ZM198.965 186V187.25C199.4 187.25 199.803 187.025 200.03 186.655L198.965 186ZM185.248 186L184.161 185.382C183.941 185.768 183.943 186.243 184.167 186.628C184.391 187.013 184.802 187.25 185.248 187.25V186ZM194.303 170.091L195.39 170.71C195.604 170.334 195.608 169.874 195.401 169.494C195.194 169.113 194.806 168.867 194.374 168.843L194.303 170.091ZM179.972 169.267L179.431 170.394C179.577 170.464 179.736 170.506 179.898 170.515L179.972 169.267ZM165.852 162.484L165.262 163.586C165.278 163.594 165.295 163.603 165.311 163.611L165.852 162.484ZM165.198 159.318L164.123 158.681C164.096 158.726 164.071 158.774 164.05 158.823L165.198 159.318ZM167.763 154.992L168.838 155.629C168.983 155.385 169.04 155.099 169.001 154.818L167.763 154.992ZM167.045 138.75C165.548 138.75 164.4 140.078 164.615 141.56L167.089 141.199C167.09 141.202 167.09 141.21 167.087 141.219C167.085 141.227 167.082 141.232 167.079 141.235C167.076 141.238 167.072 141.242 167.065 141.245C167.057 141.249 167.049 141.25 167.045 141.25V138.75ZM174.379 138.75H167.045V141.25H174.379V138.75ZM178.546 142.106C178.118 140.147 176.384 138.75 174.379 138.75V141.25C175.209 141.25 175.926 141.828 176.103 142.639L178.546 142.106ZM181.168 154.602L178.548 142.116L176.101 142.629L178.721 155.115L181.168 154.602ZM214.704 154.301C207.671 153.954 198.978 153.781 192.052 153.695C188.587 153.652 185.561 153.63 183.401 153.619C182.321 153.614 181.457 153.611 180.863 153.61C180.566 153.609 180.337 153.609 180.181 153.608C180.104 153.608 180.044 153.608 180.005 153.608C179.985 153.608 179.97 153.608 179.96 153.608C179.955 153.608 179.951 153.608 179.948 153.608C179.947 153.608 179.946 153.608 179.945 153.608C179.945 153.608 179.945 153.608 179.944 153.608C179.944 153.608 179.944 153.608 179.944 154.858C179.944 156.108 179.944 156.108 179.944 156.108C179.945 156.108 179.945 156.108 179.945 156.108C179.946 156.108 179.947 156.108 179.948 156.108C179.95 156.108 179.954 156.108 179.959 156.108C179.969 156.108 179.984 156.108 180.003 156.108C180.043 156.108 180.101 156.108 180.179 156.108C180.333 156.109 180.561 156.109 180.857 156.11C181.449 156.111 182.311 156.114 183.388 156.119C185.543 156.13 188.563 156.151 192.021 156.195C198.939 156.281 207.595 156.454 214.581 156.798L214.704 154.301ZM234.259 166.519C231.276 161.494 225.078 154.813 214.704 154.301L214.581 156.798C223.804 157.253 229.365 163.172 232.11 167.795L234.259 166.519ZM225.162 172.784C226.461 172.792 227.818 172.801 229.064 172.737C230.295 172.674 231.513 172.537 232.513 172.214C233.486 171.899 234.546 171.31 234.96 170.136C235.366 168.985 234.981 167.735 234.259 166.519L232.11 167.795C232.707 168.801 232.634 169.213 232.602 169.305C232.578 169.374 232.45 169.607 231.744 169.835C231.064 170.055 230.11 170.18 228.936 170.241C227.776 170.3 226.494 170.292 225.177 170.284L225.162 172.784ZM223.838 172.778C224.273 172.778 224.714 172.781 225.162 172.784L225.177 170.284C224.731 170.281 224.282 170.278 223.838 170.278V172.778ZM208.221 172.102C215.427 172.479 221.777 172.778 223.838 172.778V170.278C221.86 170.278 215.596 169.985 208.351 169.606L208.221 172.102ZM207.222 170.199L197.901 185.345L200.03 186.655L209.351 171.509L207.222 170.199ZM198.965 184.75H185.248V187.25H198.965V184.75ZM186.334 186.618L195.39 170.71L193.217 169.473L184.161 185.382L186.334 186.618ZM179.972 169.267C179.898 170.515 179.898 170.515 179.898 170.515C179.898 170.515 179.898 170.515 179.898 170.515C179.899 170.515 179.899 170.515 179.899 170.515C179.9 170.515 179.901 170.515 179.903 170.515C179.906 170.516 179.911 170.516 179.917 170.516C179.929 170.517 179.948 170.518 179.972 170.52C180.021 170.522 180.093 170.527 180.189 170.532C180.379 170.543 180.66 170.56 181.021 170.581C181.745 170.624 182.792 170.685 184.088 170.76C186.679 170.91 190.262 171.116 194.233 171.339L194.374 168.843C190.404 168.62 186.822 168.414 184.232 168.264C182.937 168.189 181.891 168.128 181.168 168.085C180.806 168.064 180.526 168.048 180.335 168.037C180.24 168.031 180.168 168.027 180.119 168.024C180.095 168.022 180.076 168.021 180.064 168.021C180.058 168.02 180.053 168.02 180.05 168.02C180.049 168.02 180.048 168.02 180.047 168.02C180.046 168.02 180.046 168.02 180.046 168.02C180.046 168.02 180.046 168.02 180.046 168.019C180.046 168.019 180.046 168.019 179.972 169.267ZM165.311 163.611L179.431 170.394L180.513 168.141L166.394 161.357L165.311 163.611ZM164.05 158.823C163.735 159.553 163.418 160.439 163.535 161.327C163.672 162.362 164.336 163.09 165.262 163.586L166.442 161.382C166.2 161.252 166.098 161.151 166.057 161.1C166.027 161.063 166.019 161.039 166.013 160.999C165.994 160.849 166.04 160.522 166.346 159.814L164.05 158.823ZM166.687 154.354L164.123 158.681L166.273 159.956L168.838 155.629L166.687 154.354ZM164.615 141.553L166.525 155.165L169.001 154.818L167.09 141.206L164.615 141.553Z" fill="#9ED5D2"/>
<path d="M196.855 165.325L193.84 170.903M211.326 166.079L208.01 171.355" stroke="#9ED5D2" stroke-width="2.5" stroke-linecap="round" stroke-linejoin="round"/>
<path d="M161.574 144.408L150.644 144.408" stroke="#9ED5D2" stroke-width="2.5" stroke-linecap="round"/>
<path d="M162.718 169.42L150.643 169.42" stroke="#9ED5D2" stroke-width="2.5" stroke-linecap="round"/>
<line x1="156.442" y1="156.439" x2="140.25" y2="156.439" stroke="#9ED5D2" stroke-width="2.5" stroke-linecap="round"/>
<path d="M98.9836 31.5932C98.5342 31.5932 98.1261 31.3315 97.9385 30.9232L93.8534 22.0287C93.6823 21.6563 93.7224 21.221 93.9586 20.886C94.1947 20.5511 94.5913 20.3672 94.9995 20.4032L99.652 20.8137C100.024 20.8466 100.358 21.0584 100.545 21.3818L105.472 29.8658C105.678 30.2215 105.679 30.6605 105.474 31.017C105.269 31.3735 104.889 31.5932 104.477 31.5932H98.9836Z" fill="white" stroke="#9ED5D2" stroke-width="2.3" stroke-linecap="round" stroke-linejoin="round"/>
<path fill-rule="evenodd" clip-rule="evenodd" d="M82.1268 21.3539C82.0787 21.0237 82.3347 20.7278 82.6682 20.7278H85.9967C86.64 20.7278 87.1965 21.1759 87.3336 21.8045L88.5227 27.4716C88.5227 27.4716 97.9085 27.4716 104.272 27.7853C108.719 28.0046 111.387 30.8642 112.687 33.0536C113.885 35.0707 111.424 35.0553 109.049 35.0403C108.847 35.0391 108.644 35.0378 108.445 35.0378C107.529 35.0378 104.666 34.9033 101.387 34.7316L97.1564 41.6061H90.9303L95.0404 34.3855C91.4363 34.1828 88.5353 34.0115 88.5353 34.0115L82.1268 30.9326C81.4998 30.5969 81.5478 30.1488 81.8298 29.4958L82.9938 27.5321L82.1268 21.3539Z" fill="white"/>
<path d="M82.1268 21.3539L83.2656 21.1941L83.2648 21.1881L82.1268 21.3539ZM87.3336 21.8045L88.4591 21.5683L88.4572 21.5594L87.3336 21.8045ZM88.5227 27.4716L87.3972 27.7078C87.5089 28.2403 87.9786 28.6216 88.5227 28.6216V27.4716ZM104.272 27.7853L104.215 28.9339L104.272 27.7853ZM112.687 33.0536L113.676 32.4665V32.4665L112.687 33.0536ZM109.049 35.0403L109.057 33.8904H109.057L109.049 35.0403ZM101.387 34.7316L101.447 33.5832C101.027 33.5612 100.628 33.7705 100.407 34.1289L101.387 34.7316ZM97.1564 41.6061V42.7561C97.5558 42.7561 97.9265 42.5489 98.1358 42.2088L97.1564 41.6061ZM90.9303 41.6061L89.9308 41.0371C89.7282 41.3931 89.7302 41.83 89.9361 42.1841C90.142 42.5382 90.5207 42.7561 90.9303 42.7561V41.6061ZM95.0404 34.3855L96.0399 34.9544C96.2368 34.6084 96.2408 34.1852 96.0504 33.8356C95.8601 33.4859 95.5025 33.2596 95.105 33.2373L95.0404 34.3855ZM88.5353 34.0115L88.0373 35.0481C88.1721 35.1128 88.3182 35.1507 88.4675 35.1595L88.5353 34.0115ZM82.1268 30.9326L81.5839 31.9464C81.5987 31.9544 81.6137 31.9619 81.6288 31.9692L82.1268 30.9326ZM81.8298 29.4958L80.8405 28.9094C80.8156 28.9515 80.7934 28.995 80.774 29.0399L81.8298 29.4958ZM82.9938 27.5321L83.9831 28.1185C84.1162 27.894 84.169 27.6308 84.1327 27.3723L82.9938 27.5321ZM82.6682 19.5778C81.6336 19.5778 80.8396 20.4957 80.9888 21.5197L83.2648 21.1881C83.3177 21.5518 83.0358 21.8778 82.6682 21.8778V19.5778ZM85.9967 19.5778H82.6682V21.8778H85.9967V19.5778ZM88.4572 21.5594C88.2048 20.4026 87.1807 19.5778 85.9967 19.5778V21.8778C86.0994 21.8778 86.1881 21.9493 86.21 22.0496L88.4572 21.5594ZM89.6482 27.2354L88.4591 21.5683L86.2081 22.0406L87.3972 27.7078L89.6482 27.2354ZM104.328 26.6367C101.125 26.4788 97.1705 26.4002 94.0253 26.3609C92.451 26.3413 91.076 26.3314 90.0944 26.3265C89.6036 26.3241 89.2111 26.3228 88.941 26.3222C88.806 26.3219 88.7016 26.3218 88.6309 26.3217C88.5956 26.3216 88.5686 26.3216 88.5504 26.3216C88.5414 26.3216 88.5345 26.3216 88.5298 26.3216C88.5275 26.3216 88.5258 26.3216 88.5246 26.3216C88.524 26.3216 88.5235 26.3216 88.5232 26.3216C88.5231 26.3216 88.5229 26.3216 88.5228 26.3216C88.5228 26.3216 88.5227 26.3216 88.5227 27.4716C88.5227 28.6216 88.5227 28.6216 88.5228 28.6216C88.5228 28.6216 88.5229 28.6216 88.5231 28.6216C88.5233 28.6216 88.5237 28.6216 88.5243 28.6216C88.5254 28.6216 88.527 28.6216 88.5292 28.6216C88.5337 28.6216 88.5403 28.6216 88.5492 28.6216C88.567 28.6216 88.5935 28.6216 88.6284 28.6217C88.6983 28.6218 88.8017 28.6219 88.9358 28.6222C89.2039 28.6228 89.5944 28.624 90.0829 28.6265C91.06 28.6314 92.4292 28.6412 93.9966 28.6607C97.1351 28.6999 101.055 28.7781 104.215 28.9339L104.328 26.6367ZM113.676 32.4665C112.266 30.0923 109.305 26.8821 104.328 26.6367L104.215 28.9339C108.133 29.1271 110.508 31.6361 111.698 33.6407L113.676 32.4665ZM109.042 36.1903C109.628 36.194 110.262 36.1983 110.847 36.1684C111.419 36.139 112.033 36.0739 112.561 35.9033C113.065 35.7404 113.764 35.3896 114.042 34.5994C114.314 33.8299 114.033 33.0677 113.676 32.4665L111.698 33.6407C111.94 34.0481 111.801 34.0404 111.873 33.8348C111.953 33.6086 112.113 33.6311 111.854 33.7147C111.62 33.7905 111.249 33.8447 110.729 33.8714C110.222 33.8973 109.658 33.8941 109.057 33.8904L109.042 36.1903ZM108.445 36.1878C108.64 36.1878 108.839 36.189 109.042 36.1903L109.057 33.8904C108.854 33.8891 108.649 33.8878 108.445 33.8878V36.1878ZM101.327 35.8801C104.588 36.0508 107.49 36.1878 108.445 36.1878V33.8878C107.567 33.8878 104.744 33.7558 101.447 33.5832L101.327 35.8801ZM100.407 34.1289L96.177 41.0033L98.1358 42.2088L102.366 35.3343L100.407 34.1289ZM97.1564 40.4561H90.9303V42.7561H97.1564V40.4561ZM91.9297 42.175L96.0399 34.9544L94.041 33.8166L89.9308 41.0371L91.9297 42.175ZM88.5353 34.0115C88.4675 35.1595 88.4675 35.1595 88.4675 35.1595C88.4675 35.1595 88.4676 35.1595 88.4676 35.1595C88.4677 35.1595 88.4678 35.1595 88.468 35.1595C88.4684 35.1595 88.4689 35.1596 88.4696 35.1596C88.471 35.1597 88.4732 35.1598 88.476 35.16C88.4816 35.1603 88.49 35.1608 88.5011 35.1615C88.5232 35.1628 88.5562 35.1647 88.5994 35.1673C88.6859 35.1724 88.8134 35.1798 88.9776 35.1895C89.3061 35.2087 89.7816 35.2365 90.3697 35.2706C91.546 35.3387 93.173 35.4323 94.9759 35.5337L95.105 33.2373C93.3038 33.136 91.6782 33.0425 90.5029 32.9744C89.9152 32.9403 89.4402 32.9126 89.1121 32.8934C88.9481 32.8838 88.8208 32.8763 88.7345 32.8712C88.6914 32.8687 88.6585 32.8668 88.6364 32.8655C88.6253 32.8648 88.617 32.8643 88.6114 32.864C88.6086 32.8638 88.6065 32.8637 88.6051 32.8636C88.6044 32.8636 88.6039 32.8635 88.6036 32.8635C88.6034 32.8635 88.6033 32.8635 88.6032 32.8635C88.6031 32.8635 88.6031 32.8635 88.6031 32.8635C88.6031 32.8635 88.6031 32.8635 88.5353 34.0115ZM81.6288 31.9692L88.0373 35.0481L89.0333 32.9749L82.6248 29.896L81.6288 31.9692ZM80.774 29.0399C80.6284 29.377 80.4214 29.9092 80.4973 30.4838C80.5912 31.1946 81.0537 31.6625 81.5839 31.9464L82.6696 29.9188C82.6078 29.8857 82.631 29.8857 82.6754 29.9414C82.6986 29.9705 82.7227 30.0089 82.7424 30.0555C82.762 30.1019 82.7726 30.1459 82.7775 30.1826C82.7866 30.2514 82.7729 30.2752 82.7855 30.2244C82.7982 30.173 82.8267 30.088 82.8855 29.9517L80.774 29.0399ZM82.0046 26.9457L80.8405 28.9094L82.819 30.0822L83.9831 28.1185L82.0046 26.9457ZM80.9879 21.5137L81.855 27.6919L84.1327 27.3723L83.2656 21.1941L80.9879 21.5137Z" fill="#9ED5D2"/>
<path d="M96.1985 32.2222L94.8301 34.7537M102.767 32.5643L101.261 34.9589" stroke="#9ED5D2" stroke-width="2.3" stroke-linecap="round" stroke-linejoin="round"/>
<path d="M80.1846 22.7284L75.2237 22.7284" stroke="#9ED5D2" stroke-width="2.3" stroke-linecap="round"/>
<path d="M80.7051 34.0808L75.2247 34.0808" stroke="#9ED5D2" stroke-width="2.3" stroke-linecap="round"/>
<line x1="77.2738" y1="28.7717" x2="71.0898" y2="28.7717" stroke="#9ED5D2" stroke-width="2.3" stroke-linecap="round"/>
<path d="M144.021 90.3851C144.49 90.3851 144.916 90.112 145.112 89.6859L150.656 77.615C150.834 77.2264 150.793 76.7721 150.546 76.4226C150.3 76.0731 149.886 75.8812 149.46 75.9188L143.146 76.4759C142.757 76.5102 142.41 76.7313 142.214 77.0687L135.528 88.5825C135.313 88.9537 135.312 89.4118 135.526 89.7838C135.74 90.1558 136.137 90.3851 136.566 90.3851H144.021Z" fill="white" stroke="#9ED5D2" stroke-width="2.4" stroke-linecap="round" stroke-linejoin="round"/>
<path fill-rule="evenodd" clip-rule="evenodd" d="M166.898 76.8497C166.964 76.4017 166.616 76 166.163 76H161.646C160.773 76 160.018 76.6082 159.832 77.4612L158.218 85.1522C158.218 85.1522 145.481 85.1522 136.845 85.5779C130.81 85.8755 127.188 89.7563 125.424 92.7276C123.799 95.4651 127.139 95.4441 130.361 95.4238C130.636 95.4221 130.911 95.4204 131.181 95.4204C132.425 95.4204 136.31 95.2378 140.76 95.0049L146.502 104.334H154.951L149.373 94.5351C154.264 94.2601 158.201 94.0276 158.201 94.0276L166.898 89.8492C167.749 89.3936 167.684 88.7854 167.301 87.8993L165.722 85.2343L166.898 76.8497Z" fill="white"/>
<path d="M166.898 76.8497L165.71 76.683L165.711 76.6767L166.898 76.8497ZM159.832 77.4612L158.658 77.2148L158.66 77.2055L159.832 77.4612ZM158.218 85.1522L159.393 85.3986C159.276 85.9543 158.786 86.3522 158.218 86.3522V85.1522ZM136.845 85.5779L136.904 86.7765L136.845 85.5779ZM125.424 92.7276L124.392 92.115V92.115L125.424 92.7276ZM130.361 95.4238L130.354 94.2239H130.354L130.361 95.4238ZM140.76 95.0049L140.698 93.8065C141.136 93.7836 141.552 94.002 141.782 94.376L140.76 95.0049ZM146.502 104.334V105.534C146.085 105.534 145.698 105.318 145.48 104.963L146.502 104.334ZM154.951 104.334L155.994 103.741C156.206 104.112 156.204 104.568 155.989 104.937C155.774 105.307 155.379 105.534 154.951 105.534V104.334ZM149.373 94.5351L148.33 95.1287C148.125 94.7677 148.121 94.3261 148.319 93.9613C148.518 93.5964 148.891 93.3603 149.306 93.337L149.373 94.5351ZM158.201 94.0276L158.721 95.1092C158.58 95.1768 158.428 95.2163 158.272 95.2255L158.201 94.0276ZM166.898 89.8492L167.465 90.9071C167.449 90.9153 167.434 90.9233 167.418 90.9308L166.898 89.8492ZM167.301 87.8993L168.334 87.2873C168.36 87.3312 168.383 87.3767 168.403 87.4236L167.301 87.8993ZM165.722 85.2343L164.689 85.8462C164.55 85.6119 164.495 85.3372 164.533 85.0675L165.722 85.2343ZM166.163 74.8C167.348 74.8 168.257 75.8507 168.086 77.0228L165.711 76.6767C165.671 76.9527 165.885 77.2 166.163 77.2V74.8ZM161.646 74.8H166.163V77.2H161.646V74.8ZM158.66 77.2055C158.966 75.8012 160.209 74.8 161.646 74.8V77.2C161.337 77.2 161.07 77.4151 161.004 77.7169L158.66 77.2055ZM157.044 84.9057L158.658 77.2148L161.006 77.7076L159.393 85.3986L157.044 84.9057ZM136.786 84.3794C141.127 84.1654 146.488 84.0587 150.755 84.0055C152.891 83.9788 154.756 83.9655 156.087 83.9588C156.753 83.9555 157.285 83.9538 157.651 83.953C157.834 83.9526 157.976 83.9524 158.072 83.9523C158.12 83.9522 158.156 83.9522 158.181 83.9522C158.193 83.9522 158.202 83.9522 158.209 83.9522C158.212 83.9522 158.214 83.9522 158.216 83.9522C158.217 83.9522 158.217 83.9522 158.218 83.9522C158.218 83.9522 158.218 83.9522 158.218 83.9522C158.218 83.9522 158.218 83.9522 158.218 85.1522C158.218 86.3522 158.218 86.3522 158.218 86.3522C158.218 86.3522 158.218 86.3522 158.218 86.3522C158.217 86.3522 158.217 86.3522 158.216 86.3522C158.215 86.3522 158.212 86.3522 158.209 86.3522C158.203 86.3522 158.194 86.3522 158.182 86.3522C158.158 86.3522 158.122 86.3522 158.074 86.3523C157.979 86.3524 157.839 86.3526 157.657 86.353C157.293 86.3538 156.762 86.3555 156.099 86.3588C154.772 86.3654 152.913 86.3787 150.785 86.4053C146.525 86.4585 141.199 86.5647 136.904 86.7765L136.786 84.3794ZM124.392 92.115C126.271 88.9508 130.198 84.7042 136.786 84.3794L136.904 86.7765C131.421 87.0468 128.106 90.5618 126.456 93.3403L124.392 92.115ZM130.369 96.6238C129.571 96.6288 128.722 96.6345 127.94 96.5945C127.172 96.5551 126.376 96.4684 125.706 96.2517C125.061 96.0432 124.247 95.6185 123.925 94.7056C123.611 93.8142 123.926 92.9005 124.392 92.115L126.456 93.3403C126.11 93.9235 126.233 94.0338 126.189 93.9077C126.137 93.7601 126.054 93.8422 126.444 93.968C126.808 94.0857 127.35 94.1611 128.063 94.1976C128.763 94.2335 129.54 94.229 130.354 94.2239L130.369 96.6238ZM131.181 96.6204C130.915 96.6204 130.645 96.6221 130.369 96.6238L130.354 94.2239C130.628 94.2221 130.906 94.2204 131.181 94.2204V96.6204ZM140.823 96.2032C136.391 96.4352 132.465 96.6204 131.181 96.6204V94.2204C132.385 94.2204 136.229 94.0404 140.698 93.8065L140.823 96.2032ZM141.782 94.376L147.524 103.705L145.48 104.963L139.738 95.6338L141.782 94.376ZM146.502 103.134H154.951V105.534H146.502V103.134ZM153.908 104.928L148.33 95.1287L150.416 93.9414L155.994 103.741L153.908 104.928ZM158.201 94.0276C158.272 95.2255 158.272 95.2255 158.272 95.2255C158.272 95.2255 158.272 95.2255 158.272 95.2255C158.272 95.2255 158.271 95.2255 158.271 95.2255C158.271 95.2256 158.27 95.2256 158.269 95.2257C158.267 95.2258 158.264 95.2259 158.26 95.2262C158.253 95.2266 158.241 95.2273 158.226 95.2282C158.196 95.2299 158.152 95.2326 158.093 95.236C157.976 95.2429 157.803 95.2531 157.58 95.2661C157.134 95.2922 156.489 95.3299 155.691 95.3762C154.095 95.4687 151.887 95.5956 149.441 95.7332L149.306 93.337C151.751 93.1995 153.957 93.0727 155.552 92.9802C156.349 92.934 156.994 92.8963 157.439 92.8702C157.662 92.8572 157.835 92.8471 157.952 92.8402C158.011 92.8367 158.055 92.8341 158.085 92.8323C158.1 92.8314 158.111 92.8308 158.119 92.8303C158.123 92.8301 158.126 92.8299 158.128 92.8298C158.129 92.8298 158.129 92.8297 158.13 92.8297C158.13 92.8297 158.13 92.8297 158.13 92.8297C158.13 92.8297 158.13 92.8297 158.13 92.8297C158.13 92.8297 158.13 92.8297 158.201 94.0276ZM167.418 90.9308L158.721 95.1092L157.682 92.9459L166.379 88.7675L167.418 90.9308ZM168.403 87.4236C168.599 87.8777 168.841 88.5194 168.752 89.1928C168.644 90.0084 168.116 90.5582 167.465 90.9071L166.332 88.7913C166.446 88.7304 166.457 88.7019 166.436 88.7289C166.405 88.7681 166.38 88.8269 166.373 88.8785C166.368 88.9134 166.378 88.8981 166.354 88.8015C166.33 88.7042 166.283 88.5684 166.2 88.375L168.403 87.4236ZM166.754 84.6224L168.334 87.2873L166.269 88.5112L164.689 85.8462L166.754 84.6224ZM168.087 77.0165L166.91 85.401L164.533 85.0675L165.71 76.683L168.087 77.0165Z" fill="#9ED5D2"/>
<path d="M147.801 91.5992L149.658 95.0348M138.887 92.0635L140.93 95.3134" stroke="#9ED5D2" stroke-width="2.4" stroke-linecap="round" stroke-linejoin="round"/>
<path d="M169.534 78.7151L176.267 78.7151" stroke="#9ED5D2" stroke-width="2.4" stroke-linecap="round"/>
<path d="M168.829 94.1216L176.267 94.1216" stroke="#9ED5D2" stroke-width="2.4" stroke-linecap="round"/>
<line x1="1.2" y1="-1.2" x2="10.3138" y2="-1.2" transform="matrix(1 -8.74228e-08 -8.74228e-08 -1 171.925 85.3557)" stroke="#9ED5D2" stroke-width="2.4" stroke-linecap="round"/>
<path fill-rule="evenodd" clip-rule="evenodd" d="M14.3576 83.3576C12.5475 85.1678 12.5475 88.1027 14.3576 89.9129L22.4239 97.9791L22.5262 97.8768L22.6285 97.9791L30.6948 89.9129C32.505 88.1027 32.505 85.1678 30.6948 83.3576C28.8846 81.5475 25.9497 81.5475 24.1395 83.3576L22.5262 84.9709L20.9129 83.3576C19.1027 81.5475 16.1678 81.5475 14.3576 83.3576Z" fill="#FB92A5"/>
<path fill-rule="evenodd" clip-rule="evenodd" d="M212.358 21.3576C210.547 23.1678 210.547 26.1027 212.358 27.9129L220.424 35.9791L220.526 35.8768L220.629 35.9791L228.695 27.9129C230.505 26.1027 230.505 23.1678 228.695 21.3576C226.885 19.5475 223.95 19.5475 222.14 21.3576L220.526 22.971L218.913 21.3576C217.103 19.5475 214.168 19.5475 212.358 21.3576Z" fill="#FB92A5"/>
<path fill-rule="evenodd" clip-rule="evenodd" d="M210.635 227.002C208.455 229.182 208.455 232.717 210.635 234.897L220.351 244.612L220.474 244.489L220.597 244.612L230.313 234.897C232.493 232.717 232.493 229.182 230.313 227.002C228.132 224.821 224.597 224.821 222.417 227.002L220.474 228.945L218.531 227.002C216.35 224.821 212.815 224.821 210.635 227.002Z" fill="#FB92A5"/>
<circle cx="75.5264" cy="91.224" r="7.44309" transform="rotate(-135 75.5264 91.224)" stroke="#9ED5D2" stroke-width="2.5"/>
<path d="M80.7891 85.9611L89.7023 77.0478" stroke="#9ED5D2" stroke-width="2.5"/>
<path d="M84.7775 76.2624H90.4862L90.4862 81.9712" stroke="#9ED5D2" stroke-width="2.5"/>
<circle cx="79.6211" cy="98.8562" r="7.44309" transform="rotate(-135 79.6211 98.8562)" stroke="#9ED5D2" stroke-width="2.5"/>
<path d="M84.8838 93.5931L93.797 84.6799" stroke="#9ED5D2" stroke-width="2.5"/>
<path d="M88.8732 83.8948H94.5819L94.5819 89.6035" stroke="#9ED5D2" stroke-width="2.5"/>
<circle cx="23.779" cy="26.9587" r="7.44309" stroke="#9ED5D2" stroke-width="2.5"/>
<path d="M23.7793 34.4017L23.7793 48.1622" stroke="#9ED5D2" stroke-width="2.5"/>
<path d="M30.6201 41.5923L16.9378 41.5923" stroke="#9ED5D2" stroke-width="2.5"/>
<path d="M29.0068 21.553L37.9201 12.6397" stroke="#9ED5D2" stroke-width="2.5"/>
<path d="M32.9952 11.8544H38.704L38.704 17.5631" stroke="#9ED5D2" stroke-width="2.5"/>
<path d="M18.5527 21.553L9.63949 12.6397" stroke="#9ED5D2" stroke-width="2.5"/>
<path d="M11.6855 20.3982L17.3983 14.6854" stroke="#9ED5D2" stroke-width="2.5"/>
<path d="M14.5633 11.8544H8.85462L8.85462 17.5631" stroke="#9ED5D2" stroke-width="2.5"/>
<path fill-rule="evenodd" clip-rule="evenodd" d="M116.966 285C117.229 284.676 117.486 284.348 117.739 284.017C117.852 284.347 117.97 284.675 118.093 285H178.907C178.939 284.916 178.97 284.832 179.001 284.747C179.002 284.832 179.003 284.916 179.005 285H229.995C229.998 284.834 230 284.667 230 284.5C230 270.417 218.583 259 204.5 259C193.916 259 184.839 265.448 180.981 274.629C180.994 274.254 181 273.878 181 273.5C181 255.551 166.449 241 148.5 241C139.308 241 131.007 244.816 125.096 250.95C121.171 232.689 104.934 219 85.5 219C63.2943 219 45.2626 236.871 45.0028 259.015C40.5896 256.462 35.4655 255 30 255C13.4315 255 0 268.431 0 285H116.966Z" fill="white"/>
<circle cx="224.384" cy="85.0085" r="7.44309" stroke="#9ED5D2" stroke-width="2.5"/>
<path d="M224.384 92.4514L224.384 106.212" stroke="#9ED5D2" stroke-width="2.5"/>
<path d="M231.226 99.642L217.543 99.642" stroke="#9ED5D2" stroke-width="2.5"/>
<circle cx="215.443" cy="81.4431" r="7.44309" stroke="#9ED5D2" stroke-width="2.5"/>
<path d="M215.442 88.8862L215.442 102.647" stroke="#9ED5D2" stroke-width="2.5"/>
<path d="M222.284 96.0767L208.602 96.0767" stroke="#9ED5D2" stroke-width="2.5"/>
<circle cx="157.526" cy="25.2242" r="7.44309" transform="rotate(-135 157.526 25.2242)" stroke="#9ED5D2" stroke-width="2.5"/>
<path d="M162.79 19.9612L171.703 11.0479" stroke="#9ED5D2" stroke-width="2.5"/>
<path d="M166.778 10.2629H172.487L172.487 15.9717" stroke="#9ED5D2" stroke-width="2.5" stroke-linejoin="round"/>
<circle cx="166.475" cy="31.1606" r="7.44309" stroke="#9ED5D2" stroke-width="2.5"/>
<path d="M166.476 38.6036L166.476 52.3641" stroke="#9ED5D2" stroke-width="2.5"/>
<path d="M173.316 45.7941L159.634 45.7941" stroke="#9ED5D2" stroke-width="2.5"/>
<path d="M78.3444 244.686C78.8719 244.686 79.351 244.378 79.5712 243.899L93.5881 213.38C93.7889 212.943 93.7419 212.432 93.4647 212.039C93.1874 211.646 92.7219 211.43 92.2427 211.472L76.279 212.881C75.8417 212.919 75.4506 213.168 75.2301 213.548L58.3274 242.658C58.0849 243.075 58.084 243.591 58.3249 244.009C58.5658 244.428 59.012 244.686 59.4949 244.686H78.3444Z" fill="white" stroke="#9ED5D2" stroke-width="2.7" stroke-linecap="round" stroke-linejoin="round"/>
<path fill-rule="evenodd" clip-rule="evenodd" d="M136.183 212.148C136.348 211.015 135.47 210 134.325 210H122.905C120.697 210 118.788 211.538 118.318 213.694L114.237 233.139C114.237 233.139 82.0329 233.139 60.2001 234.216C44.9407 234.968 35.785 244.78 31.3246 252.292C27.2152 259.214 35.6593 259.16 43.8064 259.109C44.5024 259.105 45.1962 259.1 45.8798 259.1C49.0246 259.1 58.8474 258.639 70.1002 258.05L84.6155 281.637H105.979L91.8759 256.862C104.241 256.167 114.194 255.579 114.194 255.579L136.183 245.015C138.335 243.863 138.17 242.325 137.202 240.085L133.208 233.347L136.183 212.148Z" fill="white"/>
<path d="M136.183 212.148L134.846 211.961L134.847 211.954L136.183 212.148ZM118.318 213.694L116.996 213.417L116.999 213.407L118.318 213.694ZM114.237 233.139L115.559 233.417C115.428 234.042 114.876 234.489 114.237 234.489V233.139ZM60.2001 234.216L60.2666 235.564L60.2001 234.216ZM31.3246 252.292L30.1638 251.603L31.3246 252.292ZM43.8064 259.109L43.7979 257.759H43.7979L43.8064 259.109ZM70.1002 258.05L70.0296 256.702C70.523 256.676 70.991 256.922 71.2499 257.342L70.1002 258.05ZM84.6155 281.637V282.987C84.1467 282.987 83.7115 282.744 83.4658 282.345L84.6155 281.637ZM105.979 281.637L107.152 280.97C107.39 281.387 107.388 281.9 107.146 282.316C106.904 282.732 106.46 282.987 105.979 282.987V281.637ZM91.8759 256.862L90.7027 257.53C90.4715 257.124 90.4668 256.627 90.6903 256.217C90.9137 255.806 91.3336 255.54 91.8001 255.514L91.8759 256.862ZM114.194 255.579L114.779 256.796C114.621 256.872 114.449 256.916 114.274 256.927L114.194 255.579ZM136.183 245.015L136.82 246.205C136.803 246.214 136.786 246.223 136.768 246.232L136.183 245.015ZM137.202 240.085L138.364 239.396C138.393 239.446 138.419 239.497 138.442 239.55L137.202 240.085ZM133.208 233.347L132.047 234.035C131.891 233.772 131.829 233.463 131.871 233.159L133.208 233.347ZM134.325 208.65C136.293 208.65 137.803 210.396 137.519 212.343L134.847 211.954C134.894 211.635 134.647 211.35 134.325 211.35V208.65ZM122.905 208.65H134.325V211.35H122.905V208.65ZM116.999 213.407C117.604 210.63 120.063 208.65 122.905 208.65V211.35C121.332 211.35 119.972 212.445 119.637 213.982L116.999 213.407ZM112.916 232.862L116.996 213.417L119.639 213.972L115.559 233.417L112.916 232.862ZM60.1337 232.868C71.0756 232.328 84.605 232.059 95.3892 231.924C100.783 231.857 105.495 231.823 108.858 231.806C110.539 231.798 111.884 231.794 112.808 231.791C113.27 231.79 113.627 231.79 113.869 231.79C113.99 231.79 114.082 231.789 114.144 231.789C114.175 231.789 114.198 231.789 114.214 231.789C114.222 231.789 114.227 231.789 114.231 231.789C114.233 231.789 114.235 231.789 114.236 231.789C114.236 231.789 114.237 231.789 114.237 231.789C114.237 231.789 114.237 231.789 114.237 233.139C114.237 234.489 114.237 234.489 114.237 234.489C114.237 234.489 114.237 234.489 114.236 234.489C114.235 234.489 114.234 234.489 114.232 234.489C114.228 234.489 114.222 234.489 114.214 234.489C114.199 234.489 114.176 234.489 114.145 234.489C114.084 234.489 113.992 234.49 113.872 234.49C113.631 234.49 113.275 234.49 112.814 234.491C111.892 234.494 110.55 234.498 108.871 234.506C105.513 234.523 100.809 234.557 95.4229 234.624C84.6466 234.758 71.1574 235.027 60.2666 235.564L60.1337 232.868ZM30.1638 251.603C34.7531 243.874 44.2529 233.651 60.1337 232.868L60.2666 235.564C45.6285 236.286 36.817 245.686 32.4854 252.982L30.1638 251.603ZM43.8149 260.459C41.7872 260.472 39.6913 260.486 37.7721 260.387C35.8682 260.29 34.0343 260.078 32.5541 259.6C31.1024 259.131 29.6737 258.297 29.1223 256.733C28.5795 255.194 29.0689 253.447 30.1638 251.603L32.4854 252.982C31.5256 254.598 31.5295 255.441 31.6688 255.836C31.7995 256.207 32.2205 256.655 33.3845 257.031C34.5201 257.398 36.068 257.596 37.9103 257.691C39.7374 257.784 41.7521 257.772 43.7979 257.759L43.8149 260.459ZM45.8798 260.45C45.2011 260.45 44.5116 260.455 43.8149 260.459L43.7979 257.759C44.4931 257.755 45.1912 257.75 45.8798 257.75V260.45ZM70.1708 259.398C58.9387 259.986 49.0696 260.45 45.8798 260.45V257.75C48.9797 257.75 58.7561 257.292 70.0296 256.702L70.1708 259.398ZM71.2499 257.342L85.7653 280.93L83.4658 282.345L68.9505 258.757L71.2499 257.342ZM84.6155 280.287H105.979V282.987H84.6155V280.287ZM104.806 282.305L90.7027 257.53L93.0492 256.194L107.152 280.97L104.806 282.305ZM114.194 255.579C114.274 256.927 114.274 256.927 114.274 256.927C114.274 256.927 114.274 256.927 114.273 256.927C114.273 256.927 114.273 256.927 114.272 256.927C114.271 256.927 114.269 256.927 114.267 256.927C114.262 256.927 114.255 256.928 114.245 256.928C114.226 256.93 114.197 256.931 114.159 256.933C114.083 256.938 113.97 256.945 113.822 256.953C113.525 256.971 113.088 256.996 112.525 257.029C111.398 257.095 109.768 257.191 107.75 257.308C103.716 257.541 98.1355 257.862 91.9517 258.21L91.8001 255.514C97.9819 255.167 103.561 254.846 107.594 254.612C109.611 254.495 111.241 254.4 112.367 254.334C112.93 254.301 113.367 254.275 113.663 254.258C113.811 254.249 113.924 254.243 114 254.238C114.038 254.236 114.067 254.234 114.086 254.233C114.096 254.233 114.103 254.232 114.108 254.232C114.11 254.232 114.112 254.232 114.113 254.232C114.114 254.231 114.114 254.231 114.114 254.231C114.114 254.231 114.115 254.231 114.115 254.231C114.115 254.231 114.115 254.231 114.194 255.579ZM136.768 246.232L114.779 256.796L113.61 254.362L135.599 243.798L136.768 246.232ZM138.442 239.55C138.931 240.682 139.36 241.929 139.201 243.135C139.02 244.501 138.151 245.493 136.82 246.205L135.546 243.825C136.367 243.385 136.491 243.032 136.524 242.781C136.578 242.371 136.441 241.728 135.963 240.62L138.442 239.55ZM134.369 232.659L138.364 239.396L136.041 240.773L132.047 234.035L134.369 232.659ZM137.52 212.336L134.545 233.535L131.871 233.159L134.846 211.961L137.52 212.336Z" fill="#9ED5D2"/>
<path d="M87.9005 249.44L92.5957 258.126M65.3635 250.614L70.5282 258.83" stroke="#9ED5D2" stroke-width="2.7" stroke-linecap="round" stroke-linejoin="round"/>
<path d="M142.846 216.864L159.868 216.865" stroke="#9ED5D2" stroke-width="2.7" stroke-linecap="round"/>
<path d="M141.062 255.817L159.867 255.817" stroke="#9ED5D2" stroke-width="2.7" stroke-linecap="round"/>
<line x1="1.35" y1="-1.35" x2="27.7603" y2="-1.35" transform="matrix(1 -8.74228e-08 -8.74228e-08 -1 148.89 233.654)" stroke="#9ED5D2" stroke-width="2.7" stroke-linecap="round"/>
</svg>
