<svg width="270" height="305" viewBox="0 0 270 305" fill="none" xmlns="http://www.w3.org/2000/svg">
<path d="M32.1729 82.645L150.914 86.2421L152.712 143.57L36.5 146.5L32.1729 82.645Z" fill="#CD2A34"/>
<path d="M32.8993 80.5L39.5 203" stroke="#A8A582" stroke-width="1.79856"/>
<path d="M234.437 201.05L143.762 203.797L142.388 247.574H231L234.437 201.05Z" fill="#CD2A34"/>
<path d="M234.899 196L228 288" stroke="#A8A582" stroke-width="1.79856"/>
<rect x="31.4746" y="1" width="7.19424" height="7.19424" fill="#2B4039"/>
<rect x="87.2305" y="1" width="7.19424" height="7.19424" fill="#2B4039"/>
<path fill-rule="evenodd" clip-rule="evenodd" d="M120.078 26.1799H152.793L159.153 45.1603L190.198 47.2692L190.648 73.8417H118.705V47.2692L120.078 26.1799ZM147.369 31.6631H127.395L126.941 45.1603L149.167 45.216L147.369 31.6631Z" fill="#6B775D"/>
<path d="M118.135 7.29497L7.19442 6.39569L8.66383 73.8417H119.604L118.135 7.29497Z" fill="#6B775D"/>
<path d="M41.3672 39.6691L41.3672 23.482L31.4751 22.5827L31.4751 38.7698L41.3672 39.6691Z" fill="#7F8D6F"/>
<path d="M38.6689 35.1727L38.6689 26.1799L34.1725 27.0792L34.1725 36.072L38.6689 35.1727Z" fill="#2B4039"/>
<path d="M86.3311 39.6691L86.3311 23.482L96.2231 22.5827L96.2231 38.7698L86.3311 39.6691Z" fill="#7F8D6F"/>
<path d="M89.0283 35.1727L89.0283 26.1799L93.5247 27.0792L93.5247 36.072L89.0283 35.1727Z" fill="#2B4039"/>
<path d="M166.367 73.8417H195.995C195.901 73.2425 195.774 72.6415 195.613 72.041C193.318 63.4779 185.031 58.2584 177.102 60.3829C171.012 62.0146 166.905 67.5036 166.367 73.8417Z" fill="#2B4039"/>
<path d="M63.801 73.8417H34.1729C34.2675 73.2425 34.3946 72.6415 34.5555 72.041C36.85 63.4779 45.1376 58.2584 53.0664 60.3829C59.1559 62.0146 63.2627 67.5036 63.801 73.8417Z" fill="#2B4039"/>
<ellipse cx="181.257" cy="75.8878" rx="11.241" ry="12.1403" transform="rotate(15 181.257 75.8878)" fill="#181216"/>
<ellipse cx="181.257" cy="75.8878" rx="4.94604" ry="5.84532" transform="rotate(-30 181.257 75.8878)" fill="#585D63"/>
<ellipse rx="11.241" ry="12.1403" transform="matrix(-0.965926 0.258819 0.258819 0.965926 49.0107 76.0899)" fill="#181216"/>
<ellipse rx="4.94604" ry="5.84532" transform="matrix(-0.866025 -0.5 -0.5 0.866025 49.0107 76.0899)" fill="#585D63"/>
<path d="M116.457 45.9561L9.89209 45.9561" stroke="#2B4039" stroke-width="4.4964"/>
<path d="M9.89154 18.2247L116.457 18.2247" stroke="#2B4039" stroke-width="4.4964"/>
<rect x="24.2803" y="215.029" width="7.19424" height="7.19424" fill="#2B4039"/>
<rect x="80.0361" y="215.029" width="7.19424" height="7.19424" fill="#2B4039"/>
<path fill-rule="evenodd" clip-rule="evenodd" d="M112.883 240.209H145.598L151.959 259.189L183.004 261.298L183.453 287.87H111.511V261.298L112.883 240.209ZM140.174 245.692H120.201L119.747 259.189L141.973 259.245L140.174 245.692Z" fill="#6B775D"/>
<path d="M110.941 221.324L8.39233e-05 220.424L1.4695 287.871H112.41L110.941 221.324Z" fill="#6B775D"/>
<path d="M34.1729 253.698L34.1729 237.511L24.2808 236.612L24.2808 252.799L34.1729 253.698Z" fill="#7F8D6F"/>
<path d="M31.4746 249.201L31.4746 240.209L26.9782 241.108L26.9782 250.101L31.4746 249.201Z" fill="#2B4039"/>
<path d="M79.1367 253.698L79.1367 237.511L89.0288 236.612L89.0288 252.799L79.1367 253.698Z" fill="#7F8D6F"/>
<path d="M81.835 249.201L81.835 240.209L86.3314 241.108L86.3314 250.101L81.835 249.201Z" fill="#2B4039"/>
<path d="M159.173 287.871H188.801C188.706 287.271 188.579 286.67 188.418 286.07C186.124 277.507 177.836 272.287 169.907 274.412C163.818 276.043 159.711 281.532 159.173 287.871Z" fill="#2B4039"/>
<path d="M56.6066 287.871H26.9785C27.0731 287.271 27.2003 286.67 27.3612 286.07C29.6557 277.507 37.9433 272.287 45.8721 274.412C51.9616 276.043 56.0684 281.532 56.6066 287.871Z" fill="#2B4039"/>
<ellipse cx="174.063" cy="289.917" rx="11.241" ry="12.1403" transform="rotate(15 174.063 289.917)" fill="#181216"/>
<ellipse cx="174.063" cy="289.917" rx="4.94604" ry="5.84532" transform="rotate(-30 174.063 289.917)" fill="#585D63"/>
<ellipse rx="11.241" ry="12.1403" transform="matrix(-0.965926 0.258819 0.258819 0.965926 41.8164 290.119)" fill="#181216"/>
<ellipse rx="4.94604" ry="5.84532" transform="matrix(-0.866025 -0.5 -0.5 0.866025 41.8164 290.119)" fill="#585D63"/>
<path d="M109.263 259.985L2.69776 259.985" stroke="#2B4039" stroke-width="4.4964"/>
<path d="M2.69818 232.253L109.263 232.253" stroke="#2B4039" stroke-width="4.4964"/>
<rect x="123.417" y="156.475" width="39.5683" height="20.6835" fill="#2B4039"/>
<path fill-rule="evenodd" clip-rule="evenodd" d="M94.6404 126.349H127.014L129.263 148.831V177.158H88.3454L86.5469 146.583H88.3454L94.6404 126.349ZM115.324 132.194H101.085L97.3382 145.684L115.773 146.583L115.324 132.194Z" fill="#2B4039"/>
<path d="M134.209 110.612L270 109.712L268.202 177.158H132.41L134.209 110.612Z" fill="#2B4039"/>
<path d="M243.921 122.302H260.108L261.007 132.194H244.82L243.921 122.302Z" fill="#181216"/>
<path d="M248.418 125H257.411L256.511 129.496H247.519L248.418 125Z" fill="#FF7A00"/>
<path d="M234.029 122.302H217.842L216.943 132.194H233.13L234.029 122.302Z" fill="#181216"/>
<path d="M229.532 125H220.54L221.439 129.496H230.432L229.532 125Z" fill="#ABB576"/>
<path d="M178.273 122.302H162.086L161.187 132.194H177.374L178.273 122.302Z" fill="#181216"/>
<path d="M173.777 125H164.785L165.684 129.496H174.677L173.777 125Z" fill="#ABB576"/>
<path d="M189.064 122.302H205.252L206.151 132.194H189.964L189.064 122.302Z" fill="#181216"/>
<path d="M193.561 125H202.554L201.655 129.496H192.662L193.561 125Z" fill="#297272"/>
<path d="M135.998 177.158H106.37C106.465 176.559 106.592 175.958 106.753 175.358C109.047 166.794 117.335 161.575 125.264 163.699C131.353 165.331 135.46 170.82 135.998 177.158Z" fill="#2C2E20"/>
<path d="M213.393 177.158H243.021C242.927 176.559 242.8 175.958 242.639 175.358C240.344 166.794 232.057 161.575 224.128 163.699C218.038 165.331 213.932 170.82 213.393 177.158Z" fill="#2C2E20"/>
<ellipse rx="11.241" ry="12.1403" transform="matrix(-0.965926 0.258819 0.258819 0.965926 121.107 179.204)" fill="#181216"/>
<ellipse rx="4.94604" ry="5.84532" transform="matrix(-0.866025 -0.5 -0.5 0.866025 121.107 179.204)" fill="#585D63"/>
<ellipse cx="228.184" cy="179.407" rx="11.241" ry="12.1403" transform="rotate(15 228.184 179.407)" fill="#181216"/>
<ellipse cx="228.184" cy="179.407" rx="4.94604" ry="5.84532" transform="rotate(-30 228.184 179.407)" fill="#585D63"/>
<path d="M158.939 110.612L158.04 156.925" stroke="#43554C" stroke-width="0.899281"/>
<path d="M187.732 111.061L187.732 159.165" stroke="#43554C" stroke-width="0.899281"/>
<path d="M213.812 110.612L213.848 156.707" stroke="#43554C" stroke-width="0.899281"/>
<path d="M136.458 157.366L267.302 157.366" stroke="#43554C" stroke-width="0.899281"/>
<path d="M241.689 110.612L241.744 155.708" stroke="#43554C" stroke-width="0.899281"/>
<path d="M6.5 139H29L31 174L8 176L6.5 139Z" fill="#EFEFE5"/>
<path d="M249.453 91.4401L226.996 90.0529L227.158 54.9962L250.237 54.418L249.453 91.4401Z" fill="#CCAD88"/>
<path d="M205.975 31.4095L187.041 30.24L187.177 0.683019L206.636 0.19556L205.975 31.4095Z" fill="#E0E1BB"/>
</svg>
