<svg width="444" height="359" viewBox="0 0 444 359" fill="none" xmlns="http://www.w3.org/2000/svg">
<path d="M130.878 121.399C130.878 121.399 129.081 122.744 128.443 123.972C127.805 125.199 128.495 126.287 127.735 127.443C127.172 128.298 126.684 128.486 126.18 129.377C125.244 131.031 126.543 133.953 126.543 133.953C126.543 133.953 130.671 133.065 133.088 132.969C135.993 132.854 139.598 134.161 139.598 134.161C139.598 134.161 138.101 130.849 136.853 128.894C134.973 125.949 130.878 121.399 130.878 121.399Z" fill="#FFB0AB"/>
<path d="M248.849 175.989C248.849 175.989 248.162 178.125 247.209 179.128C246.256 180.131 245.003 179.833 244.157 180.928C243.532 181.738 243.512 182.26 242.834 183.027C241.575 184.45 238.389 184.174 238.389 184.174C238.389 184.174 237.885 179.981 237.189 177.665C236.353 174.881 233.943 171.896 233.943 171.896C233.943 171.896 237.562 172.234 239.817 172.778C243.214 173.598 248.849 175.989 248.849 175.989Z" fill="#FFB0AB"/>
<path d="M227.384 166.779C208.086 140.859 170.205 131.364 149.948 132.347" stroke="url(#paint0_linear)" stroke-width="28.2237" stroke-linecap="round"/>
<path d="M137.544 64.7333L163.167 115.949L249.257 66.2452L217.787 18.4047L137.544 64.7333Z" fill="url(#paint1_linear)"/>
<path fill-rule="evenodd" clip-rule="evenodd" d="M173.108 142.936L161.483 120.231L253.877 66.8874L267.722 88.2979C267.754 88.3432 267.785 88.3901 267.813 88.4385C270.374 92.8746 251.266 108.702 225.133 123.789C199.001 138.876 175.741 147.511 173.18 143.075L173.179 143.075L173.177 143.07C173.152 143.027 173.129 142.982 173.108 142.936Z" fill="url(#paint2_linear)"/>
<path d="M173.232 118.122L183.405 114.831L193.951 134.783L183.778 138.074L173.232 118.122Z" fill="url(#paint3_linear)"/>
<ellipse cx="177.665" cy="41.5687" rx="46.231" ry="6.74526" transform="rotate(-30 177.665 41.5687)" fill="#1C42FF"/>
<ellipse cx="207.682" cy="93.5588" rx="53.3434" ry="7.92568" transform="rotate(-30 207.682 93.5588)" fill="#1C42FF"/>
<path d="M209.705 97.0637C233.499 83.3266 251.277 69.575 249.414 66.3488C249.385 66.2981 249.351 66.2503 249.313 66.2054C241.128 67.5168 223.326 75.3748 203.719 86.6949C184.112 98.0151 168.405 109.503 163.177 115.936C163.197 115.992 163.221 116.045 163.251 116.096C165.113 119.322 185.912 110.801 209.705 97.0637Z" fill="url(#paint4_linear)"/>
<path d="M151.212 66.5771L160.795 62.6021L182.842 105.173L172.875 109.662L151.212 66.5771Z" fill="url(#paint5_linear)"/>
<path d="M210.289 73.4944C210.289 73.4944 210.161 75.7356 210.689 77.0145C211.216 78.2934 212.493 78.4661 212.887 79.7922C213.179 80.7731 213.009 81.2677 213.365 82.227C214.027 84.0083 217.099 84.8978 217.099 84.8978C217.099 84.8978 219.079 81.1679 220.563 79.2577C222.346 76.9619 225.668 75.0458 225.668 75.0458C225.668 75.0458 222.171 74.0574 219.871 73.7528C216.408 73.2939 210.289 73.4944 210.289 73.4944Z" fill="#FFB0AB"/>
<path d="M328.039 18.4258C328.039 18.4258 329.23 20.3282 329.384 21.7032C329.537 23.0781 328.501 23.8443 328.794 25.1964C329.011 26.1966 329.398 26.5481 329.547 27.5605C329.825 29.4405 327.561 31.6992 327.561 31.6992C327.561 31.6992 324.03 29.3836 321.81 28.4238C319.141 27.2704 315.307 27.1909 315.307 27.1909C315.307 27.1909 317.897 24.6403 319.765 23.266C322.58 21.1961 328.039 18.4258 328.039 18.4258Z" fill="#FFB0AB"/>
<path d="M307.167 28.9123C274.91 26.9757 243.245 49.8337 230.948 65.9617" stroke="url(#paint6_linear)" stroke-width="28.2237" stroke-linecap="round"/>
<path d="M39.0442 347.865C39.0442 347.865 40.2922 349.731 41.4838 350.434C42.6755 351.137 43.7985 350.505 44.9123 351.326C45.7361 351.933 45.8983 352.43 46.7608 352.981C48.3623 354.004 51.35 352.863 51.35 352.863C51.35 352.863 50.6829 348.693 50.7161 346.275C50.756 343.368 52.2532 339.837 52.2532 339.837C52.2532 339.837 48.866 341.156 46.8471 342.298C43.8064 344.019 39.0442 347.865 39.0442 347.865Z" fill="#FFB0AB"/>
<path d="M99.8399 232.969C99.8399 232.969 101.937 233.769 102.888 234.774C103.839 235.779 103.474 237.015 104.522 237.917C105.298 238.585 105.819 238.632 106.548 239.35C107.902 240.683 107.456 243.85 107.456 243.85C107.456 243.85 103.243 244.13 100.893 244.702C98.0679 245.389 94.9597 247.636 94.9597 247.636C94.9597 247.636 95.4897 244.04 96.1532 241.817C97.1524 238.469 99.8399 232.969 99.8399 232.969Z" fill="#FFB0AB"/>
<path d="M89.5011 253.914C62.5895 271.803 51.0897 309.125 50.9929 329.406" stroke="url(#paint7_linear)" stroke-width="28.2237" stroke-linecap="round"/>
<path d="M384.471 3.53105C384.471 3.53105 382.654 2.21198 381.293 1.96474C379.932 1.71749 379.097 2.69839 377.768 2.31355C376.785 2.02889 376.46 1.61847 375.461 1.39995C373.604 0.99418 371.196 3.09815 371.196 3.09815C371.196 3.09815 373.264 6.77973 374.069 9.06045C375.037 11.8015 374.854 15.6325 374.854 15.6325C374.854 15.6325 377.576 13.2236 379.075 11.4534C381.333 8.78722 384.471 3.53105 384.471 3.53105Z" fill="#FFB0AB"/>
<path d="M39.8328 58.3709C39.8328 58.3709 41.8277 57.3416 43.2106 57.303C44.5936 57.2644 45.271 58.3603 46.6428 58.1808C47.6575 58.048 48.04 57.6913 49.0613 57.6264C50.9579 57.506 53.0206 59.9499 53.0206 59.9499C53.0206 59.9499 50.4196 63.2765 49.2787 65.4092C47.9074 67.9724 47.5096 71.7871 47.5096 71.7871C47.5096 71.7871 45.183 68.9944 43.9687 67.0179C42.1399 64.041 39.8328 58.3709 39.8328 58.3709Z" fill="#FFB0AB"/>
<path d="M369.625 109.138C388.687 83.0437 386.567 44.048 379.643 24.9855" stroke="url(#paint8_linear)" stroke-width="28.2237" stroke-linecap="round"/>
<path d="M305.512 199.511C335.061 185.365 352.374 156.754 359.628 134.041" stroke="url(#paint9_linear)" stroke-width="28.2237" stroke-linecap="round"/>
<path d="M197.673 226.879C231.048 237.539 262.467 231.662 281.701 214.894" stroke="url(#paint10_linear)" stroke-width="28.2237" stroke-linecap="round"/>
<path d="M98.4115 178.829C117.94 206.141 145.569 222.196 170.135 224.029" stroke="url(#paint11_linear)" stroke-width="28.2237" stroke-linecap="round"/>
<path d="M48.2281 80.0465C48.1744 113.622 61.2647 142.773 80.156 158.582" stroke="url(#paint12_linear)" stroke-width="28.2237" stroke-linecap="round"/>
<path d="M211.505 215.491L179.962 263.289L266.052 312.993L291.748 261.819L211.505 215.491Z" fill="url(#paint13_linear)"/>
<path fill-rule="evenodd" clip-rule="evenodd" d="M161.56 285.395L175.412 263.973L267.805 317.317L256.187 340.01C256.164 340.062 256.138 340.112 256.11 340.161C253.549 344.597 230.288 335.963 204.156 320.875C178.024 305.788 158.915 289.961 161.476 285.525L161.476 285.525L161.48 285.518C161.505 285.476 161.532 285.435 161.56 285.395Z" fill="url(#paint14_linear)"/>
<path d="M183.112 273.092L191.048 280.257L179.042 299.366L171.106 292.201L183.112 273.092Z" fill="url(#paint15_linear)"/>
<ellipse cx="251.625" cy="238.656" rx="46.231" ry="6.74526" transform="rotate(30 251.625 238.656)" fill="#FF1C1C"/>
<ellipse cx="221.608" cy="290.645" rx="53.3434" ry="7.92568" transform="rotate(30 221.608 290.645)" fill="#FF1C1C"/>
<path d="M219.585 294.15C243.378 307.887 264.177 316.408 266.039 313.182C266.069 313.131 266.093 313.078 266.113 313.022C260.884 306.589 245.178 295.101 225.571 283.781C205.964 272.461 188.162 264.603 179.977 263.292C179.939 263.337 179.905 263.384 179.875 263.435C178.013 266.661 195.791 280.413 219.585 294.15Z" fill="url(#paint16_linear)"/>
<path d="M216.743 228.251L224.977 234.563L199.132 274.942L190.261 268.554L216.743 228.251Z" fill="url(#paint17_linear)"/>
<path d="M380.542 44.2286L356.855 80.1221L421.503 117.447L440.799 79.0183L380.542 44.2286Z" fill="url(#paint18_linear)"/>
<path fill-rule="evenodd" clip-rule="evenodd" d="M343.044 96.7117L353.439 80.6358L422.82 120.693L414.089 137.747C414.074 137.779 414.058 137.81 414.041 137.841L414.037 137.848L414.037 137.848C414.037 137.848 414.037 137.848 414.037 137.848C412.114 141.179 394.646 134.695 375.023 123.365C355.399 112.036 341.05 100.151 342.974 96.8195C342.995 96.7823 343.018 96.7464 343.044 96.7117Z" fill="url(#paint19_linear)"/>
<path d="M359.221 87.4834L365.181 92.8635L356.165 107.213L350.205 101.833L359.221 87.4834Z" fill="url(#paint20_linear)"/>
<ellipse cx="410.67" cy="61.6237" rx="34.7164" ry="5.06524" transform="rotate(30 410.67 61.6237)" fill="#FF1C1C"/>
<ellipse cx="388.129" cy="100.664" rx="40.0574" ry="5.95166" transform="rotate(30 388.129 100.664)" fill="#FF1C1C"/>
<path d="M386.61 103.297C404.477 113.612 420.096 120.011 421.495 117.588C421.517 117.55 421.535 117.51 421.55 117.468C417.624 112.637 405.829 104.011 391.106 95.5102C376.382 87.0095 363.014 81.1086 356.868 80.1239C356.839 80.1576 356.813 80.1935 356.791 80.2315C355.392 82.6542 368.743 92.9808 386.61 103.297Z" fill="url(#paint21_linear)"/>
<path d="M384.475 53.8106L390.659 58.5501L371.251 88.8721L364.589 84.0754L384.475 53.8106Z" fill="url(#paint22_linear)"/>
<path d="M27.2671 168.412L11.7284 191.065L52.5902 215.643L65.3538 191.321L27.2671 168.412Z" fill="url(#paint23_linear)"/>
<path fill-rule="evenodd" clip-rule="evenodd" d="M2.72122 201.498L9.5413 191.354L53.395 217.732L47.6201 228.53C47.6123 228.546 47.604 228.561 47.5951 228.576L47.5892 228.587L47.5887 228.587C46.322 230.693 35.2405 226.351 22.8373 218.891C10.4338 211.43 1.40553 203.676 2.67198 201.57C2.68702 201.545 2.70343 201.521 2.72122 201.498Z" fill="url(#paint24_linear)"/>
<path d="M13.1557 195.793L16.9003 199.298L10.9778 208.359L7.23319 204.855L13.1557 195.793Z" fill="url(#paint25_linear)"/>
<ellipse cx="46.3101" cy="179.866" rx="22.176" ry="3.23556" transform="rotate(31.0266 46.3101 179.866)" fill="#FF1C1C"/>
<ellipse cx="31.4678" cy="204.543" rx="25.5877" ry="3.80178" transform="rotate(31.0266 31.4678 204.543)" fill="#FF1C1C"/>
<path d="M30.4673 206.206C41.7605 212.999 51.6623 217.264 52.5834 215.733C52.5979 215.709 52.61 215.684 52.6199 215.657C50.1677 212.527 42.7337 206.882 33.4275 201.285C24.1212 195.687 15.6509 191.765 11.7366 191.066C11.7177 191.087 11.701 191.11 11.6865 191.134C10.7655 192.665 19.1739 199.413 30.4673 206.206Z" fill="url(#paint26_linear)"/>
<path d="M29.6701 174.576L33.5648 177.674L20.8229 196.818L16.623 193.678L29.6701 174.576Z" fill="url(#paint27_linear)"/>
<path d="M332.24 312.521C332.24 312.521 333.234 314.534 334.323 315.387C335.413 316.24 336.609 315.761 337.606 316.72C338.343 317.429 338.439 317.944 339.222 318.603C340.676 319.826 343.787 319.086 343.787 319.086C343.787 319.086 343.671 314.864 344.02 312.471C344.44 309.594 346.386 306.289 346.386 306.289C346.386 306.289 342.855 307.154 340.704 308.022C337.465 309.331 332.24 312.521 332.24 312.521Z" fill="#FFB0AB"/>
<path d="M407.539 206.561C407.539 206.561 409.513 207.629 410.325 208.75C411.136 209.87 410.612 211.048 411.534 212.08C412.215 212.843 412.726 212.958 413.355 213.765C414.523 215.264 413.667 218.345 413.667 218.345C413.667 218.345 409.453 218.071 407.048 218.331C404.158 218.643 400.783 220.464 400.783 220.464C400.783 220.464 401.778 216.968 402.727 214.851C404.155 211.663 407.539 206.561 407.539 206.561Z" fill="#FFB0AB"/>
<path d="M394.55 225.974C365.53 240.192 349.249 275.689 346.501 295.783" stroke="url(#paint28_linear)" stroke-width="28.2237" stroke-linecap="round"/>
<path d="M356.136 258.705L369.192 284.801L413.057 259.476L397.022 235.1L356.136 258.705Z" fill="url(#paint29_linear)"/>
<path fill-rule="evenodd" clip-rule="evenodd" d="M374.264 298.563L368.335 286.983L415.412 259.803L422.462 270.705C422.48 270.73 422.498 270.756 422.513 270.783C423.818 273.044 414.082 281.108 400.767 288.795C387.452 296.483 375.6 300.882 374.295 298.622C374.295 298.622 374.295 298.622 374.295 298.622L374.295 298.622L374.287 298.608C374.279 298.593 374.272 298.578 374.264 298.563Z" fill="url(#paint30_linear)"/>
<path d="M374.321 285.908L379.505 284.231L384.878 294.398L379.695 296.074L374.321 285.908Z" fill="url(#paint31_linear)"/>
<ellipse cx="376.579" cy="246.902" rx="23.5558" ry="3.43687" transform="rotate(-30 376.579 246.902)" fill="#1C42FF"/>
<ellipse cx="391.874" cy="273.393" rx="27.1797" ry="4.03832" transform="rotate(-30 391.874 273.393)" fill="#1C42FF"/>
<path d="M392.905 275.178C405.028 268.179 414.087 261.172 413.138 259.529C413.123 259.503 413.105 259.478 413.086 259.455C408.915 260.124 399.845 264.128 389.855 269.895C379.864 275.663 371.862 281.517 369.198 284.794C369.208 284.823 369.22 284.85 369.235 284.876C370.184 286.52 380.782 282.178 392.905 275.178Z" fill="url(#paint32_linear)"/>
<path d="M363.101 259.645L367.984 257.619L379.217 279.31L374.138 281.598L363.101 259.645Z" fill="url(#paint33_linear)"/>
<defs>
<linearGradient id="paint0_linear" x1="152.816" y1="126.833" x2="227.861" y2="165.862" gradientUnits="userSpaceOnUse">
<stop stop-color="#FFD9D9"/>
<stop offset="1" stop-color="#FFB0AB"/>
</linearGradient>
<linearGradient id="paint1_linear" x1="165.634" y1="120.951" x2="252.428" y2="70.8402" gradientUnits="userSpaceOnUse">
<stop stop-color="#0034FB"/>
<stop offset="1" stop-color="#001976"/>
</linearGradient>
<linearGradient id="paint2_linear" x1="177.817" y1="151.107" x2="272.45" y2="96.4707" gradientUnits="userSpaceOnUse">
<stop stop-color="#0034FB"/>
<stop offset="1" stop-color="#001976"/>
</linearGradient>
<linearGradient id="paint3_linear" x1="161.003" y1="90.5324" x2="197.769" y2="132.125" gradientUnits="userSpaceOnUse">
<stop stop-color="white"/>
<stop offset="1" stop-color="white" stop-opacity="0"/>
</linearGradient>
<linearGradient id="paint4_linear" x1="167.209" y1="107.774" x2="250.764" y2="68.6854" gradientUnits="userSpaceOnUse">
<stop stop-color="#0022A5"/>
<stop offset="1" stop-color="#000C3A"/>
</linearGradient>
<linearGradient id="paint5_linear" x1="152.504" y1="65.4418" x2="185.179" y2="103.824" gradientUnits="userSpaceOnUse">
<stop stop-color="white"/>
<stop offset="1" stop-color="white" stop-opacity="0"/>
</linearGradient>
<linearGradient id="paint6_linear" x1="228.577" y1="60.2158" x2="306.773" y2="27.9568" gradientUnits="userSpaceOnUse">
<stop stop-color="#FFD9D9"/>
<stop offset="1" stop-color="#FFB0AB"/>
</linearGradient>
<linearGradient id="paint7_linear" x1="45.639" y1="326.248" x2="88.6108" y2="253.389" gradientUnits="userSpaceOnUse">
<stop stop-color="#FFD9D9"/>
<stop offset="1" stop-color="#FFB0AB"/>
</linearGradient>
<linearGradient id="paint8_linear" x1="385.758" y1="26.0963" x2="370.642" y2="109.323" gradientUnits="userSpaceOnUse">
<stop stop-color="#FFD9D9"/>
<stop offset="1" stop-color="#FFB0AB"/>
</linearGradient>
<linearGradient id="paint9_linear" x1="360.779" y1="134.908" x2="309.713" y2="202.677" gradientUnits="userSpaceOnUse">
<stop stop-color="#FFD9D9"/>
<stop offset="1" stop-color="#FFB0AB"/>
</linearGradient>
<linearGradient id="paint10_linear" x1="281.736" y1="215.04" x2="199.401" y2="234.277" gradientUnits="userSpaceOnUse">
<stop stop-color="#FFD9D9"/>
<stop offset="1" stop-color="#FFB0AB"/>
</linearGradient>
<linearGradient id="paint11_linear" x1="170.076" y1="224.14" x2="95.4459" y2="184.399" gradientUnits="userSpaceOnUse">
<stop stop-color="#FFD9D9"/>
<stop offset="1" stop-color="#FFB0AB"/>
</linearGradient>
<linearGradient id="paint12_linear" x1="80.0439" y1="158.638" x2="42.5719" y2="82.8429" gradientUnits="userSpaceOnUse">
<stop stop-color="#FFD9D9"/>
<stop offset="1" stop-color="#FFB0AB"/>
</linearGradient>
<linearGradient id="paint13_linear" x1="179.962" y1="263.289" x2="266.052" y2="312.993" gradientUnits="userSpaceOnUse">
<stop stop-color="#FB0000"/>
<stop offset="1" stop-color="#660000"/>
</linearGradient>
<linearGradient id="paint14_linear" x1="156.839" y1="293.557" x2="251.472" y2="348.194" gradientUnits="userSpaceOnUse">
<stop stop-color="#FB0000"/>
<stop offset="1" stop-color="#660000"/>
</linearGradient>
<linearGradient id="paint15_linear" x1="200.891" y1="248.707" x2="183.254" y2="301.343" gradientUnits="userSpaceOnUse">
<stop stop-color="white"/>
<stop offset="1" stop-color="white" stop-opacity="0"/>
</linearGradient>
<linearGradient id="paint16_linear" x1="189.062" y1="262.702" x2="264.69" y2="315.519" gradientUnits="userSpaceOnUse">
<stop stop-color="#A30000"/>
<stop offset="1" stop-color="#7B0000"/>
</linearGradient>
<linearGradient id="paint17_linear" x1="218.372" y1="228.802" x2="201.469" y2="276.291" gradientUnits="userSpaceOnUse">
<stop stop-color="white"/>
<stop offset="1" stop-color="white" stop-opacity="0"/>
</linearGradient>
<linearGradient id="paint18_linear" x1="356.855" y1="80.1221" x2="421.503" y2="117.447" gradientUnits="userSpaceOnUse">
<stop stop-color="#FB0000"/>
<stop offset="1" stop-color="#660000"/>
</linearGradient>
<linearGradient id="paint19_linear" x1="339.491" y1="102.851" x2="410.555" y2="143.88" gradientUnits="userSpaceOnUse">
<stop stop-color="#FB0000"/>
<stop offset="1" stop-color="#660000"/>
</linearGradient>
<linearGradient id="paint20_linear" x1="372.572" y1="69.1717" x2="359.328" y2="108.698" gradientUnits="userSpaceOnUse">
<stop stop-color="white"/>
<stop offset="1" stop-color="white" stop-opacity="0"/>
</linearGradient>
<linearGradient id="paint21_linear" x1="363.689" y1="79.6814" x2="420.481" y2="119.343" gradientUnits="userSpaceOnUse">
<stop stop-color="#A30000"/>
<stop offset="1" stop-color="#7B0000"/>
</linearGradient>
<linearGradient id="paint22_linear" x1="385.699" y1="54.2244" x2="373.006" y2="89.8851" gradientUnits="userSpaceOnUse">
<stop stop-color="white"/>
<stop offset="1" stop-color="white" stop-opacity="0"/>
</linearGradient>
<linearGradient id="paint23_linear" x1="11.7284" y1="191.065" x2="52.5902" y2="215.643" gradientUnits="userSpaceOnUse">
<stop stop-color="#FB0000"/>
<stop offset="1" stop-color="#660000"/>
</linearGradient>
<linearGradient id="paint24_linear" x1="0.378867" y1="205.382" x2="45.2961" y2="232.4" gradientUnits="userSpaceOnUse">
<stop stop-color="#FB0000"/>
<stop offset="1" stop-color="#660000"/>
</linearGradient>
<linearGradient id="paint25_linear" x1="21.8918" y1="184.251" x2="12.9808" y2="209.344" gradientUnits="userSpaceOnUse">
<stop stop-color="white"/>
<stop offset="1" stop-color="white" stop-opacity="0"/>
</linearGradient>
<linearGradient id="paint26_linear" x1="16.0985" y1="190.861" x2="51.9163" y2="216.842" gradientUnits="userSpaceOnUse">
<stop stop-color="#A30000"/>
<stop offset="1" stop-color="#7B0000"/>
</linearGradient>
<linearGradient id="paint27_linear" x1="30.4466" y1="174.855" x2="21.9319" y2="197.485" gradientUnits="userSpaceOnUse">
<stop stop-color="white"/>
<stop offset="1" stop-color="white" stop-opacity="0"/>
</linearGradient>
<linearGradient id="paint28_linear" x1="341.606" y1="291.953" x2="393.736" y2="225.337" gradientUnits="userSpaceOnUse">
<stop stop-color="#FFD9D9"/>
<stop offset="1" stop-color="#FFB0AB"/>
</linearGradient>
<linearGradient id="paint29_linear" x1="370.449" y1="287.349" x2="414.672" y2="261.817" gradientUnits="userSpaceOnUse">
<stop stop-color="#0034FB"/>
<stop offset="1" stop-color="#001976"/>
</linearGradient>
<linearGradient id="paint30_linear" x1="376.658" y1="302.715" x2="424.876" y2="274.876" gradientUnits="userSpaceOnUse">
<stop stop-color="#0034FB"/>
<stop offset="1" stop-color="#001976"/>
</linearGradient>
<linearGradient id="paint31_linear" x1="368.09" y1="271.851" x2="386.823" y2="293.043" gradientUnits="userSpaceOnUse">
<stop stop-color="white"/>
<stop offset="1" stop-color="white" stop-opacity="0"/>
</linearGradient>
<linearGradient id="paint32_linear" x1="371.252" y1="280.636" x2="413.825" y2="260.719" gradientUnits="userSpaceOnUse">
<stop stop-color="#0022A5"/>
<stop offset="1" stop-color="#000C3A"/>
</linearGradient>
<linearGradient id="paint33_linear" x1="363.759" y1="259.066" x2="380.408" y2="278.623" gradientUnits="userSpaceOnUse">
<stop stop-color="white"/>
<stop offset="1" stop-color="white" stop-opacity="0"/>
</linearGradient>
</defs>
</svg>
