<svg width="361" height="326" viewBox="0 0 361 326" fill="none" xmlns="http://www.w3.org/2000/svg">
<path d="M360.228 20.7094C364.086 34.0348 350.059 42.9769 339.013 44.5549C327.967 46.1329 318.674 35.4489 318.674 24.2161C318.674 12.9832 327.09 4.75388 339.013 3.8772C350.935 3.00051 356.371 7.3839 360.228 20.7094Z" fill="url(#paint0_radial)"/>
<path d="M329.593 10.4705C329.27 10.0417 328.665 9.94145 328.241 10.2697C326.206 11.8437 324.525 13.8532 323.337 16.1585C323.077 16.6632 323.328 17.2706 323.856 17.4797L324.612 17.7795C325.109 17.9763 325.67 17.746 325.92 17.2742C326.893 15.4432 328.239 13.8405 329.856 12.5674C330.305 12.214 330.416 11.5654 330.072 11.1087L329.593 10.4705Z" fill="url(#paint1_linear)"/>
<path d="M345.725 38.2125C345.906 38.7174 346.455 38.9921 346.957 38.8039C349.366 37.9016 351.566 36.4786 353.382 34.6272C353.779 34.2219 353.719 33.5676 353.277 33.2119L352.642 32.7017C352.226 32.367 351.623 32.4214 351.244 32.798C349.773 34.2597 348.014 35.3931 346.092 36.1313C345.559 36.3363 345.262 36.9232 345.455 37.461L345.725 38.2125Z" fill="url(#paint2_linear)"/>
<path d="M67.5605 273.236C57.514 260.527 66.4987 237.879 80.2336 229.85C93.9686 221.82 114.491 231.406 120.538 246.237C126.585 261.068 119.903 276.464 104.633 284.039C89.3628 291.615 77.6069 285.945 67.5605 273.236Z" fill="url(#paint3_radial)"/>
<path d="M78.9995 237.935C78.6771 237.506 78.0724 237.406 77.6428 237.727C74.4777 240.095 71.8894 243.191 70.1268 246.767C69.8758 247.276 70.1256 247.883 70.6534 248.092L72.5222 248.833C73.0189 249.029 73.5803 248.8 73.8218 248.323C75.2892 245.428 77.4038 242.916 79.9754 240.978C80.4317 240.635 80.5415 239.985 80.1982 239.529L78.9995 237.935Z" fill="url(#paint4_linear)"/>
<path d="M102.384 278.202C102.566 278.707 103.114 278.981 103.619 278.801C107.343 277.474 110.73 275.281 113.471 272.386C113.861 271.974 113.802 271.32 113.36 270.964L111.793 269.705C111.377 269.37 110.773 269.424 110.401 269.807C108.144 272.14 105.381 273.914 102.352 275.006C101.814 275.199 101.517 275.787 101.71 276.325L102.384 278.202Z" fill="url(#paint5_linear)"/>
<path d="M175.842 186.234C183.762 182.447 194.654 189.909 197.252 198.13C199.85 206.35 192.324 216.047 183.762 217.466C175.2 218.884 167.864 213.508 165.691 204.531C163.517 195.553 167.922 190.02 175.842 186.234Z" fill="url(#paint6_radial)"/>
<path d="M173.378 190.912C173.056 190.483 172.45 190.382 172.031 190.717C170.597 191.864 169.399 193.294 168.524 194.923C168.255 195.423 168.506 196.031 169.034 196.24L169.197 196.305C169.694 196.501 170.254 196.27 170.513 195.804C171.217 194.538 172.153 193.42 173.265 192.507C173.706 192.145 173.818 191.496 173.474 191.04L173.378 190.912Z" fill="url(#paint7_linear)"/>
<path d="M185.637 211.967C185.818 212.471 186.367 212.747 186.866 212.551C188.575 211.879 190.142 210.867 191.459 209.569C191.864 209.171 191.804 208.516 191.361 208.16L191.224 208.05C190.808 207.715 190.205 207.771 189.819 208.14C188.773 209.141 187.548 209.932 186.216 210.476C185.687 210.692 185.389 211.278 185.582 211.816L185.637 211.967Z" fill="url(#paint8_linear)"/>
<path d="M94.2826 165.521L97.5683 163.982C97.5683 163.982 97.3236 167.839 97.5683 170.291C97.7944 172.557 98.6772 176.015 98.6772 176.015C98.6772 176.015 106.044 173.839 109.806 176.015C111.593 177.048 113.622 179.671 113.622 179.671L87.2298 179.671C87.2298 179.671 92.7038 177.591 94.2826 174.584C95.9278 171.45 94.2826 165.521 94.2826 165.521Z" fill="#E28181"/>
<path d="M112.88 156.885L116.166 155.346C116.166 155.346 115.923 163.229 116.167 165.68C116.394 167.946 115.837 169.536 117.12 171.404C119.387 174.706 123.534 170.501 127.297 172.676C129.084 173.709 131.112 176.333 131.112 176.333L116.167 176.333C116.167 176.333 111.302 172.344 112.88 169.337C114.525 166.204 112.88 156.885 112.88 156.885Z" fill="#E28181"/>
<path d="M24.7471 34.5133C24.7471 34.5133 33.0771 25.5491 40.0102 22.43C46.2511 19.6224 50.3771 19.6645 57.1812 18.9323C64.9595 18.0951 69.4311 18.1373 77.2139 18.9323C84.2642 19.6523 89.2346 21.6593 95.6568 24.6559C102.371 27.7888 109.648 34.5133 109.648 34.5133C109.648 34.5133 116.561 40.8482 119.505 45.9606C121.646 49.6775 123.518 51.8486 123.639 56.136C123.729 59.3274 123.639 66.3114 123.639 66.3114C123.639 66.3114 116.906 62.6546 113.305 62.6546C107.965 62.6546 98.8366 64.0855 98.8366 64.0855C98.8366 64.0855 111.209 62.7131 129.84 71.2401C143.195 77.3524 152.575 84.7542 152.575 84.7542C152.575 84.7542 148.553 74.2269 146.693 67.2653C144.684 59.748 145.597 56.3141 143.195 49.7764C142.236 47.1668 140.979 45.1529 140.333 43.2578C139.23 40.0257 139.393 37.7962 140.333 34.5133C141.282 31.2011 142.418 29.2954 145.023 27.0408C147.481 24.9139 149.399 24.2332 152.575 23.543C155.67 22.8705 158.305 22.5749 161.32 23.543C163.764 24.3277 166.248 27.0408 166.248 27.0408C166.248 27.0408 167.001 28.5539 167.123 29.9821C167.334 32.4473 166.404 33.3159 166.248 35.7852C166.114 37.9148 166.248 41.9858 166.248 41.9858C166.248 41.9858 164.433 42.5416 164.022 45.0067C162.592 53.5921 164.866 61.789 168.792 73.3069C172.036 82.8223 178.333 86.5928 179.922 96.5195C180.805 102.037 181.534 105.478 179.922 110.829C178.686 114.929 177.092 116.948 174.516 120.368C165.729 132.035 153.745 129.862 141.128 137.221C130.358 143.503 122.685 148.986 114.894 158.526C112.357 161.633 108.424 156.647 104.878 158.526C101.013 160.574 101.31 162.276 97.4055 164.249C90.7932 167.592 93.0913 166.594 85.7993 167.906C74.0259 170.025 58.5923 173.058 46.6878 171.881C40.647 171.284 37.0102 171.317 31.4247 168.94C27.5397 167.286 22.2033 163.295 22.2033 163.295C22.2033 163.295 22.3285 160.677 23.3162 159.48C24.3499 158.227 25.4646 157.994 27.0525 157.651C31.1377 156.77 32.6422 161.232 36.6714 162.341C40.4597 163.385 46.6878 163.295 46.6878 163.295L31.4247 154.71C31.4247 154.71 34.3437 150.496 37.2279 149.861C40.803 149.073 42.2677 152.928 45.8928 153.438C47.9218 153.724 51.1395 153.438 51.1395 153.438L40.8847 147.396C40.8847 147.396 43.2043 143.038 45.8928 142.388C47.912 141.9 51.1395 143.263 51.1395 143.263C51.1395 143.263 46.3019 137.454 45.0979 132.769C43.9232 128.199 45.0979 120.368 45.0979 120.368C45.0979 120.368 39.8253 125.371 35.8765 127.761C30.663 130.916 27.1108 135.33 21.3288 133.405C19.3132 132.734 18.0217 132.229 16.6784 130.583C14.9142 128.422 16.0566 126.229 15.0487 123.627C13.3251 119.178 10.4348 117.745 8.05316 113.611C5.48043 109.145 2.24616 106.751 2.56799 101.607C2.73047 99.0103 2.80973 97.1772 4.55537 95.2476C6.87394 92.6847 13.1408 93.1012 13.1408 93.1012C13.1408 93.1012 9.48407 96.0425 3.91941 92.7038C1.75215 91.4034 1.25589 89.4821 0.898595 86.9801C0.578249 84.7368 0.232341 82.8407 1.85254 81.2564C3.99999 79.1566 9.48407 82.2104 9.48407 82.2104L3.50337 73.7931C1.94229 71.596 1.93691 68.6548 3.41616 66.4018C5.29481 63.5405 7.81487 59.5191 9.48407 56.136C10.9729 53.1184 12.5866 48.9926 13.816 45.6578C14.9935 42.4633 18.4243 40.6563 21.6979 41.5916L31.4247 44.3707L24.7471 34.5133Z" fill="url(#paint9_radial)"/>
<path d="M174.198 35.9442C174.532 34.4284 174.198 31.9695 174.198 31.9695C174.198 31.9695 187.188 35.9762 184.374 37.8521C181.989 39.442 172.608 39.442 172.608 39.442C172.608 39.442 173.875 37.4095 174.198 35.9442Z" fill="#FFD770"/>
<path d="M166.168 27.0408C166.168 27.0408 168.86 26.1137 170.541 26.4843C172.578 26.9334 173.544 27.4722 174.277 29.4256C175.231 31.9695 174.109 35.9731 173.8 38.2496C173.267 42.1743 170.891 43.089 171.574 45.8811C172.167 48.3071 174.436 49.2994 174.833 50.2533C175.231 51.2073 175.335 51.6024 175.231 52.4792C174.999 54.4203 173.506 55.6 171.574 55.8975C169.234 56.2579 167.343 54.7161 166.566 52.4792C166.168 51.335 168.325 48.3234 167.997 45.8811C167.732 43.9117 166.168 42.0653 166.168 42.0653C166.168 42.0653 164.872 40.5169 164.938 36.8584C164.973 34.8784 166.422 32.5534 166.566 30.5783C166.69 28.8754 166.168 27.0408 166.168 27.0408Z" fill="#E28181"/>
<path d="M158.5 31.75C159.5 35.875 155.75 38.9631 153.125 33.5" stroke="white" stroke-width="1.27192" stroke-linecap="round"/>
<path d="M57.389 84.4204C57.389 80.3025 57.1344 72.8447 67.52 69.8738" stroke="white" stroke-width="1.27192" stroke-linecap="round"/>
<path d="M62.0599 96.8217C59.2565 91.9659 61.8053 85.2459 72.1909 82.275" stroke="white" stroke-width="1.27192" stroke-linecap="round"/>
<path d="M81.9323 72.3643C81.9323 69.8474 84.2203 66.9873 87.538 66.9873" stroke="white" stroke-width="1.27192" stroke-linecap="round"/>
<path d="M70.5359 77.7587C67.7324 72.903 71.2858 66.3114 79.1211 66.3114" stroke="white" stroke-width="1.27192" stroke-linecap="round"/>
<path d="M57.1788 117.504C51.5886 117.072 47.4857 111.172 50.9052 100.925" stroke="white" stroke-width="1.27192" stroke-linecap="round"/>
<path d="M70.0499 120.66C64.4597 120.228 60.3568 114.327 63.7763 104.081" stroke="white" stroke-width="1.27192" stroke-linecap="round"/>
<path d="M59.1152 102.893C53.5249 102.461 50.0958 95.8042 54.5246 89.3406" stroke="white" stroke-width="1.27192" stroke-linecap="round"/>
<path d="M175.749 34.871C176.743 35.0698 177.06 35.1095 177.895 35.3878" stroke="#C68E00" stroke-width="1.27192" stroke-linecap="round"/>
<path d="M188.828 27.5451C200.54 46.6452 182.524 66.575 165.998 73.761C149.471 80.947 130.426 68.287 125.618 50.7943C120.809 33.3017 130.393 16.8837 148.584 10.4146C166.776 3.94554 177.117 8.44492 188.828 27.5451Z" fill="url(#paint10_radial)"/>
<path d="M140.766 19.1893C140.4 18.7037 139.715 18.5908 139.229 18.9548C135.644 21.6362 132.712 25.1431 130.715 29.1938C130.431 29.7705 130.714 30.458 131.312 30.6948L133.429 31.5334C133.991 31.7563 134.627 31.4961 134.901 30.9564C136.563 27.6769 138.958 24.832 141.871 22.6371C142.388 22.2476 142.512 21.5122 142.123 20.9949L140.766 19.1893Z" fill="url(#paint11_linear)"/>
<path d="M167.254 64.7997C167.459 65.3716 168.08 65.6819 168.652 65.478C172.87 63.9759 176.707 61.492 179.811 58.2123C180.253 57.7453 180.186 57.0049 179.685 56.602L177.911 55.1753C177.439 54.7961 176.755 54.8567 176.334 55.2915C173.777 57.9333 170.648 59.9433 167.216 61.1794C166.608 61.3987 166.271 62.0645 166.49 62.6736L167.254 64.7997Z" fill="url(#paint12_linear)"/>
<path d="M270.444 270.276C282.155 289.376 264.139 309.306 247.613 316.492C231.086 323.678 212.042 311.018 207.233 293.526C202.425 276.033 212.008 259.615 230.2 253.146C248.391 246.677 258.732 251.176 270.444 270.276Z" fill="url(#paint13_radial)"/>
<path d="M222.381 261.921C222.016 261.435 221.331 261.322 220.844 261.686C217.259 264.367 214.327 267.874 212.331 271.925C212.046 272.502 212.329 273.189 212.927 273.426L215.044 274.265C215.607 274.487 216.242 274.227 216.516 273.688C218.178 270.408 220.573 267.563 223.486 265.368C224.003 264.979 224.127 264.243 223.738 263.726L222.381 261.921Z" fill="url(#paint14_linear)"/>
<path d="M248.869 307.531C249.074 308.103 249.695 308.413 250.268 308.209C254.485 306.707 258.322 304.223 261.427 300.943C261.869 300.476 261.801 299.736 261.3 299.333L259.526 297.906C259.054 297.527 258.37 297.588 257.949 298.023C255.392 300.664 252.263 302.674 248.832 303.91C248.223 304.13 247.887 304.796 248.105 305.405L248.869 307.531Z" fill="url(#paint15_linear)"/>
<path d="M270.552 195.29L268.018 194.103C268.018 194.103 268.207 197.078 268.018 198.969C267.844 200.716 267.163 203.383 267.163 203.383C267.163 203.383 261.482 201.705 258.58 203.383C257.202 204.179 255.637 206.203 255.637 206.203L275.991 206.203C275.991 206.203 271.77 204.598 270.552 202.279C269.283 199.863 270.552 195.29 270.552 195.29Z" fill="#E28181"/>
<path d="M256.21 188.63L253.676 187.443C253.676 187.443 253.864 193.522 253.675 195.413C253.501 197.16 253.93 198.386 252.94 199.827C251.192 202.373 247.994 199.13 245.092 200.808C243.714 201.604 242.15 203.628 242.15 203.628L253.676 203.628C253.676 203.628 257.428 200.552 256.21 198.233C254.941 195.816 256.21 188.63 256.21 188.63Z" fill="#E28181"/>
<path d="M324.177 94.2577C324.177 94.2577 317.753 87.3445 312.407 84.9391C307.594 82.7739 304.412 82.8064 299.165 82.2417C293.166 81.5961 289.717 81.6286 283.715 82.2417C278.278 82.797 274.445 84.3448 269.492 86.6557C264.314 89.0718 258.702 94.2577 258.702 94.2577C258.702 94.2577 253.371 99.1431 251.1 103.086C249.45 105.952 248.006 107.627 247.913 110.933C247.843 113.394 247.913 118.78 247.913 118.78C247.913 118.78 253.105 115.96 255.882 115.96C260 115.96 267.04 117.064 267.04 117.064C267.04 117.064 257.499 116.005 243.131 122.581C232.831 127.295 225.597 133.003 225.597 133.003C225.597 133.003 228.699 124.885 230.134 119.516C231.683 113.719 230.979 111.07 232.831 106.028C233.571 104.016 234.54 102.463 235.038 101.001C235.889 98.5088 235.764 96.7894 235.038 94.2577C234.307 91.7033 233.43 90.2337 231.421 88.4949C229.526 86.8547 228.046 86.3297 225.597 85.7974C223.211 85.2788 221.179 85.0508 218.854 85.7974C216.969 86.4026 215.052 88.4949 215.052 88.4949C215.052 88.4949 214.472 89.6618 214.378 90.7632C214.216 92.6644 214.932 93.3342 215.052 95.2386C215.156 96.8809 215.052 100.02 215.052 100.02C215.052 100.02 216.452 100.449 216.769 102.35C217.873 108.971 216.119 115.293 213.091 124.175C210.589 131.513 205.733 134.421 204.508 142.077C203.827 146.332 203.265 148.985 204.508 153.112C205.46 156.273 206.69 157.831 208.677 160.468C215.453 169.466 224.695 167.79 234.425 173.465C242.731 178.31 248.648 182.539 254.656 189.895C256.614 192.292 259.647 188.447 262.381 189.895C265.362 191.475 265.133 192.787 268.144 194.309C273.243 196.887 271.471 196.117 277.094 197.13C286.174 198.764 298.076 201.103 307.257 200.195C311.916 199.734 314.72 199.76 319.028 197.926C322.024 196.651 326.139 193.574 326.139 193.574C326.139 193.574 326.043 191.555 325.281 190.631C324.484 189.665 323.624 189.485 322.4 189.221C319.249 188.541 318.089 191.982 314.982 192.838C312.06 193.643 307.257 193.574 307.257 193.574L319.028 186.953C319.028 186.953 316.777 183.703 314.552 183.213C311.795 182.606 310.666 185.578 307.87 185.972C306.305 186.192 303.824 185.972 303.824 185.972L311.732 181.313C311.732 181.313 309.943 177.951 307.87 177.45C306.313 177.074 303.824 178.125 303.824 178.125C303.824 178.125 307.555 173.645 308.483 170.032C309.389 166.508 308.483 160.468 308.483 160.468C308.483 160.468 312.549 164.327 315.595 166.17C319.615 168.603 322.355 172.007 326.814 170.523C328.368 170.005 329.364 169.615 330.4 168.346C331.761 166.679 330.88 164.988 331.657 162.982C332.986 159.551 335.215 158.446 337.052 155.257C339.036 151.813 341.53 149.967 341.282 146C341.157 143.997 341.096 142.584 339.749 141.096C337.961 139.119 333.128 139.44 333.128 139.44C333.128 139.44 335.948 141.709 340.24 139.134C341.911 138.131 342.294 136.649 342.569 134.72C342.816 132.99 343.083 131.528 341.834 130.306C340.178 128.686 335.948 131.041 335.948 131.041L340.561 124.55C341.764 122.856 341.769 120.587 340.628 118.85C339.179 116.643 337.236 113.542 335.948 110.933C334.8 108.606 333.556 105.424 332.608 102.852C331.699 100.389 329.054 98.9951 326.529 99.7164L319.028 101.86L324.177 94.2577Z" fill="url(#paint16_radial)"/>
<path d="M208.921 95.3612C208.664 94.1922 208.921 92.2959 208.921 92.2959C208.921 92.2959 198.904 95.3859 201.074 96.8326C202.913 98.0587 210.147 98.0587 210.147 98.0587C210.147 98.0587 209.17 96.4912 208.921 95.3612Z" fill="#FFD770"/>
<path d="M215.115 88.4949C215.115 88.4949 213.039 87.78 211.743 88.0657C210.172 88.4121 209.427 88.8276 208.862 90.3341C208.126 92.2959 208.991 95.3835 209.229 97.1391C209.64 100.166 211.472 100.871 210.946 103.024C210.488 104.895 208.739 105.661 208.432 106.396C208.126 107.132 208.045 107.437 208.126 108.113C208.304 109.61 209.456 110.52 210.946 110.749C212.751 111.027 214.209 109.838 214.808 108.113C215.115 107.23 213.451 104.908 213.705 103.024C213.909 101.506 215.115 100.082 215.115 100.082C215.115 100.082 216.114 98.8876 216.064 96.0662C216.036 94.5392 214.919 92.7462 214.808 91.223C214.712 89.9097 215.115 88.4949 215.115 88.4949Z" fill="#E28181"/>
<path d="M220.062 91.6875C219 94 221.75 100.5 224.75 92.75" stroke="white" stroke-width="0.980899" stroke-linecap="round"/>
<path d="M299.004 132.746C299.004 129.57 299.201 123.819 291.192 121.528" stroke="white" stroke-width="0.980899" stroke-linecap="round"/>
<path d="M295.402 142.31C297.564 138.565 295.598 133.382 287.589 131.091" stroke="white" stroke-width="0.980899" stroke-linecap="round"/>
<path d="M280.077 123.448C280.077 121.507 278.312 119.302 275.754 119.302" stroke="white" stroke-width="0.980899" stroke-linecap="round"/>
<path d="M288.865 127.608C291.027 123.864 288.287 118.78 282.245 118.78" stroke="white" stroke-width="0.980899" stroke-linecap="round"/>
<path d="M299.166 158.26C303.477 157.927 306.642 153.376 304.004 145.474" stroke="white" stroke-width="0.980899" stroke-linecap="round"/>
<path d="M289.24 160.694C293.552 160.361 296.716 155.81 294.079 147.908" stroke="white" stroke-width="0.980899" stroke-linecap="round"/>
<path d="M297.673 146.992C301.985 146.659 304.629 141.525 301.214 136.54" stroke="white" stroke-width="0.980899" stroke-linecap="round"/>
<path d="M207.726 94.5336C206.959 94.6868 206.715 94.7175 206.071 94.9321" stroke="#C68E00" stroke-width="0.980899" stroke-linecap="round"/>
<path d="M197.639 88.8838C188.608 103.614 202.501 118.984 215.246 124.525C227.991 130.067 242.679 120.304 246.387 106.814C250.095 93.3233 242.704 80.6618 228.675 75.6729C214.646 70.684 206.671 74.1539 197.639 88.8838Z" fill="url(#paint17_radial)"/>
<path d="M234.705 82.4399C234.986 82.0654 235.515 81.9784 235.89 82.259C238.655 84.3269 240.916 87.0315 242.455 90.1553C242.674 90.6001 242.456 91.1303 241.995 91.3129L240.363 91.9596C239.929 92.1315 239.439 91.9308 239.228 91.5146C237.946 88.9855 236.099 86.7915 233.852 85.0988C233.454 84.7984 233.358 84.2313 233.658 83.8324L234.705 82.4399Z" fill="url(#paint18_linear)"/>
<path d="M214.278 117.614C214.119 118.055 213.64 118.295 213.199 118.137C209.947 116.979 206.987 115.063 204.593 112.534C204.252 112.174 204.304 111.603 204.691 111.292L206.059 110.192C206.423 109.9 206.95 109.946 207.275 110.282C209.247 112.319 211.66 113.869 214.306 114.822C214.776 114.992 215.035 115.505 214.867 115.975L214.278 117.614Z" fill="url(#paint19_linear)"/>
<defs>
<radialGradient id="paint0_radial" cx="0" cy="0" r="1" gradientUnits="userSpaceOnUse" gradientTransform="translate(339.013 24.2161) rotate(90) scale(20.3389)">
<stop offset="0.0989583" stop-color="#634396" stop-opacity="0"/>
<stop offset="1" stop-color="#FFBDBD" stop-opacity="0.6"/>
</radialGradient>
<linearGradient id="paint1_linear" x1="324.548" y1="10.8029" x2="329.019" y2="15.6246" gradientUnits="userSpaceOnUse">
<stop stop-color="white"/>
<stop offset="1" stop-color="white" stop-opacity="0"/>
</linearGradient>
<linearGradient id="paint2_linear" x1="350.643" y1="39.3859" x2="347.796" y2="33.4582" gradientUnits="userSpaceOnUse">
<stop stop-color="white"/>
<stop offset="1" stop-color="white" stop-opacity="0"/>
</linearGradient>
<radialGradient id="paint3_radial" cx="0" cy="0" r="1" gradientUnits="userSpaceOnUse" gradientTransform="translate(93.6841 257.186) rotate(-112.181) scale(29)">
<stop offset="0.385417" stop-color="#634396" stop-opacity="0"/>
<stop offset="1" stop-color="#5FA8B1"/>
</radialGradient>
<linearGradient id="paint4_linear" x1="72.0518" y1="238.735" x2="78.4268" y2="245.61" gradientUnits="userSpaceOnUse">
<stop stop-color="white"/>
<stop offset="1" stop-color="white" stop-opacity="0"/>
</linearGradient>
<linearGradient id="paint5_linear" x1="109.259" y1="279.49" x2="105.2" y2="271.038" gradientUnits="userSpaceOnUse">
<stop stop-color="white"/>
<stop offset="1" stop-color="white" stop-opacity="0"/>
</linearGradient>
<radialGradient id="paint6_radial" cx="0" cy="0" r="1" gradientUnits="userSpaceOnUse" gradientTransform="translate(181.194 201.962) rotate(-9.40628) scale(15.7146)">
<stop offset="0.385417" stop-color="#634396" stop-opacity="0"/>
<stop offset="1" stop-color="#FFBDBD"/>
</radialGradient>
<linearGradient id="paint7_linear" x1="169.349" y1="190.994" x2="172.804" y2="194.72" gradientUnits="userSpaceOnUse">
<stop stop-color="white"/>
<stop offset="1" stop-color="white" stop-opacity="0"/>
</linearGradient>
<linearGradient id="paint8_linear" x1="189.51" y1="213.079" x2="187.311" y2="208.499" gradientUnits="userSpaceOnUse">
<stop stop-color="white"/>
<stop offset="1" stop-color="white" stop-opacity="0"/>
</linearGradient>
<radialGradient id="paint9_radial" cx="0" cy="0" r="1" gradientUnits="userSpaceOnUse" gradientTransform="translate(155.437 37.0571) rotate(124.641) scale(85.5267 100.218)">
<stop stop-color="#2C2540"/>
<stop offset="1" stop-color="#3D2B71"/>
</radialGradient>
<radialGradient id="paint10_radial" cx="0" cy="0" r="1" gradientUnits="userSpaceOnUse" gradientTransform="translate(157.291 42.0878) rotate(74.6298) scale(32.8481)">
<stop offset="0.385417" stop-color="#634396" stop-opacity="0"/>
<stop offset="1" stop-color="#8A70D7"/>
</radialGradient>
<linearGradient id="paint11_linear" x1="132.896" y1="20.0963" x2="140.117" y2="27.8836" gradientUnits="userSpaceOnUse">
<stop stop-color="white"/>
<stop offset="1" stop-color="white" stop-opacity="0"/>
</linearGradient>
<linearGradient id="paint12_linear" x1="175.04" y1="66.259" x2="170.443" y2="56.6856" gradientUnits="userSpaceOnUse">
<stop stop-color="white"/>
<stop offset="1" stop-color="white" stop-opacity="0"/>
</linearGradient>
<radialGradient id="paint13_radial" cx="0" cy="0" r="1" gradientUnits="userSpaceOnUse" gradientTransform="translate(238.906 284.819) rotate(74.6298) scale(32.8481)">
<stop offset="0.385417" stop-color="#634396" stop-opacity="0"/>
<stop offset="1" stop-color="#8A70D7"/>
</radialGradient>
<linearGradient id="paint14_linear" x1="214.511" y1="262.828" x2="221.732" y2="270.615" gradientUnits="userSpaceOnUse">
<stop stop-color="white"/>
<stop offset="1" stop-color="white" stop-opacity="0"/>
</linearGradient>
<linearGradient id="paint15_linear" x1="256.655" y1="308.99" x2="252.058" y2="299.417" gradientUnits="userSpaceOnUse">
<stop stop-color="white"/>
<stop offset="1" stop-color="white" stop-opacity="0"/>
</linearGradient>
<radialGradient id="paint16_radial" cx="0" cy="0" r="1" gradientUnits="userSpaceOnUse" gradientTransform="translate(223.39 96.2195) rotate(55.3594) scale(65.9577 77.288)">
<stop stop-color="#2C2540"/>
<stop offset="1" stop-color="#3D2B71"/>
</radialGradient>
<radialGradient id="paint17_radial" cx="0" cy="0" r="1" gradientUnits="userSpaceOnUse" gradientTransform="translate(222.044 99.4935) rotate(105.37) scale(24.7682 25.4126)">
<stop offset="0.385417" stop-color="#634396" stop-opacity="0"/>
<stop offset="1" stop-color="#5FA8B1"/>
</radialGradient>
<linearGradient id="paint18_linear" x1="240.774" y1="83.1394" x2="235.205" y2="89.1449" gradientUnits="userSpaceOnUse">
<stop stop-color="white"/>
<stop offset="1" stop-color="white" stop-opacity="0"/>
</linearGradient>
<linearGradient id="paint19_linear" x1="208.273" y1="118.74" x2="211.818" y2="111.357" gradientUnits="userSpaceOnUse">
<stop stop-color="white"/>
<stop offset="1" stop-color="white" stop-opacity="0"/>
</linearGradient>
</defs>
</svg>
