<svg width="265" height="350" viewBox="0 0 265 350" fill="none" xmlns="http://www.w3.org/2000/svg">
<path d="M2.35059 243.096H29.3335H69.8079L110.582 241.897L109.982 260.185L72.5062 261.684L35.9293 260.185L2.35059 261.684V243.096Z" fill="#F3FBFF"/>
<path d="M90.4949 346.53L29.6334 347.73L18.5405 345.031L11.9446 264.382L49.4209 262.883L85.9978 264.382L103.087 262.883L90.4949 346.53Z" fill="#F3FBFF"/>
<path d="M26.6352 119.574L46.4226 109.98L72.2063 112.379L87.7964 115.377L105.185 130.068L109.383 147.157L111.182 166.944V185.533L109.383 207.419L96.4909 239.498H18.8401L8.94638 212.815L4.14941 187.331V159.749L14.343 133.665L26.6352 119.574Z" fill="#7CA6BE"/>
<path d="M66.5107 119.574C71.6075 122.273 75.803 124.071 78.5031 133.066C79.5563 136.574 80.1738 144.243 81.2014 147.756C81.508 148.805 82.1549 155.108 82.281 156.187C82.6892 159.679 83.178 163.18 83.3237 166.687C83.6235 173.904 84.1334 181.128 83.7792 188.351C83.5518 192.989 82.8366 197.6 82.5645 202.239C82.3318 206.206 81.3771 209.145 81.2014 213.115C80.902 219.883 80.2222 225.353 78.803 232.003C78.2892 234.41 78.0144 238.866 77.6852 241.297" stroke="#EAD8D3" stroke-width="2.9981" stroke-linecap="round" stroke-linejoin="round"/>
<path d="M73.1064 112.678C83.0002 110.88 98.2905 119.574 103.987 128.269C105.994 131.332 108.955 144.242 109.983 147.756C110.29 148.804 110.937 155.108 111.063 156.187C111.471 159.678 111.96 163.18 112.105 166.687C112.405 173.904 112.459 178.609 112.105 185.832C111.878 190.471 111.335 192.286 111.063 196.925C110.83 200.892 108.06 205.847 107.884 209.817C107.585 216.585 104.207 219.356 102.788 226.007C102.274 228.414 96.2212 238.866 95.892 241.297" stroke="#EAD8D3" stroke-width="2.9981" stroke-linecap="round" stroke-linejoin="round"/>
<path d="M50.9199 115.377C45.8231 118.075 36.5004 124.071 33.8003 133.066C32.7472 136.574 32.1297 144.243 31.102 147.756C30.7954 148.805 30.1486 155.108 30.0224 156.187C29.6142 159.678 29.1254 163.18 28.9797 166.687C28.6799 173.904 28.1701 181.127 28.5242 188.35C28.7516 192.989 29.4669 197.6 29.739 202.239C29.9716 206.206 30.9264 209.145 31.102 213.115C31.4014 219.883 32.0812 225.353 33.5005 232.003C34.0142 234.41 34.2891 238.866 34.6182 241.297" stroke="#EAD8D3" stroke-width="2.9981" stroke-linecap="round" stroke-linejoin="round"/>
<path d="M58.2365 126.17C57.9367 133.387 57.8824 181.127 58.2365 188.35C58.4639 192.989 59.9145 223.308 55.7174 240.098" stroke="#EAD8D3" stroke-width="2.9981" stroke-linecap="round" stroke-linejoin="round"/>
<path d="M49.4209 111.479C39.5272 109.681 21.8384 121.673 16.142 130.367C14.1347 133.431 8.17536 144.842 7.14767 148.356C6.84109 149.404 4.54511 156.271 4.41893 157.35C4.01073 160.842 3.52195 164.343 3.37627 167.85C3.07643 175.067 3.02215 178.01 3.37627 185.233C3.60369 189.871 4.14684 191.686 4.41893 196.326C4.65159 200.292 7.42158 205.248 7.5972 209.217C7.89665 215.986 11.2747 218.757 12.694 225.407C13.2077 227.814 19.2605 238.267 19.5896 240.697" stroke="#EAD8D3" stroke-width="2.9981" stroke-linecap="round" stroke-linejoin="round"/>
<path d="M75.9541 202.472C77.7978 203.866 79.4894 205.319 80.8343 207.202C81.2472 207.78 81.7918 208.303 82.0836 208.959C82.1011 208.999 82.8047 208.289 82.883 208.218C84.6649 206.603 86.5464 205.09 88.3962 203.554C88.8634 203.167 89.426 202.855 89.862 202.438C90.16 202.154 90.4349 201.752 90.7947 201.572" stroke="#EAD8D3" stroke-width="2.9981" stroke-linecap="round" stroke-linejoin="round"/>
<path d="M78.0537 187.481C79.4541 189.37 81.1979 190.936 82.6258 192.803C83.4914 193.935 83.8236 193.114 84.7661 192.278C85.9455 191.232 87.0386 189.973 88.0307 188.747C88.4729 188.201 88.9963 187.749 89.5131 187.273C89.7622 187.044 90.2029 186.868 90.3459 186.582" stroke="#EAD8D3" stroke-width="2.9981" stroke-linecap="round" stroke-linejoin="round"/>
<path d="M76.2539 171.741C77.6294 173.051 79.2417 174.02 80.6844 175.239C81.2164 175.688 81.8843 175.946 82.4083 176.405C82.7373 176.693 82.9032 177.181 83.2245 177.438C83.6896 177.81 84.1401 177.022 84.4987 176.721C85.451 175.922 86.5223 175.261 87.3469 174.323C87.8959 173.698 88.2651 172.938 88.8543 172.349C89.5707 171.633 90.1951 170.694 90.1951 169.642" stroke="#EAD8D3" stroke-width="2.9981" stroke-linecap="round" stroke-linejoin="round"/>
<path d="M75.3545 154.802C76.9603 157.449 79.644 158.931 82.0086 160.781C83.0856 161.624 83.0502 162.31 84.3988 161.098C86.2709 159.415 86.7197 157.077 88.0964 155.11C88.6747 154.284 88.9959 153.418 88.9959 152.403" stroke="#EAD8D3" stroke-width="2.9981" stroke-linecap="round" stroke-linejoin="round"/>
<path d="M73.2559 139.811C75.301 141.126 77.2205 142.594 79.1854 144.009C79.7158 144.391 80.3684 145.16 81.0509 145.058C81.8551 144.937 83.0581 143.028 83.4994 142.443C84.1596 141.568 84.4679 140.409 85.1733 139.595C85.6699 139.022 86.5974 138.341 86.5974 137.563" stroke="#EAD8D3" stroke-width="2.9981" stroke-linecap="round" stroke-linejoin="round"/>
<path d="M52.2695 153.753C53.2379 156.254 54.8027 159.067 56.7334 160.998C56.9245 161.189 57.0716 161.504 57.2497 161.664C57.4601 161.854 58.2073 160.701 58.2657 160.615C59.3167 159.059 60.4693 157.639 61.6469 156.184C62.0569 155.678 62.7065 155.121 62.9128 154.502" stroke="#EAD8D3" stroke-width="2.9981" stroke-linecap="round" stroke-linejoin="round"/>
<path d="M51.0693 172.041C52.1221 173.686 53.2703 175.213 54.5754 176.663C54.9446 177.073 55.304 177.419 55.5998 177.887C55.8105 178.221 56.062 178.412 56.2494 178.787C56.3726 179.033 56.8561 179.536 57.1405 179.536C57.6701 179.536 58.1533 179.415 58.5479 179.036C59.8337 177.802 61.0799 176.502 62.3039 175.206C63.218 174.238 64.8811 173.179 65.3103 171.891" stroke="#EAD8D3" stroke-width="2.9981" stroke-linecap="round" stroke-linejoin="round"/>
<path d="M52.4189 190.329C53.8569 193.294 55.6392 196.174 57.6323 198.807C58.1692 199.517 58.4316 200.181 59.2646 199.59C61.4241 198.058 63.1355 196.324 64.5279 194.077C64.9814 193.345 65.3853 192.665 65.9937 192.045C66.2432 191.791 66.6593 191.53 66.8098 191.229" stroke="#EAD8D3" stroke-width="2.9981" stroke-linecap="round" stroke-linejoin="round"/>
<path d="M52.2695 209.367C53.7302 210.997 55.1611 212.638 56.8167 214.073C57.3586 214.542 58.0605 215.074 58.4739 215.647C58.9599 216.32 59.4847 216.165 60.1479 215.663C61.1194 214.928 61.6423 213.733 62.3215 212.757C63.163 211.547 64.274 210.554 65.3113 209.517" stroke="#EAD8D3" stroke-width="2.9981" stroke-linecap="round" stroke-linejoin="round"/>
<path d="M52.7188 224.208C53.6855 226.356 54.9613 228.423 56.6829 230.054C57.0273 230.38 57.1809 230.654 57.6656 230.654C60.0835 230.654 61.841 229.177 63.4286 227.589C63.9844 227.033 64.6995 226.26 65.4607 226.007" stroke="#EAD8D3" stroke-width="2.9981" stroke-linecap="round" stroke-linejoin="round"/>
<path d="M72.3564 227.806C73.4502 229.457 74.7843 230.955 76.0874 232.444C76.3588 232.755 76.671 233.525 77.0868 233.644C78.4392 234.03 80.4084 232.094 81.3174 231.437C83.0464 230.186 85.2344 229.169 86.7473 227.656" stroke="#EAD8D3" stroke-width="2.9981" stroke-linecap="round" stroke-linejoin="round"/>
<path d="M74.7549 216.863C76.768 218.428 78.7349 220.071 80.7511 221.626C81.1201 221.911 81.636 222.125 82.1002 221.893C83.9751 220.955 85.8749 219.696 87.197 218.062C87.8366 217.271 88.4262 216.383 89.1458 215.663" stroke="#EAD8D3" stroke-width="2.9981" stroke-linecap="round" stroke-linejoin="round"/>
<path d="M97.0908 220.46C98.3379 221.707 99.9514 223.116 100.689 224.774C100.987 225.446 101.483 226.299 101.888 226.906" stroke="#EAD8D3" stroke-width="2.9981" stroke-linecap="round" stroke-linejoin="round"/>
<path d="M101.738 205.92C102.602 208.058 103.555 210.158 104.961 211.991C105.475 212.66 106.315 213.424 106.685 214.164" stroke="#EAD8D3" stroke-width="2.9981" stroke-linecap="round" stroke-linejoin="round"/>
<path d="M105.336 191.978C106.266 193.116 107.28 194.179 108.184 195.335C108.505 195.744 108.747 196.232 109.084 196.617C109.366 196.94 109.833 197.532 109.833 197.975" stroke="#EAD8D3" stroke-width="2.9981" stroke-linecap="round" stroke-linejoin="round"/>
<path d="M105.036 176.988C106.106 179.16 107.362 181.573 109.15 183.275C109.489 183.598 109.599 183.832 109.833 184.183" stroke="#EAD8D3" stroke-width="2.9981" stroke-linecap="round" stroke-linejoin="round"/>
<path d="M105.935 165.745C107.461 166.644 109.086 167.531 110.465 168.66C110.835 168.962 111.095 169.353 111.481 169.643" stroke="#EAD8D3" stroke-width="2.9981" stroke-linecap="round" stroke-linejoin="round"/>
<path d="M103.387 150.904C105.232 152.399 107.175 153.739 109.05 155.185C109.392 155.449 109.549 155.599 109.683 156.001" stroke="#EAD8D3" stroke-width="2.9981" stroke-linecap="round" stroke-linejoin="round"/>
<path d="M100.389 136.813C102.793 138.068 105.467 138.9 107.734 140.411" stroke="#EAD8D3" stroke-width="2.9981" stroke-linecap="round" stroke-linejoin="round"/>
<path d="M96.3418 126.62C97.8036 127.716 99.9984 127.369 101.738 127.369" stroke="#EAD8D3" stroke-width="2.9981" stroke-linecap="round" stroke-linejoin="round"/>
<path d="M25.5859 120.024C28.1383 120.615 30.4147 120.474 32.9313 120.474" stroke="#EAD8D3" stroke-width="2.9981" stroke-linecap="round" stroke-linejoin="round"/>
<path d="M15.3926 132.766C17.2727 132.742 19.4539 132.663 21.2389 131.983C21.8517 131.75 22.5507 131.83 23.1876 131.683C23.4963 131.612 23.8249 131.642 23.4875 131.417" stroke="#EAD8D3" stroke-width="2.9981" stroke-linecap="round" stroke-linejoin="round"/>
<path d="M8.49707 147.007C10.0879 146.34 11.71 145.765 13.3107 145.125C13.8771 144.898 14.1624 144.559 14.6432 144.25C14.9416 144.058 15.651 144.009 15.9923 144.009" stroke="#EAD8D3" stroke-width="2.9981" stroke-linecap="round" stroke-linejoin="round"/>
<path d="M3.7002 166.494C5.39046 165.343 7.20657 164.417 8.91356 163.296C9.28079 163.056 9.58005 162.93 9.87962 162.63C10.3037 162.206 11.1801 161.698 11.7951 161.698" stroke="#EAD8D3" stroke-width="2.9981" stroke-linecap="round" stroke-linejoin="round"/>
<path d="M3.25098 186.582C4.64074 184.614 6.28702 182.231 8.16453 180.652C8.62558 180.264 9.11646 179.58 9.69689 179.386" stroke="#EAD8D3" stroke-width="2.9981" stroke-linecap="round" stroke-linejoin="round"/>
<path d="M6.84863 204.121C8.45107 202.19 10.0675 200.315 11.1626 198.041C11.4253 197.496 11.7617 196.976 12.0953 196.475" stroke="#EAD8D3" stroke-width="2.9981" stroke-linecap="round" stroke-linejoin="round"/>
<path d="M13.8936 224.358C14.7513 222.291 15.5012 220.158 16.4419 218.128C16.5947 217.799 16.5918 217.518 16.5918 217.162" stroke="#EAD8D3" stroke-width="2.9981" stroke-linecap="round" stroke-linejoin="round"/>
<path d="M16.4424 235.001C18.5562 233.434 19.6513 230.996 20.723 228.655C20.9868 228.079 21.3981 227.052 21.9889 226.756" stroke="#EAD8D3" stroke-width="2.9981" stroke-linecap="round" stroke-linejoin="round"/>
<path d="M27.3848 228.705C29.2244 230.39 31.4582 232.007 33.8224 232.894C34.2235 233.044 34.4788 233.154 34.8134 232.819C37.3563 230.276 39.8307 227.652 42.3753 225.107" stroke="#EAD8D3" stroke-width="2.9981" stroke-linecap="round" stroke-linejoin="round"/>
<path d="M25.2861 216.563C26.5594 218.444 27.8488 220.786 30.1164 221.626C30.2834 221.688 30.4186 221.742 30.5328 221.884C30.8045 222.224 32.1373 221.141 32.2984 221.035C34.3602 219.681 35.9746 218.043 37.4118 216.046C37.6076 215.774 38.178 215.179 38.178 214.914" stroke="#EAD8D3" stroke-width="2.9981" stroke-linecap="round" stroke-linejoin="round"/>
<path d="M23.3379 200.973C24.6912 203.409 26.6665 204.945 28.8344 206.552C29.1042 206.752 29.7668 207.512 30.1502 207.352C30.8384 207.065 31.6459 206.453 32.1823 205.97C33.5972 204.693 34.7023 202.998 35.9632 201.572C36.7389 200.695 37.7282 199.549 38.7781 199.024" stroke="#EAD8D3" stroke-width="2.9981" stroke-linecap="round" stroke-linejoin="round"/>
<path d="M20.7891 184.483C21.898 185.921 23.1176 186.866 24.5367 187.964C25.355 188.598 26.2292 189.171 26.8769 189.963C27.0225 190.141 28.513 191.583 28.5258 191.57C29.0172 191.079 29.3437 190.39 29.7501 189.83C30.8229 188.35 32.0947 187.069 33.4644 185.866C34.231 185.192 34.9208 184.389 35.7046 183.75C36.0033 183.507 36.3599 183.322 36.5291 182.984" stroke="#EAD8D3" stroke-width="2.9981" stroke-linecap="round" stroke-linejoin="round"/>
<path d="M20.7891 166.494C21.8561 169.811 23.632 172.542 25.6193 175.339C26.1564 176.095 26.5346 176.345 27.3932 176.613C28.0326 176.813 28.7854 175.822 29.2004 175.439C31.0221 173.757 32.6626 171.965 34.1223 169.967C34.71 169.163 35.3737 168.249 36.0794 167.544C36.2558 167.367 36.4186 167.315 36.5291 167.094" stroke="#EAD8D3" stroke-width="2.9981" stroke-linecap="round" stroke-linejoin="round"/>
<path d="M23.4873 151.054C24.2552 153.098 25.0479 155.08 26.119 156.984C26.4502 157.573 26.7707 158.134 27.0017 158.766C27.2687 159.497 27.7051 160.421 28.1344 161.065C28.6571 161.849 31.6463 159.211 31.9986 158.966C33.6825 157.796 35.2291 156.402 36.679 154.952" stroke="#EAD8D3" stroke-width="2.9981" stroke-linecap="round" stroke-linejoin="round"/>
<path d="M27.9844 136.364C28.5855 139.026 29.6106 141.299 30.741 143.759C31.084 144.506 31.4155 145.297 31.9152 145.957C32.0457 146.13 32.5078 146.789 32.7147 146.849C33.3706 147.036 34.5017 145.818 34.955 145.516C37.2227 144.004 39.371 142.364 41.6257 140.861" stroke="#EAD8D3" stroke-width="2.9981" stroke-linecap="round" stroke-linejoin="round"/>
<path d="M62.9126 86.5951L64.273 85.9654C64.0301 85.4407 63.5072 85.1025 62.9292 85.0961C62.3511 85.0898 61.8208 85.4164 61.5665 85.9355L62.9126 86.5951ZM62.9126 86.5951C64.273 85.9654 64.2731 85.9655 64.2731 85.9657L64.2733 85.9661L64.2739 85.9673L64.2757 85.9712L64.2819 85.9847L64.3045 86.0342C64.324 86.0769 64.3521 86.1389 64.3877 86.2184C64.4589 86.3774 64.5604 86.6068 64.6835 86.8928C64.9293 87.4641 65.2625 88.2647 65.6132 89.1838C66.3032 90.9923 67.1038 93.3697 67.3943 95.3745C67.7537 97.8553 67.5036 100.95 67.1937 103.329C67.0362 104.538 66.8579 105.601 66.7188 106.362C66.6492 106.743 66.5892 107.049 66.5463 107.262C66.5397 107.295 66.5334 107.326 66.5276 107.354C66.5378 107.428 66.5522 107.518 66.5717 107.618C66.6268 107.901 66.7082 108.183 66.8096 108.39C66.8805 108.349 66.973 108.288 67.0891 108.197C67.9701 107.512 68.6905 106.637 69.5616 105.579C69.8667 105.209 70.1904 104.816 70.5459 104.4C71.8443 102.884 73.4444 101.257 75.7971 100.215C77.1783 99.6033 78.9763 99.2041 80.3437 98.9594C81.0444 98.834 81.6654 98.7435 82.1119 98.6843C82.3355 98.6547 82.5163 98.6327 82.6425 98.6181C82.7056 98.6107 82.7552 98.6052 82.7897 98.6014L82.83 98.5971L82.8414 98.5959L82.8448 98.5955L82.8459 98.5954L82.8464 98.5954C82.8465 98.5954 82.8467 98.5953 82.9999 100.087M62.9126 86.5951C61.5665 85.9355 61.5664 85.9356 61.5663 85.9358L61.5662 85.9361L61.5657 85.9371L61.5641 85.9403L61.5588 85.9512L61.5395 85.991C61.5229 86.0253 61.499 86.075 61.4686 86.1387C61.4079 86.2661 61.3213 86.4498 61.2157 86.6787C61.0049 87.1362 60.7174 87.7771 60.4099 88.5133C59.8053 89.9605 59.0836 91.8687 58.7468 93.4847C58.2616 95.813 58.3453 98.6352 58.5904 101.092C57.0808 98.9734 55.3563 96.5879 53.9139 94.6841C52.8721 93.3091 51.5155 91.5758 50.4234 90.1911C49.8765 89.4977 49.3943 88.8898 49.0488 88.4552C48.876 88.2378 48.7374 88.0637 48.6419 87.9439L48.5321 87.8062L48.5035 87.7705L48.4962 87.7613L48.4944 87.7589L48.4939 87.7583L48.4937 87.7582L47.3225 88.6938M47.3225 88.6938L48.4937 87.7581C48.1052 87.2718 47.4566 87.0762 46.8641 87.2665C46.2715 87.4569 45.8582 87.9936 45.8255 88.6151L47.3225 88.6938ZM47.3225 88.6938C45.8255 88.6151 45.8255 88.6154 45.8255 88.6156L45.8254 88.6164L45.8253 88.6184L45.825 88.6247L45.824 88.6462L45.8204 88.7243C45.8176 88.7915 45.8138 88.8885 45.8098 89.0124C45.8018 89.2601 45.7932 89.6157 45.7901 90.0555C45.7838 90.9337 45.7994 92.1539 45.8873 93.5238C46.0593 96.2049 46.5191 99.6811 47.7752 102.245C48.7591 104.253 50.5448 106.34 51.9917 107.858C52.0435 107.913 52.095 107.967 52.1461 108.02C51.6848 108.003 51.2482 107.966 50.8789 107.901C50.0124 107.75 49.3931 107.442 48.6122 107.033C48.5793 107.015 48.546 106.998 48.5125 106.98C47.7491 106.579 46.8131 106.088 45.536 105.816C43.2394 105.327 40.3848 105.593 38.2368 105.93C37.1359 106.102 36.1676 106.302 35.474 106.458C35.1267 106.537 34.8467 106.605 34.6517 106.654C34.5542 106.678 34.4778 106.698 34.4248 106.712L34.363 106.728L34.3458 106.733L34.3406 106.734L34.339 106.734L34.3383 106.735C34.3381 106.735 34.3379 106.735 34.7305 108.181M34.7305 108.181L34.3379 106.735C33.7506 106.894 33.3179 107.393 33.2429 107.997C33.1678 108.6 33.4653 109.19 33.9957 109.488L34.7305 108.181ZM34.7305 108.181C33.9957 109.488 33.9958 109.488 33.9959 109.488L33.9963 109.488L33.9974 109.489L34.0009 109.491L34.0136 109.498L34.0603 109.524C34.1009 109.547 34.1599 109.579 34.2357 109.621C34.3874 109.704 34.6066 109.824 34.8803 109.97C35.4271 110.261 36.1939 110.661 37.0757 111.093C38.8163 111.947 41.0895 112.972 43.0139 113.521C45.0798 114.11 47.6785 114.417 49.8694 114.581C49.7542 114.655 49.6378 114.731 49.5201 114.807C46.9913 116.442 43.8501 118.584 41.5558 120.53C40.3465 121.556 38.8922 122.934 37.7556 124.04C37.1839 124.596 36.6862 125.09 36.3312 125.444C36.1536 125.622 36.0116 125.765 35.9137 125.863L35.8009 125.977L35.7713 126.007L35.7635 126.015L35.7615 126.017L35.7609 126.018L35.7607 126.018C35.7606 126.018 35.7606 126.018 36.8291 127.069M36.8291 127.069L35.7606 126.018C35.2943 126.492 35.1959 127.216 35.5188 127.798C35.8417 128.379 36.5088 128.678 37.1574 128.532L36.8291 127.069ZM36.8291 127.069C37.1574 128.532 37.1576 128.532 37.1577 128.532L37.1581 128.532L37.1593 128.532L37.1633 128.531L37.1781 128.527L37.2336 128.515C37.2818 128.504 37.3522 128.488 37.4426 128.467C37.6235 128.424 37.8846 128.363 38.2089 128.284C38.8573 128.126 39.7605 127.898 40.7819 127.62C42.805 127.068 45.3649 126.296 47.3201 125.446C49.7904 124.373 52.6572 122.586 54.8591 121.108C55.1126 120.937 55.3582 120.771 55.5946 120.609C55.1926 122.556 54.6939 124.897 54.259 126.722C53.6054 129.465 52.6387 132.961 51.8309 135.786C51.4278 137.195 51.0659 138.431 50.8049 139.315C50.6743 139.757 50.5691 140.111 50.4965 140.354L50.4131 140.632L50.3916 140.704L50.3862 140.722L50.3848 140.726L50.3845 140.728L50.3844 140.728L51.8196 141.161M51.8196 141.161L50.3844 140.728C50.1894 141.375 50.4511 142.072 51.0234 142.431C51.5958 142.789 52.3374 142.721 52.8346 142.264L51.8196 141.161ZM51.8196 141.161C52.8346 142.264 52.8347 142.264 52.8348 142.264L52.8351 142.263L52.8359 142.262L52.8388 142.26L52.8488 142.251L52.8856 142.216C52.9175 142.187 52.9637 142.144 53.0229 142.088C53.1411 141.977 53.3109 141.817 53.5202 141.616C53.9386 141.213 54.5169 140.647 55.1584 139.988C56.4238 138.688 57.9999 136.961 59.0558 135.407C60.5642 133.187 61.8059 130.15 62.6966 127.589C63.4098 130.427 64.5261 133.919 65.4615 136.696C65.9397 138.116 66.3741 139.359 66.689 140.248C66.8465 140.692 66.9742 141.048 67.0627 141.294C67.107 141.416 67.1415 141.511 67.165 141.576L67.1918 141.65L67.1988 141.669L67.2006 141.674L67.2011 141.675L67.2013 141.676C67.2013 141.676 67.2013 141.676 68.609 141.161M68.609 141.161L67.2013 141.676C67.4398 142.327 68.0939 142.73 68.7829 142.649C69.4718 142.569 70.0156 142.026 70.0976 141.338L68.609 141.161ZM68.609 141.161C70.0976 141.338 70.0976 141.338 70.0976 141.337L70.0977 141.337L70.0979 141.335L70.0986 141.329L70.1013 141.306L70.111 141.221C70.1193 141.147 70.1311 141.04 70.1458 140.902C70.175 140.626 70.2152 140.227 70.2598 139.73C70.3489 138.739 70.4558 137.354 70.5272 135.783C70.6683 132.673 70.677 128.703 70.0814 125.589C69.7507 123.859 69.1162 121.78 68.5492 120.089C70.4087 120.928 72.7988 121.932 74.7843 122.512C77.4195 123.282 80.8325 123.742 83.523 124.011C84.8813 124.147 86.0804 124.237 86.9405 124.292C87.3708 124.32 87.717 124.339 87.9566 124.352C88.0764 124.358 88.1697 124.362 88.2336 124.365L88.307 124.369L88.3266 124.37L88.332 124.37L88.3335 124.37L88.334 124.37C88.3342 124.37 88.3343 124.37 88.3965 122.872M88.3965 122.872L88.3343 124.37C89.0021 124.398 89.6076 123.98 89.8188 123.346C90.0299 122.712 89.7957 122.014 89.2447 121.636L88.3965 122.872ZM88.3965 122.872C89.2447 121.636 89.2446 121.636 89.2445 121.636L89.2443 121.636L89.2434 121.635L89.2402 121.633L89.228 121.625L89.1811 121.593L89.0022 121.471C88.8467 121.365 88.621 121.212 88.3392 121.022C87.7756 120.643 86.9862 120.117 86.0821 119.526C84.2824 118.351 81.9965 116.903 80.1293 115.868C78.9201 115.197 77.5147 114.798 76.2389 114.506C75.6456 114.37 75.0528 114.251 74.5034 114.141C74.4553 114.132 74.4076 114.122 74.3602 114.112C73.7604 113.992 73.2223 113.882 72.7423 113.764C72.2581 113.644 71.8867 113.527 71.6139 113.408C71.5302 113.371 71.4653 113.338 71.4157 113.311C71.457 113.223 71.526 113.098 71.6407 112.932C71.9197 112.528 72.2888 112.321 73.3511 111.821C74.3742 111.34 75.7445 110.694 77.3684 109.329C78.8463 108.087 80.586 105.936 81.8981 104.197C82.5688 103.308 83.1537 102.492 83.5708 101.898C83.7796 101.601 83.9469 101.358 84.0625 101.19C84.1203 101.105 84.1652 101.039 84.196 100.994L84.2314 100.942L84.2408 100.928L84.2434 100.924L84.2441 100.923L84.2444 100.922C84.2445 100.922 84.2445 100.922 82.9999 100.087M82.9999 100.087L84.2445 100.922C84.5685 100.439 84.5843 99.8129 84.2849 99.3145C83.9855 98.8162 83.425 98.5359 82.8467 98.5953L82.9999 100.087ZM66.6252 108.471C66.6253 108.471 66.629 108.47 66.6362 108.469C66.6287 108.471 66.6251 108.471 66.6252 108.471ZM66.9074 108.552C66.9123 108.556 66.9147 108.559 66.9146 108.559C66.9145 108.56 66.9121 108.557 66.9074 108.552ZM66.5062 107.171C66.5061 107.17 66.5061 107.169 66.5062 107.17L66.5062 107.171Z" fill="#F3FBFF" stroke="#EAD8D3" stroke-width="2.9981" stroke-linecap="round" stroke-linejoin="round"/>
<path d="M164.25 60.1424L179.936 52.5374L200.374 54.4386L212.732 56.8152L226.517 68.4604L229.844 82.007L231.27 97.6924L231.27 112.427L229.844 129.776L219.624 155.206L158.071 155.206L150.228 134.054L146.426 113.853L146.426 91.9886L154.506 71.3123L164.25 60.1424Z" fill="#F3FBFF"/>
<path d="M195.86 60.1425C199.901 62.2814 203.226 63.7073 205.367 70.8371C206.201 73.6178 206.691 79.697 207.506 82.4823C207.749 83.3132 208.261 88.3099 208.361 89.1654C208.685 91.9329 209.072 94.7088 209.188 97.4883C209.426 103.209 209.83 108.935 209.549 114.661C209.369 118.338 208.802 121.993 208.586 125.671C208.402 128.815 207.645 131.145 207.506 134.292C207.268 139.657 206.729 143.992 205.604 149.264C205.197 151.172 204.979 154.705 204.718 156.632" stroke="#EAD8D3" stroke-width="2.37658" stroke-linecap="round" stroke-linejoin="round"/>
<path d="M201.089 54.6761C208.932 53.2502 221.052 60.1424 225.568 67.0344C227.159 69.463 229.506 79.6968 230.321 82.4821C230.564 83.313 231.077 88.3097 231.177 89.1651C231.5 91.9327 231.888 94.7085 232.003 97.4881C232.241 103.209 232.284 106.939 232.003 112.665C231.823 116.342 231.392 117.781 231.177 121.458C230.992 124.602 228.796 128.531 228.657 131.677C228.42 137.042 225.742 139.239 224.617 144.511C224.21 146.419 219.412 154.704 219.151 156.631" stroke="#EAD8D3" stroke-width="2.37658" stroke-linecap="round" stroke-linejoin="round"/>
<path d="M183.502 56.8152C179.462 58.9541 172.072 63.7073 169.931 70.837C169.097 73.6178 168.607 79.6969 167.792 82.4822C167.549 83.3132 167.037 88.3098 166.937 89.1653C166.613 91.9329 166.226 94.7087 166.11 97.4883C165.872 103.209 165.468 108.935 165.749 114.661C165.929 118.338 166.496 121.993 166.712 125.671C166.896 128.815 167.653 131.145 167.792 134.292C168.03 139.657 168.569 143.992 169.694 149.264C170.101 151.172 170.319 154.705 170.58 156.632" stroke="#EAD8D3" stroke-width="2.37658" stroke-linecap="round" stroke-linejoin="round"/>
<path d="M189.301 65.3708C189.064 71.0919 189.021 108.935 189.301 114.661C189.482 118.338 190.631 142.372 187.304 155.681" stroke="#EAD8D3" stroke-width="2.37658" stroke-linecap="round" stroke-linejoin="round"/>
<path d="M182.313 53.7256C174.471 52.2998 160.449 61.806 155.933 68.698C154.342 71.1266 149.618 80.1722 148.804 82.9575C148.561 83.7885 146.741 89.2318 146.641 90.0873C146.317 92.8548 145.93 95.6307 145.814 98.4103C145.576 104.131 145.533 106.464 145.814 112.189C145.994 115.867 146.425 117.305 146.641 120.983C146.825 124.127 149.021 128.055 149.16 131.202C149.397 136.567 152.075 138.764 153.2 144.036C153.607 145.944 158.405 154.229 158.666 156.156" stroke="#EAD8D3" stroke-width="2.37658" stroke-linecap="round" stroke-linejoin="round"/>
<path d="M203.346 125.855C204.807 126.96 206.148 128.112 207.214 129.605C207.542 130.063 207.973 130.477 208.204 130.997C208.218 131.029 208.776 130.466 208.838 130.41C210.251 129.13 211.742 127.93 213.209 126.713C213.579 126.406 214.025 126.159 214.37 125.828C214.607 125.603 214.825 125.284 215.11 125.142" stroke="#EAD8D3" stroke-width="2.37658" stroke-linecap="round" stroke-linejoin="round"/>
<path d="M205.011 113.972C206.121 115.469 207.503 116.71 208.635 118.19C209.321 119.088 209.585 118.437 210.332 117.774C211.267 116.945 212.133 115.947 212.919 114.975C213.27 114.542 213.685 114.184 214.095 113.807C214.292 113.625 214.641 113.486 214.755 113.259" stroke="#EAD8D3" stroke-width="2.37658" stroke-linecap="round" stroke-linejoin="round"/>
<path d="M203.584 101.495C204.674 102.533 205.952 103.301 207.096 104.268C207.518 104.624 208.047 104.828 208.463 105.192C208.723 105.42 208.855 105.807 209.11 106.01C209.478 106.305 209.835 105.681 210.12 105.443C210.874 104.809 211.724 104.285 212.377 103.541C212.813 103.046 213.105 102.444 213.572 101.977C214.14 101.409 214.635 100.665 214.635 99.8313" stroke="#EAD8D3" stroke-width="2.37658" stroke-linecap="round" stroke-linejoin="round"/>
<path d="M202.871 88.0672C204.144 90.1658 206.271 91.3402 208.146 92.8071C209 93.4752 208.971 94.0187 210.04 93.058C211.524 91.7242 211.88 89.8704 212.972 88.3114C213.43 87.6565 213.685 86.9702 213.685 86.1659" stroke="#EAD8D3" stroke-width="2.37658" stroke-linecap="round" stroke-linejoin="round"/>
<path d="M201.207 76.1843C202.828 77.2265 204.35 78.39 205.907 79.5115C206.328 79.8142 206.845 80.4245 207.386 80.3433C208.024 80.2477 208.977 78.734 209.327 78.2704C209.85 77.5766 210.095 76.6578 210.654 76.0126C211.048 75.5584 211.783 75.0184 211.783 74.4019" stroke="#EAD8D3" stroke-width="2.37658" stroke-linecap="round" stroke-linejoin="round"/>
<path d="M184.571 87.2354C185.339 89.2183 186.579 91.4483 188.11 92.9788C188.261 93.1302 188.378 93.3798 188.519 93.5069C188.686 93.657 189.278 92.7437 189.324 92.6751C190.158 91.4414 191.071 90.3162 192.005 89.163C192.33 88.7615 192.845 88.32 193.008 87.8295" stroke="#EAD8D3" stroke-width="2.37658" stroke-linecap="round" stroke-linejoin="round"/>
<path d="M183.62 101.732C184.455 103.036 185.365 104.247 186.399 105.396C186.692 105.721 186.977 105.996 187.211 106.367C187.378 106.631 187.578 106.783 187.726 107.08C187.824 107.275 188.207 107.674 188.433 107.674C188.853 107.674 189.236 107.578 189.548 107.278C190.568 106.299 191.555 105.268 192.526 104.241C193.25 103.474 194.569 102.634 194.909 101.614" stroke="#EAD8D3" stroke-width="2.37658" stroke-linecap="round" stroke-linejoin="round"/>
<path d="M184.689 116.23C185.829 118.579 187.242 120.862 188.822 122.95C189.248 123.512 189.456 124.039 190.116 123.571C191.828 122.356 193.184 120.981 194.288 119.2C194.648 118.62 194.968 118.081 195.45 117.59C195.648 117.388 195.978 117.181 196.097 116.943" stroke="#EAD8D3" stroke-width="2.37658" stroke-linecap="round" stroke-linejoin="round"/>
<path d="M184.571 131.321C185.729 132.612 186.863 133.913 188.176 135.051C188.605 135.423 189.162 135.845 189.489 136.299C189.875 136.832 190.291 136.71 190.816 136.312C191.587 135.729 192.001 134.782 192.539 134.008C193.207 133.049 194.087 132.262 194.909 131.44" stroke="#EAD8D3" stroke-width="2.37658" stroke-linecap="round" stroke-linejoin="round"/>
<path d="M184.928 143.085C185.694 144.788 186.705 146.426 188.07 147.719C188.343 147.978 188.465 148.195 188.849 148.195C190.766 148.195 192.159 147.024 193.417 145.765C193.858 145.325 194.425 144.712 195.028 144.511" stroke="#EAD8D3" stroke-width="2.37658" stroke-linecap="round" stroke-linejoin="round"/>
<path d="M200.494 145.937C201.361 147.246 202.419 148.433 203.452 149.614C203.667 149.86 203.914 150.47 204.244 150.565C205.316 150.871 206.877 149.336 207.597 148.815C208.968 147.824 210.702 147.017 211.902 145.818" stroke="#EAD8D3" stroke-width="2.37658" stroke-linecap="round" stroke-linejoin="round"/>
<path d="M202.396 137.262C203.991 138.504 205.55 139.806 207.149 141.039C207.441 141.264 207.85 141.434 208.218 141.25C209.704 140.507 211.21 139.508 212.258 138.213C212.765 137.586 213.233 136.882 213.803 136.312" stroke="#EAD8D3" stroke-width="2.37658" stroke-linecap="round" stroke-linejoin="round"/>
<path d="M220.101 140.114C221.089 141.103 222.368 142.219 222.952 143.534C223.189 144.066 223.582 144.743 223.903 145.224" stroke="#EAD8D3" stroke-width="2.37658" stroke-linecap="round" stroke-linejoin="round"/>
<path d="M223.785 128.588C224.47 130.283 225.225 131.948 226.34 133.4C226.747 133.931 227.413 134.537 227.707 135.123" stroke="#EAD8D3" stroke-width="2.37658" stroke-linecap="round" stroke-linejoin="round"/>
<path d="M226.637 117.537C227.374 118.438 228.178 119.281 228.894 120.197C229.148 120.522 229.34 120.909 229.607 121.214C229.831 121.47 230.202 121.939 230.202 122.29" stroke="#EAD8D3" stroke-width="2.37658" stroke-linecap="round" stroke-linejoin="round"/>
<path d="M226.399 105.654C227.247 107.375 228.243 109.288 229.661 110.638C229.929 110.894 230.016 111.079 230.202 111.358" stroke="#EAD8D3" stroke-width="2.37658" stroke-linecap="round" stroke-linejoin="round"/>
<path d="M227.111 96.7417C228.322 97.4541 229.609 98.1576 230.703 99.0523C230.996 99.2922 231.202 99.6017 231.508 99.8313" stroke="#EAD8D3" stroke-width="2.37658" stroke-linecap="round" stroke-linejoin="round"/>
<path d="M225.092 84.9777C226.554 86.1624 228.094 87.225 229.581 88.3709C229.853 88.5803 229.976 88.6988 230.083 89.0178" stroke="#EAD8D3" stroke-width="2.37658" stroke-linecap="round" stroke-linejoin="round"/>
<path d="M222.715 73.8077C224.621 74.8022 226.741 75.4619 228.537 76.6596" stroke="#EAD8D3" stroke-width="2.37658" stroke-linecap="round" stroke-linejoin="round"/>
<path d="M219.507 65.7273C220.666 66.5963 222.405 66.3214 223.785 66.3214" stroke="#EAD8D3" stroke-width="2.37658" stroke-linecap="round" stroke-linejoin="round"/>
<path d="M163.419 60.4989C165.442 60.9672 167.247 60.8554 169.242 60.8554" stroke="#EAD8D3" stroke-width="2.37658" stroke-linecap="round" stroke-linejoin="round"/>
<path d="M155.339 70.5994C156.829 70.5807 158.558 70.5178 159.973 69.9788C160.459 69.7937 161.013 69.8577 161.518 69.7412C161.763 69.6847 162.023 69.7082 161.756 69.5299" stroke="#EAD8D3" stroke-width="2.37658" stroke-linecap="round" stroke-linejoin="round"/>
<path d="M149.873 81.8881C151.134 81.3592 152.42 80.9036 153.689 80.3961C154.138 80.2165 154.364 79.9479 154.745 79.7029C154.982 79.5509 155.544 79.5115 155.814 79.5115" stroke="#EAD8D3" stroke-width="2.37658" stroke-linecap="round" stroke-linejoin="round"/>
<path d="M146.07 97.3359C147.41 96.423 148.85 95.6888 150.203 94.8008C150.494 94.6098 150.731 94.5102 150.969 94.2727C151.305 93.9365 152 93.5333 152.487 93.5333" stroke="#EAD8D3" stroke-width="2.37658" stroke-linecap="round" stroke-linejoin="round"/>
<path d="M145.715 113.259C146.817 111.699 148.121 109.81 149.61 108.558C149.975 108.251 150.364 107.708 150.824 107.555" stroke="#EAD8D3" stroke-width="2.37658" stroke-linecap="round" stroke-linejoin="round"/>
<path d="M148.566 127.162C149.837 125.632 151.118 124.146 151.986 122.343C152.194 121.91 152.461 121.498 152.725 121.102" stroke="#EAD8D3" stroke-width="2.37658" stroke-linecap="round" stroke-linejoin="round"/>
<path d="M154.15 143.204C154.83 141.566 155.425 139.875 156.17 138.266C156.292 138.005 156.289 137.782 156.289 137.5" stroke="#EAD8D3" stroke-width="2.37658" stroke-linecap="round" stroke-linejoin="round"/>
<path d="M156.171 151.641C157.846 150.398 158.715 148.466 159.564 146.61C159.773 146.153 160.099 145.339 160.568 145.105" stroke="#EAD8D3" stroke-width="2.37658" stroke-linecap="round" stroke-linejoin="round"/>
<path d="M164.846 146.65C166.304 147.985 168.075 149.268 169.949 149.97C170.267 150.09 170.469 150.176 170.734 149.911C172.75 147.895 174.712 145.815 176.729 143.798" stroke="#EAD8D3" stroke-width="2.37658" stroke-linecap="round" stroke-linejoin="round"/>
<path d="M163.182 137.025C164.191 138.516 165.213 140.373 167.011 141.039C167.143 141.088 167.25 141.13 167.341 141.243C167.556 141.512 168.613 140.654 168.74 140.57C170.375 139.496 171.654 138.198 172.794 136.615C172.949 136.4 173.401 135.928 173.401 135.718" stroke="#EAD8D3" stroke-width="2.37658" stroke-linecap="round" stroke-linejoin="round"/>
<path d="M161.638 124.667C162.71 126.598 164.276 127.816 165.995 129.09C166.209 129.248 166.734 129.85 167.038 129.723C167.583 129.496 168.223 129.011 168.649 128.628C169.77 127.616 170.646 126.272 171.646 125.142C172.261 124.447 173.045 123.538 173.877 123.122" stroke="#EAD8D3" stroke-width="2.37658" stroke-linecap="round" stroke-linejoin="round"/>
<path d="M159.617 111.595C160.496 112.735 161.463 113.484 162.588 114.355C163.237 114.857 163.93 115.312 164.443 115.939C164.558 116.08 165.74 117.223 165.75 117.213C166.14 116.824 166.398 116.278 166.721 115.834C167.571 114.661 168.579 113.645 169.665 112.691C170.273 112.157 170.819 111.521 171.441 111.014C171.677 110.821 171.96 110.675 172.094 110.407" stroke="#EAD8D3" stroke-width="2.37658" stroke-linecap="round" stroke-linejoin="round"/>
<path d="M159.617 97.3358C160.463 99.9648 161.871 102.13 163.446 104.347C163.872 104.946 164.172 105.144 164.852 105.357C165.359 105.515 165.956 104.73 166.285 104.426C167.729 103.093 169.029 101.672 170.186 100.089C170.652 99.4512 171.178 98.727 171.738 98.1676C171.878 98.0278 172.007 97.9863 172.094 97.8111" stroke="#EAD8D3" stroke-width="2.37658" stroke-linecap="round" stroke-linejoin="round"/>
<path d="M161.756 85.0964C162.365 86.7163 162.993 88.2875 163.842 89.7968C164.105 90.2636 164.359 90.7082 164.542 91.2095C164.753 91.7888 165.099 92.5211 165.44 93.0316C165.854 93.6531 168.223 91.562 168.503 91.368C169.838 90.4405 171.064 89.3353 172.213 88.186" stroke="#EAD8D3" stroke-width="2.37658" stroke-linecap="round" stroke-linejoin="round"/>
<path d="M165.32 73.4512C165.797 75.5613 166.609 77.3633 167.505 79.3134C167.777 79.9053 168.04 80.5327 168.436 81.0562C168.54 81.1929 168.906 81.7157 169.07 81.7626C169.59 81.9112 170.487 80.9459 170.846 80.7063C172.643 79.5079 174.346 78.2076 176.134 77.016" stroke="#EAD8D3" stroke-width="2.37658" stroke-linecap="round" stroke-linejoin="round"/>
<path d="M193.81 25L194.888 24.4997C194.695 24.0844 194.281 23.8168 193.823 23.8118C193.365 23.8067 192.945 24.0651 192.744 24.476L193.81 25ZM193.81 25C194.888 24.4997 194.888 24.4998 194.888 24.5L194.888 24.5004L194.889 24.5017L194.891 24.5064L194.899 24.5234L194.928 24.5873C194.954 24.643 194.991 24.7243 195.038 24.829C195.132 25.0384 195.266 25.3416 195.429 25.7201C195.756 26.4766 196.198 27.5369 196.664 28.7535C197.586 31.1632 198.632 34.2739 199.008 36.8621C199.474 40.0645 199.152 44.1113 198.738 47.2822C198.529 48.8832 198.292 50.2908 198.107 51.2985C198.015 51.8028 197.935 52.2078 197.878 52.4879C197.858 52.589 197.84 52.6739 197.826 52.7413C197.827 52.7498 197.828 52.7586 197.83 52.7677C197.845 52.8933 197.871 53.0731 197.911 53.2815C197.996 53.7145 198.132 54.2005 198.331 54.58C198.541 54.9785 198.71 55.0594 198.77 55.074C198.814 55.0844 199.147 55.1439 199.92 54.5445C201.18 53.5674 202.225 52.3006 203.415 50.8596C203.815 50.3749 204.231 49.8706 204.677 49.351C206.393 47.3529 208.443 45.2871 211.431 43.9679C213.188 43.1919 215.518 42.6712 217.342 42.3458C218.267 42.1807 219.087 42.0616 219.677 41.9836C219.972 41.9445 220.21 41.9157 220.376 41.8966C220.458 41.887 220.523 41.8798 220.567 41.875L220.619 41.8694L220.633 41.868L220.637 41.8676L220.638 41.8674L220.638 41.8674C220.639 41.8674 220.639 41.8674 220.76 43.0495M193.81 25C192.744 24.476 192.744 24.4761 192.743 24.4762L192.743 24.4766L192.743 24.4777L192.741 24.4814L192.734 24.4951L192.709 24.5464C192.688 24.591 192.656 24.6561 192.616 24.7399C192.536 24.9075 192.421 25.15 192.281 25.4528C192.002 26.0581 191.62 26.9063 191.212 27.8801C190.405 29.8077 189.462 32.3012 189.027 34.3833C188.26 38.0498 188.588 42.7315 189.073 46.4003C189.124 46.7861 189.177 47.1624 189.231 47.5269C188.978 47.1688 188.714 46.7969 188.442 46.4139C186.194 43.2505 183.37 39.327 181.08 36.3141C179.688 34.4812 177.872 32.1674 176.407 30.3158C175.674 29.3891 175.028 28.5766 174.565 27.9957C174.333 27.7052 174.147 27.4726 174.02 27.3126L173.872 27.1288L173.834 27.0811L173.825 27.0689L173.822 27.0658L173.821 27.065L173.821 27.0648C173.821 27.0647 173.821 27.0647 172.894 27.8077M172.894 27.8077L173.821 27.0647C173.513 26.6799 172.999 26.5255 172.53 26.6766C172.06 26.8276 171.733 27.2528 171.707 27.7452L172.894 27.8077ZM172.894 27.8077C171.707 27.7452 171.707 27.7454 171.707 27.7456L171.707 27.7464L171.707 27.7486L171.707 27.7561L171.705 27.783L171.701 27.8833C171.697 27.9704 171.692 28.0973 171.687 28.2601C171.676 28.5854 171.665 29.0544 171.661 29.6353C171.652 30.7959 171.673 32.4084 171.79 34.2174C172.019 37.7888 172.631 42.3018 174.241 45.5789C175.502 48.147 177.823 50.8628 179.755 52.8845C180.317 53.4726 180.854 54.01 181.334 54.4773C180.048 54.5192 178.609 54.4987 177.523 54.3092C176.224 54.0825 175.296 53.6168 174.241 53.0653C174.201 53.0444 174.161 53.0233 174.12 53.0021C173.094 52.4649 171.925 51.8532 170.325 51.5134C167.401 50.8926 163.699 51.2262 160.832 51.6737C159.377 51.9007 158.097 52.1641 157.18 52.3707C156.721 52.4741 156.351 52.5636 156.095 52.6276C155.967 52.6596 155.868 52.6853 155.799 52.7032L155.72 52.724L155.698 52.7297L155.692 52.7313L155.691 52.7318L155.69 52.732C155.69 52.732 155.69 52.7321 156 53.8791M156 53.8791L155.69 52.7321C155.224 52.8582 154.88 53.2537 154.821 53.7329C154.761 54.212 154.998 54.6794 155.419 54.9156L156 53.8791ZM156 53.8791C155.419 54.9156 155.419 54.9156 155.419 54.9157L155.419 54.9159L155.421 54.9166L155.425 54.919L155.441 54.928L155.502 54.9619C155.555 54.9914 155.633 55.0344 155.734 55.0894C155.934 55.1994 156.226 55.3574 156.589 55.551C157.317 55.9379 158.337 56.4681 159.51 57.0417C161.837 58.1802 164.832 59.5233 167.34 60.2364C170.355 61.0938 174.282 61.5002 177.397 61.6971C177.917 61.73 178.418 61.7571 178.89 61.7796C178.107 62.2681 177.227 62.824 176.29 63.428C172.903 65.6119 168.726 68.4538 165.691 71.0213C164.091 72.3747 162.156 74.2031 160.634 75.6801C159.87 76.4212 159.205 77.0788 158.73 77.5513C158.493 77.7876 158.303 77.9777 158.173 78.109L158.023 78.2602L157.984 78.2998L157.973 78.31L157.971 78.3127L157.97 78.3134L157.97 78.3136C157.97 78.3137 157.97 78.3137 158.816 79.1483M158.816 79.1483L157.97 78.3137C157.6 78.689 157.521 79.2633 157.776 79.7244C158.032 80.1855 158.561 80.4231 159.075 80.3079L158.816 79.1483ZM158.816 79.1483C159.075 80.3079 159.075 80.3079 159.075 80.3079L159.076 80.3078L159.077 80.3075L159.082 80.3063L159.101 80.302L159.174 80.2855C159.238 80.271 159.331 80.2496 159.451 80.2217C159.691 80.1659 160.039 80.0839 160.471 79.979C161.336 79.7691 162.54 79.4668 163.901 79.0965C166.609 78.36 169.996 77.3393 172.562 76.2277C175.804 74.8234 179.598 72.4673 182.545 70.4946C183.54 69.8285 184.446 69.2012 185.21 68.6617C185.103 69.1852 184.986 69.7583 184.861 70.3648C184.311 73.0283 183.61 76.3215 183.001 78.8722C182.119 82.5603 180.818 87.252 179.734 91.033C179.192 92.921 178.706 94.5775 178.355 95.7619C178.18 96.354 178.038 96.828 177.941 97.1537C177.892 97.3166 177.854 97.4424 177.829 97.5274L177.8 97.6238L177.792 97.6481L177.791 97.6541L177.79 97.6556L177.79 97.656L178.927 98M178.927 98L177.79 97.6561C177.635 98.1685 177.842 98.7213 178.295 99.0061C178.748 99.291 179.336 99.2375 179.731 98.8756L178.927 98ZM178.927 98C179.731 98.8756 179.731 98.8756 179.731 98.8755L179.731 98.8752L179.732 98.8743L179.736 98.8711L179.748 98.8594L179.796 98.815C179.838 98.7764 179.899 98.7197 179.977 98.6465C180.134 98.5001 180.359 98.2875 180.637 98.0208C181.194 97.4876 181.963 96.7362 182.816 95.8624C184.508 94.129 186.58 91.8615 187.954 89.8449C190.092 86.7076 191.843 82.265 193.048 78.6848C193.266 78.0359 193.468 77.4117 193.652 76.8242C193.856 77.7307 194.069 78.6449 194.266 79.4353C195.211 83.235 196.733 87.986 198.01 91.7671C198.65 93.6619 199.231 95.3213 199.653 96.5071C199.863 97.1001 200.034 97.5749 200.152 97.9019C200.212 98.0653 200.258 98.1918 200.289 98.2777L200.325 98.3755L200.334 98.4006L200.336 98.4071L200.337 98.4088L200.337 98.4093C200.337 98.4094 200.337 98.4095 201.453 98M201.453 98L200.337 98.4095C200.526 98.9254 201.045 99.2441 201.591 99.1802C202.136 99.1163 202.567 98.6865 202.632 98.1408L201.453 98ZM201.453 98C202.632 98.1408 202.632 98.1406 202.632 98.1404L202.633 98.1398L202.633 98.1376L202.634 98.1299L202.637 98.1008L202.65 97.9899C202.661 97.8931 202.676 97.7511 202.696 97.5682C202.735 97.2025 202.788 96.673 202.848 96.0138C202.966 94.6959 203.109 92.8564 203.204 90.7684C203.393 86.6191 203.4 81.388 202.62 77.3201C202.155 74.8995 201.227 71.9274 200.431 69.5947C200.271 69.1248 200.115 68.6787 199.968 68.2655C200.488 68.5086 201.064 68.7741 201.679 69.0508C204.172 70.1729 207.352 71.5043 209.969 72.2672C213.428 73.2751 217.943 73.8849 221.544 74.2439C223.354 74.4244 224.953 74.5434 226.1 74.6172C226.673 74.6541 227.134 74.6798 227.453 74.6963C227.612 74.7045 227.736 74.7105 227.82 74.7144L227.916 74.7188L227.941 74.7198L227.948 74.7201L227.95 74.7202L227.951 74.7202C227.951 74.7202 227.951 74.7202 228 73.533M228 73.533L227.951 74.7202C228.481 74.7422 228.961 74.4106 229.128 73.9076C229.295 73.4045 229.109 72.8516 228.671 72.5523L228 73.533ZM228 73.533C228.671 72.5523 228.671 72.5523 228.671 72.5522L228.671 72.552L228.67 72.5512L228.665 72.5484L228.649 72.5374L228.587 72.4951C228.533 72.4579 228.452 72.4033 228.349 72.3329C228.141 72.1921 227.839 71.9882 227.462 71.7354C226.709 71.2297 225.653 70.5273 224.444 69.7401C222.032 68.1701 218.986 66.2464 216.508 64.876C214.985 64.0338 213.247 63.5545 211.62 63.2083C210.867 63.048 210.116 62.9123 209.412 62.785C209.353 62.7743 209.294 62.7635 209.235 62.7529C208.471 62.6145 207.771 62.4852 207.139 62.3381C205.794 62.025 205.08 61.6931 204.778 61.3452C204.668 61.2188 204.604 61.0801 204.598 60.8595C204.592 60.6062 204.664 60.2015 204.945 59.5906C205.191 59.0563 205.73 58.7388 207.251 58.0474L207.326 58.0133C208.729 57.3758 210.605 56.5231 212.674 54.79C214.577 53.1955 216.861 50.387 218.624 48.0579C219.517 46.8779 220.296 45.7937 220.851 45.0046C221.13 44.6098 221.352 44.2882 221.506 44.0648C221.582 43.953 221.642 43.8658 221.682 43.8062L221.729 43.7377L221.741 43.7198L221.744 43.715L221.745 43.7136L221.745 43.7132C221.745 43.7131 221.746 43.713 220.76 43.0495M220.76 43.0495L221.746 43.713C222.003 43.3306 222.016 42.8337 221.779 42.4383C221.542 42.0429 221.097 41.8204 220.639 41.8674L220.76 43.0495Z" fill="#7CA6BE" stroke="#EAD8D3" stroke-width="2.37658" stroke-linecap="round" stroke-linejoin="round"/>
<path d="M230.795 148.951L209.406 148.951L177.322 148.951L145 148L145.476 162.497L175.183 163.685L204.177 162.497L230.795 163.685L230.795 148.951Z" fill="#7CA6BE"/>
<path d="M160.923 230.943L209.168 231.893L217.961 229.754L223.189 165.824L193.482 164.636L164.488 165.824L150.941 164.636L160.923 230.943Z" fill="#7CA6BE"/>
<path d="M152.104 190.584C155.87 187.393 160.134 184.091 163.989 181.53C164.903 180.922 165.474 182.611 166.241 183.707C168.528 186.976 170.592 189.72 173.02 192.619C173.537 193.237 185.236 179.549 185.886 179.795C188.687 182.541 190.547 188.254 192.95 192.012C193.431 192.763 194.019 193.822 194.681 192.899C196.744 190.021 198.684 186.81 200.754 183.937C202.463 181.565 204.309 180.17 206.177 178.42C207.419 177.257 216.225 193.634 216.962 195.488C220.106 191.195 222.911 186.811 226.245 183.094" stroke="#EAD8D3" stroke-width="2.37658" stroke-linecap="round" stroke-linejoin="round"/>
<path d="M150.659 205.96C154.508 202.095 158.433 198.702 162.333 195.077C162.79 194.652 163.357 195.411 163.709 195.857C166.143 198.953 170.5 203.768 173.096 206.196C173.59 206.658 175.225 204.12 175.599 203.706C177.648 201.434 180 197.628 182.04 195.341C182.381 194.959 184.516 192.129 184.809 192.942C185.667 195.333 186.799 197.44 187.943 199.365C189.611 202.173 191.315 204.587 193.414 206.284C194.602 207.245 195.241 205.611 196.356 204.227C198.041 202.134 199.707 199.971 201.402 197.906C202.359 196.74 204.974 192.953 206.159 193.47C207.349 193.99 208.94 197.569 209.839 198.889C211.553 201.404 213.349 203.602 215.271 205.592C215.672 206.007 216.685 207.475 217.234 207.619C217.981 207.814 224.352 201.703 225.024 201.087" stroke="#EAD8D3" stroke-width="2.37658" stroke-linecap="round" stroke-linejoin="round"/>
<path d="M23.5 87C24.293 85.9533 25.0716 84.9284 26 84" stroke="#F3FBFF" stroke-width="5" stroke-linecap="round" stroke-linejoin="round"/>
<path d="M79 74C80.039 73.3665 81.0153 72.7034 82 72" stroke="#F3FBFF" stroke-width="5" stroke-linecap="round" stroke-linejoin="round"/>
<path d="M106 100C106.736 99.0278 107.619 98.1428 108 97" stroke="#F3FBFF" stroke-width="5" stroke-linecap="round" stroke-linejoin="round"/>
<path d="M124 68C125.343 67.443 126.368 66.5658 127.5 66" stroke="#F3FBFF" stroke-width="5" stroke-linecap="round" stroke-linejoin="round"/>
<path d="M50 57.5C50.1905 56.3331 50.3536 55.1712 50.5 54" stroke="#F3FBFF" stroke-width="5" stroke-linecap="round" stroke-linejoin="round"/>
<path d="M84.5 45.5C86.4373 43.9779 87.867 43.3532 90 42.5" stroke="#F3FBFF" stroke-width="5" stroke-linecap="round" stroke-linejoin="round"/>
<path d="M122 33C123 32 124 31 125 30" stroke="#F3FBFF" stroke-width="5" stroke-linecap="round" stroke-linejoin="round"/>
<path d="M149 34.5C150.28 34.2649 151.322 33.9419 152.5 33.5" stroke="#F3FBFF" stroke-width="5" stroke-linecap="round" stroke-linejoin="round"/>
<path d="M132 109.5C132.5 108.333 133 107.167 133.5 106" stroke="#F3FBFF" stroke-width="5" stroke-linecap="round" stroke-linejoin="round"/>
<path d="M120.5 138.5C122.085 138.086 123.508 137.597 125 137" stroke="#F3FBFF" stroke-width="5" stroke-linecap="round" stroke-linejoin="round"/>
<path d="M135 178.5C136.039 177.866 137.015 177.203 138 176.5" stroke="#F3FBFF" stroke-width="5" stroke-linecap="round" stroke-linejoin="round"/>
<path d="M127.5 215.5C128.833 215.167 130.167 214.833 131.5 214.5" stroke="#F3FBFF" stroke-width="5" stroke-linecap="round" stroke-linejoin="round"/>
<path d="M150 247C150.5 246.167 151 245.333 151.5 244.5" stroke="#F3FBFF" stroke-width="5" stroke-linecap="round" stroke-linejoin="round"/>
<path d="M218 32C219.533 31.2492 220.803 30.5 222.5 30.5" stroke="#F3FBFF" stroke-width="5" stroke-linecap="round" stroke-linejoin="round"/>
<path d="M237.5 64.5C238.433 63.1205 239.466 61.7058 240.5 60.5" stroke="#F3FBFF" stroke-width="5" stroke-linecap="round" stroke-linejoin="round"/>
<path d="M4.5 121.5C5.16667 120.667 5.83333 119.833 6.5 119" stroke="#F3FBFF" stroke-width="5" stroke-linecap="round" stroke-linejoin="round"/>
<path d="M14 64C15.1515 63.2083 16.0571 62.4429 17 61.5" stroke="#F3FBFF" stroke-width="5" stroke-linecap="round" stroke-linejoin="round"/>
<path d="M132 278C133.002 277.609 133.976 277.292 135 277" stroke="#F3FBFF" stroke-width="5" stroke-linecap="round" stroke-linejoin="round"/>
<path d="M197.5 254.5C198.692 254.078 199.534 253.644 200.5 253" stroke="#F3FBFF" stroke-width="5" stroke-linecap="round" stroke-linejoin="round"/>
<path d="M176 271.5C176.833 270.333 177.667 269.167 178.5 268" stroke="#F3FBFF" stroke-width="5" stroke-linecap="round" stroke-linejoin="round"/>
<path d="M153.5 297.5C154.5 296.5 155.5 295.5 156.5 294.5" stroke="#F3FBFF" stroke-width="5" stroke-linecap="round" stroke-linejoin="round"/>
<path d="M126 312C127.667 312.167 129.333 312.333 131 312.5" stroke="#F3FBFF" stroke-width="5" stroke-linecap="round" stroke-linejoin="round"/>
<path d="M139.5 331C141.333 331 143.167 331 145 331" stroke="#F3FBFF" stroke-width="5" stroke-linecap="round" stroke-linejoin="round"/>
<path d="M173.5 323.5C174.5 322.5 175.5 321.5 176.5 320.5" stroke="#F3FBFF" stroke-width="5" stroke-linecap="round" stroke-linejoin="round"/>
<path d="M193 298C194.923 295.794 197.209 294.293 199.5 292.5" stroke="#F3FBFF" stroke-width="5" stroke-linecap="round" stroke-linejoin="round"/>
<path d="M213 306.5C214 306.333 215 306.167 216 306" stroke="#F3FBFF" stroke-width="5" stroke-linecap="round" stroke-linejoin="round"/>
<path d="M225.5 267.5C226.501 267.305 227.493 267.144 228.5 267" stroke="#F3FBFF" stroke-width="5" stroke-linecap="round" stroke-linejoin="round"/>
<path d="M232.5 244C233.833 243.333 235.167 242.667 236.5 242" stroke="#F3FBFF" stroke-width="5" stroke-linecap="round" stroke-linejoin="round"/>
<path d="M233.5 215C236.333 214.667 239.167 214.333 242 214" stroke="#F3FBFF" stroke-width="5" stroke-linecap="round" stroke-linejoin="round"/>
<path d="M235 185C236.5 184.667 238 184.333 239.5 184" stroke="#F3FBFF" stroke-width="5" stroke-linecap="round" stroke-linejoin="round"/>
<path d="M240 147.5C241.71 146.205 243.355 144.87 245 143.5" stroke="#F3FBFF" stroke-width="5" stroke-linecap="round" stroke-linejoin="round"/>
<path d="M239.5 313C241.166 313.183 242.831 313.348 244.5 313.5" stroke="#F3FBFF" stroke-width="5" stroke-linecap="round" stroke-linejoin="round"/>
<path d="M212 346C213.667 346.333 215.333 346.667 217 347" stroke="#F3FBFF" stroke-width="5" stroke-linecap="round" stroke-linejoin="round"/>
<path d="M103 341.5C101.953 342.293 100.928 343.072 100 344" stroke="#F3FBFF" stroke-width="5" stroke-linecap="round" stroke-linejoin="round"/>
<path d="M7.5 295C6.24852 294.076 3.70421 292.908 3 291.5" stroke="#F3FBFF" stroke-width="5" stroke-linecap="round" stroke-linejoin="round"/>
<path d="M127 240C125.551 239.094 124.319 238.055 123 237" stroke="#F3FBFF" stroke-width="5" stroke-linecap="round" stroke-linejoin="round"/>
<path d="M19 17.5C19.7437 15.5478 20 14.0315 20 12" stroke="#F3FBFF" stroke-width="5" stroke-linecap="round" stroke-linejoin="round"/>
<path d="M38.5 35C37.5749 34.0749 36.4137 33.2412 36 32" stroke="#F3FBFF" stroke-width="5" stroke-linecap="round" stroke-linejoin="round"/>
<path d="M114.5 12C113.575 11.0749 112.414 10.2412 112 9" stroke="#F3FBFF" stroke-width="5" stroke-linecap="round" stroke-linejoin="round"/>
<path d="M239.5 13C238.575 12.0749 237.414 11.2412 237 10" stroke="#F3FBFF" stroke-width="5" stroke-linecap="round" stroke-linejoin="round"/>
<path d="M254.5 107C253.575 106.075 252.414 105.241 252 104" stroke="#F3FBFF" stroke-width="5" stroke-linecap="round" stroke-linejoin="round"/>
<path d="M261.5 268C260.575 267.075 259.414 266.241 259 265" stroke="#F3FBFF" stroke-width="5" stroke-linecap="round" stroke-linejoin="round"/>
<path d="M62 15.5C62.8333 15.3333 63.6667 15.1667 64.5 15" stroke="#F3FBFF" stroke-width="5" stroke-linecap="round" stroke-linejoin="round"/>
</svg>
