<svg width="285" height="285" viewBox="0 0 285 285" fill="none" xmlns="http://www.w3.org/2000/svg">
<path d="M284.999 15.708L269.291 0H205.708L284.999 79.2906V15.708Z" fill="#FFFCE0" fill-opacity="0.25"/>
<path d="M284.999 15.7078L205.707 95H269.29L284.999 79.2904V15.7078Z" fill="#FFFCE0" fill-opacity="0.25"/>
<path d="M190 79.2905L269.29 0H205.708L190 15.7078V79.2905Z" fill="#FFFCE0" fill-opacity="0.25"/>
<path d="M269.291 94.9995L190 15.7087V79.2914L205.708 94.9995H269.291Z" fill="#FFFCE0" fill-opacity="0.25"/>
<path d="M189.999 15.708L174.291 0H110.708L189.999 79.2906V15.708Z" fill="#FFFCE0" fill-opacity="0.25"/>
<path d="M189.999 15.7078L110.707 95H174.29L189.999 79.2904V15.7078Z" fill="#FFFCE0" fill-opacity="0.25"/>
<path d="M95.001 79.2905L174.291 0H110.709L95.001 15.7078V79.2905Z" fill="#FFFCE0" fill-opacity="0.25"/>
<path d="M174.291 94.9995L95 15.7087V79.2914L110.708 94.9995H174.291Z" fill="#FFFCE0" fill-opacity="0.25"/>
<path d="M94.9986 15.708L79.2907 0H15.708L94.9986 79.2906V15.708Z" fill="#FFFCE0" fill-opacity="0.25"/>
<path d="M94.9992 15.7078L15.707 95H79.2897L94.9992 79.2904V15.7078Z" fill="#FFFCE0" fill-opacity="0.25"/>
<path d="M0 79.2905L79.2905 0H15.7078L0 15.7078V79.2905Z" fill="#FFFCE0" fill-opacity="0.25"/>
<path d="M79.2908 94.9995L0 15.7087V79.2914L15.7081 94.9995H79.2908Z" fill="#FFFCE0" fill-opacity="0.25"/>
<path d="M284.999 110.708L269.291 95H205.708L284.999 174.291V110.708Z" fill="#FFFCE0" fill-opacity="0.25"/>
<path d="M284.999 110.708L205.707 190H269.29L284.999 174.291V110.708Z" fill="#FFFCE0" fill-opacity="0.25"/>
<path d="M190 174.29L269.29 95H205.708L190 110.708V174.29Z" fill="#FFFCE0" fill-opacity="0.25"/>
<path d="M269.291 190L190 110.709V174.292L205.708 190H269.291Z" fill="#FFFCE0" fill-opacity="0.25"/>
<path d="M189.999 110.708L174.291 95H110.708L189.999 174.291V110.708Z" fill="#FFFCE0" fill-opacity="0.25"/>
<path d="M189.999 110.708L110.707 190H174.29L189.999 174.291V110.708Z" fill="#FFFCE0" fill-opacity="0.25"/>
<path d="M95.001 174.29L174.291 95H110.709L95.001 110.708V174.29Z" fill="#FFFCE0" fill-opacity="0.25"/>
<path d="M174.291 190L95 110.709V174.292L110.708 190H174.291Z" fill="#FFFCE0" fill-opacity="0.25"/>
<path d="M94.9986 110.708L79.2907 95H15.708L94.9986 174.291V110.708Z" fill="#FFFCE0" fill-opacity="0.25"/>
<path d="M94.9992 110.708L15.707 190H79.2897L94.9992 174.291V110.708Z" fill="#FFFCE0" fill-opacity="0.25"/>
<path d="M0 174.29L79.2905 95H15.7078L0 110.708V174.29Z" fill="#FFFCE0" fill-opacity="0.25"/>
<path d="M79.2908 190L0 110.709V174.292L15.7081 190H79.2908Z" fill="#FFFCE0" fill-opacity="0.25"/>
<path d="M284.999 205.708L269.291 190H205.708L284.999 269.291V205.708Z" fill="#FFFCE0" fill-opacity="0.25"/>
<path d="M284.999 205.708L205.707 285H269.29L284.999 269.291V205.708Z" fill="#FFFCE0" fill-opacity="0.25"/>
<path d="M190 269.291L269.29 190H205.708L190 205.708V269.291Z" fill="#FFFCE0" fill-opacity="0.25"/>
<path d="M269.291 285L190 205.709V269.292L205.708 285H269.291Z" fill="#FFFCE0" fill-opacity="0.25"/>
<path d="M189.999 205.708L174.291 190H110.708L189.999 269.291V205.708Z" fill="#FFFCE0" fill-opacity="0.25"/>
<path d="M189.999 205.708L110.707 285H174.29L189.999 269.291V205.708Z" fill="#FFFCE0" fill-opacity="0.25"/>
<path d="M95.001 269.291L174.291 190H110.709L95.001 205.708V269.291Z" fill="#FFFCE0" fill-opacity="0.25"/>
<path d="M174.291 285L95 205.709V269.292L110.708 285H174.291Z" fill="#FFFCE0" fill-opacity="0.25"/>
<path d="M94.9986 205.708L79.2907 190H15.708L94.9986 269.291V205.708Z" fill="#FFFCE0" fill-opacity="0.25"/>
<path d="M94.9992 205.708L15.707 285H79.2897L94.9992 269.291V205.708Z" fill="#FFFCE0" fill-opacity="0.25"/>
<path d="M0 269.291L79.2905 190H15.7078L0 205.708V269.291Z" fill="#FFFCE0" fill-opacity="0.25"/>
<path d="M79.2908 285L0 205.709V269.292L15.7081 285H79.2908Z" fill="#FFFCE0" fill-opacity="0.25"/>
<mask id="mask0" mask-type="alpha" maskUnits="userSpaceOnUse" x="191" y="1" width="95" height="156">
<rect x="191.919" y="1.72681" width="93.0814" height="154.628" fill="#C4C4C4"/>
</mask>
<g mask="url(#mask0)">
<path d="M205.011 105.479C194.53 94.9983 194.53 78.0055 205.011 67.5247L252.831 19.7045C263.312 9.22368 280.305 9.22369 290.786 19.7046L320.395 49.3141C330.876 59.7949 330.876 76.7877 320.395 87.2686L272.575 135.089C262.094 145.57 245.101 145.57 234.621 135.089L205.011 105.479Z" fill="#FC5758" stroke="#F14242" stroke-width="1.93426"/>
<path d="M206.814 102.289C198.316 93.7913 198.316 80.0134 206.814 71.5154L256.821 21.5077C265.319 13.0097 279.097 13.0097 287.595 21.5077L318.591 52.5037C327.089 61.0017 327.089 74.7797 318.591 83.2777L268.584 133.285C260.086 141.783 246.308 141.783 237.81 133.285L206.814 102.289Z" fill="url(#paint0_linear)"/>
<path d="M201.268 101.568L238.969 139.269C237.81 138.11 236.094 137.634 234.302 137.974L234.15 138.002C231.164 138.569 228.304 137.775 226.372 135.843L204.694 114.165C202.762 112.233 201.968 109.372 202.535 106.387L202.563 106.235C202.903 104.443 202.427 102.727 201.268 101.568Z" fill="#F14242"/>
<ellipse cx="256.914" cy="107.032" rx="31.8602" ry="32.0288" transform="rotate(-45 256.914 107.032)" fill="white"/>
<ellipse cx="256.914" cy="107.032" rx="21.0676" ry="21.1791" transform="rotate(-45 256.914 107.032)" fill="#EF353D"/>
<ellipse cx="256.912" cy="107.032" rx="18.6767" ry="18.7755" transform="rotate(-45 256.912 107.032)" fill="#CC0C14"/>
<ellipse cx="256.913" cy="107.032" rx="15.1611" ry="15.2413" transform="rotate(-45 256.913 107.032)" fill="#B40008"/>
<ellipse cx="256.913" cy="107.032" rx="6.37205" ry="6.40576" transform="rotate(-45 256.913 107.032)" fill="white"/>
<ellipse cx="288.873" cy="55.9553" rx="26.1473" ry="26.2857" transform="rotate(-45 288.873 55.9553)" fill="white"/>
<path d="M288.915 72.0374C286.803 72.0318 284.71 71.6103 282.757 70.797C280.804 69.9836 279.028 68.7943 277.53 67.297C276.033 65.7996 274.844 64.0236 274.03 62.0703C273.217 60.1169 272.795 58.0245 272.79 55.9126C272.784 53.8006 273.195 51.7104 273.998 49.7613C274.801 47.8123 275.981 46.0425 277.47 44.553C278.96 43.0636 280.729 41.8836 282.678 41.0806C284.628 40.2775 286.718 39.867 288.83 39.8726L288.872 55.955L288.915 72.0374Z" fill="#FADA7B"/>
<ellipse cx="242.448" cy="56.5214" rx="18.2372" ry="18.3337" transform="rotate(-45 242.448 56.5214)" fill="white"/>
<path d="M242.831 68.6341C245.609 68.5619 248.362 67.5395 250.561 65.5654L242.802 57.8061L242.831 68.6341Z" fill="#760039"/>
<path d="M251.492 64.633C253.466 62.4337 254.489 59.6803 254.561 56.9024L243.733 56.874L251.492 64.633Z" fill="#FF7A00"/>
<path d="M254.524 55.581C254.301 52.8791 253.175 50.2337 251.149 48.1339L243.73 55.5525L254.524 55.581Z" fill="#61BB75"/>
<path d="M250.178 47.2302C248.027 45.4335 245.405 44.4933 242.766 44.4106L242.793 54.6154L250.178 47.2302Z" fill="#760039"/>
<path d="M241.443 44.4403L241.47 54.611L234.336 47.4768C236.371 45.6505 238.88 44.6387 241.443 44.4403Z" fill="#FF7A00"/>
<path d="M233.404 48.409C231.578 50.4439 230.566 52.9528 230.368 55.5166L240.538 55.5435L233.404 48.409Z" fill="#61BB75"/>
<path d="M230.337 56.839C230.42 59.4786 231.36 62.1005 233.157 64.251L240.542 56.8658L230.337 56.839Z" fill="#760039"/>
<path d="M234.062 65.2212C236.162 67.2475 238.807 68.3734 241.509 68.5967L241.481 57.8029L234.062 65.2212Z" fill="#FF7A00"/>
</g>
<mask id="mask1" mask-type="alpha" maskUnits="userSpaceOnUse" x="0" y="0" width="73" height="156">
<rect x="72.7656" y="155.151" width="72.766" height="154.628" transform="rotate(-180 72.7656 155.151)" fill="#C4C4C4"/>
</mask>
<g mask="url(#mask1)">
<path d="M-79.9118 105.446C-90.3927 94.9651 -90.3927 77.9723 -79.9118 67.4915L-32.0917 19.6713C-21.6108 9.19046 -4.61802 9.19047 5.86284 19.6713L35.4724 49.2809C45.9532 59.7617 45.9532 76.7545 35.4724 87.2354L-12.3478 135.056C-22.8286 145.536 -39.8215 145.536 -50.3023 135.056L-79.9118 105.446Z" fill="#FC5758" stroke="#F14242" stroke-width="1.93426"/>
<path d="M-78.1091 102.256C-86.6071 93.7581 -86.6071 79.9802 -78.1091 71.4822L-28.1014 21.4745C-19.6034 12.9765 -5.82545 12.9764 2.67255 21.4744L33.6686 52.4705C42.1666 60.9685 42.1666 74.7465 33.6686 83.2445L-16.339 133.252C-24.837 141.75 -38.615 141.75 -47.113 133.252L-78.1091 102.256Z" fill="url(#paint1_linear)"/>
<path d="M1.93848 15.9417L39.64 53.6431C38.481 52.4841 38.0043 50.7678 38.3443 48.976L38.373 48.8244C38.9395 45.8385 38.1453 42.9778 36.2135 41.046L14.5356 19.3681C12.6038 17.4364 9.74308 16.6422 6.75717 17.2086L6.6056 17.2373C4.81386 17.5773 3.09749 17.1007 1.93848 15.9417Z" fill="#F14242"/>
<ellipse cx="-28.0092" cy="106.999" rx="31.8602" ry="32.0288" transform="rotate(-45 -28.0092 106.999)" fill="white"/>
<ellipse cx="-28.0089" cy="106.999" rx="21.0676" ry="21.1791" transform="rotate(-45 -28.0089 106.999)" fill="#EF353D"/>
<ellipse cx="3.94976" cy="55.9218" rx="26.1473" ry="26.2857" transform="rotate(-45 3.94976 55.9218)" fill="white"/>
<path d="M3.99173 72.0042C1.87977 71.9986 -0.212622 71.5771 -2.16596 70.7638C-4.1193 69.9504 -5.89534 68.7611 -7.39266 67.2638C-8.88999 65.7664 -10.0793 63.9904 -10.8927 62.0371C-11.706 60.0837 -12.1275 57.9913 -12.1331 55.8794C-12.1387 53.7674 -11.7282 51.6772 -10.9251 49.7281C-10.1221 47.7791 -8.94212 46.0093 -7.45267 44.5198C-5.96323 43.0304 -4.19344 41.8504 -2.24437 41.0474C-0.295296 40.2443 1.7949 39.8338 3.90687 39.8394L3.9493 55.9218L3.99173 72.0042Z" fill="#FADA7B"/>
<path d="M1.64043 48.9065C2.14953 48.022 2.8284 47.2474 3.63826 46.6268C4.44813 46.0063 5.37313 45.552 6.36047 45.2898C7.3478 45.0277 8.37812 44.9629 9.3926 45.0991C10.4071 45.2353 11.3859 45.5698 12.2731 46.0836C13.1603 46.5973 13.9385 47.2803 14.5633 48.0935C15.1882 48.9066 15.6474 49.834 15.9147 50.8228C16.182 51.8115 16.2523 52.8422 16.1215 53.8559C15.9906 54.8697 15.6613 55.8467 15.1522 56.7312L8.39629 52.8189L1.64043 48.9065Z" fill="#976143"/>
<path d="M1.04668 60.1206C1.55579 59.2361 2.23465 58.4615 3.04452 57.8409C3.85438 57.2204 4.77938 56.7661 5.76671 56.504C6.75405 56.2418 7.78437 56.177 8.79885 56.3132C9.81334 56.4494 10.7921 56.7839 11.6793 57.2977C12.5665 57.8115 13.3447 58.4944 13.9696 59.3076C14.5944 60.1207 15.0536 61.0481 15.3209 62.0369C15.5883 63.0256 15.6586 64.0563 15.5277 65.0701C15.3969 66.0838 15.0675 67.0609 14.5584 67.9454L7.80254 64.033L1.04668 60.1206Z" fill="#976143"/>
</g>
<path d="M85.4858 80.3424C100.17 65.658 123.978 65.658 138.663 80.3424L205.662 147.342C220.346 162.026 220.346 185.834 205.662 200.519L164.177 242.003C149.493 256.688 125.684 256.688 111 242.003L44.0009 175.004C29.3165 160.32 29.3164 136.512 44.0008 121.827L85.4858 80.3424Z" fill="#FC5758" stroke="#F14242" stroke-width="2.71004"/>
<path d="M89.9535 82.8685C101.86 70.9622 121.164 70.9622 133.07 82.8685L203.134 152.933C215.04 164.839 215.04 184.143 203.134 196.049L159.706 239.477C147.8 251.383 128.496 251.383 116.59 239.477L46.5259 169.413C34.6196 157.506 34.6196 138.202 46.5259 126.296L89.9535 82.8685Z" fill="url(#paint2_linear)"/>
<path d="M210.887 195.021L158.064 247.843C159.688 246.219 162.093 245.551 164.603 246.028L164.816 246.068C168.999 246.861 173.007 245.749 175.714 243.042L206.086 212.67C208.792 209.963 209.905 205.955 209.112 201.772L209.071 201.559C208.595 199.049 209.263 196.644 210.887 195.021Z" fill="#F14242"/>
<path d="M90.9658 75.0991L38.1434 127.921C39.7673 126.298 40.4351 123.893 39.9588 121.383L39.9185 121.17C39.1249 116.987 40.2377 112.979 42.9442 110.272L73.3164 79.8998C76.0229 77.1933 80.031 76.0806 84.2145 76.8742L84.4269 76.9144C86.9372 77.3908 89.342 76.723 90.9658 75.0991Z" fill="#F14242"/>
<ellipse cx="83.3105" cy="153.063" rx="44.6383" ry="44.8745" transform="rotate(45 83.3105 153.063)" fill="white"/>
<ellipse cx="83.3105" cy="153.062" rx="29.5172" ry="29.6734" transform="rotate(45 83.3105 153.062)" fill="#EF353D"/>
<ellipse cx="83.3113" cy="153.062" rx="26.1673" ry="26.3057" transform="rotate(45 83.3113 153.062)" fill="#CC0C14"/>
<ellipse cx="83.3092" cy="153.063" rx="21.2417" ry="21.3541" transform="rotate(45 83.3092 153.063)" fill="#B40008"/>
<ellipse cx="83.3113" cy="153.063" rx="8.92767" ry="8.97491" transform="rotate(45 83.3113 153.063)" fill="white"/>
<ellipse cx="155.471" cy="198.838" rx="36.6342" ry="36.828" transform="rotate(45 155.471 198.838)" fill="white"/>
<path d="M132.939 198.898C132.947 195.939 133.537 193.008 134.677 190.271C135.816 187.534 137.483 185.046 139.58 182.948C141.678 180.85 144.167 179.184 146.903 178.044C149.64 176.905 152.572 176.314 155.531 176.306C158.49 176.299 161.418 176.874 164.149 177.999C166.88 179.124 169.359 180.777 171.446 182.864C173.533 184.951 175.186 187.43 176.311 190.161C177.437 192.892 178.012 195.82 178.004 198.779L155.471 198.839L132.939 198.898Z" fill="#FADA7B"/>
<ellipse cx="154.079" cy="132.795" rx="25.5516" ry="25.6868" transform="rotate(45 154.079 132.795)" fill="white"/>
<path d="M137.109 133.33C137.211 137.222 138.643 141.079 141.409 144.161L152.28 133.29L137.109 133.33Z" fill="#760039"/>
<path d="M142.714 145.467C145.796 148.232 149.653 149.665 153.545 149.767L153.585 134.596L142.714 145.467Z" fill="#FF7A00"/>
<path d="M155.397 149.714C159.182 149.401 162.889 147.824 165.83 144.985L155.437 134.591L155.397 149.714Z" fill="#61BB75"/>
<path d="M167.096 143.625C169.614 140.612 170.931 136.939 171.047 133.24L156.749 133.278L167.096 143.625Z" fill="#760039"/>
<path d="M171.004 131.388L156.755 131.425L166.75 121.43C169.309 124.281 170.726 127.796 171.004 131.388Z" fill="#FF7A00"/>
<path d="M165.445 120.126C162.594 117.567 159.079 116.149 155.487 115.872L155.449 130.122L165.445 120.126Z" fill="#61BB75"/>
<path d="M153.634 115.827C149.936 115.943 146.262 117.26 143.25 119.777L153.597 130.125L153.634 115.827Z" fill="#760039"/>
<path d="M141.89 121.045C139.051 123.987 137.473 127.693 137.16 131.479L152.283 131.439L141.89 121.045Z" fill="#FF7A00"/>
<path d="M165.301 195.604C166.54 196.317 167.626 197.268 168.495 198.403C169.364 199.538 170.001 200.834 170.368 202.217C170.735 203.6 170.826 205.044 170.635 206.465C170.445 207.886 169.976 209.258 169.256 210.501C168.536 211.744 167.579 212.834 166.44 213.71C165.301 214.585 164.001 215.228 162.616 215.603C161.231 215.978 159.787 216.076 158.366 215.893C156.946 215.709 155.577 215.248 154.338 214.535L159.819 205.069L165.301 195.604Z" fill="#976143"/>
<path d="M149.587 194.772C150.826 195.486 151.912 196.437 152.781 197.571C153.651 198.706 154.287 200.002 154.654 201.385C155.022 202.769 155.112 204.212 154.922 205.634C154.731 207.055 154.262 208.426 153.542 209.669C152.822 210.912 151.866 212.003 150.726 212.878C149.587 213.754 148.288 214.397 146.902 214.771C145.517 215.146 144.073 215.244 142.653 215.061C141.232 214.878 139.863 214.416 138.624 213.703L144.106 204.238L149.587 194.772Z" fill="#976143"/>
<defs>
<linearGradient id="paint0_linear" x1="188.967" y1="73.2479" x2="334.374" y2="72.8643" gradientUnits="userSpaceOnUse">
<stop stop-color="#CB1F1F"/>
<stop offset="1" stop-color="#E94848"/>
</linearGradient>
<linearGradient id="paint1_linear" x1="-95.9556" y1="73.2147" x2="49.4514" y2="72.831" gradientUnits="userSpaceOnUse">
<stop stop-color="#CB1F1F"/>
<stop offset="1" stop-color="#E94848"/>
</linearGradient>
<linearGradient id="paint2_linear" x1="130.643" y1="57.8644" x2="131.18" y2="261.589" gradientUnits="userSpaceOnUse">
<stop stop-color="#CB1F1F"/>
<stop offset="1" stop-color="#E94848"/>
</linearGradient>
</defs>
</svg>
