<svg width="290" height="348" viewBox="0 0 290 348" fill="none" xmlns="http://www.w3.org/2000/svg">
<path d="M180 161C180 161 199.209 133.588 216.389 117.755C240.841 95.2189 290 61 290 61C290 61 276.078 78.0454 255.594 98.7862C237.595 117.01 180 161 180 161Z" fill="#494C76"/>
<path d="M93 235.544C93 235.544 127.413 243.771 149.597 254.451C181.172 269.653 233.68 304.457 233.68 304.457C233.68 304.457 211.532 297.415 183.238 285.393C158.377 274.829 93 235.544 93 235.544Z" fill="#494C76"/>
<path d="M171.902 110.755C171.902 110.755 161.573 86.5968 157.355 69.5262C151.352 45.2294 145.693 2.17346 145.693 2.17346C145.693 2.17346 151.547 18.2083 157.653 39.5352C163.018 58.2745 171.902 110.755 171.902 110.755Z" fill="#888AA4"/>
<path d="M145.391 152.02C144.554 140.655 147.272 132.672 147.272 132.672C155.521 138.477 155.056 146.791 154.258 153.304C154.179 153.948 154.1 154.592 154.031 155.235C155.229 151.753 155.726 141.346 161.307 137.277C170.509 130.569 184.6 135.816 184.6 135.816C181.997 144.949 177.717 148.845 168.526 152.53C164.475 154.809 160.586 156.997 158.001 160.288C157.968 160.381 157.935 160.475 157.903 160.57C160.316 158.105 163.863 156.187 169.5 155.235C180.741 153.337 190.075 156.502 190.075 156.502C183 161.5 175.044 164.338 168.06 165.12C162.74 165.716 158.463 166.194 157.141 169.062C157.29 170.319 157.547 171.669 157.94 173.115C158.462 171.097 160.545 168.543 167.323 167.375C179.405 165.294 186.903 170.977 186.903 170.977C181.735 175.12 174.26 175.639 168.543 176.037C163.214 176.407 159.412 176.671 160.428 179.665L160.352 179.545C162.143 183.34 164.772 187.627 168.523 192.439C169.109 191.629 168.543 189.087 170.542 183.088C174.396 174.362 185.14 180.044 185.14 180.044C181.486 183.088 177.793 180.493 175.595 183.088C173.668 185.362 176.159 195.829 175.595 199.982L164.392 201.912C164.392 201.912 164.488 200.16 165.657 197.43C160.569 191.164 157.123 185.542 154.919 180.524C152.268 181.144 148.37 180.928 144.785 176.414C138.588 168.609 136.627 158.26 136.627 158.26C143.5 159 146.014 164.649 148.335 168.372C149.646 170.474 150.825 172.366 152.508 173.505C151.9 170.992 151.627 168.668 151.618 166.524C149.409 164.297 145.954 159.654 145.391 152.02Z" fill="#8BBC60"/>
<path d="M146.55 186.668C146.55 186.668 155.903 186.84 163.662 191.095C171.421 195.35 173.531 200.322 173.531 200.322L162.324 202.25C158.16 194.279 151.628 196.851 146.55 186.668Z" fill="#8BBC60"/>
<path d="M153.391 217.001C154.294 208.334 160.32 201.038 168.704 198.458L175.181 196.464C185.746 193.213 197.249 195.451 205.795 202.42L210.211 206.022C218.49 212.773 224.593 221.785 227.766 231.942L234.203 252.549L237.132 268.69C238.311 275.189 238.289 281.846 237.065 288.336L231.699 316.8C230.443 323.465 230.453 330.305 231.729 336.967L233.843 348L225.433 337.232C222.557 333.549 219.12 330.336 215.245 327.706C210.907 324.763 207.121 321.091 204.058 316.854L198.21 308.764L173.256 280.585L161.776 264.161C154.308 253.477 150.943 240.492 152.291 227.558L153.391 217.001Z" fill="white"/>
<path d="M134.368 87.5679C138.556 79.9904 139.216 73.6176 139.216 73.6176C131.679 75.0033 129.359 80.8889 127.841 85.637C127.691 86.107 127.54 86.5763 127.384 87.0424C127.663 84.2584 127.515 79.8193 124.955 75.2384C120.736 67.6859 112.456 63.9297 112.456 63.9297C111.351 71.06 113.067 75.1079 118.24 80.5704C120.311 83.4307 122.3 86.1761 123.039 89.2684C123.032 89.3432 123.025 89.4184 123.017 89.4941C122.135 87.0265 120.356 83.9415 116.768 81.4939C109.613 76.6132 102.106 76.4671 102.106 76.4671C104.243 83.1815 109.991 86.6494 114.562 89.4076C118.044 91.5085 120.844 93.1977 120.845 95.5963C120.344 96.4167 119.737 97.2667 119.007 98.1399C119.287 96.5815 118.661 94.157 114.354 91.1981C106.677 85.9241 99.6969 87.4643 99.6969 87.4643C101.948 91.9651 106.942 94.6979 110.761 96.7882C114.321 98.7366 116.861 100.127 115.209 101.87L115.3 101.811C112.858 103.862 109.682 105.985 105.564 108.115C105.417 107.37 105.222 106.577 104.968 105.741C103.024 99.3276 98.0338 94.2817 98.0338 94.2817C96.608 98.6547 97.3401 101.284 98.0333 103.773C98.6407 105.954 99.2183 108.028 98.2881 111.074L105.406 115.965C105.406 115.965 105.897 114.725 105.957 112.469C111.459 109.761 115.623 106.976 118.739 104.213C120.37 105.483 123.129 106.572 127.037 104.595C133.794 101.177 138.435 94.6583 138.435 94.6583C133.202 93.9302 129.926 96.0855 127.142 97.9176C125.57 98.952 124.154 99.8834 122.632 100.135C123.85 98.5938 124.776 97.076 125.464 95.5993C127.695 94.7644 131.555 92.6575 134.368 87.5679Z" fill="#383D70"/>
<path d="M122.562 111.112C122.562 111.112 116.053 108.26 109.346 108.731C102.64 109.203 99.6043 111.964 99.6043 111.964L106.726 116.855C112.132 112.676 115.823 116.526 122.562 111.112Z" fill="#383D70"/>
<path d="M67.2161 124.294C73.0067 110.891 89.1738 105.629 101.661 113.083C118.633 123.215 122.59 146.2 109.997 161.504L92.4745 182.798C89.6318 186.252 87.4774 190.225 86.1291 194.498L85.5414 196.361C84.3395 200.17 82.2933 203.656 79.5573 206.555C77.3393 208.906 75.5702 211.647 74.3384 214.64L66.1226 234.609L54.7014 255.682C51.7774 261.077 47.6977 265.752 42.7576 269.368L39.0699 272.067L20.9825 287.727C18.4434 289.925 15.0688 290.883 11.7634 290.343C8.26155 289.772 5.22904 287.584 3.56867 284.432L0.074707 277.799L6.18401 283.885C8.1047 285.798 10.919 286.489 13.5022 285.681C14.9467 285.23 16.2169 284.339 17.1381 283.132L18.7849 280.974C20.7798 278.361 21.9198 275.19 22.0479 271.899L23.3608 238.17C23.5623 232.995 24.7269 227.902 26.7944 223.157L33.3252 208.167C34.6482 205.131 35.6042 201.946 36.1727 198.681L36.9968 193.948C37.5551 190.742 38.6301 187.649 40.1794 184.79C41.9683 181.489 43.1227 177.879 43.5822 174.15L44.5672 166.153C45.6442 157.409 49.6533 149.294 55.9325 143.145C59.5249 139.628 62.4006 135.44 64.3984 130.816L67.2161 124.294Z" fill="#EDA155"/>
<path d="M86.3645 75.1335C86.3645 75.1335 56.8005 70.9671 43.1925 66.8712C23.8242 61.0413 3.68109e-05 48.5337 3.68109e-05 48.5337C3.68109e-05 48.5337 24.2672 53.0268 41.5273 57.4063C56.6931 61.2544 86.3645 75.1335 86.3645 75.1335Z" fill="#888AA4"/>
<path fill-rule="evenodd" clip-rule="evenodd" d="M219.068 4.57264C219.068 4.57264 215.569 13.3727 217.862 22.0879C220.156 30.8031 227.089 34.4953 227.089 34.4953L227.175 34.4182C227.135 36.7922 227.238 39.3406 227.69 42.0828C225.206 40.6652 223.543 38.5292 221.867 36.3761L221.867 36.3761C218.681 32.2833 215.447 28.1284 206.429 28.7266C206.429 28.7266 209.357 34.7156 216.169 40.6118C219.978 43.9083 223.757 44.9246 226.348 45.18C224.486 45.8996 222.464 45.3769 220.163 44.7824C216.801 43.9135 212.845 42.8913 207.932 45.37C207.932 45.37 214.704 50.234 222.517 51.3294C226.074 51.8281 228.289 50.6932 229.647 49.3088C231.271 53.5806 233.894 58.2575 238.067 63.392C237.16 65.5622 237.097 66.9505 237.097 66.9505L245.953 65.3434C246.369 62.052 247.804 60.328 249.313 58.5148C251.036 56.4454 252.855 54.26 253.367 49.4961C253.367 49.4961 246.468 52.16 241.88 57.4232C241.703 57.6262 241.532 57.8276 241.368 58.0274C241.163 56.7981 241.962 54.734 242.94 52.206C244.578 47.9712 246.719 42.4345 245.491 37.3395C245.491 37.3395 238.899 40.8168 236.327 50.1814C236.147 50.835 236.008 51.4436 235.903 52.0103C233.743 47.4319 232.633 42.9543 231.418 38.0523L231.258 37.4065C231.609 36.4635 232.538 35.45 233.612 34.2786L233.612 34.2786C235.662 32.0418 238.24 29.2294 238.33 25.2333C238.33 25.2333 234.261 26.5225 231.143 30.33C230.623 30.9647 230.223 31.6054 229.918 32.2326L229.856 32.0062L229.91 31.9573C229.871 31.9009 229.832 31.8442 229.795 31.7873C229.105 29.3243 228.292 26.7251 227.243 23.9381C227.222 23.9839 227.202 24.0293 227.182 24.0744C227.027 23.1448 226.894 22.1959 226.759 21.237C225.933 15.3703 225.053 9.12416 219.068 4.57264Z" fill="white"/>
<path d="M222.865 55.0428C222.865 55.0428 230.269 55.1091 236.44 58.417C242.611 61.7249 244.316 65.6425 244.316 65.6425L235.458 67.2516C232.107 60.9771 226.955 63.0603 222.865 55.0428Z" fill="white"/>
<path d="M286.816 239.584C286.816 239.584 290.29 220.688 282.95 200.479C279.583 191.209 277.394 176.547 279.589 163.75C282.236 148.314 282.741 139.525 279.815 124.128C276.641 107.422 281.67 104.644 276.246 88.5216C274.469 83.2377 275.013 79.5983 272.031 74.8837C267.468 67.6683 262.372 63.9093 253.933 62.5978C245.157 61.234 242.502 61.1078 234.76 65.4311C225.776 70.4478 227.663 66.658 221.676 78.4044C217.864 85.8834 225.497 100.863 226.648 109.186C229.401 129.089 227.154 130.13 236.218 148.082C244.457 164.4 243.401 167.341 251.888 183.532C258.016 195.222 260.955 195.205 270.549 204.282C287.262 220.093 286.816 239.584 286.816 239.584Z" fill="#FF8660"/>
<path d="M50 199.755C50 199.755 84.2519 200.181 106.565 203.305C138.323 207.752 191.548 220.196 191.548 220.196C191.548 220.196 162.889 221.137 134.5 218C109.555 215.244 50 199.755 50 199.755Z" fill="#494C76"/>
<path d="M131.841 328.293C131.841 328.293 148.148 307.643 161.763 295.907C181.141 279.202 218.862 254.214 218.862 254.214C218.862 254.214 207.358 266.992 190.916 282.43C176.469 295.995 131.841 328.293 131.841 328.293Z" fill="#888AA4"/>
</svg>
