<svg width="456" height="300" viewBox="0 0 456 300" fill="none" xmlns="http://www.w3.org/2000/svg">
<path d="M434.057 114.511C428.027 110.683 431.723 109.97 421.414 96.6042C414.087 87.1315 405.269 84.9255 405.269 84.9255C401.897 79.735 394.182 75.5177 394.182 75.5177C394.182 75.5177 389.643 68.4456 382.64 63.8391C378.426 61.0492 373.109 59.0378 368.181 58.3242C365.069 57.87 359.817 53.8473 359.817 53.8473C359.817 53.8473 356.964 47.0997 343.867 42.2336C343.154 45.1532 343.932 47.1646 345.423 49.8896C345.358 49.9545 303.797 190.617 303.797 190.617L435.938 123.595L442.033 122.816C442.033 122.816 439.893 119.053 438.856 118.015C437.883 116.912 434.057 114.511 434.057 114.511Z" fill="#DF7E7E"/>
<path d="M455.973 105.363C455.519 94.9173 442.033 87.3261 434.317 79.6053C427.249 72.5332 420.766 63.6445 418.756 61.3087C416.94 59.5569 413.179 55.3397 407.214 51.7712C401.508 48.3325 393.728 45.6723 387.244 41.455C381.279 37.6271 375.638 32.1121 371.164 29.3222C358.909 21.7311 351.907 22.899 346.59 29.3871C342.181 34.7074 343.867 42.1039 343.867 42.1039C356.899 47.0348 359.817 53.7176 359.817 53.7176C359.817 53.7176 365.069 57.7403 368.181 58.1944C373.109 58.9081 378.426 60.9194 382.64 63.7093C389.643 68.3808 394.182 75.388 394.182 75.388C394.182 75.388 401.962 79.6053 405.269 84.7958C405.269 84.7958 414.152 87.0017 421.414 96.4744C431.723 109.84 428.027 110.554 434.057 114.382C434.057 114.382 437.883 116.717 438.92 117.82C439.893 118.858 442.097 122.622 442.097 122.622C443.07 123.595 456.686 121.324 455.973 105.363Z" fill="#DF7E7E"/>
<path d="M352.555 65.526C353.343 65.526 353.982 64.887 353.982 64.0987C353.982 63.3103 353.343 62.6713 352.555 62.6713C351.767 62.6713 351.129 63.3103 351.129 64.0987C351.129 64.887 351.767 65.526 352.555 65.526Z" fill="#120D24"/>
<path d="M361.179 71.8844C361.967 71.8844 362.605 71.2453 362.605 70.457C362.605 69.6687 361.967 69.0296 361.179 69.0296C360.391 69.0296 359.752 69.6687 359.752 70.457C359.752 71.2453 360.391 71.8844 361.179 71.8844Z" fill="#120D24"/>
<path d="M351.518 75.388C352.306 75.388 352.944 74.7489 352.944 73.9606C352.944 73.1723 352.306 72.5332 351.518 72.5332C350.73 72.5332 350.091 73.1723 350.091 73.9606C350.091 74.7489 350.73 75.388 351.518 75.388Z" fill="#120D24"/>
<path d="M412.985 116.523C413.773 116.523 414.411 115.884 414.411 115.095C414.411 114.307 413.773 113.668 412.985 113.668C412.197 113.668 411.558 114.307 411.558 115.095C411.558 115.884 412.197 116.523 412.985 116.523Z" fill="#120D24"/>
<path d="M422.257 120.416C423.045 120.416 423.683 119.777 423.683 118.988C423.683 118.2 423.045 117.561 422.257 117.561C421.469 117.561 420.83 118.2 420.83 118.988C420.83 119.777 421.469 120.416 422.257 120.416Z" fill="#120D24"/>
<path d="M373.433 114.447C374.221 114.447 374.86 113.807 374.86 113.019C374.86 112.231 374.221 111.592 373.433 111.592C372.645 111.592 372.007 112.231 372.007 113.019C372.007 113.807 372.645 114.447 373.433 114.447Z" fill="#120D24"/>
<path d="M344.839 125.282C345.627 125.282 346.266 124.643 346.266 123.854C346.266 123.066 345.627 122.427 344.839 122.427C344.052 122.427 343.413 123.066 343.413 123.854C343.413 124.643 344.052 125.282 344.839 125.282Z" fill="#120D24"/>
<path d="M338.615 120.091C339.403 120.091 340.041 119.452 340.041 118.664C340.041 117.876 339.403 117.236 338.615 117.236C337.827 117.236 337.188 117.876 337.188 118.664C337.188 119.452 337.827 120.091 338.615 120.091Z" fill="#120D24"/>
<path d="M322.859 165.768C323.647 165.768 324.285 165.129 324.285 164.34C324.285 163.552 323.647 162.913 322.859 162.913C322.071 162.913 321.433 163.552 321.433 164.34C321.433 165.129 322.071 165.768 322.859 165.768Z" fill="#120D24"/>
<path d="M331.677 165.962C332.465 165.962 333.104 165.323 333.104 164.535C333.104 163.747 332.465 163.108 331.677 163.108C330.889 163.108 330.251 163.747 330.251 164.535C330.251 165.323 330.889 165.962 331.677 165.962Z" fill="#120D24"/>
<path d="M343.867 42.1688C343.154 45.0884 343.932 47.0997 345.423 49.8248C345.423 49.8248 349.184 52.0956 352.815 53.1337C356.381 54.1069 359.817 53.8474 359.817 53.8474C359.817 53.8474 356.964 47.0997 343.867 42.1688Z" fill="#120D24"/>
<path d="M382.64 63.7742C378.426 60.9843 373.109 58.973 368.181 58.2593C367.144 58.1295 365.782 57.5456 364.55 56.8319C366.171 57.9998 382.122 77.3344 393.922 75.1284C392.885 73.5713 388.67 67.7969 382.64 63.7742Z" fill="#120D24"/>
<path d="M405.269 84.9255C405.075 84.6011 409.548 99.7185 429.324 109.126C428.222 106.791 426.536 103.287 421.414 96.6042C414.152 87.1315 405.269 84.9255 405.269 84.9255Z" fill="#120D24"/>
<path d="M438.92 117.95C437.883 116.912 434.057 114.511 434.057 114.511C433.539 114.187 433.15 113.863 432.761 113.603C432.825 117.172 434.122 120.545 436.132 123.4C437.105 123.076 442.097 122.686 442.097 122.686C442.097 122.686 439.893 118.988 438.92 117.95Z" fill="#120D24"/>
<path d="M350.091 113.603C356.251 113.603 361.244 108.607 361.244 102.444C361.244 96.2803 356.251 91.2839 350.091 91.2839C343.932 91.2839 338.939 96.2803 338.939 102.444C338.939 108.607 343.932 113.603 350.091 113.603Z" fill="#D83030"/>
<path d="M376.351 98.4858C382.51 98.4858 387.503 93.4894 387.503 87.3262C387.503 81.1629 382.51 76.1666 376.351 76.1666C370.192 76.1666 365.199 81.1629 365.199 87.3262C365.199 93.4894 370.192 98.4858 376.351 98.4858Z" fill="#D83030"/>
<path d="M395.025 126.255C401.184 126.255 406.177 121.259 406.177 115.095C406.177 108.932 401.184 103.936 395.025 103.936C388.865 103.936 383.872 108.932 383.872 115.095C383.872 121.259 388.865 126.255 395.025 126.255Z" fill="#D83030"/>
<path d="M369.478 142.605C375.637 142.605 380.63 137.609 380.63 131.445C380.63 125.282 375.637 120.286 369.478 120.286C363.319 120.286 358.326 125.282 358.326 131.445C358.326 137.609 363.319 142.605 369.478 142.605Z" fill="#D83030"/>
<path d="M340.625 153.959C346.784 153.959 351.777 148.963 351.777 142.8C351.777 136.636 346.784 131.64 340.625 131.64C334.466 131.64 329.473 136.636 329.473 142.8C329.473 148.963 334.466 153.959 340.625 153.959Z" fill="#D83030"/>
<path d="M26.5839 70.5426L34.7535 53.933L53.1029 51.2728L39.8758 38.2966L42.988 20L26.5839 28.6293L10.1797 20L13.2919 38.2966L0 51.2728L18.3493 53.933L26.5839 70.5426Z" fill="#8B859F"/>
<path d="M31.938 209.553C37.968 213.381 34.2722 214.095 44.5815 227.461C51.9083 236.933 60.7264 239.139 60.7264 239.139C64.098 244.33 71.8138 248.547 71.8138 248.547C71.8138 248.547 76.3525 255.619 83.355 260.226C87.5696 263.016 92.8863 265.027 97.8141 265.741C100.926 266.195 106.178 270.218 106.178 270.218C106.178 270.218 109.031 276.965 122.129 281.831C122.842 278.912 122.064 276.9 120.572 274.175C120.637 274.11 162.199 133.448 162.199 133.448L30.0577 200.535L23.9628 201.314C23.9628 201.314 26.1025 205.077 27.1399 206.115C28.1125 207.218 31.938 209.553 31.938 209.553Z" fill="#DF7E7E"/>
<path d="M10.0225 218.702C10.4764 229.148 23.9628 236.674 31.7435 244.46C38.8109 251.532 45.2947 260.42 47.3047 262.756C49.1202 264.508 52.8809 268.725 58.846 272.294C64.5518 275.732 72.3325 278.393 78.8163 282.61C84.7815 286.438 90.4225 291.953 94.8963 294.743C107.151 302.334 114.153 301.166 119.47 294.678C123.879 289.357 122.193 281.961 122.193 281.961C109.161 277.03 106.243 270.347 106.243 270.347C106.243 270.347 100.991 266.325 97.8789 265.87C92.9512 265.157 87.6344 263.145 83.4199 260.356C76.4173 255.684 71.8786 248.677 71.8786 248.677C71.8786 248.677 64.098 244.46 60.7912 239.269C60.7912 239.269 51.9083 237.063 44.6464 227.59C34.337 214.225 38.0328 213.511 32.0028 209.683C32.0028 209.683 28.1773 207.347 27.1399 206.244C26.1673 205.206 23.9628 201.443 23.9628 201.443C22.9254 200.47 9.37412 202.806 10.0225 218.702Z" fill="#DF7E7E"/>
<path d="M113.44 261.394C114.228 261.394 114.867 260.755 114.867 259.966C114.867 259.178 114.228 258.539 113.44 258.539C112.652 258.539 112.014 259.178 112.014 259.966C112.014 260.755 112.652 261.394 113.44 261.394Z" fill="#120D24"/>
<path d="M104.817 255.035C105.604 255.035 106.243 254.396 106.243 253.608C106.243 252.819 105.604 252.18 104.817 252.18C104.029 252.18 103.39 252.819 103.39 253.608C103.39 254.396 104.029 255.035 104.817 255.035Z" fill="#120D24"/>
<path d="M114.542 251.532C115.33 251.532 115.969 250.893 115.969 250.104C115.969 249.316 115.33 248.677 114.542 248.677C113.755 248.677 113.116 249.316 113.116 250.104C113.116 250.893 113.755 251.532 114.542 251.532Z" fill="#120D24"/>
<path d="M53.0754 210.397C53.8632 210.397 54.5018 209.758 54.5018 208.969C54.5018 208.181 53.8632 207.542 53.0754 207.542C52.2876 207.542 51.6489 208.181 51.6489 208.969C51.6489 209.758 52.2876 210.397 53.0754 210.397Z" fill="#120D24"/>
<path d="M43.7386 206.504C44.5265 206.504 45.1651 205.865 45.1651 205.077C45.1651 204.288 44.5265 203.649 43.7386 203.649C42.9508 203.649 42.3122 204.288 42.3122 205.077C42.3122 205.865 42.9508 206.504 43.7386 206.504Z" fill="#120D24"/>
<path d="M92.627 212.473C93.4148 212.473 94.0534 211.834 94.0534 211.046C94.0534 210.257 93.4148 209.618 92.627 209.618C91.8392 209.618 91.2005 210.257 91.2005 211.046C91.2005 211.834 91.8392 212.473 92.627 212.473Z" fill="#120D24"/>
<path d="M121.156 201.703C121.944 201.703 122.582 201.064 122.582 200.275C122.582 199.487 121.944 198.848 121.156 198.848C120.368 198.848 119.73 199.487 119.73 200.275C119.73 201.064 120.368 201.703 121.156 201.703Z" fill="#120D24"/>
<path d="M127.445 206.828C128.233 206.828 128.872 206.189 128.872 205.401C128.872 204.613 128.233 203.974 127.445 203.974C126.658 203.974 126.019 204.613 126.019 205.401C126.019 206.189 126.658 206.828 127.445 206.828Z" fill="#120D24"/>
<path d="M143.201 161.152C143.989 161.152 144.628 160.513 144.628 159.725C144.628 158.936 143.989 158.297 143.201 158.297C142.413 158.297 141.775 158.936 141.775 159.725C141.775 160.513 142.413 161.152 143.201 161.152Z" fill="#120D24"/>
<path d="M134.383 160.957C135.171 160.957 135.81 160.318 135.81 159.53C135.81 158.742 135.171 158.103 134.383 158.103C133.595 158.103 132.957 158.742 132.957 159.53C132.957 160.318 133.595 160.957 134.383 160.957Z" fill="#120D24"/>
<path d="M122.129 281.896C122.842 278.976 122.064 276.965 120.572 274.24C120.572 274.24 116.812 271.969 113.181 270.931C109.615 269.958 106.178 270.217 106.178 270.217C106.178 270.217 109.096 277.03 122.129 281.896Z" fill="#120D24"/>
<path d="M83.4199 260.291C87.6344 263.081 92.9511 265.092 97.8789 265.806C98.9163 265.935 100.278 266.519 101.51 267.233C99.8889 266.065 83.9386 246.73 72.1379 248.936C73.1754 250.494 77.3899 256.268 83.4199 260.291Z" fill="#120D24"/>
<path d="M60.7263 239.139C60.9208 239.464 56.447 224.346 36.6712 214.939C37.7734 217.274 39.4592 220.778 44.5815 227.461C51.9083 236.933 60.7263 239.139 60.7263 239.139Z" fill="#120D24"/>
<path d="M27.1399 206.115C28.1773 207.153 32.0028 209.553 32.0028 209.553C32.5215 209.878 32.9106 210.202 33.2996 210.462C33.2348 206.893 31.938 203.519 29.928 200.665C28.9554 200.989 23.9628 201.378 23.9628 201.378C23.9628 201.378 26.1025 205.077 27.1399 206.115Z" fill="#120D24"/>
<path d="M115.969 232.781C122.128 232.781 127.121 227.785 127.121 221.621C127.121 215.458 122.128 210.462 115.969 210.462C109.81 210.462 104.817 215.458 104.817 221.621C104.817 227.785 109.81 232.781 115.969 232.781Z" fill="#D83030"/>
<path d="M89.7093 247.898C95.8685 247.898 100.862 242.902 100.862 236.739C100.862 230.575 95.8685 225.579 89.7093 225.579C83.55 225.579 78.557 230.575 78.557 236.739C78.557 242.902 83.55 247.898 89.7093 247.898Z" fill="#D83030"/>
<path d="M71.0357 220.194C77.1949 220.194 82.188 215.198 82.188 209.034C82.188 202.871 77.1949 197.875 71.0357 197.875C64.8765 197.875 59.8835 202.871 59.8835 209.034C59.8835 215.198 64.8765 220.194 71.0357 220.194Z" fill="#D83030"/>
<path d="M96.5822 203.779C102.741 203.779 107.734 198.783 107.734 192.619C107.734 186.456 102.741 181.46 96.5822 181.46C90.4229 181.46 85.4299 186.456 85.4299 192.619C85.4299 198.783 90.4229 203.779 96.5822 203.779Z" fill="#D83030"/>
<path d="M125.435 192.49C131.595 192.49 136.588 187.493 136.588 181.33C136.588 175.167 131.595 170.17 125.435 170.17C119.276 170.17 114.283 175.167 114.283 181.33C114.283 187.493 119.276 192.49 125.435 192.49Z" fill="#D83030"/>
<path d="M166.219 241.458C166.219 241.458 171.406 249.179 171.406 253.137C171.406 256.187 169.072 258.652 166.219 258.652C163.366 258.652 161.032 256.187 161.032 253.137C161.097 249.179 166.219 241.458 166.219 241.458Z" fill="white"/>
<path d="M161.098 225.498C168.165 235.23 179.577 241.523 192.544 241.523C205.512 241.523 216.924 235.23 223.991 225.498C216.924 215.765 205.512 209.472 192.544 209.472C179.577 209.472 168.1 215.765 161.098 225.498ZM177.567 225.498C177.567 217.258 184.245 210.575 192.479 210.575C200.714 210.575 207.392 217.258 207.392 225.498C207.392 233.738 200.714 240.42 192.479 240.42C184.245 240.42 177.567 233.738 177.567 225.498Z" fill="#8B859F"/>
<path d="M192.478 240.42C200.715 240.42 207.391 233.739 207.391 225.498C207.391 217.256 200.715 210.575 192.478 210.575C184.242 210.575 177.566 217.256 177.566 225.498C177.566 233.739 184.242 240.42 192.478 240.42Z" fill="#120D24"/>
<path d="M192.478 230.623C195.307 230.623 197.601 228.329 197.601 225.498C197.601 222.667 195.307 220.372 192.478 220.372C189.65 220.372 187.356 222.667 187.356 225.498C187.356 228.329 189.65 230.623 192.478 230.623Z" fill="#D83030"/>
<path d="M120.893 37.762C120.893 28.1596 127.377 20.1143 136.195 17.7137C134.444 17.2595 132.629 17 130.748 17C119.272 17 110 26.278 110 37.762C110 49.246 119.272 58.5241 130.748 58.5241C132.629 58.5241 134.444 58.2645 136.195 57.8104C127.377 55.4097 120.893 47.2996 120.893 37.762Z" fill="#D83030"/>
<path d="M50.3393 102.243L59.3519 88.2933L68.3644 102.243H50.3393Z" fill="#8B859F"/>
<path d="M100.2 88.2933L91.1876 102.243L82.175 88.2933H100.2Z" fill="#DF7E7E"/>
<path d="M114.011 103.475L123.023 89.526L132.036 103.475H114.011Z" fill="#8B859F"/>
<path d="M163.872 89.526L154.859 103.475L145.911 89.526H163.872Z" fill="#D83030"/>
<path d="M294.362 69.7598C309.474 69.7598 321.724 57.5014 321.724 42.3799C321.724 27.2584 309.474 15 294.362 15C279.251 15 267 27.2584 267 42.3799C267 57.5014 279.251 69.7598 294.362 69.7598Z" fill="#F45B5B"/>
<path d="M294.362 64.5694C306.609 64.5694 316.537 54.6348 316.537 42.38C316.537 30.1251 306.609 20.1906 294.362 20.1906C282.116 20.1906 272.188 30.1251 272.188 42.38C272.188 54.6348 282.116 64.5694 294.362 64.5694Z" fill="#D83030"/>
<path d="M247.419 178.241C247.225 175.646 245.733 173.375 243.594 172.078V108.299H234.841V172.013C232.701 173.31 231.21 175.581 231.015 178.241L205.015 185.833V188.558H274.522V185.833L247.419 178.241Z" fill="#8B859F"/>
<path d="M184.072 42.3799C184.072 58.8598 197.299 72.2254 213.768 72.42C216.102 114.852 239.185 114.852 239.185 114.852C239.185 114.852 262.267 114.852 264.601 72.42C281.006 72.2254 294.298 58.8598 294.298 42.3799H184.072Z" fill="white"/>
<path d="M185.109 50.1008C188.481 62.8825 200.022 72.2903 213.833 72.4849C216.167 114.917 239.249 114.917 239.249 114.917C239.249 114.917 262.332 114.917 264.666 72.4849C278.477 72.2903 290.018 62.8825 293.39 50.1008H185.109Z" fill="#DF7E7E"/>
<path d="M264.666 72.4849H213.768C213.962 75.6641 214.222 78.5188 214.611 81.2438C226.995 74.3664 252.282 74.3664 263.759 81.2438C264.212 78.5188 264.472 75.5992 264.666 72.4849Z" fill="#D83030"/>
<path d="M373.962 199.35L377.009 205.579L383.882 206.552L378.955 211.418L380.122 218.231L373.962 214.987L367.802 218.231L369.034 211.418L364.042 206.552L370.915 205.579L373.962 199.35Z" fill="#8B859F"/>
<path d="M277.223 252.034L286.235 238.085L295.248 252.034H277.223Z" fill="#8B859F"/>
<path d="M327.084 238.085L318.071 252.034L309.059 238.085H327.084Z" fill="#DF7E7E"/>
<path d="M340.894 253.267L349.907 239.317L358.919 253.267H340.894Z" fill="#8B859F"/>
<path d="M390.755 239.317L381.743 253.267L372.73 239.317H390.755Z" fill="#D83030"/>
</svg>
