<svg width="296" height="279" viewBox="0 0 296 279" fill="none" xmlns="http://www.w3.org/2000/svg">
<path d="M136.502 43.4479C133.756 49.7912 131.12 52.6785 125.3 55.1798C119.724 57.5763 115.096 58.4248 109.763 55.5079C111.499 49.6828 114.267 46.4893 119.596 43.7882C125.486 40.8027 131.169 40.531 136.502 43.4479Z" fill="#8FC98E"/>
<path d="M237.163 84.8685C248.266 87.0999 253.793 90.336 259.79 98.8059C265.536 106.921 268.478 114.047 265.627 123.589C255.701 122.798 249.637 119.455 243.488 111.84C236.691 103.423 234.313 94.4102 237.163 84.8685Z" fill="#8FC98E"/>
<path d="M88.6732 88.3978C88.5482 87.9325 88.4222 87.4679 88.2943 87.0058C98.4212 86.2435 110.682 79.7582 112.587 72.6486C114.671 64.8712 112.587 57.8314 103.311 55.8925C104.527 50.528 105.664 43.657 103.311 39.5813C98.7542 31.6897 85.723 30.7631 76.3958 36.1478C73.8392 37.6239 71.9867 39.6383 70.7386 41.9472C66.6458 37.9293 62.6523 34.3314 57.7461 34.3314C48.6338 34.3314 39.6732 44.1283 39.6732 54.8978C39.6732 59.3768 41.557 63.0704 44.4124 65.8576C43.1058 66.4945 41.9544 67.2946 41.0267 68.2726C34.7562 74.8849 34.0267 84.3737 39.3968 89.4667C43.0199 92.9025 49.266 93.3151 54.8734 91.1896C53.1507 94.8808 52.4017 98.5194 53.1732 101.398C55.5316 110.2 62.681 113.325 73.0833 110.537C83.4867 107.75 91.0316 97.2001 88.6732 88.3978Z" fill="#E7F1FB"/>
<circle cx="66.9961" cy="67.8314" r="1.5" fill="#AB425B"/>
<circle cx="72.9961" cy="65.8314" r="1.5" fill="#AB425B"/>
<circle cx="77.5186" cy="66.3314" r="1.5" fill="#AB425B"/>
<circle cx="75.2568" cy="70.8314" r="1.5" fill="#AB425B"/>
<circle cx="70.7344" cy="73.8314" r="1.5" fill="#AB425B"/>
<circle cx="71.127" cy="69.3314" r="1.5" fill="#AB425B"/>
<circle cx="66.9971" cy="70.8314" r="1.5" fill="#AB425B"/>
<path d="M93.6732 88.3978C93.5482 87.9325 93.4222 87.4679 93.2943 87.0058C103.421 86.2435 115.682 79.7582 117.587 72.6486C119.671 64.8712 117.587 57.8314 108.311 55.8925C109.527 50.528 110.664 43.657 108.311 39.5813C103.754 31.6897 90.723 30.7631 81.3958 36.1478C78.8392 37.6239 76.9867 39.6383 75.7386 41.9472C71.6458 37.9293 67.6523 34.3314 62.7461 34.3314C53.6338 34.3314 44.6732 44.1283 44.6732 54.8978C44.6732 59.3768 46.557 63.0704 49.4124 65.8576C48.1058 66.4945 46.9544 67.2946 46.0267 68.2726C39.7562 74.8849 39.0267 84.3737 44.3968 89.4667C48.0199 92.9025 54.266 93.3151 59.8734 91.1896C58.1507 94.8808 57.4017 98.5194 58.1732 101.398C60.5316 110.2 67.681 113.325 78.0833 110.537C88.4867 107.75 96.0316 97.2001 93.6732 88.3978Z" stroke="#41C4D8"/>
<path d="M108.602 250.452C108.817 250.328 109.033 250.203 109.247 250.077C110.983 255.035 115.865 260.293 119.673 260.293C123.838 260.293 127.076 258.309 126.803 253.414C129.646 253.304 133.231 252.952 134.953 251.231C138.286 247.897 137.004 241.262 133.065 237.323C131.985 236.243 130.731 235.587 129.41 235.272C130.869 232.69 132.132 230.213 131.476 227.761C130.256 223.208 124.161 220.043 118.78 221.484C116.542 222.084 114.949 223.52 113.938 225.32C113.445 224.752 112.891 224.284 112.278 223.951C108.135 221.703 103.296 222.609 101.47 225.974C100.239 228.245 100.869 231.421 102.682 233.938C100.607 233.571 98.6883 233.684 97.3534 234.455C93.271 236.812 92.667 240.803 95.4524 245.627C98.238 250.452 104.519 252.809 108.602 250.452Z" fill="#E7F1FB"/>
<circle cx="111.573" cy="237.712" r="1.22349" transform="rotate(5.72924 111.573 237.712)" fill="#AB425B"/>
<circle cx="116.606" cy="236.578" r="1.22349" transform="rotate(5.72924 116.606 236.578)" fill="#AB425B"/>
<circle cx="120.235" cy="237.352" r="1.22349" transform="rotate(5.72924 120.235 237.352)" fill="#AB425B"/>
<circle cx="119.285" cy="241.226" r="1.22349" transform="rotate(5.72924 119.285 241.226)" fill="#AB425B"/>
<circle cx="114.118" cy="242.887" r="1.22349" transform="rotate(5.72924 114.118 242.887)" fill="#AB425B"/>
<circle cx="114.803" cy="239.266" r="1.22349" transform="rotate(5.72924 114.803 239.266)" fill="#AB425B"/>
<circle cx="111.33" cy="240.147" r="1.22349" transform="rotate(5.72924 111.33 240.147)" fill="#AB425B"/>
<path d="M109.271 252.95C109.486 252.826 109.702 252.701 109.915 252.575C111.652 257.533 116.534 262.791 120.341 262.791C124.506 262.791 127.745 260.807 127.472 255.912C130.315 255.802 133.9 255.45 135.622 253.729C138.955 250.395 137.673 243.76 133.734 239.821C132.654 238.741 131.399 238.085 130.079 237.77C131.538 235.188 132.801 232.711 132.145 230.259C130.925 225.706 124.83 222.541 119.449 223.982C117.211 224.582 115.618 226.018 114.607 227.818C114.114 227.25 113.56 226.782 112.947 226.449C108.804 224.202 103.965 225.107 102.139 228.472C100.908 230.743 101.538 233.919 103.351 236.436C101.276 236.069 99.3572 236.182 98.0223 236.953C93.94 239.31 93.336 243.301 96.1214 248.125C98.9069 252.95 105.188 255.307 109.271 252.95Z" stroke="#41C4D8"/>
<path d="M160.701 152.429C160.917 152.304 161.132 152.179 161.346 152.053C163.083 157.011 167.965 162.269 171.772 162.269C175.937 162.269 179.176 160.286 178.902 155.391C181.746 155.28 185.331 154.929 187.052 153.207C190.385 149.874 189.104 143.239 185.164 139.299C184.085 138.22 182.83 137.564 181.509 137.249C182.969 134.666 184.232 132.189 183.575 129.738C182.355 125.185 176.261 122.019 170.879 123.461C168.642 124.061 167.048 125.496 166.038 127.296C165.545 126.729 164.991 126.261 164.378 125.928C160.235 123.68 155.396 124.586 153.57 127.951C152.338 130.221 152.968 133.397 154.781 135.915C152.706 135.548 150.788 135.661 149.453 136.432C145.371 138.789 144.767 142.779 147.552 147.604C150.338 152.429 156.619 154.786 160.701 152.429Z" fill="#E7F1FB"/>
<circle cx="163.672" cy="139.689" r="1.22349" transform="rotate(5.72924 163.672 139.689)" fill="#AB425B"/>
<circle cx="168.706" cy="138.554" r="1.22349" transform="rotate(5.72924 168.706 138.554)" fill="#AB425B"/>
<circle cx="172.335" cy="139.328" r="1.22349" transform="rotate(5.72924 172.335 139.328)" fill="#AB425B"/>
<circle cx="171.384" cy="143.203" r="1.22349" transform="rotate(5.72924 171.384 143.203)" fill="#AB425B"/>
<circle cx="166.217" cy="144.864" r="1.22349" transform="rotate(5.72924 166.217 144.864)" fill="#AB425B"/>
<circle cx="166.903" cy="141.242" r="1.22349" transform="rotate(5.72924 166.903 141.242)" fill="#AB425B"/>
<circle cx="163.429" cy="142.124" r="1.22349" transform="rotate(5.72924 163.429 142.124)" fill="#AB425B"/>
<path d="M161.37 154.927C161.586 154.802 161.801 154.677 162.015 154.551C163.752 159.509 168.634 164.767 172.441 164.767C176.606 164.767 179.845 162.784 179.571 157.889C182.415 157.778 186 157.427 187.721 155.705C191.054 152.372 189.773 145.737 185.833 141.797C184.754 140.718 183.499 140.062 182.178 139.747C183.638 137.164 184.901 134.687 184.244 132.236C183.024 127.683 176.929 124.517 171.548 125.959C169.31 126.559 167.717 127.994 166.707 129.794C166.214 129.227 165.66 128.759 165.047 128.426C160.904 126.178 156.065 127.084 154.239 130.449C153.007 132.719 153.637 135.896 155.45 138.413C153.375 138.046 151.457 138.159 150.122 138.93C146.04 141.287 145.436 145.277 148.221 150.102C151.007 154.927 157.288 157.284 161.37 154.927Z" stroke="#41C4D8"/>
<path d="M246.616 169.09C246.945 168.899 247.274 168.708 247.601 168.516C250.255 176.092 257.714 184.126 263.532 184.126C269.897 184.126 274.845 181.095 274.428 173.616C278.772 173.447 284.251 172.91 286.881 170.279C291.974 165.185 290.016 155.047 283.997 149.027C282.347 147.377 280.43 146.375 278.412 145.894C280.642 141.947 282.572 138.162 281.568 134.416C279.704 127.459 270.391 122.622 262.168 124.825C258.749 125.741 256.314 127.935 254.77 130.686C254.017 129.818 253.17 129.103 252.234 128.595C245.902 125.16 238.508 126.544 235.719 131.686C233.837 135.155 234.799 140.008 237.569 143.855C234.399 143.295 231.467 143.467 229.427 144.645C223.189 148.247 222.267 154.344 226.523 161.716C230.779 169.089 240.377 172.691 246.616 169.09Z" fill="#E7F1FB"/>
<circle cx="251.156" cy="149.622" r="1.86956" transform="rotate(5.72924 251.156 149.622)" fill="#AB425B"/>
<circle cx="258.847" cy="147.888" r="1.86956" transform="rotate(5.72924 258.847 147.888)" fill="#AB425B"/>
<circle cx="264.392" cy="149.071" r="1.86956" transform="rotate(5.72924 264.392 149.071)" fill="#AB425B"/>
<circle cx="262.94" cy="154.991" r="1.86956" transform="rotate(5.72924 262.94 154.991)" fill="#AB425B"/>
<circle cx="255.045" cy="157.53" r="1.86956" transform="rotate(5.72924 255.045 157.53)" fill="#AB425B"/>
<circle cx="256.093" cy="151.996" r="1.86956" transform="rotate(5.72924 256.093 151.996)" fill="#AB425B"/>
<circle cx="250.785" cy="153.343" r="1.86956" transform="rotate(5.72924 250.785 153.343)" fill="#AB425B"/>
<path d="M247.638 172.907C247.968 172.717 248.297 172.525 248.623 172.333C251.277 179.909 258.737 187.943 264.555 187.944C270.919 187.944 275.868 184.912 275.45 177.433C279.795 177.264 285.274 176.727 287.904 174.096C292.997 169.003 291.038 158.864 285.019 152.844C283.369 151.194 281.452 150.192 279.434 149.711C281.664 145.765 283.594 141.98 282.591 138.234C280.726 131.276 271.413 126.439 263.191 128.642C259.771 129.559 257.336 131.753 255.793 134.503C255.039 133.636 254.193 132.92 253.256 132.412C246.925 128.977 239.531 130.361 236.741 135.503C234.859 138.973 235.822 143.826 238.592 147.672C235.421 147.112 232.49 147.285 230.45 148.463C224.212 152.064 223.289 158.162 227.545 165.534C231.802 172.906 241.4 176.509 247.638 172.907Z" stroke="#41C4D8"/>
<path d="M197.551 77.7893C206.939 74.3653 213.39 60.6114 213.39 60.6114C213.39 60.6114 194.671 99.1189 218.961 108.283C243.252 117.447 258.573 94.7024 233.473 68.7208C258.573 94.7024 269.515 92.494 274.742 88.1119C284.862 79.6275 282.915 60.7948 272.888 48.8331C270.14 45.5543 267.357 40.2816 237.652 44.1746C269.157 40.44 272.032 28.7604 270.801 21.7575C268.514 8.75107 252.281 -1.58023 236.91 1.12246C230.516 2.2465 225.74 12.768 224.024 32.2744C222.787 30.5692 226.139 13.0118 218.159 6.41089C208.888 -1.25682 193.42 0.460124 187.498 9.40329C183.504 15.4369 177.235 26.3106 209.623 43.2668C203.923 41.7343 185.505 32.0576 173.707 35.0349C161.735 40.6102 159.603 52.0982 166.192 66.2464C172.782 80.3961 183.154 83.0405 197.551 77.7893Z" stroke="white"/>
<path d="M191.939 83.4479C200.991 79.2142 206.212 64.9479 206.212 64.9479C206.212 64.9479 190.939 104.948 215.94 111.948C240.94 118.947 254.208 94.9477 226.928 71.2659C254.208 94.9477 264.915 91.7887 269.738 86.9653C279.076 77.6266 275.485 59.0371 264.449 48.0001C261.423 44.9748 258.189 39.9664 228.939 46.4479C259.996 39.9664 261.836 28.0798 259.996 21.2117C256.578 8.45578 239.503 -0.413082 224.427 3.62648C218.157 5.30652 214.321 16.2061 214.321 35.7879C212.94 34.1977 214.74 16.4141 206.212 10.538C196.305 3.71228 181.047 6.77833 175.932 16.2061C172.481 22.5666 167.189 33.9479 200.939 48.0001C195.126 46.9732 175.932 38.9479 164.439 42.9479C153.002 49.551 151.886 61.1816 159.689 74.6979C167.493 88.2156 178.058 89.9407 191.939 83.4479Z" fill="#FFF5F5"/>
<circle cx="216.366" cy="48.8686" r="3.06683" transform="rotate(75 216.366 48.8686)" fill="#C16661"/>
<circle cx="222.481" cy="55.2258" r="2.45766" transform="rotate(75 222.481 55.2258)" fill="#C16661"/>
<circle cx="224.204" cy="48.4475" r="2.11448" transform="rotate(75 224.204 48.4475)" fill="#C16661"/>
<circle cx="219.469" cy="43.268" r="2.11448" transform="rotate(75 219.469 43.268)" fill="#C16661"/>
<circle cx="215.525" cy="60.9238" r="2.45766" transform="rotate(75 215.525 60.9238)" fill="#C16661"/>
<circle cx="208.859" cy="55.0388" r="2.45766" transform="rotate(75 208.859 55.0388)" fill="#C16661"/>
<circle cx="216.149" cy="53.7515" r="2.45766" transform="rotate(75 216.149 53.7515)" fill="#C16661"/>
<circle cx="209.683" cy="46.0545" r="2.85081" transform="rotate(75 209.683 46.0545)" fill="#C16661"/>
<path d="M214.386 188.176C211.13 195.172 215.117 206.203 215.117 206.203C215.117 206.203 204.313 174.958 186.047 183.217C167.781 191.476 171.834 212.259 199.724 212.741C171.834 212.259 167.065 219.44 166.604 224.686C165.711 234.844 177.057 244.064 189.062 245.12C192.353 245.41 196.751 246.769 210.845 228.425C195.682 247.665 200.489 255.612 204.985 258.763C213.335 264.616 227.839 261.394 234.756 251.526C237.633 247.421 234.496 239.069 224.783 227.481C226.389 227.737 234.145 239.154 242.107 238.4C251.355 237.525 258.863 228.142 257.213 220.026C256.1 214.551 253.586 205.191 226.644 213.617C230.593 211.341 245.932 206.569 250.749 198.501C254.241 188.92 249.133 181.484 237.81 177.357C226.487 173.229 219.38 177.448 214.386 188.176Z" stroke="white"/>
<path d="M207.413 189.745C204.782 196.998 209.721 207.638 209.721 207.638C209.721 207.638 196.22 177.46 178.748 187.288C161.276 197.116 167.135 217.464 194.96 215.499C167.135 217.464 163.014 225.035 163.014 230.302C163.015 240.499 175.125 248.689 187.177 248.689C190.481 248.689 194.981 249.658 207.413 230.148C193.995 250.644 199.48 258.139 204.235 260.884C213.066 265.983 227.231 261.502 233.257 251.065C235.763 246.724 231.906 238.679 221.214 227.987C222.837 228.101 231.564 238.794 239.429 237.346C248.564 235.664 255.221 225.659 252.867 217.718C251.278 212.361 247.953 203.258 221.853 214.013C225.588 211.4 240.45 205.301 244.54 196.843C247.18 186.993 241.439 180.033 229.798 176.914C218.157 173.794 211.447 178.62 207.413 189.745Z" fill="#FFF5F5"/>
<circle cx="212.955" cy="221.962" r="2.36807" transform="rotate(-150 212.955 221.962)" fill="#C16661"/>
<circle cx="206.146" cy="221.83" r="1.8977" transform="rotate(-150 206.146 221.83)" fill="#C16661"/>
<circle cx="208.906" cy="226.471" r="1.63271" transform="rotate(-150 208.906 226.471)" fill="#C16661"/>
<circle cx="214.318" cy="226.714" r="1.63271" transform="rotate(-150 214.318 226.714)" fill="#C16661"/>
<circle cx="206.832" cy="214.921" r="1.8977" transform="rotate(-150 206.832 214.921)" fill="#C16661"/>
<circle cx="213.685" cy="214.494" r="1.8977" transform="rotate(-150 213.685 214.494)" fill="#C16661"/>
<circle cx="210.408" cy="219.177" r="1.8977" transform="rotate(-150 210.408 219.177)" fill="#C16661"/>
<circle cx="218.141" cy="219.85" r="2.20127" transform="rotate(-150 218.141 219.85)" fill="#C16661"/>
<path d="M101.214 185.068C93.8871 182.649 88.5801 172.188 88.5801 172.188C88.5801 172.188 103.946 201.461 85.4178 209.113C66.8894 216.765 54.5221 199.577 73.2741 178.926C54.5221 199.577 46.0242 198.134 41.8856 194.876C33.8723 188.57 34.926 173.988 42.3791 164.517C44.4221 161.921 46.4437 157.785 69.463 160.081C45.0586 157.95 42.561 149.005 43.3442 143.571C44.7987 133.478 57.0802 125.117 69.0085 126.836C73.9694 127.551 77.9066 135.558 79.6966 150.571C80.6107 149.226 77.6044 135.755 83.6063 130.47C90.5781 124.331 102.557 125.287 107.341 132.048C110.568 136.61 115.666 144.852 91.0732 158.712C95.4365 157.393 109.42 149.485 118.597 151.501C127.97 155.519 129.889 164.334 125.141 175.411C120.393 186.488 112.451 188.777 101.214 185.068Z" stroke="white"/>
<path d="M94.2952 188.075C87.2083 185.023 82.8386 174.137 82.8386 174.137C82.8386 174.137 95.5799 204.644 76.4521 210.643C57.3243 216.642 46.5111 198.436 67.0009 179.508C46.5111 198.436 38.1724 196.253 34.3353 192.646C26.9055 185.661 29.2332 171.228 37.4876 162.447C39.7503 160.04 42.1267 156.097 64.8561 160.402C40.7324 156.14 39.0284 147.01 40.2849 141.666C42.6184 131.739 55.5854 124.487 67.3172 127.245C72.1963 128.392 75.4166 136.712 75.8838 151.825C76.9123 150.565 75.0983 136.883 81.5403 132.144C89.0233 126.64 100.873 128.642 105.045 135.796C107.86 140.623 112.216 149.281 86.5032 160.931C90.9653 160 105.588 153.348 114.553 156.161C123.538 160.984 124.677 169.934 118.977 180.552C113.276 191.171 105.164 192.755 94.2952 188.075Z" fill="#FFF5F5"/>
<circle r="2.36807" transform="matrix(-0.228847 0.973462 0.973462 0.228847 74.6178 161.969)" fill="#C16661"/>
<circle r="1.8977" transform="matrix(-0.228847 0.973462 0.973462 0.228847 70.0508 167.022)" fill="#C16661"/>
<circle r="1.63271" transform="matrix(-0.228847 0.973462 0.973462 0.228847 68.5595 161.831)" fill="#C16661"/>
<circle r="1.63271" transform="matrix(-0.228847 0.973462 0.973462 0.228847 72.0898 157.721)" fill="#C16661"/>
<circle r="1.8977" transform="matrix(-0.228847 0.973462 0.973462 0.228847 75.5547 171.254)" fill="#C16661"/>
<circle r="1.8977" transform="matrix(-0.228847 0.973462 0.973462 0.228847 80.5586 166.553)" fill="#C16661"/>
<circle r="1.8977" transform="matrix(-0.228847 0.973462 0.973462 0.228847 74.9023 165.733)" fill="#C16661"/>
<circle r="2.20127" transform="matrix(-0.228847 0.973462 0.973462 0.228847 79.7084 159.638)" fill="#C16661"/>
<path d="M46.2627 68.6967C41 73.8197 37.2428 75.5915 30.5127 75.6967C24.0648 75.7975 19.1734 74.76 15.1123 69.7379C19.1734 64.7158 23.1842 62.6966 29.5127 62.1967C36.5075 61.6441 42.2016 63.6746 46.2627 68.6967Z" fill="#8FC98E"/>
<path d="M152.887 118.214C158.402 108.324 163.172 104.049 173.069 100.925C182.551 97.9322 190.235 97.3075 198.45 102.936C194.665 112.147 189.63 116.9 180.501 120.43C170.41 124.331 161.102 123.843 152.887 118.214Z" fill="#8FC98E"/>
<path d="M0.592773 4.02972C11.6386 1.53383 18.0055 2.23123 26.9383 7.51442C35.4966 12.5761 41.0916 17.8803 42.3851 27.7544C33.0004 31.0855 26.1006 30.5092 17.3779 26.0685C7.73676 21.1602 1.88623 13.9037 0.592773 4.02972Z" fill="#8FC98E"/>
<path d="M205.609 174.544C196.631 173.15 192.085 170.753 186.977 164.178C182.084 157.878 179.472 152.27 181.418 144.521C189.403 144.802 194.381 147.266 199.581 153.151C205.328 159.656 207.554 166.795 205.609 174.544Z" fill="#8FC98E"/>
<path d="M292.115 111.045C285.318 112.299 281.452 111.72 276.131 108.282C271.034 104.987 267.75 101.617 267.2 95.5635C273.005 93.759 277.199 94.2774 282.411 97.1969C288.173 100.424 291.565 104.991 292.115 111.045Z" fill="#8FC98E"/>
<path d="M135.564 112.91C128.767 114.165 124.901 113.586 119.581 110.147C114.483 106.853 111.199 103.483 110.649 97.4291C116.454 95.6246 120.648 96.143 125.86 99.0625C131.622 102.289 135.014 106.857 135.564 112.91Z" fill="#8FC98E"/>
<path d="M105.555 13.3494C105.463 20.2608 104.141 23.9403 99.7326 28.4889C95.5087 32.847 91.5632 35.4117 85.5186 34.7721C84.879 28.7275 86.2044 24.7146 90.0832 20.1705C94.3703 15.148 99.5109 12.7098 105.555 13.3494Z" fill="#8FC98E"/>
<path d="M62.4647 217.331C62.3718 224.243 61.0504 227.922 56.6418 232.471C52.4179 236.829 48.4724 239.394 42.4278 238.754C41.7882 232.71 43.1136 228.697 46.9924 224.153C51.2795 219.13 56.42 216.692 62.4647 217.331Z" fill="#8FC98E"/>
<path d="M93.1631 218.998C90.4171 225.341 87.7813 228.228 81.9615 230.73C76.3856 233.126 71.7569 233.975 66.4242 231.058C68.1605 225.233 70.9283 222.039 76.2573 219.338C82.1473 216.353 87.8303 216.081 93.1631 218.998Z" fill="#8FC98E"/>
</svg>
