<svg width="347" height="275" viewBox="0 0 347 275" fill="none" xmlns="http://www.w3.org/2000/svg">
<path d="M116.143 37.0068C114.742 37.0068 113.638 38.2016 113.749 39.5986L119.847 116.526C120.045 119.024 122.13 120.95 124.636 120.95H162.72C165.226 120.95 167.311 119.024 167.509 116.526L173.608 39.5986C173.718 38.2016 172.615 37.0068 171.213 37.0068H116.143Z" fill="url(#paint0_linear)"/>
<path fill-rule="evenodd" clip-rule="evenodd" d="M116.335 73.304L119.841 116.534C120.043 119.028 122.126 120.95 124.629 120.95H162.729C165.231 120.95 167.315 119.028 167.517 116.534L171.022 73.304H116.335Z" fill="url(#paint1_linear)"/>
<path d="M139.465 45.5392L140.48 120.95H146.876L147.892 45.5392H139.465Z" fill="url(#paint2_linear)"/>
<path d="M127.551 45.5392L131.525 120.95H137.921L135.978 45.5392H127.551Z" fill="url(#paint3_linear)"/>
<path d="M116.335 45.5391L122.422 120.95H128.819L124.762 45.5391H116.335Z" fill="url(#paint4_linear)"/>
<path d="M159.806 45.5392L155.832 120.95H149.436L151.379 45.5392H159.806Z" fill="url(#paint5_linear)"/>
<path d="M171.021 45.5392L164.934 120.95H158.538L162.594 45.5392H171.021Z" fill="url(#paint6_linear)"/>
<path d="M119.628 113.923L119.84 116.534C120.042 119.028 122.126 120.95 124.628 120.95H162.728C165.231 120.95 167.314 119.028 167.516 116.534L167.728 113.923H119.628Z" fill="white"/>
<path d="M112.009 31.6022C111.891 30.2017 112.997 29.0002 114.402 29.0002H172.954C174.359 29.0002 175.465 30.2017 175.348 31.6022L174.306 44.0712C174.236 44.9009 173.542 45.5391 172.71 45.5391H114.646C113.814 45.5391 113.12 44.9009 113.051 44.0712L112.009 31.6022Z" fill="url(#paint7_linear)"/>
<path d="M291.968 3.82667C268.621 -5.78898 212.954 70.7358 203.874 80.8179C200.946 83.9628 199.628 88.2807 200.303 92.5244C200.891 96.2244 203.529 101.352 206.581 103.525C211.582 107.086 215.079 107.913 219.97 107.712C222.538 107.607 224.912 106.479 227.158 105.229C229.404 103.98 231.741 102.873 233.959 101.574C245.304 94.9268 279.215 73.4569 299.575 42.9219C303.377 37.2198 308.046 27.9434 306.859 21.1935C306.132 17.0525 304.108 13.1172 301.112 9.71968C299.247 7.60506 294.575 4.90037 291.968 3.82667Z" fill="#43674D"/>
<path d="M291.968 3.82667C268.621 -5.78898 212.954 70.7358 203.874 80.8179C200.946 83.9628 199.628 88.2807 200.303 92.5244C200.891 96.2244 203.529 101.352 206.581 103.525C211.582 107.086 215.079 107.913 219.97 107.712C222.538 107.607 224.912 106.479 227.158 105.229C229.404 103.98 231.741 102.873 233.959 101.574C245.304 94.9268 279.215 73.4569 299.575 42.9219C303.377 37.2198 308.046 27.9434 306.859 21.1935C306.132 17.0525 304.108 13.1172 301.112 9.71968C299.247 7.60506 294.575 4.90037 291.968 3.82667Z" fill="#43674D"/>
<circle cx="216.8" cy="86.9099" r="2.79554" transform="rotate(-6.79922 216.8 86.9099)" fill="#253D07"/>
<circle cx="231.894" cy="71.8379" r="2.79554" transform="rotate(-6.79922 231.894 71.8379)" fill="#253D07"/>
<circle cx="248.354" cy="56.402" r="2.79554" transform="rotate(-6.79922 248.354 56.402)" fill="#253D07"/>
<circle cx="264.077" cy="39.8474" r="2.79554" transform="rotate(-6.79922 264.077 39.8474)" fill="#253D07"/>
<circle cx="277.576" cy="26.5744" r="2.79554" transform="rotate(-6.79922 277.576 26.5744)" fill="#253D07"/>
<circle cx="290.665" cy="11.5404" r="2.79554" transform="rotate(-6.79922 290.665 11.5404)" fill="#253D07"/>
<circle cx="214.989" cy="85.2155" r="2.79554" transform="rotate(-6.79922 214.989 85.2155)" fill="#43674D"/>
<circle cx="230.084" cy="70.1434" r="2.79554" transform="rotate(-6.79922 230.084 70.1434)" fill="#43674D"/>
<circle cx="246.543" cy="54.7076" r="2.79554" transform="rotate(-6.79922 246.543 54.7076)" fill="#43674D"/>
<circle cx="262.266" cy="38.1529" r="2.79554" transform="rotate(-6.79922 262.266 38.1529)" fill="#43674D"/>
<circle cx="275.766" cy="24.8798" r="2.79554" transform="rotate(-6.79922 275.766 24.8798)" fill="#43674D"/>
<circle cx="288.854" cy="9.84592" r="2.79554" transform="rotate(-6.79922 288.854 9.84592)" fill="#43674D"/>
<circle cx="236.916" cy="90.3432" r="2.79554" transform="rotate(-6.79922 236.916 90.3432)" fill="#253D07"/>
<circle cx="253.376" cy="74.9074" r="2.79554" transform="rotate(-6.79922 253.376 74.9074)" fill="#253D07"/>
<circle cx="269.098" cy="58.3528" r="2.79554" transform="rotate(-6.79922 269.098 58.3528)" fill="#253D07"/>
<circle cx="282.598" cy="45.0797" r="2.79554" transform="rotate(-6.79922 282.598 45.0797)" fill="#253D07"/>
<circle cx="295.686" cy="30.0457" r="2.79554" transform="rotate(-6.79922 295.686 30.0457)" fill="#253D07"/>
<circle cx="235.105" cy="88.6487" r="2.79554" transform="rotate(-6.79922 235.105 88.6487)" fill="#43674D"/>
<circle cx="251.565" cy="73.2129" r="2.79554" transform="rotate(-6.79922 251.565 73.2129)" fill="#43674D"/>
<circle cx="267.288" cy="56.6583" r="2.79554" transform="rotate(-6.79922 267.288 56.6583)" fill="#43674D"/>
<circle cx="280.787" cy="43.3852" r="2.79554" transform="rotate(-6.79922 280.787 43.3852)" fill="#43674D"/>
<circle cx="293.876" cy="28.3513" r="2.79554" transform="rotate(-6.79922 293.876 28.3513)" fill="#43674D"/>
<circle cx="249.621" cy="90.6384" r="2.79554" transform="rotate(-6.79922 249.621 90.6384)" fill="#43674D"/>
<circle cx="227.699" cy="104.111" r="2.79554" transform="rotate(-6.79922 227.699 104.111)" fill="#43674D"/>
<circle cx="269.58" cy="75.8911" r="2.79554" transform="rotate(-6.79922 269.58 75.8911)" fill="#43674D"/>
<circle cx="300.046" cy="42.9994" r="2.79554" transform="rotate(-6.79922 300.046 42.9994)" fill="#43674D"/>
<circle cx="285.27" cy="60.7481" r="2.79554" transform="rotate(-6.79922 285.27 60.7481)" fill="#43674D"/>
<circle cx="306.479" cy="27.8037" r="2.79554" transform="rotate(-6.79922 306.479 27.8037)" fill="#43674D"/>
<circle cx="215.062" cy="72.3366" r="2.79554" transform="rotate(-6.79922 215.062 72.3366)" fill="#253D07"/>
<circle cx="228.997" cy="54.2858" r="2.79554" transform="rotate(-6.79922 228.997 54.2858)" fill="#253D07"/>
<circle cx="243.362" cy="38.1446" r="2.79554" transform="rotate(-6.79922 243.362 38.1446)" fill="#253D07"/>
<circle cx="258.475" cy="23.2212" r="2.79554" transform="rotate(-6.79922 258.475 23.2212)" fill="#253D07"/>
<circle cx="273.72" cy="11.0973" r="2.79554" transform="rotate(-6.79922 273.72 11.0973)" fill="#253D07"/>
<circle cx="213.251" cy="70.6421" r="2.79554" transform="rotate(-6.79922 213.251 70.6421)" fill="#43674D"/>
<circle cx="227.186" cy="52.5913" r="2.79554" transform="rotate(-6.79922 227.186 52.5913)" fill="#43674D"/>
<circle cx="241.551" cy="36.45" r="2.79554" transform="rotate(-6.79922 241.551 36.45)" fill="#43674D"/>
<circle cx="256.663" cy="21.5266" r="2.79554" transform="rotate(-6.79922 256.663 21.5266)" fill="#43674D"/>
<circle cx="271.909" cy="9.4028" r="2.79554" transform="rotate(-6.79922 271.909 9.4028)" fill="#43674D"/>
<path d="M101.816 68.6317C78.4689 59.0161 22.8018 135.541 13.7213 145.623C10.7932 148.768 9.47615 153.086 10.1506 157.329C10.7386 161.029 13.3769 166.157 16.4286 168.33C21.4293 171.891 24.9265 172.718 29.8176 172.517C32.3855 172.412 34.7593 171.284 37.0054 170.034C39.2515 168.785 41.589 167.678 43.8066 166.379C55.1515 159.732 89.0628 138.262 109.422 107.727C113.224 102.025 117.894 92.7485 116.707 85.9986C115.979 81.8575 113.956 77.9222 110.96 74.5247C109.095 72.4101 104.423 69.7054 101.816 68.6317Z" fill="#43674D"/>
<path d="M101.816 68.6317C78.4689 59.0161 22.8018 135.541 13.7213 145.623C10.7932 148.768 9.47615 153.086 10.1506 157.329C10.7386 161.029 13.3769 166.157 16.4286 168.33C21.4293 171.891 24.9265 172.718 29.8176 172.517C32.3855 172.412 34.7593 171.284 37.0054 170.034C39.2515 168.785 41.589 167.678 43.8066 166.379C55.1515 159.732 89.0628 138.262 109.422 107.727C113.224 102.025 117.894 92.7485 116.707 85.9986C115.979 81.8575 113.956 77.9222 110.96 74.5247C109.095 72.4101 104.423 69.7054 101.816 68.6317Z" fill="#43674D"/>
<circle cx="26.6474" cy="151.715" r="2.79554" transform="rotate(-6.79922 26.6474 151.715)" fill="#253D07"/>
<circle cx="41.7421" cy="136.643" r="2.79554" transform="rotate(-6.79922 41.7421 136.643)" fill="#253D07"/>
<circle cx="58.2016" cy="121.207" r="2.79554" transform="rotate(-6.79922 58.2016 121.207)" fill="#253D07"/>
<circle cx="73.9242" cy="104.652" r="2.79554" transform="rotate(-6.79922 73.9242 104.652)" fill="#253D07"/>
<circle cx="87.4237" cy="91.3794" r="2.79554" transform="rotate(-6.79922 87.4237 91.3794)" fill="#253D07"/>
<circle cx="100.513" cy="76.3454" r="2.79554" transform="rotate(-6.79922 100.513 76.3454)" fill="#253D07"/>
<circle cx="24.8363" cy="150.021" r="2.79554" transform="rotate(-6.79922 24.8363 150.021)" fill="#43674D"/>
<circle cx="39.9316" cy="134.948" r="2.79554" transform="rotate(-6.79922 39.9316 134.948)" fill="#43674D"/>
<circle cx="56.391" cy="119.513" r="2.79554" transform="rotate(-6.79922 56.391 119.513)" fill="#43674D"/>
<circle cx="72.1132" cy="102.958" r="2.79554" transform="rotate(-6.79922 72.1132 102.958)" fill="#43674D"/>
<circle cx="85.6132" cy="89.6848" r="2.79554" transform="rotate(-6.79922 85.6132 89.6848)" fill="#43674D"/>
<circle cx="98.7016" cy="74.651" r="2.79554" transform="rotate(-6.79922 98.7016 74.651)" fill="#43674D"/>
<circle cx="46.7641" cy="155.148" r="2.79554" transform="rotate(-6.79922 46.7641 155.148)" fill="#253D07"/>
<circle cx="63.2235" cy="139.712" r="2.79554" transform="rotate(-6.79922 63.2235 139.712)" fill="#253D07"/>
<circle cx="78.9457" cy="123.158" r="2.79554" transform="rotate(-6.79922 78.9457 123.158)" fill="#253D07"/>
<circle cx="92.4457" cy="109.885" r="2.79554" transform="rotate(-6.79922 92.4457 109.885)" fill="#253D07"/>
<circle cx="105.534" cy="94.8508" r="2.79554" transform="rotate(-6.79922 105.534 94.8508)" fill="#253D07"/>
<circle cx="44.953" cy="153.454" r="2.79554" transform="rotate(-6.79922 44.953 153.454)" fill="#43674D"/>
<circle cx="61.4125" cy="138.018" r="2.79554" transform="rotate(-6.79922 61.4125 138.018)" fill="#43674D"/>
<circle cx="77.1352" cy="121.463" r="2.79554" transform="rotate(-6.79922 77.1352 121.463)" fill="#43674D"/>
<circle cx="90.6347" cy="108.19" r="2.79554" transform="rotate(-6.79922 90.6347 108.19)" fill="#43674D"/>
<circle cx="103.724" cy="93.1563" r="2.79554" transform="rotate(-6.79922 103.724 93.1563)" fill="#43674D"/>
<circle cx="59.4682" cy="155.443" r="2.79554" transform="rotate(-6.79922 59.4682 155.443)" fill="#43674D"/>
<circle cx="37.5463" cy="168.916" r="2.79554" transform="rotate(-6.79922 37.5463 168.916)" fill="#43674D"/>
<circle cx="79.4281" cy="140.696" r="2.79554" transform="rotate(-6.79922 79.4281 140.696)" fill="#43674D"/>
<circle cx="109.894" cy="107.804" r="2.79554" transform="rotate(-6.79922 109.894 107.804)" fill="#43674D"/>
<circle cx="95.1181" cy="125.553" r="2.79554" transform="rotate(-6.79922 95.1181 125.553)" fill="#43674D"/>
<circle cx="116.327" cy="92.6087" r="2.79554" transform="rotate(-6.79922 116.327 92.6087)" fill="#43674D"/>
<circle cx="24.9096" cy="137.142" r="2.79554" transform="rotate(-6.79922 24.9096 137.142)" fill="#253D07"/>
<circle cx="38.8451" cy="119.091" r="2.79554" transform="rotate(-6.79922 38.8451 119.091)" fill="#253D07"/>
<circle cx="53.2094" cy="102.95" r="2.79554" transform="rotate(-6.79922 53.2094 102.95)" fill="#253D07"/>
<circle cx="68.3222" cy="88.0262" r="2.79554" transform="rotate(-6.79922 68.3222 88.0262)" fill="#253D07"/>
<circle cx="83.5673" cy="75.9023" r="2.79554" transform="rotate(-6.79922 83.5673 75.9023)" fill="#253D07"/>
<circle cx="23.099" cy="135.447" r="2.79554" transform="rotate(-6.79922 23.099 135.447)" fill="#43674D"/>
<circle cx="37.0341" cy="117.396" r="2.79554" transform="rotate(-6.79922 37.0341 117.396)" fill="#43674D"/>
<circle cx="51.3988" cy="101.255" r="2.79554" transform="rotate(-6.79922 51.3988 101.255)" fill="#43674D"/>
<circle cx="66.5111" cy="86.3317" r="2.79554" transform="rotate(-6.79922 66.5111 86.3317)" fill="#43674D"/>
<circle cx="81.7567" cy="74.2079" r="2.79554" transform="rotate(-6.79922 81.7567 74.2079)" fill="#43674D"/>
<path d="M207.164 165.979C183.817 156.363 128.149 232.888 119.069 242.97C116.141 246.115 114.824 250.433 115.498 254.677C116.086 258.377 118.725 263.504 121.776 265.677C126.777 269.239 130.274 270.065 135.165 269.864C137.733 269.759 140.107 268.631 142.353 267.381C144.599 266.132 146.937 265.025 149.154 263.726C160.499 257.079 194.41 235.609 214.77 205.074C218.572 199.372 223.241 190.096 222.055 183.346C221.327 179.205 219.303 175.269 216.307 171.872C214.443 169.757 209.77 167.053 207.164 165.979Z" fill="#43674D"/>
<path d="M207.164 165.979C183.817 156.363 128.149 232.888 119.069 242.97C116.141 246.115 114.824 250.433 115.498 254.677C116.086 258.377 118.725 263.504 121.776 265.677C126.777 269.239 130.274 270.065 135.165 269.864C137.733 269.759 140.107 268.631 142.353 267.381C144.599 266.132 146.937 265.025 149.154 263.726C160.499 257.079 194.41 235.609 214.77 205.074C218.572 199.372 223.241 190.096 222.055 183.346C221.327 179.205 219.303 175.269 216.307 171.872C214.443 169.757 209.77 167.053 207.164 165.979Z" fill="#43674D"/>
<circle cx="131.995" cy="249.062" r="2.79554" transform="rotate(-6.79922 131.995 249.062)" fill="#253D07"/>
<circle cx="147.09" cy="233.99" r="2.79554" transform="rotate(-6.79922 147.09 233.99)" fill="#253D07"/>
<circle cx="163.549" cy="218.554" r="2.79554" transform="rotate(-6.79922 163.549 218.554)" fill="#253D07"/>
<circle cx="179.272" cy="202" r="2.79554" transform="rotate(-6.79922 179.272 202)" fill="#253D07"/>
<circle cx="192.771" cy="188.727" r="2.79554" transform="rotate(-6.79922 192.771 188.727)" fill="#253D07"/>
<circle cx="205.86" cy="173.693" r="2.79554" transform="rotate(-6.79922 205.86 173.693)" fill="#253D07"/>
<circle cx="130.184" cy="247.368" r="2.79554" transform="rotate(-6.79922 130.184 247.368)" fill="#43674D"/>
<circle cx="145.279" cy="232.296" r="2.79554" transform="rotate(-6.79922 145.279 232.296)" fill="#43674D"/>
<circle cx="161.739" cy="216.86" r="2.79554" transform="rotate(-6.79922 161.739 216.86)" fill="#43674D"/>
<circle cx="177.461" cy="200.305" r="2.79554" transform="rotate(-6.79922 177.461 200.305)" fill="#43674D"/>
<circle cx="190.961" cy="187.032" r="2.79554" transform="rotate(-6.79922 190.961 187.032)" fill="#43674D"/>
<circle cx="204.049" cy="171.998" r="2.79554" transform="rotate(-6.79922 204.049 171.998)" fill="#43674D"/>
<circle cx="152.112" cy="252.495" r="2.79554" transform="rotate(-6.79922 152.112 252.495)" fill="#253D07"/>
<circle cx="168.571" cy="237.06" r="2.79554" transform="rotate(-6.79922 168.571 237.06)" fill="#253D07"/>
<circle cx="184.293" cy="220.505" r="2.79554" transform="rotate(-6.79922 184.293 220.505)" fill="#253D07"/>
<circle cx="197.793" cy="207.232" r="2.79554" transform="rotate(-6.79922 197.793 207.232)" fill="#253D07"/>
<circle cx="210.882" cy="192.198" r="2.79554" transform="rotate(-6.79922 210.882 192.198)" fill="#253D07"/>
<circle cx="150.301" cy="250.801" r="2.79554" transform="rotate(-6.79922 150.301 250.801)" fill="#43674D"/>
<circle cx="166.76" cy="235.365" r="2.79554" transform="rotate(-6.79922 166.76 235.365)" fill="#43674D"/>
<circle cx="182.483" cy="218.811" r="2.79554" transform="rotate(-6.79922 182.483 218.811)" fill="#43674D"/>
<circle cx="195.982" cy="205.537" r="2.79554" transform="rotate(-6.79922 195.982 205.537)" fill="#43674D"/>
<circle cx="209.071" cy="190.504" r="2.79554" transform="rotate(-6.79922 209.071 190.504)" fill="#43674D"/>
<circle cx="164.816" cy="252.791" r="2.79554" transform="rotate(-6.79922 164.816 252.791)" fill="#43674D"/>
<circle cx="142.894" cy="266.263" r="2.79554" transform="rotate(-6.79922 142.894 266.263)" fill="#43674D"/>
<circle cx="184.776" cy="238.043" r="2.79554" transform="rotate(-6.79922 184.776 238.043)" fill="#43674D"/>
<circle cx="215.242" cy="205.152" r="2.79554" transform="rotate(-6.79922 215.242 205.152)" fill="#43674D"/>
<circle cx="200.466" cy="222.9" r="2.79554" transform="rotate(-6.79922 200.466 222.9)" fill="#43674D"/>
<circle cx="221.675" cy="189.956" r="2.79554" transform="rotate(-6.79922 221.675 189.956)" fill="#43674D"/>
<circle cx="130.257" cy="234.489" r="2.79554" transform="rotate(-6.79922 130.257 234.489)" fill="#253D07"/>
<circle cx="144.193" cy="216.438" r="2.79554" transform="rotate(-6.79922 144.193 216.438)" fill="#253D07"/>
<circle cx="158.557" cy="200.297" r="2.79554" transform="rotate(-6.79922 158.557 200.297)" fill="#253D07"/>
<circle cx="173.67" cy="185.373" r="2.79554" transform="rotate(-6.79922 173.67 185.373)" fill="#253D07"/>
<circle cx="188.915" cy="173.249" r="2.79554" transform="rotate(-6.79922 188.915 173.249)" fill="#253D07"/>
<circle cx="128.447" cy="232.794" r="2.79554" transform="rotate(-6.79922 128.447 232.794)" fill="#43674D"/>
<circle cx="142.382" cy="214.743" r="2.79554" transform="rotate(-6.79922 142.382 214.743)" fill="#43674D"/>
<circle cx="156.746" cy="198.602" r="2.79554" transform="rotate(-6.79922 156.746 198.602)" fill="#43674D"/>
<circle cx="171.859" cy="183.679" r="2.79554" transform="rotate(-6.79922 171.859 183.679)" fill="#43674D"/>
<circle cx="187.104" cy="171.555" r="2.79554" transform="rotate(-6.79922 187.104 171.555)" fill="#43674D"/>
<path d="M149.33 60.7044C149.88 48.9115 107.418 36.4775 101.548 34.0706C99.7019 33.2777 97.5936 33.379 95.832 34.3451C94.2961 35.1875 92.4555 37.1573 91.9801 38.8433C91.2011 41.6061 91.3888 43.2758 92.2486 45.397C92.7 46.5107 93.5709 47.3776 94.475 48.1692C95.3791 48.9609 96.2351 49.8152 97.1567 50.5863C101.872 54.5317 116.67 66.0722 133.321 70.2182C136.43 70.9924 141.25 71.5846 144.034 69.9979C145.742 69.0244 147.155 67.5131 148.178 65.6586C148.815 64.5043 149.268 62.0213 149.33 60.7044Z" fill="#9BD8A1"/>
<path d="M149.33 60.7044C149.88 48.9115 107.418 36.4775 101.548 34.0706C99.7019 33.2777 97.5936 33.379 95.832 34.3451C94.2961 35.1875 92.4555 37.1573 91.9801 38.8433C91.2011 41.6061 91.3888 43.2758 92.2486 45.397C92.7 46.5107 93.5709 47.3776 94.475 48.1692C95.3791 48.9609 96.2351 49.8152 97.1567 50.5863C101.872 54.5317 116.67 66.0722 133.321 70.2182C136.43 70.9924 141.25 71.5846 144.034 69.9979C145.742 69.0244 147.155 67.5131 148.178 65.6586C148.815 64.5043 149.268 62.0213 149.33 60.7044Z" fill="#9BD8A1"/>
<circle cx="100.905" cy="40.7207" r="1.30709" transform="rotate(63.4885 100.905 40.7207)" fill="#77A141"/>
<circle cx="109.92" cy="44.988" r="1.30709" transform="rotate(63.4885 109.92 44.988)" fill="#77A141"/>
<circle cx="119.31" cy="49.7984" r="1.30709" transform="rotate(63.4885 119.31 49.7984)" fill="#77A141"/>
<circle cx="129.076" cy="54.1081" r="1.30709" transform="rotate(63.4885 129.076 54.1081)" fill="#77A141"/>
<circle cx="137.047" cy="57.957" r="1.30709" transform="rotate(63.4885 137.047 57.957)" fill="#77A141"/>
<circle cx="145.729" cy="61.3471" r="1.30709" transform="rotate(63.4885 145.729 61.3471)" fill="#77A141"/>
<circle cx="101.365" cy="39.6564" r="1.30709" transform="rotate(63.4885 101.365 39.6564)" fill="#9BD8A1"/>
<circle cx="110.38" cy="43.9237" r="1.30709" transform="rotate(63.4885 110.38 43.9237)" fill="#9BD8A1"/>
<circle cx="119.77" cy="48.7342" r="1.30709" transform="rotate(63.4885 119.77 48.7342)" fill="#9BD8A1"/>
<circle cx="129.536" cy="53.0439" r="1.30709" transform="rotate(63.4885 129.536 53.0439)" fill="#9BD8A1"/>
<circle cx="137.508" cy="56.8926" r="1.30709" transform="rotate(63.4885 137.508 56.8926)" fill="#9BD8A1"/>
<circle cx="146.189" cy="60.2828" r="1.30709" transform="rotate(63.4885 146.189 60.2828)" fill="#9BD8A1"/>
<circle cx="102.566" cy="50.1167" r="1.30709" transform="rotate(63.4885 102.566 50.1167)" fill="#77A141"/>
<circle cx="111.956" cy="54.9272" r="1.30709" transform="rotate(63.4885 111.956 54.9272)" fill="#77A141"/>
<circle cx="121.722" cy="59.2369" r="1.30709" transform="rotate(63.4885 121.722 59.2369)" fill="#77A141"/>
<circle cx="129.694" cy="63.0857" r="1.30709" transform="rotate(63.4885 129.694 63.0857)" fill="#77A141"/>
<circle cx="138.375" cy="66.4759" r="1.30709" transform="rotate(63.4885 138.375 66.4759)" fill="#77A141"/>
<circle cx="103.027" cy="49.0525" r="1.30709" transform="rotate(63.4885 103.027 49.0525)" fill="#9BD8A1"/>
<circle cx="112.416" cy="53.863" r="1.30709" transform="rotate(63.4885 112.416 53.863)" fill="#9BD8A1"/>
<circle cx="122.183" cy="58.1727" r="1.30709" transform="rotate(63.4885 122.183 58.1727)" fill="#9BD8A1"/>
<circle cx="130.154" cy="62.0215" r="1.30709" transform="rotate(63.4885 130.154 62.0215)" fill="#9BD8A1"/>
<circle cx="138.836" cy="65.4115" r="1.30709" transform="rotate(63.4885 138.836 65.4115)" fill="#9BD8A1"/>
<circle cx="104.44" cy="55.7553" r="1.30709" transform="rotate(63.4885 104.44 55.7553)" fill="#9BD8A1"/>
<circle cx="95.0525" cy="48.2309" r="1.30709" transform="rotate(63.4885 95.0525 48.2309)" fill="#9BD8A1"/>
<circle cx="114.079" cy="62.2152" r="1.30709" transform="rotate(63.4885 114.079 62.2152)" fill="#9BD8A1"/>
<circle cx="133.361" cy="70.4377" r="1.30709" transform="rotate(63.4885 133.361 70.4377)" fill="#9BD8A1"/>
<circle cx="123.218" cy="66.7331" r="1.30709" transform="rotate(63.4885 123.218 66.7331)" fill="#9BD8A1"/>
<circle cx="141.064" cy="70.8729" r="1.30709" transform="rotate(63.4885 141.064 70.8729)" fill="#9BD8A1"/>
<circle cx="107.046" cy="37.6576" r="1.30709" transform="rotate(63.4885 107.046 37.6576)" fill="#77A141"/>
<circle cx="117.188" cy="40.9447" r="1.30709" transform="rotate(63.4885 117.188 40.9447)" fill="#77A141"/>
<circle cx="126.558" cy="44.7217" r="1.30709" transform="rotate(63.4885 126.558 44.7217)" fill="#77A141"/>
<circle cx="135.51" cy="49.0202" r="1.30709" transform="rotate(63.4885 135.51 49.0202)" fill="#77A141"/>
<circle cx="143.251" cy="53.8186" r="1.30709" transform="rotate(63.4885 143.251 53.8186)" fill="#77A141"/>
<circle cx="107.506" cy="36.5933" r="1.30709" transform="rotate(63.4885 107.506 36.5933)" fill="#9BD8A1"/>
<circle cx="117.649" cy="39.8804" r="1.30709" transform="rotate(63.4885 117.649 39.8804)" fill="#9BD8A1"/>
<circle cx="127.019" cy="43.6574" r="1.30709" transform="rotate(63.4885 127.019 43.6574)" fill="#9BD8A1"/>
<circle cx="135.971" cy="47.956" r="1.30709" transform="rotate(63.4885 135.971 47.956)" fill="#9BD8A1"/>
<circle cx="143.712" cy="52.7544" r="1.30709" transform="rotate(63.4885 143.712 52.7544)" fill="#9BD8A1"/>
<path d="M149.33 196.491C149.88 184.698 107.418 172.264 101.548 169.857C99.7019 169.064 97.5936 169.165 95.832 170.131C94.2961 170.974 92.4555 172.944 91.9801 174.63C91.2011 177.392 91.3888 179.062 92.2486 181.183C92.7 182.297 93.5709 183.164 94.475 183.955C95.3791 184.747 96.2351 185.601 97.1567 186.373C101.872 190.318 116.67 201.858 133.321 206.004C136.43 206.779 141.25 207.371 144.034 205.784C145.742 204.811 147.155 203.299 148.178 201.445C148.815 200.29 149.268 197.807 149.33 196.491Z" fill="#9BD8A1"/>
<path d="M149.33 196.491C149.88 184.698 107.418 172.264 101.548 169.857C99.7019 169.064 97.5936 169.165 95.832 170.131C94.2961 170.974 92.4555 172.944 91.9801 174.63C91.2011 177.392 91.3888 179.062 92.2486 181.183C92.7 182.297 93.5709 183.164 94.475 183.955C95.3791 184.747 96.2351 185.601 97.1567 186.373C101.872 190.318 116.67 201.858 133.321 206.004C136.43 206.779 141.25 207.371 144.034 205.784C145.742 204.811 147.155 203.299 148.178 201.445C148.815 200.29 149.268 197.807 149.33 196.491Z" fill="#9BD8A1"/>
<circle cx="100.905" cy="176.507" r="1.30709" transform="rotate(63.4885 100.905 176.507)" fill="#77A141"/>
<circle cx="109.92" cy="180.774" r="1.30709" transform="rotate(63.4885 109.92 180.774)" fill="#77A141"/>
<circle cx="119.31" cy="185.585" r="1.30709" transform="rotate(63.4885 119.31 185.585)" fill="#77A141"/>
<circle cx="129.076" cy="189.894" r="1.30709" transform="rotate(63.4885 129.076 189.894)" fill="#77A141"/>
<circle cx="137.047" cy="193.743" r="1.30709" transform="rotate(63.4885 137.047 193.743)" fill="#77A141"/>
<circle cx="145.729" cy="197.133" r="1.30709" transform="rotate(63.4885 145.729 197.133)" fill="#77A141"/>
<circle cx="101.365" cy="175.443" r="1.30709" transform="rotate(63.4885 101.365 175.443)" fill="#9BD8A1"/>
<circle cx="110.38" cy="179.71" r="1.30709" transform="rotate(63.4885 110.38 179.71)" fill="#9BD8A1"/>
<circle cx="119.77" cy="184.52" r="1.30709" transform="rotate(63.4885 119.77 184.52)" fill="#9BD8A1"/>
<circle cx="129.536" cy="188.83" r="1.30709" transform="rotate(63.4885 129.536 188.83)" fill="#9BD8A1"/>
<circle cx="137.508" cy="192.679" r="1.30709" transform="rotate(63.4885 137.508 192.679)" fill="#9BD8A1"/>
<circle cx="146.189" cy="196.069" r="1.30709" transform="rotate(63.4885 146.189 196.069)" fill="#9BD8A1"/>
<circle cx="102.566" cy="185.903" r="1.30709" transform="rotate(63.4885 102.566 185.903)" fill="#77A141"/>
<circle cx="111.956" cy="190.713" r="1.30709" transform="rotate(63.4885 111.956 190.713)" fill="#77A141"/>
<circle cx="121.722" cy="195.023" r="1.30709" transform="rotate(63.4885 121.722 195.023)" fill="#77A141"/>
<circle cx="129.694" cy="198.872" r="1.30709" transform="rotate(63.4885 129.694 198.872)" fill="#77A141"/>
<circle cx="138.375" cy="202.262" r="1.30709" transform="rotate(63.4885 138.375 202.262)" fill="#77A141"/>
<circle cx="103.027" cy="184.839" r="1.30709" transform="rotate(63.4885 103.027 184.839)" fill="#9BD8A1"/>
<circle cx="112.416" cy="189.649" r="1.30709" transform="rotate(63.4885 112.416 189.649)" fill="#9BD8A1"/>
<circle cx="122.183" cy="193.959" r="1.30709" transform="rotate(63.4885 122.183 193.959)" fill="#9BD8A1"/>
<circle cx="130.154" cy="197.808" r="1.30709" transform="rotate(63.4885 130.154 197.808)" fill="#9BD8A1"/>
<circle cx="138.836" cy="201.198" r="1.30709" transform="rotate(63.4885 138.836 201.198)" fill="#9BD8A1"/>
<circle cx="104.44" cy="191.541" r="1.30709" transform="rotate(63.4885 104.44 191.541)" fill="#9BD8A1"/>
<circle cx="95.0525" cy="184.017" r="1.30709" transform="rotate(63.4885 95.0525 184.017)" fill="#9BD8A1"/>
<circle cx="114.079" cy="198.001" r="1.30709" transform="rotate(63.4885 114.079 198.001)" fill="#9BD8A1"/>
<circle cx="133.361" cy="206.224" r="1.30709" transform="rotate(63.4885 133.361 206.224)" fill="#9BD8A1"/>
<circle cx="123.218" cy="202.519" r="1.30709" transform="rotate(63.4885 123.218 202.519)" fill="#9BD8A1"/>
<circle cx="141.064" cy="206.659" r="1.30709" transform="rotate(63.4885 141.064 206.659)" fill="#9BD8A1"/>
<circle cx="107.046" cy="173.444" r="1.30709" transform="rotate(63.4885 107.046 173.444)" fill="#77A141"/>
<circle cx="117.188" cy="176.731" r="1.30709" transform="rotate(63.4885 117.188 176.731)" fill="#77A141"/>
<circle cx="126.558" cy="180.508" r="1.30709" transform="rotate(63.4885 126.558 180.508)" fill="#77A141"/>
<circle cx="135.51" cy="184.806" r="1.30709" transform="rotate(63.4885 135.51 184.806)" fill="#77A141"/>
<circle cx="143.251" cy="189.605" r="1.30709" transform="rotate(63.4885 143.251 189.605)" fill="#77A141"/>
<circle cx="107.506" cy="172.38" r="1.30709" transform="rotate(63.4885 107.506 172.38)" fill="#9BD8A1"/>
<circle cx="117.649" cy="175.667" r="1.30709" transform="rotate(63.4885 117.649 175.667)" fill="#9BD8A1"/>
<circle cx="127.019" cy="179.444" r="1.30709" transform="rotate(63.4885 127.019 179.444)" fill="#9BD8A1"/>
<circle cx="135.971" cy="183.742" r="1.30709" transform="rotate(63.4885 135.971 183.742)" fill="#9BD8A1"/>
<circle cx="143.712" cy="188.541" r="1.30709" transform="rotate(63.4885 143.712 188.541)" fill="#9BD8A1"/>
<path d="M149.33 128.598C149.88 116.805 107.418 104.371 101.548 101.964C99.7019 101.171 97.5936 101.272 95.832 102.238C94.2961 103.081 92.4555 105.05 91.9801 106.736C91.2011 109.499 91.3888 111.169 92.2486 113.29C92.7 114.404 93.5709 115.271 94.475 116.062C95.3791 116.854 96.2351 117.708 97.1567 118.479C101.872 122.425 116.67 133.965 133.321 138.111C136.43 138.885 141.25 139.478 144.034 137.891C145.742 136.918 147.155 135.406 148.178 133.552C148.815 132.397 149.268 129.914 149.33 128.598Z" fill="#9BD8A1"/>
<path d="M149.33 128.598C149.88 116.805 107.418 104.371 101.548 101.964C99.7019 101.171 97.5936 101.272 95.832 102.238C94.2961 103.081 92.4555 105.05 91.9801 106.736C91.2011 109.499 91.3888 111.169 92.2486 113.29C92.7 114.404 93.5709 115.271 94.475 116.062C95.3791 116.854 96.2351 117.708 97.1567 118.479C101.872 122.425 116.67 133.965 133.321 138.111C136.43 138.885 141.25 139.478 144.034 137.891C145.742 136.918 147.155 135.406 148.178 133.552C148.815 132.397 149.268 129.914 149.33 128.598Z" fill="#9BD8A1"/>
<circle cx="100.905" cy="108.614" r="1.30709" transform="rotate(63.4885 100.905 108.614)" fill="#77A141"/>
<circle cx="109.92" cy="112.881" r="1.30709" transform="rotate(63.4885 109.92 112.881)" fill="#77A141"/>
<circle cx="119.31" cy="117.692" r="1.30709" transform="rotate(63.4885 119.31 117.692)" fill="#77A141"/>
<circle cx="129.076" cy="122.001" r="1.30709" transform="rotate(63.4885 129.076 122.001)" fill="#77A141"/>
<circle cx="137.047" cy="125.85" r="1.30709" transform="rotate(63.4885 137.047 125.85)" fill="#77A141"/>
<circle cx="145.729" cy="129.24" r="1.30709" transform="rotate(63.4885 145.729 129.24)" fill="#77A141"/>
<circle cx="101.365" cy="107.55" r="1.30709" transform="rotate(63.4885 101.365 107.55)" fill="#9BD8A1"/>
<circle cx="110.38" cy="111.817" r="1.30709" transform="rotate(63.4885 110.38 111.817)" fill="#9BD8A1"/>
<circle cx="119.77" cy="116.627" r="1.30709" transform="rotate(63.4885 119.77 116.627)" fill="#9BD8A1"/>
<circle cx="129.536" cy="120.937" r="1.30709" transform="rotate(63.4885 129.536 120.937)" fill="#9BD8A1"/>
<circle cx="137.508" cy="124.786" r="1.30709" transform="rotate(63.4885 137.508 124.786)" fill="#9BD8A1"/>
<circle cx="146.189" cy="128.176" r="1.30709" transform="rotate(63.4885 146.189 128.176)" fill="#9BD8A1"/>
<circle cx="102.566" cy="118.01" r="1.30709" transform="rotate(63.4885 102.566 118.01)" fill="#77A141"/>
<circle cx="111.956" cy="122.82" r="1.30709" transform="rotate(63.4885 111.956 122.82)" fill="#77A141"/>
<circle cx="121.722" cy="127.13" r="1.30709" transform="rotate(63.4885 121.722 127.13)" fill="#77A141"/>
<circle cx="129.694" cy="130.979" r="1.30709" transform="rotate(63.4885 129.694 130.979)" fill="#77A141"/>
<circle cx="138.375" cy="134.369" r="1.30709" transform="rotate(63.4885 138.375 134.369)" fill="#77A141"/>
<circle cx="103.027" cy="116.946" r="1.30709" transform="rotate(63.4885 103.027 116.946)" fill="#9BD8A1"/>
<circle cx="112.416" cy="121.756" r="1.30709" transform="rotate(63.4885 112.416 121.756)" fill="#9BD8A1"/>
<circle cx="122.183" cy="126.066" r="1.30709" transform="rotate(63.4885 122.183 126.066)" fill="#9BD8A1"/>
<circle cx="130.154" cy="129.915" r="1.30709" transform="rotate(63.4885 130.154 129.915)" fill="#9BD8A1"/>
<circle cx="138.836" cy="133.305" r="1.30709" transform="rotate(63.4885 138.836 133.305)" fill="#9BD8A1"/>
<circle cx="104.44" cy="123.648" r="1.30709" transform="rotate(63.4885 104.44 123.648)" fill="#9BD8A1"/>
<circle cx="95.0525" cy="116.124" r="1.30709" transform="rotate(63.4885 95.0525 116.124)" fill="#9BD8A1"/>
<circle cx="114.079" cy="130.108" r="1.30709" transform="rotate(63.4885 114.079 130.108)" fill="#9BD8A1"/>
<circle cx="133.361" cy="138.331" r="1.30709" transform="rotate(63.4885 133.361 138.331)" fill="#9BD8A1"/>
<circle cx="123.218" cy="134.626" r="1.30709" transform="rotate(63.4885 123.218 134.626)" fill="#9BD8A1"/>
<circle cx="141.064" cy="138.766" r="1.30709" transform="rotate(63.4885 141.064 138.766)" fill="#9BD8A1"/>
<circle cx="107.046" cy="105.551" r="1.30709" transform="rotate(63.4885 107.046 105.551)" fill="#77A141"/>
<circle cx="117.188" cy="108.838" r="1.30709" transform="rotate(63.4885 117.188 108.838)" fill="#77A141"/>
<circle cx="126.558" cy="112.615" r="1.30709" transform="rotate(63.4885 126.558 112.615)" fill="#77A141"/>
<circle cx="135.51" cy="116.913" r="1.30709" transform="rotate(63.4885 135.51 116.913)" fill="#77A141"/>
<circle cx="143.251" cy="121.712" r="1.30709" transform="rotate(63.4885 143.251 121.712)" fill="#77A141"/>
<circle cx="107.506" cy="104.486" r="1.30709" transform="rotate(63.4885 107.506 104.486)" fill="#9BD8A1"/>
<circle cx="117.649" cy="107.774" r="1.30709" transform="rotate(63.4885 117.649 107.774)" fill="#9BD8A1"/>
<circle cx="127.019" cy="111.551" r="1.30709" transform="rotate(63.4885 127.019 111.551)" fill="#9BD8A1"/>
<circle cx="135.971" cy="115.849" r="1.30709" transform="rotate(63.4885 135.971 115.849)" fill="#9BD8A1"/>
<circle cx="143.712" cy="120.648" r="1.30709" transform="rotate(63.4885 143.712 120.648)" fill="#9BD8A1"/>
<path d="M305.689 197.491C306.239 185.698 263.777 173.264 257.907 170.857C256.061 170.064 253.952 170.165 252.191 171.131C250.655 171.974 248.814 173.944 248.339 175.63C247.56 178.392 247.748 180.062 248.608 182.183C249.059 183.297 249.93 184.164 250.834 184.955C251.738 185.747 252.594 186.601 253.516 187.373C258.23 191.318 273.029 202.858 289.68 207.004C292.789 207.779 297.609 208.371 300.393 206.784C302.101 205.811 303.514 204.299 304.537 202.445C305.173 201.29 305.627 198.807 305.689 197.491Z" fill="#9BD8A1"/>
<path d="M305.689 197.491C306.239 185.698 263.777 173.264 257.907 170.857C256.061 170.064 253.952 170.165 252.191 171.131C250.655 171.974 248.814 173.944 248.339 175.63C247.56 178.392 247.748 180.062 248.608 182.183C249.059 183.297 249.93 184.164 250.834 184.955C251.738 185.747 252.594 186.601 253.516 187.373C258.23 191.318 273.029 202.858 289.68 207.004C292.789 207.779 297.609 208.371 300.393 206.784C302.101 205.811 303.514 204.299 304.537 202.445C305.173 201.29 305.627 198.807 305.689 197.491Z" fill="#9BD8A1"/>
<circle cx="257.264" cy="177.507" r="1.30709" transform="rotate(63.4885 257.264 177.507)" fill="#77A141"/>
<circle cx="266.279" cy="181.774" r="1.30709" transform="rotate(63.4885 266.279 181.774)" fill="#77A141"/>
<circle cx="275.669" cy="186.585" r="1.30709" transform="rotate(63.4885 275.669 186.585)" fill="#77A141"/>
<circle cx="285.435" cy="190.894" r="1.30709" transform="rotate(63.4885 285.435 190.894)" fill="#77A141"/>
<circle cx="293.406" cy="194.743" r="1.30709" transform="rotate(63.4885 293.406 194.743)" fill="#77A141"/>
<circle cx="302.088" cy="198.133" r="1.30709" transform="rotate(63.4885 302.088 198.133)" fill="#77A141"/>
<circle cx="257.724" cy="176.443" r="1.30709" transform="rotate(63.4885 257.724 176.443)" fill="#9BD8A1"/>
<circle cx="266.739" cy="180.71" r="1.30709" transform="rotate(63.4885 266.739 180.71)" fill="#9BD8A1"/>
<circle cx="276.129" cy="185.52" r="1.30709" transform="rotate(63.4885 276.129 185.52)" fill="#9BD8A1"/>
<circle cx="285.895" cy="189.83" r="1.30709" transform="rotate(63.4885 285.895 189.83)" fill="#9BD8A1"/>
<circle cx="293.866" cy="193.679" r="1.30709" transform="rotate(63.4885 293.866 193.679)" fill="#9BD8A1"/>
<circle cx="302.548" cy="197.069" r="1.30709" transform="rotate(63.4885 302.548 197.069)" fill="#9BD8A1"/>
<circle cx="258.925" cy="186.903" r="1.30709" transform="rotate(63.4885 258.925 186.903)" fill="#77A141"/>
<circle cx="268.315" cy="191.713" r="1.30709" transform="rotate(63.4885 268.315 191.713)" fill="#77A141"/>
<circle cx="278.081" cy="196.023" r="1.30709" transform="rotate(63.4885 278.081 196.023)" fill="#77A141"/>
<circle cx="286.052" cy="199.872" r="1.30709" transform="rotate(63.4885 286.052 199.872)" fill="#77A141"/>
<circle cx="294.734" cy="203.262" r="1.30709" transform="rotate(63.4885 294.734 203.262)" fill="#77A141"/>
<circle cx="259.385" cy="185.839" r="1.30709" transform="rotate(63.4885 259.385 185.839)" fill="#9BD8A1"/>
<circle cx="268.775" cy="190.649" r="1.30709" transform="rotate(63.4885 268.775 190.649)" fill="#9BD8A1"/>
<circle cx="278.542" cy="194.959" r="1.30709" transform="rotate(63.4885 278.542 194.959)" fill="#9BD8A1"/>
<circle cx="286.513" cy="198.808" r="1.30709" transform="rotate(63.4885 286.513 198.808)" fill="#9BD8A1"/>
<circle cx="295.195" cy="202.198" r="1.30709" transform="rotate(63.4885 295.195 202.198)" fill="#9BD8A1"/>
<circle cx="260.799" cy="192.541" r="1.30709" transform="rotate(63.4885 260.799 192.541)" fill="#9BD8A1"/>
<circle cx="251.411" cy="185.017" r="1.30709" transform="rotate(63.4885 251.411 185.017)" fill="#9BD8A1"/>
<circle cx="270.438" cy="199.001" r="1.30709" transform="rotate(63.4885 270.438 199.001)" fill="#9BD8A1"/>
<circle cx="289.72" cy="207.224" r="1.30709" transform="rotate(63.4885 289.72 207.224)" fill="#9BD8A1"/>
<circle cx="279.577" cy="203.519" r="1.30709" transform="rotate(63.4885 279.577 203.519)" fill="#9BD8A1"/>
<circle cx="297.423" cy="207.659" r="1.30709" transform="rotate(63.4885 297.423 207.659)" fill="#9BD8A1"/>
<circle cx="263.405" cy="174.444" r="1.30709" transform="rotate(63.4885 263.405 174.444)" fill="#77A141"/>
<circle cx="273.547" cy="177.731" r="1.30709" transform="rotate(63.4885 273.547 177.731)" fill="#77A141"/>
<circle cx="282.917" cy="181.508" r="1.30709" transform="rotate(63.4885 282.917 181.508)" fill="#77A141"/>
<circle cx="291.869" cy="185.806" r="1.30709" transform="rotate(63.4885 291.869 185.806)" fill="#77A141"/>
<circle cx="299.61" cy="190.605" r="1.30709" transform="rotate(63.4885 299.61 190.605)" fill="#77A141"/>
<circle cx="263.865" cy="173.38" r="1.30709" transform="rotate(63.4885 263.865 173.38)" fill="#9BD8A1"/>
<circle cx="274.008" cy="176.667" r="1.30709" transform="rotate(63.4885 274.008 176.667)" fill="#9BD8A1"/>
<circle cx="283.378" cy="180.444" r="1.30709" transform="rotate(63.4885 283.378 180.444)" fill="#9BD8A1"/>
<circle cx="292.33" cy="184.742" r="1.30709" transform="rotate(63.4885 292.33 184.742)" fill="#9BD8A1"/>
<circle cx="300.071" cy="189.541" r="1.30709" transform="rotate(63.4885 300.071 189.541)" fill="#9BD8A1"/>
<path d="M305.689 129.598C306.239 117.805 263.777 105.371 257.907 102.964C256.061 102.171 253.952 102.272 252.191 103.238C250.655 104.081 248.814 106.05 248.339 107.736C247.56 110.499 247.748 112.169 248.608 114.29C249.059 115.404 249.93 116.271 250.834 117.062C251.738 117.854 252.594 118.708 253.516 119.479C258.23 123.425 273.029 134.965 289.68 139.111C292.789 139.885 297.609 140.478 300.393 138.891C302.101 137.918 303.514 136.406 304.537 134.552C305.173 133.397 305.627 130.914 305.689 129.598Z" fill="#9BD8A1"/>
<path d="M305.689 129.598C306.239 117.805 263.777 105.371 257.907 102.964C256.061 102.171 253.952 102.272 252.191 103.238C250.655 104.081 248.814 106.05 248.339 107.736C247.56 110.499 247.748 112.169 248.608 114.29C249.059 115.404 249.93 116.271 250.834 117.062C251.738 117.854 252.594 118.708 253.516 119.479C258.23 123.425 273.029 134.965 289.68 139.111C292.789 139.885 297.609 140.478 300.393 138.891C302.101 137.918 303.514 136.406 304.537 134.552C305.173 133.397 305.627 130.914 305.689 129.598Z" fill="#9BD8A1"/>
<circle cx="257.264" cy="109.614" r="1.30709" transform="rotate(63.4885 257.264 109.614)" fill="#77A141"/>
<circle cx="266.279" cy="113.881" r="1.30709" transform="rotate(63.4885 266.279 113.881)" fill="#77A141"/>
<circle cx="275.669" cy="118.692" r="1.30709" transform="rotate(63.4885 275.669 118.692)" fill="#77A141"/>
<circle cx="285.435" cy="123.001" r="1.30709" transform="rotate(63.4885 285.435 123.001)" fill="#77A141"/>
<circle cx="293.406" cy="126.85" r="1.30709" transform="rotate(63.4885 293.406 126.85)" fill="#77A141"/>
<circle cx="302.088" cy="130.24" r="1.30709" transform="rotate(63.4885 302.088 130.24)" fill="#77A141"/>
<circle cx="257.724" cy="108.55" r="1.30709" transform="rotate(63.4885 257.724 108.55)" fill="#9BD8A1"/>
<circle cx="266.739" cy="112.817" r="1.30709" transform="rotate(63.4885 266.739 112.817)" fill="#9BD8A1"/>
<circle cx="276.129" cy="117.627" r="1.30709" transform="rotate(63.4885 276.129 117.627)" fill="#9BD8A1"/>
<circle cx="285.895" cy="121.937" r="1.30709" transform="rotate(63.4885 285.895 121.937)" fill="#9BD8A1"/>
<circle cx="293.866" cy="125.786" r="1.30709" transform="rotate(63.4885 293.866 125.786)" fill="#9BD8A1"/>
<circle cx="302.548" cy="129.176" r="1.30709" transform="rotate(63.4885 302.548 129.176)" fill="#9BD8A1"/>
<circle cx="258.925" cy="119.01" r="1.30709" transform="rotate(63.4885 258.925 119.01)" fill="#77A141"/>
<circle cx="268.315" cy="123.82" r="1.30709" transform="rotate(63.4885 268.315 123.82)" fill="#77A141"/>
<circle cx="278.081" cy="128.13" r="1.30709" transform="rotate(63.4885 278.081 128.13)" fill="#77A141"/>
<circle cx="286.052" cy="131.979" r="1.30709" transform="rotate(63.4885 286.052 131.979)" fill="#77A141"/>
<circle cx="294.734" cy="135.369" r="1.30709" transform="rotate(63.4885 294.734 135.369)" fill="#77A141"/>
<circle cx="259.385" cy="117.946" r="1.30709" transform="rotate(63.4885 259.385 117.946)" fill="#9BD8A1"/>
<circle cx="268.775" cy="122.756" r="1.30709" transform="rotate(63.4885 268.775 122.756)" fill="#9BD8A1"/>
<circle cx="278.542" cy="127.066" r="1.30709" transform="rotate(63.4885 278.542 127.066)" fill="#9BD8A1"/>
<circle cx="286.513" cy="130.915" r="1.30709" transform="rotate(63.4885 286.513 130.915)" fill="#9BD8A1"/>
<circle cx="295.195" cy="134.305" r="1.30709" transform="rotate(63.4885 295.195 134.305)" fill="#9BD8A1"/>
<circle cx="260.799" cy="124.648" r="1.30709" transform="rotate(63.4885 260.799 124.648)" fill="#9BD8A1"/>
<circle cx="251.411" cy="117.124" r="1.30709" transform="rotate(63.4885 251.411 117.124)" fill="#9BD8A1"/>
<circle cx="270.438" cy="131.108" r="1.30709" transform="rotate(63.4885 270.438 131.108)" fill="#9BD8A1"/>
<circle cx="289.72" cy="139.331" r="1.30709" transform="rotate(63.4885 289.72 139.331)" fill="#9BD8A1"/>
<circle cx="279.577" cy="135.626" r="1.30709" transform="rotate(63.4885 279.577 135.626)" fill="#9BD8A1"/>
<circle cx="297.423" cy="139.766" r="1.30709" transform="rotate(63.4885 297.423 139.766)" fill="#9BD8A1"/>
<circle cx="263.405" cy="106.551" r="1.30709" transform="rotate(63.4885 263.405 106.551)" fill="#77A141"/>
<circle cx="273.547" cy="109.838" r="1.30709" transform="rotate(63.4885 273.547 109.838)" fill="#77A141"/>
<circle cx="282.917" cy="113.615" r="1.30709" transform="rotate(63.4885 282.917 113.615)" fill="#77A141"/>
<circle cx="291.869" cy="117.913" r="1.30709" transform="rotate(63.4885 291.869 117.913)" fill="#77A141"/>
<circle cx="299.61" cy="122.712" r="1.30709" transform="rotate(63.4885 299.61 122.712)" fill="#77A141"/>
<circle cx="263.865" cy="105.486" r="1.30709" transform="rotate(63.4885 263.865 105.486)" fill="#9BD8A1"/>
<circle cx="274.008" cy="108.774" r="1.30709" transform="rotate(63.4885 274.008 108.774)" fill="#9BD8A1"/>
<circle cx="283.378" cy="112.551" r="1.30709" transform="rotate(63.4885 283.378 112.551)" fill="#9BD8A1"/>
<circle cx="292.33" cy="116.849" r="1.30709" transform="rotate(63.4885 292.33 116.849)" fill="#9BD8A1"/>
<circle cx="300.071" cy="121.648" r="1.30709" transform="rotate(63.4885 300.071 121.648)" fill="#9BD8A1"/>
<path d="M305.689 61.7044C306.239 49.9115 263.777 37.4775 257.907 35.0706C256.061 34.2777 253.952 34.379 252.191 35.3451C250.655 36.1875 248.814 38.1573 248.339 39.8433C247.56 42.6061 247.748 44.2758 248.608 46.397C249.059 47.5107 249.93 48.3776 250.834 49.1692C251.738 49.9609 252.594 50.8152 253.516 51.5863C258.23 55.5317 273.029 67.0722 289.68 71.2182C292.789 71.9924 297.609 72.5846 300.393 70.9979C302.101 70.0244 303.514 68.5131 304.537 66.6586C305.173 65.5043 305.627 63.0213 305.689 61.7044Z" fill="#9BD8A1"/>
<path d="M305.689 61.7044C306.239 49.9115 263.777 37.4775 257.907 35.0706C256.061 34.2777 253.952 34.379 252.191 35.3451C250.655 36.1875 248.814 38.1573 248.339 39.8433C247.56 42.6061 247.748 44.2758 248.608 46.397C249.059 47.5107 249.93 48.3776 250.834 49.1692C251.738 49.9609 252.594 50.8152 253.516 51.5863C258.23 55.5317 273.029 67.0722 289.68 71.2182C292.789 71.9924 297.609 72.5846 300.393 70.9979C302.101 70.0244 303.514 68.5131 304.537 66.6586C305.173 65.5043 305.627 63.0213 305.689 61.7044Z" fill="#9BD8A1"/>
<circle cx="257.264" cy="41.7207" r="1.30709" transform="rotate(63.4885 257.264 41.7207)" fill="#77A141"/>
<circle cx="266.279" cy="45.988" r="1.30709" transform="rotate(63.4885 266.279 45.988)" fill="#77A141"/>
<circle cx="275.669" cy="50.7984" r="1.30709" transform="rotate(63.4885 275.669 50.7984)" fill="#77A141"/>
<circle cx="285.435" cy="55.1081" r="1.30709" transform="rotate(63.4885 285.435 55.1081)" fill="#77A141"/>
<circle cx="293.406" cy="58.957" r="1.30709" transform="rotate(63.4885 293.406 58.957)" fill="#77A141"/>
<circle cx="302.088" cy="62.3471" r="1.30709" transform="rotate(63.4885 302.088 62.3471)" fill="#77A141"/>
<circle cx="257.724" cy="40.6564" r="1.30709" transform="rotate(63.4885 257.724 40.6564)" fill="#9BD8A1"/>
<circle cx="266.739" cy="44.9237" r="1.30709" transform="rotate(63.4885 266.739 44.9237)" fill="#9BD8A1"/>
<circle cx="276.129" cy="49.7342" r="1.30709" transform="rotate(63.4885 276.129 49.7342)" fill="#9BD8A1"/>
<circle cx="285.895" cy="54.0439" r="1.30709" transform="rotate(63.4885 285.895 54.0439)" fill="#9BD8A1"/>
<circle cx="293.866" cy="57.8926" r="1.30709" transform="rotate(63.4885 293.866 57.8926)" fill="#9BD8A1"/>
<circle cx="302.548" cy="61.2828" r="1.30709" transform="rotate(63.4885 302.548 61.2828)" fill="#9BD8A1"/>
<circle cx="258.925" cy="51.1167" r="1.30709" transform="rotate(63.4885 258.925 51.1167)" fill="#77A141"/>
<circle cx="268.315" cy="55.9272" r="1.30709" transform="rotate(63.4885 268.315 55.9272)" fill="#77A141"/>
<circle cx="278.081" cy="60.2369" r="1.30709" transform="rotate(63.4885 278.081 60.2369)" fill="#77A141"/>
<circle cx="286.052" cy="64.0857" r="1.30709" transform="rotate(63.4885 286.052 64.0857)" fill="#77A141"/>
<circle cx="294.734" cy="67.4759" r="1.30709" transform="rotate(63.4885 294.734 67.4759)" fill="#77A141"/>
<circle cx="259.385" cy="50.0525" r="1.30709" transform="rotate(63.4885 259.385 50.0525)" fill="#9BD8A1"/>
<circle cx="268.775" cy="54.863" r="1.30709" transform="rotate(63.4885 268.775 54.863)" fill="#9BD8A1"/>
<circle cx="278.542" cy="59.1727" r="1.30709" transform="rotate(63.4885 278.542 59.1727)" fill="#9BD8A1"/>
<circle cx="286.513" cy="63.0215" r="1.30709" transform="rotate(63.4885 286.513 63.0215)" fill="#9BD8A1"/>
<circle cx="295.195" cy="66.4115" r="1.30709" transform="rotate(63.4885 295.195 66.4115)" fill="#9BD8A1"/>
<circle cx="260.799" cy="56.7553" r="1.30709" transform="rotate(63.4885 260.799 56.7553)" fill="#9BD8A1"/>
<circle cx="251.411" cy="49.2309" r="1.30709" transform="rotate(63.4885 251.411 49.2309)" fill="#9BD8A1"/>
<circle cx="270.438" cy="63.2152" r="1.30709" transform="rotate(63.4885 270.438 63.2152)" fill="#9BD8A1"/>
<circle cx="289.72" cy="71.4377" r="1.30709" transform="rotate(63.4885 289.72 71.4377)" fill="#9BD8A1"/>
<circle cx="279.577" cy="67.7331" r="1.30709" transform="rotate(63.4885 279.577 67.7331)" fill="#9BD8A1"/>
<circle cx="297.423" cy="71.8729" r="1.30709" transform="rotate(63.4885 297.423 71.8729)" fill="#9BD8A1"/>
<circle cx="263.405" cy="38.6576" r="1.30709" transform="rotate(63.4885 263.405 38.6576)" fill="#77A141"/>
<circle cx="273.547" cy="41.9447" r="1.30709" transform="rotate(63.4885 273.547 41.9447)" fill="#77A141"/>
<circle cx="282.917" cy="45.7217" r="1.30709" transform="rotate(63.4885 282.917 45.7217)" fill="#77A141"/>
<circle cx="291.869" cy="50.0202" r="1.30709" transform="rotate(63.4885 291.869 50.0202)" fill="#77A141"/>
<circle cx="299.61" cy="54.8186" r="1.30709" transform="rotate(63.4885 299.61 54.8186)" fill="#77A141"/>
<circle cx="263.865" cy="37.5933" r="1.30709" transform="rotate(63.4885 263.865 37.5933)" fill="#9BD8A1"/>
<circle cx="274.008" cy="40.8804" r="1.30709" transform="rotate(63.4885 274.008 40.8804)" fill="#9BD8A1"/>
<circle cx="283.378" cy="44.6574" r="1.30709" transform="rotate(63.4885 283.378 44.6574)" fill="#9BD8A1"/>
<circle cx="292.33" cy="48.956" r="1.30709" transform="rotate(63.4885 292.33 48.956)" fill="#9BD8A1"/>
<circle cx="300.071" cy="53.7544" r="1.30709" transform="rotate(63.4885 300.071 53.7544)" fill="#9BD8A1"/>
<path d="M28.471 185.901C27.0696 185.901 25.9658 187.096 26.0766 188.493L32.1751 265.42C32.3731 267.918 34.458 269.844 36.9639 269.844H75.0479C77.5538 269.844 79.6387 267.918 79.8368 265.42L85.9353 188.493C86.046 187.096 84.9422 185.901 83.5408 185.901H28.471Z" fill="url(#paint8_linear)"/>
<path fill-rule="evenodd" clip-rule="evenodd" d="M28.6631 222.198L32.1682 265.429C32.3705 267.923 34.4538 269.844 36.9564 269.844H75.0563C77.5589 269.844 79.6422 267.923 79.8445 265.429L83.3496 222.198H28.6631Z" fill="url(#paint9_linear)"/>
<path d="M51.7925 194.434L52.8079 269.844H59.2041L60.2195 194.434H51.7925Z" fill="url(#paint10_linear)"/>
<path d="M39.8784 194.434L43.8526 269.844H50.2487L48.3055 194.434H39.8784Z" fill="url(#paint11_linear)"/>
<path d="M28.6626 194.434L34.7501 269.844H41.1463L37.0896 194.434H28.6626Z" fill="url(#paint12_linear)"/>
<path d="M72.1338 194.434L68.1596 269.844H61.7635L63.7067 194.434H72.1338Z" fill="url(#paint13_linear)"/>
<path d="M83.3491 194.434L77.2616 269.844H70.8654L74.9221 194.434H83.3491Z" fill="url(#paint14_linear)"/>
<path d="M31.9561 262.817L32.1678 265.428C32.37 267.923 34.4534 269.844 36.9559 269.844H75.0558C77.5584 269.844 79.6418 267.923 79.844 265.428L80.0557 262.817H31.9561Z" fill="white"/>
<path d="M24.3361 180.497C24.2191 179.096 25.3243 177.895 26.7297 177.895H85.2817C86.6871 177.895 87.7923 179.096 87.6753 180.497L86.6332 192.966C86.5638 193.795 85.8701 194.434 85.0374 194.434H26.974C26.1413 194.434 25.4476 193.795 25.3782 192.966L24.3361 180.497Z" fill="url(#paint15_linear)"/>
<path d="M199.591 185.901C198.189 185.901 197.085 187.096 197.196 188.493L203.295 265.42C203.493 267.918 205.578 269.844 208.084 269.844H246.168C248.673 269.844 250.758 267.918 250.956 265.42L257.055 188.493C257.166 187.096 256.062 185.901 254.66 185.901H199.591Z" fill="url(#paint16_linear)"/>
<path fill-rule="evenodd" clip-rule="evenodd" d="M199.782 222.198L203.287 265.429C203.49 267.923 205.573 269.844 208.076 269.844H246.175C248.678 269.844 250.761 267.923 250.964 265.429L254.469 222.198H199.782Z" fill="url(#paint17_linear)"/>
<path d="M222.912 194.434L223.928 269.844H230.324L231.339 194.434H222.912Z" fill="url(#paint18_linear)"/>
<path d="M210.999 194.434L214.973 269.844H221.369L219.426 194.434H210.999Z" fill="url(#paint19_linear)"/>
<path d="M199.783 194.434L205.87 269.844H212.266L208.21 194.434H199.783Z" fill="url(#paint20_linear)"/>
<path d="M243.253 194.434L239.279 269.844H232.883L234.826 194.434H243.253Z" fill="url(#paint21_linear)"/>
<path d="M254.469 194.434L248.382 269.844H241.986L246.042 194.434H254.469Z" fill="url(#paint22_linear)"/>
<path d="M203.076 262.817L203.287 265.428C203.49 267.923 205.573 269.844 208.076 269.844H246.175C248.678 269.844 250.761 267.923 250.964 265.428L251.175 262.817H203.076Z" fill="white"/>
<path d="M195.456 180.497C195.339 179.096 196.444 177.895 197.849 177.895H256.401C257.807 177.895 258.912 179.096 258.795 180.497L257.753 192.966C257.683 193.795 256.99 194.434 256.157 194.434H198.094C197.261 194.434 196.567 193.795 196.498 192.966L195.456 180.497Z" fill="url(#paint23_linear)"/>
<path d="M287.263 37.0068C285.862 37.0068 284.758 38.2016 284.869 39.5986L290.967 116.526C291.165 119.024 293.25 120.95 295.756 120.95H333.84C336.346 120.95 338.431 119.024 338.629 116.526L344.727 39.5986C344.838 38.2016 343.734 37.0068 342.333 37.0068H287.263Z" fill="url(#paint24_linear)"/>
<path fill-rule="evenodd" clip-rule="evenodd" d="M287.455 73.304L290.96 116.534C291.162 119.028 293.245 120.95 295.748 120.95H333.848C336.35 120.95 338.434 119.028 338.636 116.534L342.141 73.304H287.455Z" fill="url(#paint25_linear)"/>
<path d="M310.584 45.5392L311.6 120.95H317.996L319.012 45.5392H310.584Z" fill="url(#paint26_linear)"/>
<path d="M298.671 45.5392L302.645 120.95H309.041L307.098 45.5392H298.671Z" fill="url(#paint27_linear)"/>
<path d="M287.455 45.5391L293.543 120.95H299.939L295.882 45.5391H287.455Z" fill="url(#paint28_linear)"/>
<path d="M330.926 45.5392L326.952 120.95H320.555L322.499 45.5392H330.926Z" fill="url(#paint29_linear)"/>
<path d="M342.142 45.5392L336.054 120.95H329.658L333.715 45.5392H342.142Z" fill="url(#paint30_linear)"/>
<path d="M290.748 113.923L290.96 116.534C291.162 119.028 293.245 120.95 295.748 120.95H333.848C336.35 120.95 338.434 119.028 338.636 116.534L338.848 113.923H290.748Z" fill="white"/>
<path d="M283.128 31.6022C283.011 30.2017 284.116 29.0002 285.522 29.0002H344.074C345.479 29.0002 346.584 30.2017 346.467 31.6022L345.425 44.0712C345.356 44.9009 344.662 45.5391 343.829 45.5391H285.766C284.933 45.5391 284.24 44.9009 284.17 44.0712L283.128 31.6022Z" fill="url(#paint31_linear)"/>
<defs>
<linearGradient id="paint0_linear" x1="143.678" y1="74.7124" x2="143.678" y2="32.2781" gradientUnits="userSpaceOnUse">
<stop stop-color="white"/>
<stop offset="1" stop-color="white" stop-opacity="0"/>
</linearGradient>
<linearGradient id="paint1_linear" x1="143.679" y1="73.304" x2="143.679" y2="123.352" gradientUnits="userSpaceOnUse">
<stop stop-color="#67AD87"/>
<stop offset="1" stop-color="white" stop-opacity="0"/>
</linearGradient>
<linearGradient id="paint2_linear" x1="143.678" y1="45.5392" x2="143.678" y2="120.95" gradientUnits="userSpaceOnUse">
<stop stop-color="#67AD87" stop-opacity="0.5"/>
<stop offset="1" stop-color="white"/>
</linearGradient>
<linearGradient id="paint3_linear" x1="132.736" y1="45.5392" x2="132.736" y2="120.95" gradientUnits="userSpaceOnUse">
<stop stop-color="#67AD87" stop-opacity="0.5"/>
<stop offset="1" stop-color="white"/>
</linearGradient>
<linearGradient id="paint4_linear" x1="122.577" y1="45.5391" x2="122.577" y2="120.95" gradientUnits="userSpaceOnUse">
<stop stop-color="#67AD87" stop-opacity="0.5"/>
<stop offset="1" stop-color="white"/>
</linearGradient>
<linearGradient id="paint5_linear" x1="154.621" y1="45.5392" x2="154.621" y2="120.95" gradientUnits="userSpaceOnUse">
<stop stop-color="#67AD87" stop-opacity="0.5"/>
<stop offset="1" stop-color="white"/>
</linearGradient>
<linearGradient id="paint6_linear" x1="164.78" y1="45.5392" x2="164.78" y2="120.95" gradientUnits="userSpaceOnUse">
<stop stop-color="#67AD87" stop-opacity="0.5"/>
<stop offset="1" stop-color="white"/>
</linearGradient>
<linearGradient id="paint7_linear" x1="143.678" y1="29.0002" x2="143.678" y2="45.5391" gradientUnits="userSpaceOnUse">
<stop stop-color="white"/>
<stop offset="1" stop-color="white" stop-opacity="0.7"/>
</linearGradient>
<linearGradient id="paint8_linear" x1="56.0059" y1="223.607" x2="56.0059" y2="181.173" gradientUnits="userSpaceOnUse">
<stop stop-color="white"/>
<stop offset="1" stop-color="white" stop-opacity="0"/>
</linearGradient>
<linearGradient id="paint9_linear" x1="56.0064" y1="222.198" x2="56.0064" y2="272.246" gradientUnits="userSpaceOnUse">
<stop stop-color="#67AD87"/>
<stop offset="1" stop-color="white" stop-opacity="0"/>
</linearGradient>
<linearGradient id="paint10_linear" x1="56.006" y1="194.434" x2="56.006" y2="269.844" gradientUnits="userSpaceOnUse">
<stop stop-color="#67AD87" stop-opacity="0.5"/>
<stop offset="1" stop-color="white"/>
</linearGradient>
<linearGradient id="paint11_linear" x1="45.0636" y1="194.434" x2="45.0636" y2="269.844" gradientUnits="userSpaceOnUse">
<stop stop-color="#67AD87" stop-opacity="0.5"/>
<stop offset="1" stop-color="white"/>
</linearGradient>
<linearGradient id="paint12_linear" x1="34.9044" y1="194.434" x2="34.9044" y2="269.844" gradientUnits="userSpaceOnUse">
<stop stop-color="#67AD87" stop-opacity="0.5"/>
<stop offset="1" stop-color="white"/>
</linearGradient>
<linearGradient id="paint13_linear" x1="66.9486" y1="194.434" x2="66.9486" y2="269.844" gradientUnits="userSpaceOnUse">
<stop stop-color="#67AD87" stop-opacity="0.5"/>
<stop offset="1" stop-color="white"/>
</linearGradient>
<linearGradient id="paint14_linear" x1="77.1073" y1="194.434" x2="77.1073" y2="269.844" gradientUnits="userSpaceOnUse">
<stop stop-color="#67AD87" stop-opacity="0.5"/>
<stop offset="1" stop-color="white"/>
</linearGradient>
<linearGradient id="paint15_linear" x1="56.0057" y1="177.895" x2="56.0057" y2="194.434" gradientUnits="userSpaceOnUse">
<stop stop-color="white"/>
<stop offset="1" stop-color="white" stop-opacity="0.7"/>
</linearGradient>
<linearGradient id="paint16_linear" x1="227.126" y1="223.607" x2="227.126" y2="181.173" gradientUnits="userSpaceOnUse">
<stop stop-color="white"/>
<stop offset="1" stop-color="white" stop-opacity="0"/>
</linearGradient>
<linearGradient id="paint17_linear" x1="227.125" y1="222.198" x2="227.125" y2="272.246" gradientUnits="userSpaceOnUse">
<stop stop-color="#67AD87"/>
<stop offset="1" stop-color="white" stop-opacity="0"/>
</linearGradient>
<linearGradient id="paint18_linear" x1="227.126" y1="194.434" x2="227.126" y2="269.844" gradientUnits="userSpaceOnUse">
<stop stop-color="#67AD87" stop-opacity="0.5"/>
<stop offset="1" stop-color="white"/>
</linearGradient>
<linearGradient id="paint19_linear" x1="216.184" y1="194.434" x2="216.184" y2="269.844" gradientUnits="userSpaceOnUse">
<stop stop-color="#67AD87" stop-opacity="0.5"/>
<stop offset="1" stop-color="white"/>
</linearGradient>
<linearGradient id="paint20_linear" x1="206.025" y1="194.434" x2="206.025" y2="269.844" gradientUnits="userSpaceOnUse">
<stop stop-color="#67AD87" stop-opacity="0.5"/>
<stop offset="1" stop-color="white"/>
</linearGradient>
<linearGradient id="paint21_linear" x1="238.068" y1="194.434" x2="238.068" y2="269.844" gradientUnits="userSpaceOnUse">
<stop stop-color="#67AD87" stop-opacity="0.5"/>
<stop offset="1" stop-color="white"/>
</linearGradient>
<linearGradient id="paint22_linear" x1="248.227" y1="194.434" x2="248.227" y2="269.844" gradientUnits="userSpaceOnUse">
<stop stop-color="#67AD87" stop-opacity="0.5"/>
<stop offset="1" stop-color="white"/>
</linearGradient>
<linearGradient id="paint23_linear" x1="227.125" y1="177.895" x2="227.125" y2="194.434" gradientUnits="userSpaceOnUse">
<stop stop-color="white"/>
<stop offset="1" stop-color="white" stop-opacity="0.7"/>
</linearGradient>
<linearGradient id="paint24_linear" x1="314.798" y1="74.7124" x2="314.798" y2="32.2781" gradientUnits="userSpaceOnUse">
<stop stop-color="white"/>
<stop offset="1" stop-color="white" stop-opacity="0"/>
</linearGradient>
<linearGradient id="paint25_linear" x1="314.798" y1="73.304" x2="314.798" y2="123.352" gradientUnits="userSpaceOnUse">
<stop stop-color="#67AD87"/>
<stop offset="1" stop-color="white" stop-opacity="0"/>
</linearGradient>
<linearGradient id="paint26_linear" x1="314.798" y1="45.5392" x2="314.798" y2="120.95" gradientUnits="userSpaceOnUse">
<stop stop-color="#67AD87" stop-opacity="0.5"/>
<stop offset="1" stop-color="white"/>
</linearGradient>
<linearGradient id="paint27_linear" x1="303.856" y1="45.5392" x2="303.856" y2="120.95" gradientUnits="userSpaceOnUse">
<stop stop-color="#67AD87" stop-opacity="0.5"/>
<stop offset="1" stop-color="white"/>
</linearGradient>
<linearGradient id="paint28_linear" x1="293.697" y1="45.5391" x2="293.697" y2="120.95" gradientUnits="userSpaceOnUse">
<stop stop-color="#67AD87" stop-opacity="0.5"/>
<stop offset="1" stop-color="white"/>
</linearGradient>
<linearGradient id="paint29_linear" x1="325.741" y1="45.5392" x2="325.741" y2="120.95" gradientUnits="userSpaceOnUse">
<stop stop-color="#67AD87" stop-opacity="0.5"/>
<stop offset="1" stop-color="white"/>
</linearGradient>
<linearGradient id="paint30_linear" x1="335.9" y1="45.5392" x2="335.9" y2="120.95" gradientUnits="userSpaceOnUse">
<stop stop-color="#67AD87" stop-opacity="0.5"/>
<stop offset="1" stop-color="white"/>
</linearGradient>
<linearGradient id="paint31_linear" x1="314.798" y1="29.0002" x2="314.798" y2="45.5391" gradientUnits="userSpaceOnUse">
<stop stop-color="white"/>
<stop offset="1" stop-color="white" stop-opacity="0.7"/>
</linearGradient>
</defs>
</svg>
