<svg width="211" height="267" viewBox="0 0 211 267" fill="none" xmlns="http://www.w3.org/2000/svg">
<path d="M21.1943 67.6294L40.371 69.0277L61.3455 57.4418L76.7268 40.8619L86.9145 24.8813C86.9145 24.8813 87.2736 29.684 86.5149 33.2711C85.4676 38.2232 82.751 40.2163 80.3225 44.6573C77.7595 49.3441 77.0142 52.4294 73.7305 56.6427C68.9899 62.7256 65.1861 65.4597 58.3492 69.0277C52.9473 71.8468 49.6276 73.3896 43.5671 74.0216C38.5863 74.541 35.6815 74.062 30.7827 73.0228C24.1907 71.6245 21.1943 67.6294 21.1943 67.6294Z" fill="#AFAA27"/>
<path d="M21.8611 66.9354L21.861 66.9353L21.8609 66.9352L21.8608 66.9352L21.7085 66.7776L21.5064 66.6993L21.5058 66.6991L21.5055 66.699L21.5047 66.6987L21.5043 66.6985L21.5038 66.6983L21.4953 66.6949C21.4843 66.6904 21.4655 66.6825 21.4397 66.6713C21.3881 66.6489 21.309 66.6132 21.2095 66.5642C21.0095 66.4656 20.7325 66.3157 20.4324 66.1145C19.8151 65.7008 19.1849 65.1269 18.8526 64.4121C17.8826 62.3249 17.8909 60.6488 18.1417 58.1407C18.4924 54.6327 18.9474 52.6813 20.2698 49.4284C21.4759 46.4614 23.2041 44.1343 25.2009 41.4454C25.2472 41.3831 25.2937 41.3206 25.3402 41.2578C28.4846 37.0226 31.9319 34.6115 36.1787 31.6411C36.8015 31.2055 37.4415 30.7579 38.1002 30.2908C39.3737 29.3876 42.3278 27.888 46.2041 26.0763C50.0454 24.2808 54.6983 22.221 59.2977 20.2032C63.563 18.332 67.2217 16.7979 70.2786 16.0287C73.3586 15.2537 75.5729 15.3233 77.131 16.3316C77.7438 16.7282 78.6708 17.5993 79.4979 18.4399C79.8986 18.8472 80.2562 19.2269 80.5138 19.505C80.6424 19.6438 80.7457 19.7569 80.8164 19.8349C80.8518 19.8738 80.879 19.904 80.8972 19.9242L80.9176 19.9469L80.9225 19.9524L80.9236 19.9536L80.9237 19.9538L80.9238 19.9538L81.1267 20.1811L81.421 20.2561L81.4213 20.2562L81.4216 20.2563L81.4219 20.2564L81.424 20.2569L81.4415 20.2616C81.4581 20.266 81.4845 20.2732 81.5194 20.2832C81.5894 20.303 81.6936 20.3338 81.8235 20.3753C82.0843 20.4588 82.443 20.5843 82.8335 20.7513C83.6536 21.1023 84.4569 21.5718 84.8818 22.1069C86.3033 23.8969 86.1034 25.7341 85.3066 28.3901C84.7538 30.2327 83.4917 32.4176 81.8351 34.917C80.6163 36.7559 79.3983 37.9789 78.0951 39.2207C77.9575 39.3519 77.8185 39.4835 77.6784 39.6163C76.4915 40.741 75.2187 41.9472 73.8915 43.6424C72.7187 45.1403 71.9314 46.4971 71.2034 47.7518C71.1049 47.9216 71.0074 48.0895 70.9103 48.2556C70.0945 49.6506 69.2814 50.9534 67.9571 52.3637C66.1258 54.3141 64.3593 55.8075 62.4324 57.4366C61.6641 58.0861 60.8704 58.7572 60.0368 59.4874C57.2182 61.9565 55.5879 63.2686 52.53 65.4138C39.5528 74.5175 27.7042 70.4651 24.9228 69.3048C24.3389 69.0612 23.592 68.5044 22.9368 67.9397C22.6223 67.6686 22.3508 67.415 22.1581 67.2293C22.062 67.1367 21.9862 67.0616 21.935 67.0103C21.9095 66.9847 21.8902 66.9652 21.8777 66.9524L21.8641 66.9385L21.8612 66.9356L21.8611 66.9354Z" fill="#FB8630" stroke="#F9B442" stroke-width="1.99757"/>
<path d="M38.7734 42.0604C52.1571 30.874 66.5396 30.075 66.5396 30.075C66.5396 30.075 64.3423 42.0604 52.9561 52.6475C40.6409 64.0986 25.3896 63.8339 25.3896 63.8339C25.3896 63.8339 30.9772 48.5766 38.7734 42.0604Z" fill="#F9B442"/>
<path d="M42.3697 43.2705C52.7648 34.5333 62.5451 33.6821 62.5451 33.6821C62.5451 33.6821 60.6019 41.1938 51.7582 49.4629C42.193 58.4068 30.584 60.0497 30.584 60.0497C30.584 60.0497 36.3144 48.36 42.3697 43.2705Z" fill="#945628"/>
<circle cx="55.3529" cy="45.057" r="1.59806" fill="#26160A"/>
<circle cx="54.9532" cy="44.6573" r="0.399514" fill="#8F725C"/>
<circle cx="51.7582" cy="46.6549" r="1.59806" fill="#26160A"/>
<circle cx="51.3585" cy="46.2552" r="0.399514" fill="#8F725C"/>
<circle cx="55.7533" cy="40.6623" r="1.59806" fill="#26160A"/>
<circle cx="55.3536" cy="40.2626" r="0.399514" fill="#8F725C"/>
<circle cx="54.1557" cy="35.8681" r="1.59806" fill="#26160A"/>
<circle cx="53.756" cy="35.4686" r="0.399514" fill="#8F725C"/>
<circle cx="53.3559" cy="49.0522" r="1.59806" fill="#26160A"/>
<circle cx="52.9571" cy="48.6524" r="0.399514" fill="#8F725C"/>
<circle cx="45.765" cy="48.6527" r="1.59806" fill="#26160A"/>
<circle cx="45.3653" cy="48.2528" r="0.399514" fill="#8F725C"/>
<circle cx="48.1615" cy="44.258" r="1.59806" fill="#26160A"/>
<circle cx="47.7618" cy="43.8585" r="0.399514" fill="#8F725C"/>
<circle cx="40.9701" cy="41.861" r="1.59806" fill="#26160A"/>
<circle cx="40.5714" cy="41.4613" r="0.399514" fill="#8F725C"/>
<circle cx="49.3608" cy="37.8659" r="1.59806" fill="#26160A"/>
<circle cx="48.961" cy="37.4662" r="0.399514" fill="#8F725C"/>
<circle cx="61.7455" cy="35.8681" r="1.59806" fill="#26160A"/>
<circle cx="61.3458" cy="35.4686" r="0.399514" fill="#8F725C"/>
<circle cx="59.7484" cy="39.0641" r="1.59806" fill="#26160A"/>
<circle cx="59.3478" cy="38.6649" r="0.399514" fill="#8F725C"/>
<circle cx="57.7504" cy="33.0717" r="1.59806" fill="#26160A"/>
<circle cx="57.3517" cy="32.672" r="0.399514" fill="#8F725C"/>
<circle cx="60.9467" cy="31.873" r="1.59806" fill="#26160A"/>
<circle cx="60.547" cy="31.4737" r="0.399514" fill="#8F725C"/>
<circle cx="65.3402" cy="33.4711" r="1.59806" fill="#26160A"/>
<circle cx="64.9415" cy="33.0716" r="0.399514" fill="#8F725C"/>
<circle cx="50.9584" cy="41.4616" r="1.59806" fill="#26160A"/>
<circle cx="50.5597" cy="41.0619" r="0.399514" fill="#8F725C"/>
<circle cx="44.5668" cy="44.6574" r="1.59806" fill="#26160A"/>
<circle cx="44.1671" cy="44.2577" r="0.399514" fill="#8F725C"/>
<circle cx="50.1596" cy="50.6501" r="1.59806" fill="#26160A"/>
<circle cx="49.7599" cy="50.2508" r="0.399514" fill="#8F725C"/>
<circle cx="46.1645" cy="52.6479" r="1.59806" fill="#26160A"/>
<circle cx="45.7657" cy="52.2481" r="0.399514" fill="#8F725C"/>
<circle cx="46.9643" cy="40.6623" r="1.59806" fill="#26160A"/>
<circle cx="46.5646" cy="40.2626" r="0.399514" fill="#8F725C"/>
<circle cx="38.1742" cy="47.8537" r="1.59806" fill="#26160A"/>
<circle cx="37.7745" cy="47.454" r="0.399514" fill="#8F725C"/>
<circle cx="40.9701" cy="45.8559" r="1.59806" fill="#26160A"/>
<circle cx="40.5714" cy="45.4564" r="0.399514" fill="#8F725C"/>
<circle cx="39.7729" cy="52.2484" r="1.59806" fill="#26160A"/>
<circle cx="39.3731" cy="51.849" r="0.399514" fill="#8F725C"/>
<circle cx="34.1791" cy="56.6427" r="1.59806" fill="#26160A"/>
<circle cx="33.7794" cy="56.2433" r="0.399514" fill="#8F725C"/>
<circle cx="30.5844" cy="56.6427" r="1.59806" fill="#26160A"/>
<circle cx="30.1837" cy="56.2433" r="0.399514" fill="#8F725C"/>
<circle cx="28.1859" cy="59.04" r="1.59806" fill="#26160A"/>
<circle cx="27.7872" cy="58.6402" r="0.399514" fill="#8F725C"/>
<circle cx="37.3754" cy="60.2387" r="1.59806" fill="#26160A"/>
<circle cx="36.9757" cy="59.839" r="0.399514" fill="#8F725C"/>
<circle cx="34.1791" cy="49.851" r="1.59806" fill="#26160A"/>
<circle cx="33.7794" cy="49.4515" r="0.399514" fill="#8F725C"/>
<circle cx="33.3803" cy="53.4467" r="1.59806" fill="#26160A"/>
<circle cx="32.9806" cy="53.0472" r="0.399514" fill="#8F725C"/>
<circle cx="33.3803" cy="60.2387" r="1.59806" fill="#26160A"/>
<circle cx="32.9806" cy="59.839" r="0.399514" fill="#8F725C"/>
<circle cx="42.9682" cy="49.4516" r="1.59806" fill="#26160A"/>
<circle cx="42.5685" cy="49.0519" r="0.399514" fill="#8F725C"/>
<circle cx="40.1723" cy="55.0448" r="1.59806" fill="#26160A"/>
<circle cx="39.7716" cy="54.6454" r="0.399514" fill="#8F725C"/>
<circle cx="36.5756" cy="44.6574" r="1.59806" fill="#26160A"/>
<circle cx="36.1769" cy="44.2577" r="0.399514" fill="#8F725C"/>
<circle cx="56.5522" cy="37.466" r="1.59806" fill="#26160A"/>
<circle cx="56.1524" cy="37.0665" r="0.399514" fill="#8F725C"/>
<circle cx="53.3559" cy="38.6647" r="1.59806" fill="#26160A"/>
<circle cx="52.9571" cy="38.2652" r="0.399514" fill="#8F725C"/>
<path d="M85.4352 21.2267C85.4352 21.2267 81.6932 23.7361 79.3625 24.0824C75.3295 24.6817 71.9336 25.8802 71.9336 25.8802C71.9336 25.8802 74.5304 22.4843 75.729 20.0872C77.1487 17.2478 79.3625 16.9038 79.3625 16.9038C80.5411 18.0251 81.669 19.2884 81.669 19.2884C81.669 19.2884 84.1613 19.924 85.4352 21.2267Z" fill="#F9B442"/>
<path d="M97.7676 167.927L69.2765 170.005L38.1143 152.792L15.2621 128.159L0.126213 104.416C0.126213 104.416 -0.407379 111.551 0.71978 116.881C2.27585 124.238 6.31193 127.199 9.92003 133.797C13.7279 140.761 14.8352 145.344 19.7138 151.604C26.7571 160.642 32.4084 164.704 42.5661 170.005C50.5918 174.193 55.5239 176.485 64.528 177.424C71.9281 178.196 76.2437 177.484 83.522 175.941C93.3158 173.863 97.7676 167.927 97.7676 167.927Z" fill="#AFAA27"/>
<path d="M96.7778 166.896L96.778 166.896L96.7781 166.896L96.7782 166.896L97.0045 166.662L97.3048 166.545L97.3056 166.545L97.3061 166.545L97.3072 166.544L97.3079 166.544L97.3087 166.544L97.3212 166.539C97.3375 166.532 97.3655 166.52 97.4038 166.504C97.4806 166.47 97.5981 166.417 97.7459 166.344C98.0431 166.198 98.4545 165.975 98.9005 165.676C99.8175 165.062 100.754 164.209 101.247 163.147C102.689 160.046 102.676 157.556 102.304 153.83C101.783 148.618 101.107 145.718 99.142 140.886C97.3501 136.478 94.7824 133.02 91.8157 129.025C91.747 128.933 91.678 128.84 91.6088 128.747C86.9372 122.454 81.8155 118.872 75.5059 114.459C74.5806 113.812 73.6298 113.147 72.6511 112.453C70.7591 111.111 66.3702 108.883 60.6111 106.191C54.904 103.524 47.9911 100.463 41.1576 97.4653C34.8206 94.6852 29.3848 92.406 24.8432 91.2632C20.2672 90.1117 16.9774 90.2152 14.6625 91.7133C13.7521 92.3025 12.3747 93.5967 11.146 94.8456C10.5506 95.4508 10.0193 96.0149 9.63665 96.428C9.44557 96.6343 9.29214 96.8022 9.187 96.9181C9.13445 96.976 9.09399 97.0208 9.06696 97.0509L9.03669 97.0846L9.02943 97.0927L9.02782 97.0945L9.02758 97.0947L9.02751 97.0948L8.72607 97.4325L8.28896 97.5439L8.28879 97.544L8.28829 97.5441L8.28788 97.5442L8.28738 97.5443L8.28431 97.5451L8.25832 97.552C8.2336 97.5587 8.19447 97.5694 8.14252 97.5841C8.03851 97.6137 7.88371 97.6593 7.69077 97.7211C7.30331 97.8451 6.77032 98.0315 6.19026 98.2797C4.97176 98.8011 3.77827 99.4988 3.14695 100.294C1.03505 102.953 1.33202 105.683 2.51586 109.629C3.33718 112.366 5.21224 115.612 7.67352 119.326C9.48434 122.058 11.2939 123.875 13.2301 125.72C13.4346 125.915 13.641 126.11 13.8492 126.308C15.6126 127.979 17.5036 129.771 19.4754 132.289C21.2179 134.515 22.3876 136.531 23.4693 138.395C23.6156 138.647 23.7604 138.896 23.9047 139.143C25.1167 141.216 26.3248 143.151 28.2923 145.247C31.0131 148.144 33.6376 150.363 36.5005 152.784C37.6419 153.749 38.8212 154.746 40.0596 155.83C44.2472 159.499 46.6693 161.448 51.2126 164.635C70.493 178.161 88.0966 172.14 92.2289 170.416C93.0966 170.054 94.2062 169.227 95.1796 168.388C95.6468 167.985 96.0502 167.609 96.3365 167.333C96.4792 167.195 96.592 167.083 96.6679 167.007C96.7059 166.969 96.7346 166.94 96.7532 166.921L96.7734 166.901L96.7776 166.896L96.7778 166.896Z" fill="#FB8630" stroke="#F9B442" stroke-width="2.96782"/>
<path d="M71.6507 129.939C51.7663 113.319 30.398 112.132 30.398 112.132C30.398 112.132 33.6626 129.939 50.5792 145.669C68.8762 162.682 91.5352 162.289 91.5352 162.289C91.5352 162.289 83.2337 139.62 71.6507 129.939Z" fill="#F9B442"/>
<path d="M66.3082 131.737C50.864 118.756 36.3332 117.491 36.3332 117.491C36.3332 117.491 39.2203 128.651 52.3594 140.937C66.5707 154.225 83.8184 156.666 83.8184 156.666C83.8184 156.666 75.3046 139.298 66.3082 131.737Z" fill="#945628"/>
<circle r="2.37426" transform="matrix(-1 0 0 1 47.0183 134.391)" fill="#26160A"/>
<circle r="0.593565" transform="matrix(-1 0 0 1 47.6115 133.798)" fill="#8F725C"/>
<circle r="2.37426" transform="matrix(-1 0 0 1 52.3591 136.765)" fill="#26160A"/>
<circle r="0.593565" transform="matrix(-1 0 0 1 52.9533 136.172)" fill="#8F725C"/>
<circle r="2.37426" transform="matrix(-1 0 0 1 46.4246 127.862)" fill="#26160A"/>
<circle r="0.593565" transform="matrix(-1 0 0 1 47.0178 127.268)" fill="#8F725C"/>
<circle r="2.37426" transform="matrix(-1 0 0 1 48.7986 120.739)" fill="#26160A"/>
<circle r="0.593565" transform="matrix(-1 0 0 1 49.3918 120.145)" fill="#8F725C"/>
<circle r="2.37426" transform="matrix(-1 0 0 1 49.9851 140.327)" fill="#26160A"/>
<circle r="0.593565" transform="matrix(-1 0 0 1 50.5793 139.733)" fill="#8F725C"/>
<circle r="2.37426" transform="matrix(-1 0 0 1 61.2634 139.733)" fill="#26160A"/>
<circle r="0.593565" transform="matrix(-1 0 0 1 61.8566 139.139)" fill="#8F725C"/>
<circle r="2.37426" transform="matrix(-1 0 0 1 57.7019 133.204)" fill="#26160A"/>
<circle r="0.593565" transform="matrix(-1 0 0 1 58.2961 132.611)" fill="#8F725C"/>
<circle r="2.37426" transform="matrix(-1 0 0 1 68.3865 129.643)" fill="#26160A"/>
<circle r="0.593565" transform="matrix(-1 0 0 1 68.9797 129.049)" fill="#8F725C"/>
<circle r="2.37426" transform="matrix(-1 0 0 1 55.9216 123.707)" fill="#26160A"/>
<circle r="0.593565" transform="matrix(-1 0 0 1 56.5148 123.113)" fill="#8F725C"/>
<circle r="2.37426" transform="matrix(-1 0 0 1 37.5203 120.739)" fill="#26160A"/>
<circle r="0.593565" transform="matrix(-1 0 0 1 38.1144 120.145)" fill="#8F725C"/>
<circle r="2.37426" transform="matrix(-1 0 0 1 40.488 125.488)" fill="#26160A"/>
<circle r="0.593565" transform="matrix(-1 0 0 1 41.0822 124.894)" fill="#8F725C"/>
<circle r="2.37426" transform="matrix(-1 0 0 1 43.4568 116.584)" fill="#26160A"/>
<circle r="0.593565" transform="matrix(-1 0 0 1 44.049 115.991)" fill="#8F725C"/>
<circle r="2.37426" transform="matrix(-1 0 0 1 38.7078 114.803)" fill="#26160A"/>
<circle r="0.593565" transform="matrix(-1 0 0 1 39.301 114.21)" fill="#8F725C"/>
<circle r="2.37426" transform="matrix(-1 0 0 1 32.1795 117.177)" fill="#26160A"/>
<circle r="0.593565" transform="matrix(-1 0 0 1 32.7717 116.584)" fill="#8F725C"/>
<circle r="2.37426" transform="matrix(-1 0 0 1 53.5476 129.049)" fill="#26160A"/>
<circle r="0.593565" transform="matrix(-1 0 0 1 54.1398 128.455)" fill="#8F725C"/>
<circle r="2.37426" transform="matrix(-1 0 0 1 63.0437 133.798)" fill="#26160A"/>
<circle r="0.593565" transform="matrix(-1 0 0 1 63.6369 133.204)" fill="#8F725C"/>
<circle r="2.37426" transform="matrix(-1 0 0 1 54.7341 142.701)" fill="#26160A"/>
<circle r="0.593565" transform="matrix(-1 0 0 1 55.3283 142.108)" fill="#8F725C"/>
<circle r="2.37426" transform="matrix(-1 0 0 1 60.6697 145.669)" fill="#26160A"/>
<circle r="0.593565" transform="matrix(-1 0 0 1 61.2629 145.075)" fill="#8F725C"/>
<circle r="2.37426" transform="matrix(-1 0 0 1 59.4822 127.862)" fill="#26160A"/>
<circle r="0.593565" transform="matrix(-1 0 0 1 60.0764 127.268)" fill="#8F725C"/>
<circle r="2.37426" transform="matrix(-1 0 0 1 72.5408 138.546)" fill="#26160A"/>
<circle r="0.593565" transform="matrix(-1 0 0 1 73.135 137.952)" fill="#8F725C"/>
<circle r="2.37426" transform="matrix(-1 0 0 1 68.3865 135.578)" fill="#26160A"/>
<circle r="0.593565" transform="matrix(-1 0 0 1 68.9797 134.985)" fill="#8F725C"/>
<circle r="2.37426" transform="matrix(-1 0 0 1 70.1668 145.075)" fill="#26160A"/>
<circle r="0.593565" transform="matrix(-1 0 0 1 70.76 144.482)" fill="#8F725C"/>
<circle r="2.37426" transform="matrix(-1 0 0 1 78.4773 151.604)" fill="#26160A"/>
<circle r="0.593565" transform="matrix(-1 0 0 1 79.0705 151.011)" fill="#8F725C"/>
<circle r="2.37426" transform="matrix(-1 0 0 1 83.8181 151.604)" fill="#26160A"/>
<circle r="0.593565" transform="matrix(-1 0 0 1 84.4123 151.011)" fill="#8F725C"/>
<circle r="2.37426" transform="matrix(-1 0 0 1 87.3806 155.166)" fill="#26160A"/>
<circle r="0.593565" transform="matrix(-1 0 0 1 87.9738 154.572)" fill="#8F725C"/>
<circle r="2.37426" transform="matrix(-1 0 0 1 73.7273 156.947)" fill="#26160A"/>
<circle r="0.593565" transform="matrix(-1 0 0 1 74.3215 156.353)" fill="#8F725C"/>
<circle r="2.37426" transform="matrix(-1 0 0 1 78.4773 141.514)" fill="#26160A"/>
<circle r="0.593565" transform="matrix(-1 0 0 1 79.0705 140.92)" fill="#8F725C"/>
<circle r="2.37426" transform="matrix(-1 0 0 1 79.6638 146.856)" fill="#26160A"/>
<circle r="0.593565" transform="matrix(-1 0 0 1 80.258 146.262)" fill="#8F725C"/>
<circle r="2.37426" transform="matrix(-1 0 0 1 79.6638 156.947)" fill="#26160A"/>
<circle r="0.593565" transform="matrix(-1 0 0 1 80.258 156.353)" fill="#8F725C"/>
<circle r="2.37426" transform="matrix(-1 0 0 1 65.4187 140.92)" fill="#26160A"/>
<circle r="0.593565" transform="matrix(-1 0 0 1 66.0119 140.326)" fill="#8F725C"/>
<circle r="2.37426" transform="matrix(-1 0 0 1 69.573 149.23)" fill="#26160A"/>
<circle r="0.593565" transform="matrix(-1 0 0 1 70.1672 148.637)" fill="#8F725C"/>
<circle r="2.37426" transform="matrix(-1 0 0 1 74.9158 133.798)" fill="#26160A"/>
<circle r="0.593565" transform="matrix(-1 0 0 1 75.508 133.204)" fill="#8F725C"/>
<circle r="2.37426" transform="matrix(-1 0 0 1 45.2371 123.113)" fill="#26160A"/>
<circle r="0.593565" transform="matrix(-1 0 0 1 45.8312 122.519)" fill="#8F725C"/>
<circle r="2.37426" transform="matrix(-1 0 0 1 49.9851 124.894)" fill="#26160A"/>
<circle r="0.593565" transform="matrix(-1 0 0 1 50.5793 124.3)" fill="#8F725C"/>
<path d="M2.3253 98.986C2.3253 98.986 7.88475 102.714 11.3476 103.229C17.3395 104.119 22.3848 105.9 22.3848 105.9C22.3848 105.9 18.5266 100.855 16.7459 97.2932C14.6366 93.0746 11.3476 92.5635 11.3476 92.5635C9.59646 94.2294 7.92069 96.1063 7.92069 96.1063C7.92069 96.1063 4.21786 97.0506 2.3253 98.986Z" fill="#F9B442"/>
<path d="M189.806 156.63L170.629 158.028L149.654 146.442L134.273 129.862L124.086 113.882C124.086 113.882 123.726 118.685 124.485 122.272C125.532 127.224 128.249 129.217 130.677 133.658C133.24 138.345 133.986 141.43 137.269 145.643C142.01 151.726 145.814 154.46 152.651 158.028C158.053 160.847 161.372 162.39 167.433 163.022C172.414 163.542 175.318 163.063 180.217 162.023C186.809 160.625 189.806 156.63 189.806 156.63Z" fill="#AFAA27"/>
<path d="M189.139 155.935L189.139 155.935L189.139 155.935L189.136 155.938L189.122 155.952C189.11 155.965 189.09 155.984 189.065 156.01C189.014 156.061 188.938 156.136 188.842 156.229C188.649 156.415 188.378 156.668 188.063 156.939C187.408 157.504 186.661 158.061 186.077 158.304C183.296 159.465 171.447 163.517 158.47 154.413C155.412 152.268 153.782 150.956 150.963 148.487C150.13 147.757 149.336 147.086 148.568 146.436C146.641 144.807 144.874 143.314 143.043 141.363C141.719 139.953 140.905 138.65 140.09 137.255C139.993 137.089 139.895 136.921 139.797 136.751C139.069 135.497 138.281 134.14 137.108 132.642C135.781 130.947 134.508 129.741 133.322 128.616C133.181 128.483 133.043 128.351 132.905 128.22C131.602 126.978 130.384 125.755 129.165 123.917C127.508 121.417 126.246 119.232 125.693 117.39C124.897 114.734 124.697 112.896 126.118 111.106C126.543 110.571 127.346 110.102 128.167 109.751C128.557 109.584 128.916 109.458 129.176 109.375C129.306 109.333 129.411 109.303 129.481 109.283C129.516 109.273 129.542 109.266 129.558 109.261L129.576 109.256L129.578 109.256L129.578 109.256L129.579 109.256L129.579 109.256L129.873 109.181L189.139 155.935ZM189.139 155.935L189.139 155.935L189.139 155.935L189.292 155.777L189.494 155.699L189.494 155.699L189.495 155.699L189.495 155.698L189.496 155.698L189.496 155.698L189.505 155.694C189.516 155.69 189.534 155.682 189.56 155.671C189.612 155.648 189.691 155.613 189.791 155.564C189.991 155.465 190.267 155.315 190.568 155.114C191.185 154.7 191.815 154.126 192.147 153.412C193.117 151.324 193.109 149.648 192.858 147.14C192.508 143.632 192.053 141.681 190.73 138.428C189.524 135.461 187.796 133.134 185.799 130.445C185.753 130.383 185.706 130.32 185.66 130.257C182.515 126.022 179.068 123.611 174.821 120.641C174.198 120.205 173.559 119.757 172.9 119.29C171.626 118.387 168.672 116.888 164.796 115.076C160.955 113.28 156.302 111.221 151.702 109.203C147.437 107.331 143.778 105.797 140.721 105.028C137.641 104.253 135.427 104.323 133.869 105.331C133.256 105.728 132.329 106.599 131.502 107.439C131.101 107.847 130.744 108.226 130.486 108.504C130.358 108.643 130.254 108.756 130.184 108.834C130.148 108.873 130.121 108.904 130.103 108.924L130.082 108.946L130.077 108.952L130.076 108.953L130.076 108.953L189.139 155.935Z" fill="#FB8630" stroke="#F9B442" stroke-width="1.99757"/>
<path d="M172.227 131.061C158.843 119.874 144.46 119.075 144.46 119.075C144.46 119.075 146.658 131.061 158.044 141.648C170.359 153.099 185.61 152.834 185.61 152.834C185.61 152.834 180.023 137.577 172.227 131.061Z" fill="#F9B442"/>
<path d="M168.63 132.27C158.235 123.533 148.455 122.682 148.455 122.682C148.455 122.682 150.398 130.194 159.242 138.463C168.807 147.407 180.416 149.05 180.416 149.05C180.416 149.05 174.686 137.36 168.63 132.27Z" fill="#945628"/>
<circle r="1.59806" transform="matrix(-1 0 0 1 155.647 134.057)" fill="#26160A"/>
<circle r="0.399515" transform="matrix(-1 0 0 1 156.047 133.657)" fill="#8F725C"/>
<circle r="1.59806" transform="matrix(-1 0 0 1 159.242 135.655)" fill="#26160A"/>
<circle r="0.399515" transform="matrix(-1 0 0 1 159.642 135.255)" fill="#8F725C"/>
<circle r="1.59806" transform="matrix(-1 0 0 1 155.247 129.663)" fill="#26160A"/>
<circle r="0.399515" transform="matrix(-1 0 0 1 155.646 129.262)" fill="#8F725C"/>
<circle r="1.59806" transform="matrix(-1 0 0 1 156.844 124.868)" fill="#26160A"/>
<circle r="0.399515" transform="matrix(-1 0 0 1 157.244 124.468)" fill="#8F725C"/>
<circle r="1.59806" transform="matrix(-1 0 0 1 157.644 138.052)" fill="#26160A"/>
<circle r="0.399515" transform="matrix(-1 0 0 1 158.043 137.653)" fill="#8F725C"/>
<circle r="1.59806" transform="matrix(-1 0 0 1 165.235 137.652)" fill="#26160A"/>
<circle r="0.399515" transform="matrix(-1 0 0 1 165.635 137.253)" fill="#8F725C"/>
<circle r="1.59806" transform="matrix(-1 0 0 1 162.838 133.258)" fill="#26160A"/>
<circle r="0.399515" transform="matrix(-1 0 0 1 163.238 132.858)" fill="#8F725C"/>
<circle r="1.59806" transform="matrix(-1 0 0 1 170.03 130.861)" fill="#26160A"/>
<circle r="0.399515" transform="matrix(-1 0 0 1 170.429 130.462)" fill="#8F725C"/>
<circle r="1.59806" transform="matrix(-1 0 0 1 161.639 126.866)" fill="#26160A"/>
<circle r="0.399515" transform="matrix(-1 0 0 1 162.039 126.466)" fill="#8F725C"/>
<circle r="1.59806" transform="matrix(-1 0 0 1 149.254 124.868)" fill="#26160A"/>
<circle r="0.399515" transform="matrix(-1 0 0 1 149.654 124.468)" fill="#8F725C"/>
<circle r="1.59806" transform="matrix(-1 0 0 1 151.252 128.064)" fill="#26160A"/>
<circle r="0.399515" transform="matrix(-1 0 0 1 151.652 127.665)" fill="#8F725C"/>
<circle r="1.59806" transform="matrix(-1 0 0 1 153.25 122.072)" fill="#26160A"/>
<circle r="0.399515" transform="matrix(-1 0 0 1 153.648 121.672)" fill="#8F725C"/>
<circle r="1.59806" transform="matrix(-1 0 0 1 150.053 120.873)" fill="#26160A"/>
<circle r="0.399515" transform="matrix(-1 0 0 1 150.453 120.473)" fill="#8F725C"/>
<circle r="1.59806" transform="matrix(-1 0 0 1 145.66 122.471)" fill="#26160A"/>
<circle r="0.399515" transform="matrix(-1 0 0 1 146.058 122.071)" fill="#8F725C"/>
<circle r="1.59806" transform="matrix(-1 0 0 1 160.042 130.461)" fill="#26160A"/>
<circle r="0.399515" transform="matrix(-1 0 0 1 160.44 130.062)" fill="#8F725C"/>
<circle r="1.59806" transform="matrix(-1 0 0 1 166.433 133.658)" fill="#26160A"/>
<circle r="0.399515" transform="matrix(-1 0 0 1 166.833 133.258)" fill="#8F725C"/>
<circle r="1.59806" transform="matrix(-1 0 0 1 160.84 139.65)" fill="#26160A"/>
<circle r="0.399515" transform="matrix(-1 0 0 1 161.24 139.251)" fill="#8F725C"/>
<circle r="1.59806" transform="matrix(-1 0 0 1 164.836 141.647)" fill="#26160A"/>
<circle r="0.399515" transform="matrix(-1 0 0 1 165.234 141.248)" fill="#8F725C"/>
<circle r="1.59806" transform="matrix(-1 0 0 1 164.036 129.663)" fill="#26160A"/>
<circle r="0.399515" transform="matrix(-1 0 0 1 164.435 129.262)" fill="#8F725C"/>
<circle r="1.59806" transform="matrix(-1 0 0 1 172.826 136.853)" fill="#26160A"/>
<circle r="0.399515" transform="matrix(-1 0 0 1 173.225 136.454)" fill="#8F725C"/>
<circle r="1.59806" transform="matrix(-1 0 0 1 170.03 134.856)" fill="#26160A"/>
<circle r="0.399515" transform="matrix(-1 0 0 1 170.429 134.457)" fill="#8F725C"/>
<circle r="1.59806" transform="matrix(-1 0 0 1 171.227 141.248)" fill="#26160A"/>
<circle r="0.399515" transform="matrix(-1 0 0 1 171.627 140.849)" fill="#8F725C"/>
<circle r="1.59806" transform="matrix(-1 0 0 1 176.821 145.643)" fill="#26160A"/>
<circle r="0.399515" transform="matrix(-1 0 0 1 177.221 145.243)" fill="#8F725C"/>
<circle r="1.59806" transform="matrix(-1 0 0 1 180.416 145.643)" fill="#26160A"/>
<circle r="0.399515" transform="matrix(-1 0 0 1 180.816 145.243)" fill="#8F725C"/>
<circle r="1.59806" transform="matrix(-1 0 0 1 182.814 148.04)" fill="#26160A"/>
<circle r="0.399515" transform="matrix(-1 0 0 1 183.213 147.64)" fill="#8F725C"/>
<circle r="1.59806" transform="matrix(-1 0 0 1 173.625 149.239)" fill="#26160A"/>
<circle r="0.399515" transform="matrix(-1 0 0 1 174.024 148.839)" fill="#8F725C"/>
<circle r="1.59806" transform="matrix(-1 0 0 1 176.821 138.851)" fill="#26160A"/>
<circle r="0.399515" transform="matrix(-1 0 0 1 177.221 138.452)" fill="#8F725C"/>
<circle r="1.59806" transform="matrix(-1 0 0 1 177.62 142.447)" fill="#26160A"/>
<circle r="0.399515" transform="matrix(-1 0 0 1 178.019 142.047)" fill="#8F725C"/>
<circle r="1.59806" transform="matrix(-1 0 0 1 177.62 149.239)" fill="#26160A"/>
<circle r="0.399515" transform="matrix(-1 0 0 1 178.019 148.839)" fill="#8F725C"/>
<circle r="1.59806" transform="matrix(-1 0 0 1 168.032 138.452)" fill="#26160A"/>
<circle r="0.399515" transform="matrix(-1 0 0 1 168.432 138.052)" fill="#8F725C"/>
<circle r="1.59806" transform="matrix(-1 0 0 1 170.828 144.045)" fill="#26160A"/>
<circle r="0.399515" transform="matrix(-1 0 0 1 171.228 143.645)" fill="#8F725C"/>
<circle r="1.59806" transform="matrix(-1 0 0 1 174.424 133.658)" fill="#26160A"/>
<circle r="0.399515" transform="matrix(-1 0 0 1 174.823 133.258)" fill="#8F725C"/>
<circle r="1.59806" transform="matrix(-1 0 0 1 154.448 126.466)" fill="#26160A"/>
<circle r="0.399515" transform="matrix(-1 0 0 1 154.848 126.066)" fill="#8F725C"/>
<circle r="1.59806" transform="matrix(-1 0 0 1 157.644 127.664)" fill="#26160A"/>
<circle r="0.399515" transform="matrix(-1 0 0 1 158.043 127.265)" fill="#8F725C"/>
<path d="M125.565 110.227C125.565 110.227 129.307 112.736 131.638 113.082C135.671 113.682 139.066 114.88 139.066 114.88C139.066 114.88 136.47 111.484 135.271 109.087C133.851 106.248 131.638 105.904 131.638 105.904C130.459 107.025 129.331 108.288 129.331 108.288C129.331 108.288 126.839 108.924 125.565 110.227Z" fill="#F9B442"/>
<path d="M21.1943 245.63L40.371 247.028L61.3456 235.442L76.7269 218.862L86.9145 202.882C86.9145 202.882 87.2736 207.685 86.515 211.272C85.4676 216.224 82.751 218.217 80.3225 222.658C77.7595 227.345 77.0142 230.43 73.7305 234.643C68.9899 240.726 65.1861 243.46 58.3492 247.028C52.9473 249.847 49.6276 251.39 43.5672 252.022C38.5863 252.542 35.6815 252.063 30.7827 251.023C24.1907 249.625 21.1943 245.63 21.1943 245.63Z" fill="#AFAA27"/>
<path d="M21.861 244.935L21.8611 244.935L21.8612 244.935L21.8641 244.938L21.8777 244.952C21.8902 244.965 21.9095 244.984 21.9351 245.01C21.9862 245.061 22.062 245.136 22.1581 245.229C22.3508 245.415 22.6224 245.668 22.9368 245.939C23.592 246.504 24.3389 247.061 24.9228 247.304C27.7042 248.465 39.5528 252.517 52.53 243.413C55.588 241.268 57.2182 239.956 60.0368 237.487C60.8704 236.757 61.6642 236.086 62.4324 235.436C64.3593 233.807 66.1258 232.314 67.9571 230.363C69.2814 228.953 70.0945 227.65 70.9103 226.255C71.0074 226.089 71.1049 225.921 71.2034 225.751C71.9315 224.497 72.7187 223.14 73.8916 221.642C75.2187 219.947 76.4916 218.741 77.6784 217.616C77.8185 217.483 77.9575 217.351 78.0952 217.22C79.3983 215.978 80.6163 214.755 81.8351 212.917C83.4918 210.417 84.7538 208.232 85.3066 206.39C86.1035 203.734 86.3033 201.896 84.8819 200.106C84.4569 199.571 83.6536 199.102 82.8335 198.751C82.4431 198.584 82.0843 198.458 81.8235 198.375C81.6937 198.333 81.5895 198.303 81.5195 198.283C81.4845 198.273 81.4582 198.266 81.4415 198.261L81.424 198.256L81.422 198.256L81.4216 198.256L81.4214 198.256L81.421 198.256L81.1267 198.181L21.861 244.935ZM21.861 244.935L21.8609 244.935L21.8608 244.935L21.7085 244.777L21.5064 244.699L21.5058 244.699L21.5055 244.699L21.5047 244.698L21.5043 244.698L21.5038 244.698L21.4954 244.694C21.4844 244.69 21.4655 244.682 21.4397 244.671C21.3881 244.648 21.309 244.613 21.2095 244.564C21.0095 244.465 20.7325 244.315 20.4324 244.114C19.8151 243.7 19.1849 243.126 18.8526 242.412C17.8826 240.324 17.8909 238.648 18.1417 236.14C18.4924 232.632 18.9474 230.681 20.2698 227.428C21.4759 224.461 23.2041 222.134 25.2009 219.445C25.2472 219.383 25.2937 219.32 25.3402 219.257C28.4846 215.022 31.9319 212.611 36.1787 209.641C36.8015 209.205 37.4415 208.757 38.1002 208.29C39.3737 207.387 42.3278 205.888 46.2041 204.076C50.0454 202.28 54.6983 200.221 59.2977 198.203C63.563 196.331 67.2218 194.797 70.2786 194.028C73.3586 193.253 75.5729 193.323 77.131 194.331C77.7438 194.728 78.6709 195.599 79.4979 196.439C79.8987 196.847 80.2563 197.226 80.5138 197.504C80.6424 197.643 80.7457 197.756 80.8165 197.834C80.8518 197.873 80.8791 197.904 80.8972 197.924L80.9176 197.946L80.9225 197.952L80.9236 197.953L80.9238 197.953L21.861 244.935Z" fill="#FB8630" stroke="#F9B442" stroke-width="1.99757"/>
<path d="M38.7734 220.061C52.1571 208.874 66.5397 208.075 66.5397 208.075C66.5397 208.075 64.3423 220.061 52.9562 230.648C40.6409 242.099 25.3896 241.834 25.3896 241.834C25.3896 241.834 30.9772 226.577 38.7734 220.061Z" fill="#F9B442"/>
<path d="M42.3697 221.27C52.7648 212.533 62.5452 211.682 62.5452 211.682C62.5452 211.682 60.6019 219.194 51.7583 227.463C42.193 236.407 30.584 238.05 30.584 238.05C30.584 238.05 36.3144 226.36 42.3697 221.27Z" fill="#945628"/>
<circle cx="55.3529" cy="223.057" r="1.59806" fill="#26160A"/>
<circle cx="54.9532" cy="222.657" r="0.399515" fill="#8F725C"/>
<circle cx="51.7582" cy="224.655" r="1.59806" fill="#26160A"/>
<circle cx="51.3585" cy="224.255" r="0.399515" fill="#8F725C"/>
<circle cx="55.7533" cy="218.663" r="1.59806" fill="#26160A"/>
<circle cx="55.3536" cy="218.262" r="0.399515" fill="#8F725C"/>
<circle cx="54.1557" cy="213.868" r="1.59806" fill="#26160A"/>
<circle cx="53.756" cy="213.468" r="0.399515" fill="#8F725C"/>
<circle cx="53.3559" cy="227.052" r="1.59806" fill="#26160A"/>
<circle cx="52.9571" cy="226.653" r="0.399515" fill="#8F725C"/>
<circle cx="45.765" cy="226.652" r="1.59806" fill="#26160A"/>
<circle cx="45.3653" cy="226.253" r="0.399515" fill="#8F725C"/>
<circle cx="48.1615" cy="222.258" r="1.59806" fill="#26160A"/>
<circle cx="47.7618" cy="221.859" r="0.399515" fill="#8F725C"/>
<circle cx="40.9701" cy="219.861" r="1.59806" fill="#26160A"/>
<circle cx="40.5714" cy="219.462" r="0.399515" fill="#8F725C"/>
<circle cx="49.3608" cy="215.866" r="1.59806" fill="#26160A"/>
<circle cx="48.961" cy="215.466" r="0.399515" fill="#8F725C"/>
<circle cx="61.7455" cy="213.868" r="1.59806" fill="#26160A"/>
<circle cx="61.3458" cy="213.468" r="0.399515" fill="#8F725C"/>
<circle cx="59.7484" cy="217.064" r="1.59806" fill="#26160A"/>
<circle cx="59.3478" cy="216.665" r="0.399515" fill="#8F725C"/>
<circle cx="57.7504" cy="211.072" r="1.59806" fill="#26160A"/>
<circle cx="57.3517" cy="210.672" r="0.399515" fill="#8F725C"/>
<circle cx="60.9467" cy="209.873" r="1.59806" fill="#26160A"/>
<circle cx="60.547" cy="209.473" r="0.399515" fill="#8F725C"/>
<circle cx="65.3402" cy="211.471" r="1.59806" fill="#26160A"/>
<circle cx="64.9415" cy="211.071" r="0.399515" fill="#8F725C"/>
<circle cx="50.9584" cy="219.461" r="1.59806" fill="#26160A"/>
<circle cx="50.5597" cy="219.062" r="0.399515" fill="#8F725C"/>
<circle cx="44.5668" cy="222.658" r="1.59806" fill="#26160A"/>
<circle cx="44.1671" cy="222.258" r="0.399515" fill="#8F725C"/>
<circle cx="50.1596" cy="228.65" r="1.59806" fill="#26160A"/>
<circle cx="49.7599" cy="228.251" r="0.399515" fill="#8F725C"/>
<circle cx="46.1645" cy="230.647" r="1.59806" fill="#26160A"/>
<circle cx="45.7657" cy="230.248" r="0.399515" fill="#8F725C"/>
<circle cx="46.9643" cy="218.663" r="1.59806" fill="#26160A"/>
<circle cx="46.5646" cy="218.262" r="0.399515" fill="#8F725C"/>
<circle cx="38.1742" cy="225.853" r="1.59806" fill="#26160A"/>
<circle cx="37.7745" cy="225.454" r="0.399515" fill="#8F725C"/>
<circle cx="40.9701" cy="223.856" r="1.59806" fill="#26160A"/>
<circle cx="40.5714" cy="223.457" r="0.399515" fill="#8F725C"/>
<circle cx="39.7729" cy="230.248" r="1.59806" fill="#26160A"/>
<circle cx="39.3731" cy="229.849" r="0.399515" fill="#8F725C"/>
<circle cx="34.1791" cy="234.643" r="1.59806" fill="#26160A"/>
<circle cx="33.7794" cy="234.243" r="0.399515" fill="#8F725C"/>
<circle cx="30.5844" cy="234.643" r="1.59806" fill="#26160A"/>
<circle cx="30.1837" cy="234.243" r="0.399515" fill="#8F725C"/>
<circle cx="28.1859" cy="237.04" r="1.59806" fill="#26160A"/>
<circle cx="27.7872" cy="236.64" r="0.399515" fill="#8F725C"/>
<circle cx="37.3754" cy="238.239" r="1.59806" fill="#26160A"/>
<circle cx="36.9757" cy="237.839" r="0.399515" fill="#8F725C"/>
<circle cx="34.1791" cy="227.851" r="1.59806" fill="#26160A"/>
<circle cx="33.7794" cy="227.452" r="0.399515" fill="#8F725C"/>
<circle cx="33.3803" cy="231.447" r="1.59806" fill="#26160A"/>
<circle cx="32.9806" cy="231.047" r="0.399515" fill="#8F725C"/>
<circle cx="33.3803" cy="238.239" r="1.59806" fill="#26160A"/>
<circle cx="32.9806" cy="237.839" r="0.399515" fill="#8F725C"/>
<circle cx="42.9682" cy="227.452" r="1.59806" fill="#26160A"/>
<circle cx="42.5685" cy="227.052" r="0.399515" fill="#8F725C"/>
<circle cx="40.1723" cy="233.045" r="1.59806" fill="#26160A"/>
<circle cx="39.7716" cy="232.645" r="0.399515" fill="#8F725C"/>
<circle cx="36.5756" cy="222.658" r="1.59806" fill="#26160A"/>
<circle cx="36.1769" cy="222.258" r="0.399515" fill="#8F725C"/>
<circle cx="56.5522" cy="215.466" r="1.59806" fill="#26160A"/>
<circle cx="56.1524" cy="215.066" r="0.399515" fill="#8F725C"/>
<circle cx="53.3559" cy="216.664" r="1.59806" fill="#26160A"/>
<circle cx="52.9571" cy="216.265" r="0.399515" fill="#8F725C"/>
<path d="M85.4352 199.227C85.4352 199.227 81.6932 201.736 79.3625 202.082C75.3295 202.682 71.9336 203.88 71.9336 203.88C71.9336 203.88 74.5304 200.484 75.729 198.087C77.1487 195.248 79.3625 194.904 79.3625 194.904C80.5411 196.025 81.669 197.288 81.669 197.288C81.669 197.288 84.1613 197.924 85.4352 199.227Z" fill="#F9B442"/>
<path d="M113.232 256.927L141.724 259.005L172.886 241.792L195.738 217.159L210.874 193.416C210.874 193.416 211.407 200.551 210.28 205.881C208.724 213.238 204.688 216.199 201.08 222.797C197.272 229.761 196.165 234.344 191.286 240.604C184.243 249.642 178.592 253.704 168.434 259.005C160.408 263.193 155.476 265.485 146.472 266.424C139.072 267.196 134.756 266.484 127.478 264.941C117.684 262.863 113.232 256.927 113.232 256.927Z" fill="#AFAA27"/>
<path d="M114.222 255.896L114.222 255.896L114.222 255.896L114.222 255.896L113.995 255.662L113.695 255.545L113.694 255.545L113.694 255.545L113.693 255.544L113.692 255.544L113.691 255.544L113.679 255.539C113.662 255.532 113.634 255.52 113.596 255.504C113.519 255.47 113.402 255.417 113.254 255.344C112.957 255.198 112.545 254.975 112.1 254.676C111.183 254.062 110.246 253.209 109.753 252.147C108.311 249.046 108.324 246.556 108.696 242.83C109.217 237.618 109.893 234.718 111.858 229.886C113.65 225.478 116.218 222.02 119.184 218.025C119.253 217.933 119.322 217.84 119.391 217.747C124.063 211.454 129.184 207.872 135.494 203.459C136.419 202.812 137.37 202.147 138.349 201.453C140.241 200.111 144.63 197.883 150.389 195.191C156.096 192.524 163.009 189.463 169.842 186.465C176.179 183.685 181.615 181.406 186.157 180.263C190.733 179.112 194.023 179.215 196.337 180.713C197.248 181.303 198.625 182.597 199.854 183.846C200.449 184.451 200.981 185.015 201.363 185.428C201.554 185.634 201.708 185.802 201.813 185.918C201.866 185.976 201.906 186.021 201.933 186.051L201.963 186.085L201.971 186.093L201.972 186.094L201.972 186.095L201.972 186.095L202.274 186.432L202.711 186.544L202.711 186.544L202.712 186.544L202.712 186.544L202.713 186.544L202.716 186.545L202.742 186.552C202.766 186.559 202.806 186.569 202.857 186.584C202.961 186.614 203.116 186.659 203.309 186.721C203.697 186.845 204.23 187.032 204.81 187.28C206.028 187.801 207.222 188.499 207.853 189.294C209.965 191.953 209.668 194.683 208.484 198.629C207.663 201.366 205.788 204.612 203.326 208.326C201.516 211.058 199.706 212.875 197.77 214.72C197.565 214.915 197.359 215.11 197.151 215.308C195.387 216.979 193.496 218.771 191.525 221.289C189.782 223.515 188.612 225.531 187.531 227.395C187.384 227.647 187.24 227.896 187.095 228.143C185.883 230.216 184.675 232.151 182.708 234.247C179.987 237.144 177.362 239.363 174.5 241.784C173.358 242.749 172.179 243.746 170.94 244.83C166.753 248.499 164.331 250.448 159.787 253.635C140.507 267.161 122.903 261.14 118.771 259.416C117.903 259.054 116.794 258.227 115.82 257.388C115.353 256.985 114.95 256.609 114.664 256.333C114.521 256.195 114.408 256.083 114.332 256.007C114.294 255.969 114.265 255.94 114.247 255.921L114.227 255.901L114.222 255.896L114.222 255.896Z" fill="#FB8630" stroke="#F9B442" stroke-width="2.96782"/>
<path d="M139.349 218.939C159.234 202.319 180.602 201.132 180.602 201.132C180.602 201.132 177.337 218.939 160.421 234.669C142.124 251.682 119.465 251.289 119.465 251.289C119.465 251.289 127.766 228.62 139.349 218.939Z" fill="#F9B442"/>
<path d="M144.692 220.737C160.136 207.756 174.667 206.491 174.667 206.491C174.667 206.491 171.78 217.651 158.641 229.937C144.429 243.225 127.182 245.666 127.182 245.666C127.182 245.666 135.695 228.298 144.692 220.737Z" fill="#945628"/>
<circle cx="163.982" cy="223.391" r="2.37426" fill="#26160A"/>
<circle cx="163.388" cy="222.798" r="0.593565" fill="#8F725C"/>
<circle cx="158.641" cy="225.765" r="2.37426" fill="#26160A"/>
<circle cx="158.047" cy="225.172" r="0.593565" fill="#8F725C"/>
<circle cx="164.575" cy="216.862" r="2.37426" fill="#26160A"/>
<circle cx="163.982" cy="216.268" r="0.593565" fill="#8F725C"/>
<circle cx="162.201" cy="209.739" r="2.37426" fill="#26160A"/>
<circle cx="161.608" cy="209.145" r="0.593565" fill="#8F725C"/>
<circle cx="161.015" cy="229.327" r="2.37426" fill="#26160A"/>
<circle cx="160.421" cy="228.733" r="0.593565" fill="#8F725C"/>
<circle cx="149.737" cy="228.733" r="2.37426" fill="#26160A"/>
<circle cx="149.143" cy="228.139" r="0.593565" fill="#8F725C"/>
<circle cx="153.298" cy="222.204" r="2.37426" fill="#26160A"/>
<circle cx="152.704" cy="221.611" r="0.593565" fill="#8F725C"/>
<circle cx="142.614" cy="218.643" r="2.37426" fill="#26160A"/>
<circle cx="142.02" cy="218.049" r="0.593565" fill="#8F725C"/>
<circle cx="155.078" cy="212.707" r="2.37426" fill="#26160A"/>
<circle cx="154.485" cy="212.113" r="0.593565" fill="#8F725C"/>
<circle cx="173.48" cy="209.739" r="2.37426" fill="#26160A"/>
<circle cx="172.886" cy="209.145" r="0.593565" fill="#8F725C"/>
<circle cx="170.512" cy="214.488" r="2.37426" fill="#26160A"/>
<circle cx="169.918" cy="213.894" r="0.593565" fill="#8F725C"/>
<circle cx="167.543" cy="205.584" r="2.37426" fill="#26160A"/>
<circle cx="166.951" cy="204.991" r="0.593565" fill="#8F725C"/>
<circle cx="172.292" cy="203.803" r="2.37426" fill="#26160A"/>
<circle cx="171.699" cy="203.21" r="0.593565" fill="#8F725C"/>
<circle cx="178.821" cy="206.177" r="2.37426" fill="#26160A"/>
<circle cx="178.228" cy="205.584" r="0.593565" fill="#8F725C"/>
<circle cx="157.452" cy="218.049" r="2.37426" fill="#26160A"/>
<circle cx="156.86" cy="217.455" r="0.593565" fill="#8F725C"/>
<circle cx="147.956" cy="222.798" r="2.37426" fill="#26160A"/>
<circle cx="147.363" cy="222.204" r="0.593565" fill="#8F725C"/>
<circle cx="156.266" cy="231.701" r="2.37426" fill="#26160A"/>
<circle cx="155.672" cy="231.108" r="0.593565" fill="#8F725C"/>
<circle cx="150.33" cy="234.669" r="2.37426" fill="#26160A"/>
<circle cx="149.737" cy="234.075" r="0.593565" fill="#8F725C"/>
<circle cx="151.518" cy="216.862" r="2.37426" fill="#26160A"/>
<circle cx="150.924" cy="216.268" r="0.593565" fill="#8F725C"/>
<circle cx="138.459" cy="227.546" r="2.37426" fill="#26160A"/>
<circle cx="137.865" cy="226.952" r="0.593565" fill="#8F725C"/>
<circle cx="142.614" cy="224.578" r="2.37426" fill="#26160A"/>
<circle cx="142.02" cy="223.985" r="0.593565" fill="#8F725C"/>
<circle cx="140.833" cy="234.075" r="2.37426" fill="#26160A"/>
<circle cx="140.24" cy="233.482" r="0.593565" fill="#8F725C"/>
<circle cx="132.523" cy="240.604" r="2.37426" fill="#26160A"/>
<circle cx="131.93" cy="240.011" r="0.593565" fill="#8F725C"/>
<circle cx="127.182" cy="240.604" r="2.37426" fill="#26160A"/>
<circle cx="126.588" cy="240.011" r="0.593565" fill="#8F725C"/>
<circle cx="123.619" cy="244.166" r="2.37426" fill="#26160A"/>
<circle cx="123.026" cy="243.572" r="0.593565" fill="#8F725C"/>
<circle cx="137.273" cy="245.947" r="2.37426" fill="#26160A"/>
<circle cx="136.679" cy="245.353" r="0.593565" fill="#8F725C"/>
<circle cx="132.523" cy="230.514" r="2.37426" fill="#26160A"/>
<circle cx="131.93" cy="229.92" r="0.593565" fill="#8F725C"/>
<circle cx="131.336" cy="235.856" r="2.37426" fill="#26160A"/>
<circle cx="130.742" cy="235.262" r="0.593565" fill="#8F725C"/>
<circle cx="131.336" cy="245.947" r="2.37426" fill="#26160A"/>
<circle cx="130.742" cy="245.353" r="0.593565" fill="#8F725C"/>
<circle cx="145.581" cy="229.92" r="2.37426" fill="#26160A"/>
<circle cx="144.988" cy="229.326" r="0.593565" fill="#8F725C"/>
<circle cx="141.427" cy="238.23" r="2.37426" fill="#26160A"/>
<circle cx="140.833" cy="237.637" r="0.593565" fill="#8F725C"/>
<circle cx="136.084" cy="222.798" r="2.37426" fill="#26160A"/>
<circle cx="135.492" cy="222.204" r="0.593565" fill="#8F725C"/>
<circle cx="165.763" cy="212.113" r="2.37426" fill="#26160A"/>
<circle cx="165.169" cy="211.519" r="0.593565" fill="#8F725C"/>
<circle cx="161.015" cy="213.894" r="2.37426" fill="#26160A"/>
<circle cx="160.421" cy="213.3" r="0.593565" fill="#8F725C"/>
<path d="M208.675 187.986C208.675 187.986 203.115 191.714 199.652 192.229C193.661 193.119 188.615 194.9 188.615 194.9C188.615 194.9 192.473 189.855 194.254 186.293C196.363 182.075 199.652 181.563 199.652 181.563C201.404 183.229 203.079 185.106 203.079 185.106C203.079 185.106 206.782 186.051 208.675 187.986Z" fill="#F9B442"/>
<path d="M113.232 78.9274L141.724 81.0049L172.886 63.7915L195.738 39.1586L210.874 15.416C210.874 15.416 211.407 22.5514 210.28 27.8809C208.724 35.2383 204.688 38.1994 201.08 44.7975C197.272 51.7608 196.165 56.3445 191.286 62.6044C184.243 71.6417 178.592 75.7038 168.434 81.0049C160.408 85.1933 155.476 87.4855 146.472 88.4244C139.072 89.1961 134.756 88.4844 127.478 86.9405C117.684 84.8631 113.232 78.9274 113.232 78.9274Z" fill="#AFAA27"/>
<path d="M114.222 77.8961L114.222 77.8959L114.222 77.8958L114.222 77.8957L113.995 77.6616L113.695 77.5453L113.694 77.545L113.694 77.5448L113.693 77.5444L113.692 77.5441L113.691 77.5438L113.679 77.5387C113.662 77.532 113.634 77.5204 113.596 77.5037C113.519 77.4704 113.402 77.4174 113.254 77.3445C112.957 77.198 112.545 76.9754 112.1 76.6765C111.183 76.0618 110.246 75.2092 109.753 74.1472C108.311 71.0462 108.324 68.556 108.696 64.8296C109.217 59.6178 109.893 56.7185 111.858 51.8856C113.65 47.4776 116.218 44.0201 119.184 40.0252C119.253 39.9326 119.322 39.8397 119.391 39.7465C124.063 33.4543 129.184 29.872 135.494 25.4588C136.419 24.8117 137.37 24.1466 138.349 23.4526C140.241 22.1108 144.63 19.8828 150.389 17.191C156.096 14.5235 163.009 11.4633 169.842 8.46535C176.179 5.68521 181.615 3.40603 186.157 2.2632C190.733 1.11173 194.023 1.21523 196.337 2.71329C197.248 3.30251 198.625 4.59673 199.854 5.84559C200.449 6.45078 200.981 7.0149 201.363 7.42797C201.554 7.63425 201.708 7.80224 201.813 7.91809C201.866 7.976 201.906 8.02083 201.933 8.05087L201.963 8.08457L201.971 8.09268L201.972 8.09448L201.972 8.09474L201.972 8.09482L202.274 8.43245L202.711 8.54392L202.711 8.54397L202.712 8.5441L202.712 8.5442L202.713 8.54433L202.716 8.54514L202.742 8.55205C202.766 8.55869 202.806 8.56938 202.857 8.58414C202.961 8.61368 203.116 8.65931 203.309 8.72108C203.697 8.84511 204.23 9.03154 204.81 9.27974C206.028 9.80111 207.222 10.4988 207.853 11.2938C209.965 13.9532 209.668 16.6827 208.484 20.6287C207.663 23.3663 205.788 26.6124 203.326 30.3259C201.516 33.058 199.706 34.8749 197.77 36.7199C197.565 36.9148 197.359 37.1104 197.151 37.3077C195.387 38.9787 193.496 40.7708 191.525 43.2892C189.782 45.5148 188.612 47.5306 187.531 49.3947C187.384 49.647 187.24 49.8964 187.095 50.1432C185.883 52.2158 184.675 54.1513 182.708 56.2467C179.987 59.1444 177.362 61.3632 174.5 63.7836C173.358 64.7485 172.179 65.7456 170.94 66.8304C166.753 70.4988 164.331 72.4482 159.787 75.6354C140.507 89.1609 122.903 83.1402 118.771 81.4163C117.903 81.0543 116.794 80.2272 115.82 79.3881C115.353 78.9854 114.95 78.6086 114.664 78.3327C114.521 78.1951 114.408 78.0835 114.332 78.0074C114.294 77.9694 114.265 77.9403 114.247 77.9213L114.227 77.9007L114.222 77.8963L114.222 77.8961Z" fill="#FB8630" stroke="#F9B442" stroke-width="2.96782"/>
<path d="M139.349 40.9393C159.234 24.3195 180.602 23.1323 180.602 23.1323C180.602 23.1323 177.337 40.9393 160.421 56.6687C142.124 73.6817 119.465 73.2885 119.465 73.2885C119.465 73.2885 127.766 50.6205 139.349 40.9393Z" fill="#F9B442"/>
<path d="M144.692 42.7368C160.136 29.7558 174.667 28.4912 174.667 28.4912C174.667 28.4912 171.78 39.6515 158.641 51.937C144.429 65.2251 127.182 67.6659 127.182 67.6659C127.182 67.6659 135.695 50.2983 144.692 42.7368Z" fill="#945628"/>
<circle cx="163.982" cy="45.3911" r="2.37426" fill="#26160A"/>
<circle cx="163.388" cy="44.7974" r="0.593565" fill="#8F725C"/>
<circle cx="158.641" cy="47.7651" r="2.37426" fill="#26160A"/>
<circle cx="158.047" cy="47.1714" r="0.593565" fill="#8F725C"/>
<circle cx="164.575" cy="38.8618" r="2.37426" fill="#26160A"/>
<circle cx="163.982" cy="38.2679" r="0.593565" fill="#8F725C"/>
<circle cx="162.201" cy="31.739" r="2.37426" fill="#26160A"/>
<circle cx="161.608" cy="31.1456" r="0.593565" fill="#8F725C"/>
<circle cx="161.015" cy="51.3267" r="2.37426" fill="#26160A"/>
<circle cx="160.421" cy="50.733" r="0.593565" fill="#8F725C"/>
<circle cx="149.737" cy="50.7331" r="2.37426" fill="#26160A"/>
<circle cx="149.143" cy="50.1392" r="0.593565" fill="#8F725C"/>
<circle cx="153.298" cy="44.2041" r="2.37426" fill="#26160A"/>
<circle cx="152.704" cy="43.6104" r="0.593565" fill="#8F725C"/>
<circle cx="142.614" cy="40.6426" r="2.37426" fill="#26160A"/>
<circle cx="142.02" cy="40.0489" r="0.593565" fill="#8F725C"/>
<circle cx="155.078" cy="34.707" r="2.37426" fill="#26160A"/>
<circle cx="154.485" cy="34.1133" r="0.593565" fill="#8F725C"/>
<circle cx="173.48" cy="31.739" r="2.37426" fill="#26160A"/>
<circle cx="172.886" cy="31.1456" r="0.593565" fill="#8F725C"/>
<circle cx="170.512" cy="36.4875" r="2.37426" fill="#26160A"/>
<circle cx="169.918" cy="35.8941" r="0.593565" fill="#8F725C"/>
<circle cx="167.543" cy="27.5842" r="2.37426" fill="#26160A"/>
<circle cx="166.951" cy="26.9908" r="0.593565" fill="#8F725C"/>
<circle cx="172.292" cy="25.8035" r="2.37426" fill="#26160A"/>
<circle cx="171.699" cy="25.21" r="0.593565" fill="#8F725C"/>
<circle cx="178.821" cy="28.1777" r="2.37426" fill="#26160A"/>
<circle cx="178.228" cy="27.584" r="0.593565" fill="#8F725C"/>
<circle cx="157.452" cy="40.0491" r="2.37426" fill="#26160A"/>
<circle cx="156.86" cy="39.4554" r="0.593565" fill="#8F725C"/>
<circle cx="147.956" cy="44.7976" r="2.37426" fill="#26160A"/>
<circle cx="147.363" cy="44.2037" r="0.593565" fill="#8F725C"/>
<circle cx="156.266" cy="53.7007" r="2.37426" fill="#26160A"/>
<circle cx="155.672" cy="53.1077" r="0.593565" fill="#8F725C"/>
<circle cx="150.33" cy="56.6689" r="2.37426" fill="#26160A"/>
<circle cx="149.737" cy="56.0753" r="0.593565" fill="#8F725C"/>
<circle cx="151.518" cy="38.8618" r="2.37426" fill="#26160A"/>
<circle cx="150.924" cy="38.2679" r="0.593565" fill="#8F725C"/>
<circle cx="138.459" cy="49.5461" r="2.37426" fill="#26160A"/>
<circle cx="137.865" cy="48.9522" r="0.593565" fill="#8F725C"/>
<circle cx="142.614" cy="46.5781" r="2.37426" fill="#26160A"/>
<circle cx="142.02" cy="45.9844" r="0.593565" fill="#8F725C"/>
<circle cx="140.833" cy="56.0754" r="2.37426" fill="#26160A"/>
<circle cx="140.24" cy="55.482" r="0.593565" fill="#8F725C"/>
<circle cx="132.523" cy="62.6042" r="2.37426" fill="#26160A"/>
<circle cx="131.93" cy="62.0106" r="0.593565" fill="#8F725C"/>
<circle cx="127.182" cy="62.6042" r="2.37426" fill="#26160A"/>
<circle cx="126.588" cy="62.0106" r="0.593565" fill="#8F725C"/>
<circle cx="123.619" cy="66.1658" r="2.37426" fill="#26160A"/>
<circle cx="123.026" cy="65.5721" r="0.593565" fill="#8F725C"/>
<circle cx="137.273" cy="67.9465" r="2.37426" fill="#26160A"/>
<circle cx="136.679" cy="67.3528" r="0.593565" fill="#8F725C"/>
<circle cx="132.523" cy="52.5137" r="2.37426" fill="#26160A"/>
<circle cx="131.93" cy="51.92" r="0.593565" fill="#8F725C"/>
<circle cx="131.336" cy="57.8559" r="2.37426" fill="#26160A"/>
<circle cx="130.742" cy="57.2623" r="0.593565" fill="#8F725C"/>
<circle cx="131.336" cy="67.9465" r="2.37426" fill="#26160A"/>
<circle cx="130.742" cy="67.3528" r="0.593565" fill="#8F725C"/>
<circle cx="145.581" cy="51.9202" r="2.37426" fill="#26160A"/>
<circle cx="144.988" cy="51.3262" r="0.593565" fill="#8F725C"/>
<circle cx="141.427" cy="60.2302" r="2.37426" fill="#26160A"/>
<circle cx="140.833" cy="59.6365" r="0.593565" fill="#8F725C"/>
<circle cx="136.084" cy="44.7976" r="2.37426" fill="#26160A"/>
<circle cx="135.492" cy="44.2037" r="0.593565" fill="#8F725C"/>
<circle cx="165.763" cy="34.1133" r="2.37426" fill="#26160A"/>
<circle cx="165.169" cy="33.5196" r="0.593565" fill="#8F725C"/>
<circle cx="161.015" cy="35.894" r="2.37426" fill="#26160A"/>
<circle cx="160.421" cy="35.3004" r="0.593565" fill="#8F725C"/>
<path d="M208.675 9.98603C208.675 9.98603 203.115 13.7142 199.652 14.2288C193.661 15.1191 188.615 16.8998 188.615 16.8998C188.615 16.8998 192.473 11.8545 194.254 8.29315C196.363 4.07461 199.652 3.56348 199.652 3.56348C201.404 5.2294 203.079 7.10631 203.079 7.10631C203.079 7.10631 206.782 8.05057 208.675 9.98603Z" fill="#F9B442"/>
<rect width="5" height="267" fill="#656565"/>
<rect x="35.2002" width="5" height="267" fill="#656565"/>
<rect x="70.4004" width="5" height="267" fill="#656565"/>
<rect x="105.601" width="5" height="267" fill="#656565"/>
<rect x="140.801" width="5" height="267" fill="#656565"/>
<rect x="176.001" width="5" height="267" fill="#656565"/>
</svg>
