<svg width="220" height="324" viewBox="0 0 220 324" fill="none" xmlns="http://www.w3.org/2000/svg">
<path d="M138.75 165.537C103.348 174.148 108.1 134.243 86 113C64.4838 92.3186 24.2961 91.1348 29.3773 61.7265C36.6595 19.579 117.04 1.74062 150 29C203.25 73.0402 180.33 155.424 138.75 165.537Z" fill="#925F65"/>
<path d="M137 267C103.449 263.405 91.2676 307.262 58.9998 300C21.2285 291.499 -7.57893 262.023 3.07277 218.142C18.0788 156.325 142.868 177.648 161.754 204.424C180.641 231.201 193 273 137 267Z" fill="#7B5865"/>
<path d="M174 239C156.326 246.871 139.449 232.726 128.107 209.982C116.764 187.238 61.5411 160.147 77.024 140.832C89.0155 125.872 102.539 159.057 131.321 146.651C160.102 134.245 193.05 152 201 173C215 209.982 191.674 231.129 174 239Z" fill="white"/>
<path d="M203.77 101.099C203.77 101.099 204.707 93.7004 202.426 94.3C199.589 95.0458 198.606 99.7166 199.173 102.056C199.316 103.563 198.288 104.488 197.382 105.302C196.758 105.864 196.192 106.373 196.107 106.984C195.936 108.216 197.916 108.721 197.916 108.721C197.916 108.721 199.225 109.131 201.392 108.292C201.965 108.298 202.473 108.451 202.879 108.573C203.45 108.745 203.819 108.856 203.881 108.41C204.015 107.448 203.832 106.964 203.619 106.401C203.475 106.017 203.316 105.596 203.234 104.961C203.069 103.689 203.77 101.099 203.77 101.099Z" fill="#DFC0C0"/>
<path d="M203.378 110.392C203.189 109.468 202.439 109.123 201.491 109.218C201.344 109.233 201.191 109.265 201.036 109.305C200.901 109.339 200.765 109.38 200.628 109.421C200.165 109.558 199.695 109.698 199.279 109.618C199.107 109.585 198.935 109.538 198.763 109.485C198.568 109.425 198.373 109.356 198.18 109.287L198.178 109.287C197.349 108.993 196.537 108.705 195.808 109.135C194.811 109.725 193.775 110.654 194.389 112.791C194.468 113.065 194.663 113.373 194.853 113.673C195.045 113.975 195.232 114.269 195.289 114.512C195.542 115.6 195.196 116.839 194.752 118.428L194.752 118.432C194.591 119.005 194.419 119.623 194.257 120.297C193.717 122.541 192.76 125.36 191.529 127.462C189.407 128.971 189.667 130.375 190.991 131.329C191.778 131.895 193.218 132.427 193.218 132.427C193.218 132.427 200.532 134.139 200.871 131.704C201.022 130.612 200.732 129.772 200.42 128.869C200.142 128.066 199.847 127.213 199.829 126.087C199.803 124.428 199.832 121.945 199.841 121.256C199.842 121.133 199.849 121.013 199.863 120.891C199.94 120.213 200.256 117.795 200.974 116.214C201.317 115.46 201.601 115.057 201.875 114.671C202.171 114.252 202.454 113.853 202.781 113.045L202.806 112.982C203.2 112.011 203.538 111.178 203.378 110.392Z" fill="#DFC0C0"/>
<path d="M130.017 107.266C128.192 105.939 127.514 112.161 127.514 112.161C127.514 112.161 127.88 116.323 127.469 117.399C127.388 117.613 127.308 117.807 127.23 117.99C127.19 118.085 127.15 118.176 127.111 118.266L127.049 118.407L127.044 118.419C126.723 119.15 126.459 119.751 126.315 120.788C126.117 122.212 130.292 121.668 130.292 121.668C130.292 121.668 132.08 121.916 132.235 120.798C132.312 120.244 132.019 119.646 131.695 118.984C131.221 118.019 130.682 116.919 131.132 115.628C132.082 113.708 133.12 109.521 130.017 107.266Z" fill="#DFC0C0"/>
<path d="M125.606 122.612C126.069 121.716 126.896 121.927 127.843 122.169C128.231 122.268 128.639 122.372 129.051 122.407C129.391 122.436 129.715 122.405 130.022 122.376C130.667 122.315 131.238 122.261 131.732 122.78C132.317 123.395 132.115 124.229 131.913 125.067C131.895 125.141 131.877 125.215 131.86 125.289C131.841 125.368 131.823 125.447 131.806 125.526C131.576 126.609 131.345 127.434 131.138 128.178L131.137 128.179C130.751 129.563 130.443 130.665 130.364 132.621C130.283 134.623 130.764 137.089 131.294 139.135C132.373 141.109 131.881 141.691 130.827 142.49C130.157 142.998 128.71 142.88 128.71 142.88C128.71 142.88 123.017 142.874 123.311 140.761C123.442 139.813 123.889 139.171 124.369 138.48C124.795 137.867 125.247 137.216 125.528 136.281C126.012 134.668 126.565 132.093 126.565 132.093C126.565 132.093 127.004 129.304 126.74 127.558C126.588 126.545 126.253 125.904 125.891 125.213C125.724 124.893 125.551 124.562 125.388 124.178C125.121 123.548 125.267 123.265 125.57 122.682L125.606 122.612Z" fill="#DFC0C0"/>
<path d="M162.957 207.83C162.957 207.83 160.844 212.058 159.424 210.304C157.969 208.505 157.13 206.774 158.544 205.165C158.651 204.398 158.403 204.045 158.186 203.735C157.96 203.413 157.767 203.138 158.04 202.493C158.39 201.662 159.778 202.004 160.322 202.176C160.361 202.188 160.399 202.198 160.438 202.206C160.469 202.212 160.5 202.217 160.531 202.221C160.612 202.231 160.693 202.232 160.775 202.223C161.74 202.115 165.388 201.814 165.156 203.482C165.034 204.357 164.852 204.473 164.549 204.668C164.343 204.799 164.082 204.967 163.746 205.432C163.071 206.365 162.957 207.83 162.957 207.83Z" fill="#DFC0C0"/>
<path d="M132.073 172.759C131.551 174.087 130.118 173.697 128.689 173.308L128.688 173.308L128.687 173.307C128.031 173.129 127.375 172.951 126.809 172.939C126.269 172.928 125.673 173.231 125.091 173.527C124.23 173.965 123.399 174.388 122.824 173.754C121.442 172.229 121.761 169.871 121.975 168.392C122.217 166.719 122.47 165.497 122.694 164.412C123.096 162.473 123.407 160.97 123.406 158.102C123.405 157.359 123.431 156.553 123.458 155.715C123.539 153.196 123.63 150.388 123.046 148.152L123.008 148.006C122.259 145.136 121.981 144.074 123.254 142.805C124.078 141.985 127.337 143.669 127.337 143.669C127.337 143.669 132.076 141.973 131.813 145.135C131.63 147.336 131.027 150.04 130.454 152.604L130.454 152.606L130.453 152.61C130.33 153.163 130.208 153.71 130.092 154.244C130.092 154.244 129.222 161.178 130.157 163.601C130.615 164.785 130.992 165.468 131.357 166.128C131.66 166.675 131.955 167.208 132.279 167.999C132.665 168.942 132.454 171.79 132.073 172.759Z" fill="#DFC0C0"/>
<path d="M135.784 213.828C136.5 213.962 136.8 214.018 137.866 213.008C138.916 212.014 139.721 210.985 138.035 206.875C137.727 206.122 136.93 204.428 136.057 202.572C134.906 200.126 133.623 197.397 133.147 196.164C132.212 193.741 131.128 184.939 131.128 184.939C131.185 184.677 131.242 184.424 131.298 184.179C131.342 183.99 131.384 183.805 131.426 183.624L131.497 183.323C131.995 181.195 132.375 179.571 132.186 177.334C131.918 174.173 126.971 173.418 126.971 173.418C126.971 173.418 124.864 174.014 124.041 174.834C122.747 176.124 122.765 176.863 123.233 180.65C123.463 182.519 124.423 184.505 125.337 186.395C126.275 188.337 127.164 190.177 127.165 191.685C127.165 193.898 127.416 196.133 127.67 198.407L127.671 198.41C127.931 200.73 128.195 203.09 128.204 205.509C128.205 205.857 128.111 206.548 127.992 207.419C127.6 210.292 126.942 215.122 128.561 216.047C129.273 216.453 130.699 215.618 132.041 214.832C133.048 214.242 134.008 213.68 134.583 213.692C135.113 213.703 135.485 213.772 135.784 213.828Z" fill="#DFC0C0"/>
<path d="M171.091 172.253C171.091 172.253 171.077 177.267 168.73 176.709C168.242 176.593 168.277 176.354 168.347 175.886C168.416 175.415 168.52 174.712 168.161 173.67C168.027 173.283 167.735 173.021 167.366 172.691C166.734 172.126 165.877 171.359 165.197 169.416C163.906 168.818 163.368 168.496 162.744 166.761C162.086 164.934 162.02 161.269 162.882 160.852C163.364 160.619 163.671 161.064 164.143 161.75C164.395 162.115 164.694 162.548 165.091 162.984C167.201 164.189 168.163 165.462 168.163 165.462C168.163 165.462 169.416 167.794 170.471 168.519C171.001 168.883 171.76 168.961 172.519 169.038C173.548 169.144 174.577 169.249 175.039 170.066C175.819 171.444 171.091 172.253 171.091 172.253Z" fill="#DFC0C0"/>
<path d="M183.826 170.524C182.136 170.701 180.583 170.864 180.396 169.214C180.25 167.926 180.956 163.725 181.329 162.504L181.402 162.263C182.204 159.636 182.877 157.433 184.62 155.21C186.627 152.65 187.646 144.914 187.646 144.914C189.385 140.596 189.806 138.83 188.915 134.146C188.18 130.282 193.825 133.233 193.825 133.233C193.825 133.233 195.836 133.512 197.462 133.282C198.174 133.481 198.479 134.068 198.721 134.536C198.774 134.639 198.825 134.737 198.876 134.823C200.013 136.736 199.817 137.218 198.095 141.467L197.878 142.004C196.546 145.295 196.112 147.049 195.631 148.996L195.631 148.997L195.629 149.003C195.417 149.863 195.195 150.762 194.881 151.848C193.981 154.969 193.991 157.317 194.003 159.892C194.011 161.711 194.019 163.644 193.707 166.043C193.668 166.345 193.64 166.674 193.61 167.02C193.459 168.788 193.271 170.994 191.382 172.109C190.381 172.699 189.401 172.079 188.385 171.436C187.802 171.067 187.207 170.691 186.59 170.531C185.771 170.32 184.777 170.424 183.826 170.524Z" fill="#DFC0C0"/>
<path d="M145.295 167.756C146.02 167.713 146.512 167.356 146.98 167.016C147.535 166.613 148.057 166.235 148.896 166.433C150.014 166.697 150.562 167.344 151.136 168.34C151.662 169.252 151.639 169.994 151.609 170.94L151.609 170.945C151.603 171.151 151.596 171.367 151.595 171.596C151.589 172.559 151.307 173.281 151.026 174C150.738 174.736 150.452 175.469 150.464 176.454C150.476 177.523 150.661 178.219 150.893 179.097L150.903 179.136C150.94 179.278 150.979 179.424 151.018 179.578C151.036 179.645 151.053 179.714 151.07 179.784C151.085 179.843 151.1 179.903 151.115 179.965C151.328 180.851 152.01 181.851 152.635 182.766C153.633 184.227 154.484 185.473 153.05 185.706C152.441 185.804 152.082 185.644 151.684 185.466C151.39 185.334 151.075 185.193 150.623 185.141C149.953 185.062 149.367 185.207 148.768 185.355C148.323 185.465 147.87 185.577 147.37 185.601C146.826 185.627 146.383 185.467 145.96 185.314C145.416 185.117 144.903 184.932 144.242 185.166C143.697 185.359 143.317 185.738 142.967 186.087C142.524 186.529 142.128 186.924 141.504 186.837C140.564 186.707 141.083 184.955 141.083 184.955C141.083 184.955 141.596 183.242 141.572 181.831L141.568 181.628C141.535 179.662 141.517 178.571 140.245 176.63C140.155 176.494 140.063 176.356 139.97 176.218C139.892 176.103 139.813 175.987 139.734 175.871C139.656 175.755 139.577 175.64 139.499 175.524C139.351 175.305 139.206 175.086 139.068 174.871C138.537 174.04 138.358 173.46 138.262 172.479C138.115 170.976 138.336 169.949 139.237 168.738C139.884 167.869 140.396 167.741 141.409 167.487L141.519 167.46C142.343 167.253 142.95 167.398 143.59 167.55C144.097 167.671 144.624 167.797 145.295 167.756Z" fill="#DFC0C0"/>
<path d="M143.955 186.468C142.185 187.295 141.252 189.266 141.735 191.161L142.079 192.507C142.179 192.897 142.319 193.276 142.497 193.636L143.863 196.393C144.541 197.762 144.861 199.282 144.792 200.809L144.594 205.239C144.579 205.565 144.625 205.89 144.729 206.199L144.744 206.243C145.188 207.56 146.593 208.289 147.924 207.893C148.009 207.868 148.093 207.838 148.175 207.804C148.2 207.794 148.224 207.784 148.248 207.773C148.288 207.755 148.327 207.736 148.365 207.717L149.831 206.966C150.341 206.705 150.9 206.552 151.473 206.518L152.215 206.474C152.66 206.448 153.083 206.272 153.417 205.977C154.044 205.422 154.258 204.536 153.954 203.756L152.109 199.027L151.909 194.57C151.858 193.422 152.026 192.275 152.404 191.19L152.968 189.57L153.258 188.492C153.582 187.283 152.641 186.107 151.392 186.159L148.682 186.321C148.194 186.35 147.703 186.331 147.218 186.263L146.231 186.126C145.455 186.018 144.665 186.137 143.955 186.468Z" fill="#DFC0C0"/>
<path d="M185.464 199.784C184.866 198.402 186.009 196.898 187.499 197.105C188.164 197.198 188.83 196.937 189.256 196.417L190.604 194.77C191.215 194.024 192.169 193.65 193.124 193.783C193.582 193.847 194.017 194.024 194.389 194.3L195.245 194.935C195.795 195.343 196.196 195.92 196.385 196.579C196.593 197.302 196.532 198.077 196.214 198.759L195.579 200.121C195.466 200.363 195.332 200.594 195.178 200.813L186.215 213.545C185.914 213.973 185.689 214.45 185.551 214.955L182.77 225.125C182.603 225.737 182.309 226.306 181.908 226.797L180.771 228.184C179.982 229.148 179.754 230.455 180.171 231.629C180.923 233.749 179.544 236.027 177.318 236.342L176.14 236.509C175.469 236.604 174.829 236.848 174.266 237.225L172.499 238.405C171.406 239.135 169.945 238.963 169.052 237.998C168.645 237.558 168.398 236.993 168.349 236.395L168.165 234.107C168.118 233.524 167.769 233.009 167.246 232.75C166.604 232.432 166.238 231.738 166.337 231.029L166.452 230.2C166.533 229.621 166.791 229.08 167.191 228.654L171.121 224.469L175.089 218.864L182.29 210.568C182.55 210.268 182.77 209.935 182.943 209.577L185.97 203.334C186.315 202.622 186.333 201.795 186.019 201.068L185.464 199.784Z" fill="#DFC0C0"/>
<path d="M173.438 172.123C172.225 171.955 171.138 172.889 171.121 174.115L171.11 174.926C171.105 175.269 171.027 175.608 170.88 175.918L170.498 176.728C169.997 177.791 170.669 179.034 171.832 179.196C172.054 179.227 172.269 179.301 172.464 179.414L177.15 182.13C177.619 182.402 178.036 182.757 178.38 183.178L182.403 188.1C182.871 188.672 183.191 189.352 183.336 190.077L184.049 193.664C184.141 194.127 184.324 194.566 184.589 194.958L184.97 195.522C185.528 196.348 186.521 196.764 187.5 196.581C188.254 196.441 188.902 195.963 189.259 195.283L189.925 194.015C190.748 192.447 192.766 191.969 194.203 193.001L194.859 193.473C195.209 193.724 195.66 193.792 196.068 193.654C196.518 193.502 196.851 193.123 196.949 192.662C196.952 192.645 196.956 192.627 196.959 192.61L196.961 192.595L196.965 192.569L197.112 191.513C197.159 191.175 197.149 190.832 197.083 190.498L197.076 190.465L197.071 190.439L197.063 190.402L197.052 190.356L197.022 190.236C196.761 189.178 196.048 188.288 195.072 187.805L193.109 186.832C192.887 186.722 192.655 186.63 192.418 186.558L189.601 185.703C189.037 185.531 188.514 185.252 188.059 184.88C187.994 184.827 187.93 184.772 187.868 184.715L185.389 182.448L180.245 177.281C179.815 176.85 179.479 176.333 179.258 175.765L178.087 172.766C177.654 171.656 176.305 171.235 175.318 171.903C174.962 172.144 174.534 172.254 174.108 172.214L174.078 172.211C174.06 172.209 174.041 172.207 174.023 172.204L173.438 172.123Z" fill="#DFC0C0"/>
<path d="M186.314 180.762C186.09 181.037 185.863 181.325 185.721 181.501L183.882 180.187L181.033 177.739C180.691 177.395 179.925 175.96 179.749 175.508L180.06 173.271C181.792 170.978 185.095 171.463 185.095 171.463C185.095 171.463 189.144 172.116 189.538 173.904C189.991 175.954 190.027 176.937 186.849 180.143C186.711 180.281 186.513 180.517 186.314 180.762Z" fill="#DFC0C0"/>
<path d="M165.949 217.438C167.272 219.429 167.645 219.741 169.67 220.163C171.176 220.477 174.013 218.914 174.776 217.453C175.158 214.705 175.207 213.452 175.302 211.005L175.314 210.688C175.329 210.31 175.695 208.855 175.986 207.701C176.172 206.958 176.328 206.339 176.339 206.213C176.376 206.086 176.412 205.963 176.448 205.842C176.484 205.715 176.52 205.59 176.555 205.469C176.596 205.322 176.637 205.179 176.675 205.039C176.796 204.605 176.902 204.207 177.001 203.835L177.082 203.526C177.489 201.985 177.786 200.86 178.495 199.274C179.282 197.515 180.278 194.882 180.769 192.75C180.87 192.31 181.034 191.986 181.21 191.638C181.47 191.123 181.757 190.556 181.905 189.488C181.905 189.488 181.294 188.251 180.813 187.512C179.86 186.045 179.323 185.106 177.866 184.139C177.17 183.676 175.948 183.188 175.948 183.188C175.799 185.903 172.97 199.088 171.357 201.474C170.59 202.607 168.733 205.953 167.741 208.186L167.741 208.187L167.74 208.189C166.797 210.311 165.89 212.352 165.281 213.214C164.606 214.169 165.03 216.055 165.949 217.438Z" fill="#DFC0C0"/>
<path d="M148.2 220.061C148.143 219.326 148.941 218.836 149.57 219.219L151.176 220.198C153.216 221.442 155.667 221.824 157.99 221.262L160.459 220.664C161.168 220.492 161.777 221.19 161.512 221.87L159.459 227.136C158.897 228.579 158.738 230.147 158.999 231.674L159.111 232.322C159.35 233.722 159.129 235.162 158.48 236.426L158.365 236.65C157.677 237.99 156.505 239.016 155.087 239.521L154.864 239.6C152.715 240.365 150.318 239.739 148.817 238.021L148.634 237.812C148.45 237.6 148.239 237.413 148.008 237.254C146.745 236.386 146.23 234.771 146.757 233.331L148.155 229.51C148.58 228.351 148.75 227.114 148.654 225.883L148.2 220.061Z" fill="#DFC0C0"/>
<path d="M140.697 213.292C140.284 212.49 139.218 212.309 138.564 212.929L137.692 213.756C137.06 214.354 136.269 214.758 135.414 214.917L134.292 215.125C134.043 215.172 133.799 215.239 133.561 215.326L131.722 216.002C130.824 216.332 130.099 217.013 129.712 217.888L129.54 218.279C129.193 219.063 129.241 219.965 129.669 220.707C130.053 221.374 130.705 221.844 131.459 221.997L132.201 222.148C133.242 222.36 134.17 222.945 134.811 223.794L136.862 226.509C137.138 226.876 137.358 227.282 137.512 227.715L138.612 230.802C139.017 231.939 139.861 232.866 140.953 233.377L142.026 233.878L142.769 234.122C143.785 234.457 144.902 234.199 145.669 233.452C146.059 233.072 146.333 232.59 146.459 232.06L147.527 227.591C147.774 226.558 147.836 225.49 147.713 224.436L147.429 222.014C147.328 221.155 146.983 220.344 146.435 219.676L145.194 218.162C144.895 217.797 144.54 217.481 144.143 217.226L143.042 216.519C142.375 216.091 141.833 215.495 141.47 214.79L140.697 213.292Z" fill="#DFC0C0"/>
<path d="M126.465 224.274C127.52 222.737 129.438 222.048 131.227 222.563L131.6 222.67C132.404 222.901 133.128 223.352 133.691 223.972L135.2 225.633L136.739 227.671C137.119 228.175 137.39 228.753 137.533 229.369L137.706 230.108C137.916 231.013 137.843 231.961 137.496 232.822L137.429 232.989C137.138 233.71 136.667 234.344 136.06 234.83L133.74 236.686C132.935 237.33 131.798 237.347 130.975 236.727L129.214 235.4C128.848 235.125 128.526 234.795 128.259 234.422L126.157 231.484C125.442 230.485 125.165 229.238 125.389 228.03L125.778 225.935C125.888 225.339 126.123 224.773 126.465 224.274Z" fill="#DFC0C0"/>
<path d="M140.209 233.507C139.361 232.679 137.948 232.965 137.488 234.057C137.228 234.675 136.755 235.179 136.156 235.478L134.933 236.088C133.647 236.728 133.279 238.393 134.174 239.517L135.336 240.976C135.969 241.771 136.851 242.329 137.841 242.559L140.657 243.215C140.996 243.294 141.324 243.412 141.636 243.567L144.396 244.935C144.793 245.131 145.236 245.216 145.677 245.181C146.543 245.11 147.307 244.585 147.683 243.801L148.741 241.599C149.271 240.493 148.994 239.168 148.064 238.369L146.792 237.276L146.354 235.976C146.142 235.347 145.505 234.964 144.85 235.073L144.174 235.186C142.968 235.387 141.738 235.001 140.863 234.146L140.209 233.507Z" fill="#DFC0C0"/>
<path d="M159.93 235.23C160.047 234.882 160.443 234.717 160.771 234.88C161.57 235.276 162.521 235.2 163.247 234.683L164.562 233.745C165.499 233.077 166.81 233.641 166.971 234.781L167.125 235.874C167.245 236.726 167.514 237.552 167.919 238.311L168.139 238.723C168.505 239.409 168.392 240.253 167.857 240.817L167.424 241.275C166.54 242.209 165.466 242.944 164.276 243.429L161.495 244.563L155.821 246.055L152.805 247.138C151.594 247.573 150.241 247.202 149.421 246.209C148.808 245.467 148.581 244.479 148.808 243.543L149.016 242.683C149.302 241.503 150.419 240.719 151.625 240.854L152.445 240.945C155.578 241.294 158.53 239.408 159.533 236.415L159.93 235.23Z" fill="#DFC0C0"/>
<path d="M164.948 216.689C164.582 216.143 163.774 216.16 163.43 216.72L162.817 217.72C162.352 218.479 162.121 219.359 162.153 220.248L162.205 221.665C162.231 222.397 162.08 223.125 161.762 223.785L160.044 227.364C159.804 227.866 159.658 228.407 159.614 228.962L159.464 230.838C159.407 231.555 159.635 232.265 160.097 232.815C160.837 233.695 162.048 234.016 163.127 233.62L163.457 233.498C164.387 233.156 165.109 232.406 165.417 231.463L166.582 227.882C166.803 227.203 167.182 226.586 167.687 226.082L171.448 222.33C171.977 221.803 171.674 220.898 170.936 220.795L167.373 220.3L164.948 216.689Z" fill="#DFC0C0"/>
<path d="M145.645 209.487C145.607 208.915 146.103 208.452 146.67 208.531L146.839 208.555C147.325 208.622 147.82 208.556 148.272 208.364L151.389 207.035C152.16 206.707 152.923 207.516 152.551 208.267L152.414 208.544C152.177 209.023 152.087 209.562 152.155 210.093L152.171 210.215C152.305 211.26 152.07 212.32 151.507 213.21L149.973 215.632C149.695 216.072 149.105 216.186 148.683 215.882L146.973 214.647C146.32 214.175 145.91 213.436 145.856 212.631L145.645 209.487Z" fill="#DFC0C0"/>
<path d="M141.72 193.479L140.379 203.124C140.32 203.552 140.199 203.968 140.022 204.361L139.279 206.008C138.868 206.919 138.782 207.943 139.035 208.91L139.077 209.068C139.279 209.84 139.717 210.53 140.328 211.043C140.783 211.424 141.144 211.905 141.382 212.448L141.921 213.679C142.237 214.399 142.736 215.025 143.367 215.493L144.528 216.353C144.626 216.425 144.717 216.506 144.802 216.593L146.118 217.947C146.34 218.176 146.651 218.296 146.968 218.277L147.403 218.251C148.024 218.214 148.385 217.532 148.068 216.997C148.04 216.951 148.008 216.907 147.972 216.867L146.391 215.099C145.787 214.425 145.399 213.583 145.28 212.685L144.964 210.315C144.947 210.19 144.925 210.066 144.898 209.944C144.886 209.887 144.872 209.83 144.858 209.774C144.831 209.671 144.801 209.569 144.767 209.468L143.938 207.012L143.459 204.699C143.325 204.057 143.333 203.394 143.482 202.756L144.02 200.445C144.258 199.424 144.133 198.353 143.668 197.414L141.72 193.479Z" fill="#DFC0C0"/>
<path d="M139.105 176.244L140.989 180.15C141.144 180.471 141.2 180.831 141.151 181.185L140.76 183.998L139.756 179.754L139.105 176.244Z" fill="#DFC0C0"/>
<path d="M158.992 163.747C158.353 163.913 157.926 164.516 157.982 165.175L158.262 168.455C158.299 168.889 158.398 169.316 158.557 169.721L159.542 172.231C159.733 172.719 159.838 173.236 159.852 173.76L159.926 176.507C159.93 176.665 159.926 176.824 159.914 176.981C159.896 177.207 159.862 177.432 159.81 177.653L159.553 178.758C159.436 179.26 159.234 179.739 158.956 180.173L157.932 181.77C157.734 182.079 157.605 182.427 157.555 182.79C157.379 184.054 158.17 185.252 159.402 185.585L159.595 185.637C159.929 185.727 160.278 185.754 160.622 185.715L164.799 185.244C165.659 185.147 166.53 185.3 167.306 185.684L168.282 186.168C168.807 186.428 169.436 186.127 169.563 185.555L169.631 185.249C169.82 184.399 169.76 183.512 169.457 182.695L169.022 181.524C168.849 181.058 168.754 180.568 168.741 180.072L168.71 178.903C168.695 178.356 168.581 177.815 168.373 177.309L167.623 175.482C167.587 175.395 167.554 175.307 167.524 175.218C167.483 175.097 167.447 174.974 167.416 174.849L167.41 174.824C167.274 174.275 167.037 173.756 166.71 173.295L164.485 170.155C164.268 169.849 164.014 169.571 163.728 169.328L163.42 169.065C162.462 168.25 161.888 167.071 161.836 165.814L161.813 165.264L161.877 163.602C161.889 163.3 161.606 163.072 161.314 163.148L158.992 163.747Z" fill="#DFC0C0"/>
<path d="M157.686 188.074C157.357 186.963 158.358 185.914 159.482 186.193L160.588 186.467C160.94 186.554 161.309 186.551 161.659 186.458L164.316 185.748C165.154 185.525 166.046 185.623 166.815 186.025L167.211 186.232C168.065 186.679 168.617 187.548 168.657 188.512C168.683 189.135 168.492 189.749 168.117 190.248L167.794 190.677C167.468 191.111 167.228 191.604 167.089 192.129L165.752 197.183C165.511 198.096 165.58 199.063 165.95 199.932L166.275 200.699C166.363 200.905 166.393 201.132 166.362 201.354L166.334 201.557C166.256 202.122 165.734 202.517 165.17 202.438C165.152 202.436 165.134 202.432 165.116 202.429C165.1 202.426 165.085 202.423 165.069 202.419C165.04 202.412 165.012 202.404 164.984 202.394L162.383 201.522C161.861 201.347 161.311 201.269 160.76 201.292L159.347 201.351C159.166 201.359 158.986 201.328 158.818 201.26C158.063 200.956 157.784 200.03 158.245 199.358L158.737 198.642C158.949 198.333 159.068 197.97 159.081 197.596L159.255 192.666C159.279 191.958 159.138 191.254 158.841 190.612L157.762 188.277C157.753 188.257 157.744 188.236 157.735 188.215C157.73 188.203 157.725 188.19 157.721 188.178L157.71 188.148C157.704 188.13 157.698 188.113 157.692 188.095L157.686 188.074Z" fill="#DFC0C0"/>
<path d="M158.591 172.025L157.84 169.272L157.847 171.433C157.85 172.095 157.597 172.734 157.142 173.215C156.737 173.642 156.491 174.196 156.444 174.783L156.285 176.785C156.236 177.395 156.312 178.008 156.507 178.588L157.501 181.536L158.367 179.68C158.652 179.07 158.796 178.403 158.79 177.73L158.75 173.175C158.747 172.786 158.693 172.4 158.591 172.025Z" fill="#DFC0C0"/>
<path d="M167.326 163.294L168.803 163.392C169.832 163.461 170.733 164.11 171.126 165.066L171.398 165.729C171.58 166.173 171.641 166.657 171.575 167.132L171.477 167.836C171.428 168.187 171.012 168.348 170.741 168.12L170.269 167.725C169.917 167.431 169.646 167.052 169.481 166.624L169.065 165.548C168.953 165.257 168.791 164.987 168.587 164.751L167.326 163.294Z" fill="#DFC0C0"/>
<path d="M158.257 192.368L157.53 189.52L157.419 194.293C157.401 195.047 157.289 195.797 157.085 196.524L156.038 200.257L153.982 205.215L153.006 208.956L152.475 211.707C152.288 212.679 151.942 213.613 151.452 214.473L150.544 216.065C150.488 216.164 150.438 216.266 150.396 216.372C150.359 216.463 150.328 216.557 150.302 216.653C150.063 217.544 150.335 218.495 151.01 219.123L151.324 219.415C151.721 219.784 152.206 220.046 152.732 220.177L154.417 220.595C155.532 220.871 156.697 220.881 157.817 220.623C159.874 220.15 161.627 218.81 162.626 216.948L162.938 216.368C163.716 214.918 164.071 213.279 163.963 211.637L163.782 208.89C163.757 208.512 163.246 208.415 163.085 208.758L162.416 210.175C162.194 210.646 161.83 211.036 161.374 211.288C160.588 211.723 159.627 211.699 158.864 211.224L158.667 211.101C158.367 210.915 158.105 210.675 157.892 210.393L157.737 210.189C157.057 209.288 156.762 208.153 156.918 207.034L157.152 205.352C157.227 204.806 157.249 204.255 157.217 203.705L157.152 202.605C157.092 201.598 157.202 200.587 157.476 199.616L158.197 197.059C158.63 195.527 158.65 193.909 158.257 192.368Z" fill="#DFC0C0"/>
<path d="M60.7964 5.9891C60.7964 5.9891 60.1825 0.190342 58.5539 1.05569C56.5286 2.13192 56.6177 5.86312 57.4692 7.54182C57.8482 8.66309 57.2315 9.5512 56.6882 10.3337C56.3138 10.8729 55.9743 11.3619 56.0193 11.8424C56.1098 12.8109 57.7071 12.8401 57.7071 12.8401C57.7071 12.8401 58.7773 12.9173 60.2758 11.8904C60.7131 11.7921 61.1273 11.8174 61.4581 11.8376C61.9237 11.8661 62.224 11.8844 62.1913 11.5339C62.1206 10.7778 61.895 10.4423 61.6321 10.0516C61.453 9.78515 61.2565 9.49308 61.0802 9.02454C60.7272 8.08643 60.7964 5.9891 60.7964 5.9891Z" fill="white"/>
<path d="M62.1636 13.1325C61.8545 12.4631 61.2219 12.3345 60.5172 12.5772C60.408 12.6148 60.2976 12.6665 60.1863 12.725C60.0903 12.7753 59.9938 12.8306 59.8967 12.8863C59.5694 13.0739 59.2364 13.2648 58.9051 13.2781C58.7685 13.2836 58.6291 13.2792 58.4886 13.2695C58.3296 13.2586 58.1691 13.241 58.0095 13.2235L58.0084 13.2233C57.3246 13.1483 56.6549 13.0748 56.1774 13.5333C55.5239 14.1609 54.9022 15.0534 55.7527 16.57C55.8619 16.7646 56.0656 16.9636 56.2641 17.1576C56.4643 17.3531 56.6591 17.5434 56.7459 17.7185C57.1342 18.501 57.0929 19.5063 57.0399 20.7948L57.04 20.7979C57.0209 21.2629 57.0002 21.7646 56.9978 22.306C56.9896 24.1112 56.7667 26.4278 56.2063 28.2484C54.8617 29.7772 55.3116 30.7993 56.4905 31.2881C57.1907 31.5783 58.382 31.7243 58.382 31.7243C58.382 31.7243 64.2557 31.716 64.0767 29.8019C63.9964 28.9436 63.625 28.3567 63.2252 27.7252C62.8699 27.164 62.4923 26.5675 62.2771 25.7138C61.96 24.4562 61.5363 22.561 61.4195 22.035C61.3986 21.9411 61.3821 21.8487 61.3708 21.7531C61.3083 21.2235 61.1152 19.3262 61.3781 17.9945C61.5036 17.3588 61.6483 17.0014 61.787 16.6587C61.9375 16.2869 62.081 15.9325 62.1852 15.2587L62.1933 15.2063C62.3189 14.3961 62.4265 13.7022 62.1636 13.1325Z" fill="white"/>
<path d="M5.76901 23.9064C4.14211 23.2242 4.74217 28.0814 4.74217 28.0814C4.74217 28.0814 5.76683 31.1831 5.6472 32.0758C5.62345 32.253 5.59754 32.4153 5.57116 32.568C5.55741 32.6476 5.54358 32.7245 5.52984 32.7996L5.50811 32.9178L5.50624 32.9284C5.39311 33.5419 5.29998 34.0465 5.37621 34.8616C5.48089 35.9812 8.56114 34.8182 8.56114 34.8182C8.56114 34.8182 9.96618 34.6867 9.88398 33.8077C9.84332 33.3729 9.51274 32.97 9.14729 32.5246C8.61401 31.8746 8.00633 31.134 8.11724 30.0712C8.49617 28.4396 8.53506 25.0663 5.76901 23.9064Z" fill="white"/>
<path d="M5.16362 36.3775C5.35543 35.6126 6.02276 35.6249 6.78663 35.6389C7.09981 35.6446 7.42919 35.6507 7.74875 35.6036C8.01268 35.5647 8.25368 35.4832 8.48228 35.4059C8.9621 35.2437 9.3875 35.0999 9.85632 35.4064C10.4121 35.7698 10.4079 36.441 10.4037 37.1147C10.4034 37.1742 10.4031 37.2338 10.4031 37.2931C10.4031 37.3567 10.4035 37.4202 10.4049 37.4833C10.4239 38.349 10.3964 39.0185 10.3717 39.6217L10.3718 39.6227C10.3257 40.7455 10.289 41.639 10.5797 43.142C10.877 44.6798 11.6848 46.4706 12.4549 47.9326C13.6304 49.2415 13.3605 49.7731 12.7016 50.5698C12.2825 51.0766 11.1603 51.2461 11.1603 51.2461C11.1603 51.2461 6.82623 52.2626 6.67095 50.6019C6.60128 49.857 6.82599 49.2876 7.06735 48.6762C7.28163 48.1332 7.50906 47.5569 7.5551 46.7948C7.63464 45.4798 7.59398 43.4214 7.59398 43.4214C7.59398 43.4214 7.42754 41.2197 6.9139 39.938C6.61591 39.1944 6.24605 38.7666 5.84729 38.3054C5.66252 38.0918 5.47153 37.8709 5.27871 37.6082C4.96216 37.1769 5.02304 36.9353 5.14861 36.4371L5.16362 36.3775Z" fill="white"/>
<path d="M48.8706 94.5386C48.8706 94.5386 48.0205 98.1351 46.6253 97.0546C45.1951 95.947 44.2463 94.7794 45.0342 93.3017C44.9778 92.6983 44.7259 92.474 44.5051 92.2773C44.2755 92.0728 44.0794 91.8981 44.1711 91.3584C44.2891 90.6634 45.4064 90.6747 45.8516 90.7075C45.8829 90.7097 45.9141 90.7105 45.9451 90.7097C45.9697 90.709 45.9943 90.7074 46.0187 90.7047C46.0817 90.6978 46.1439 90.6838 46.2043 90.6622C46.9196 90.4069 49.642 89.5243 49.7646 90.8351C49.8288 91.5225 49.7111 91.644 49.5153 91.8462C49.3824 91.9835 49.2134 92.1581 49.0409 92.5722C48.6945 93.4035 48.8706 94.5386 48.8706 94.5386Z" fill="white"/>
<path d="M19.077 73.3838C18.9175 74.4882 17.7575 74.4484 16.6 74.4087L16.599 74.4088L16.5979 74.4086C16.0667 74.3904 15.5361 74.3722 15.1033 74.465C14.6901 74.5535 14.2909 74.891 13.901 75.2206C13.3241 75.7084 12.7675 76.179 12.2161 75.7992C10.8908 74.8865 10.7111 73.0347 10.6087 71.8705C10.493 70.5539 10.4662 69.579 10.4425 68.713C10.4001 67.1652 10.3673 65.9651 9.85245 63.783C9.71904 63.2176 9.59417 62.5992 9.46443 61.9564C9.07443 60.0246 8.63981 57.8719 7.79484 56.2746L7.73957 56.1701C6.65489 54.1204 6.2531 53.3613 6.99463 52.1678C7.47418 51.3959 10.2568 52.0933 10.2568 52.0933C10.2568 52.0933 13.5596 49.9524 13.9264 52.4061C14.1818 54.1141 14.2072 56.2807 14.2312 58.3344L14.2311 58.3359L14.2314 58.339C14.2366 58.7823 14.2417 59.2204 14.2491 59.6474C14.2491 59.6474 14.8307 65.081 15.977 66.7572C16.5375 67.5768 16.9472 68.0285 17.3432 68.4652C17.6719 68.8278 17.9917 69.1806 18.3805 69.7246C18.8434 70.3723 19.1932 72.5779 19.077 73.3838Z" fill="white"/>
<path d="M29.2652 103.976C29.834 103.949 30.0725 103.938 30.7028 102.978C31.3233 102.033 31.7515 101.106 29.7319 98.2804C29.362 97.7627 28.4519 96.6162 27.4543 95.3596C26.1401 93.7043 24.6741 91.8576 24.0909 91.0047C22.9446 89.3286 20.5419 82.8235 20.5419 82.8235C20.5383 82.614 20.5362 82.4112 20.5349 82.2143C20.5339 82.0626 20.5334 81.9144 20.533 81.7693L20.5326 81.5276C20.53 79.8188 20.5279 78.5148 19.9829 76.8459C19.2127 74.4877 15.3122 74.7999 15.3122 74.7999C15.3122 74.7999 13.8157 75.6317 13.3361 76.4036C12.5822 77.6172 12.7287 78.1766 13.7636 80.9751C14.2742 82.3557 15.3609 83.6953 16.3951 84.9703C17.4571 86.2797 18.4639 87.5209 18.7346 88.6682C19.132 90.3522 19.7233 92.0084 20.3249 93.6935L20.3256 93.6958C20.9394 95.4149 21.5639 97.1641 22.0042 99.0033C22.0675 99.2679 22.1198 99.8109 22.1856 100.495C22.4026 102.752 22.7675 106.546 24.1655 106.959C24.7798 107.141 25.7155 106.25 26.5959 105.411C27.2569 104.781 27.8868 104.181 28.3262 104.087C28.732 104 29.0275 103.987 29.2652 103.976Z" fill="white"/>
<path d="M48.6825 66.0032C48.6825 66.0032 49.5711 69.8218 47.6842 69.8179C47.2924 69.8171 47.2763 69.6287 47.2449 69.2598C47.2134 68.8889 47.1664 68.3354 46.7063 67.6067C46.5353 67.336 46.2661 67.1894 45.9255 67.004C45.3436 66.6873 44.5533 66.2572 43.688 64.9006C42.5979 64.6772 42.131 64.5283 41.3448 63.32C40.5167 62.0472 39.809 59.2697 40.3904 58.798C40.7153 58.5343 41.0286 58.8178 41.5111 59.2547C41.7683 59.4875 42.0734 59.7638 42.454 60.0239C44.2761 60.5628 45.2364 61.3597 45.2364 61.3597C45.2364 61.3597 46.6078 62.9095 47.5413 63.2723C48.0098 63.4545 48.6013 63.3775 49.1931 63.3004C49.9946 63.1959 50.7967 63.0914 51.2953 63.6306C52.1358 64.5396 48.6825 66.0032 48.6825 66.0032Z" fill="white"/>
<path d="M58.0649 62.4035C56.8102 62.8412 55.6571 63.2436 55.2192 62.0219C54.8772 61.0674 54.661 57.7435 54.7261 56.7474L54.7389 56.5508C54.8782 54.4076 54.9952 52.6103 55.9234 50.6056C56.9918 48.2979 56.3803 42.2272 56.3803 42.2272C56.9296 38.6288 56.9337 37.2096 55.4155 33.8046C54.1631 30.9956 58.9887 32.2289 58.9887 32.2289C58.9887 32.2289 60.5693 32.081 61.7659 31.6144C62.343 31.638 62.6802 32.0307 62.9485 32.3432C63.0077 32.4121 63.0636 32.4772 63.118 32.5335C64.3262 33.7855 64.2639 34.1879 63.715 37.7307L63.6458 38.178C63.2224 40.9214 63.2068 42.3343 63.1895 43.9024L63.1896 43.9035L63.1895 43.9079C63.1819 44.6009 63.174 45.3246 63.1302 46.2071C63.0044 48.7445 63.4334 50.5296 63.9037 52.4869C64.2362 53.8704 64.5893 55.3399 64.7818 57.222C64.8059 57.4581 64.8436 57.7139 64.8832 57.9828C65.0854 59.3551 65.3378 61.0682 64.0996 62.2553C63.4436 62.8841 62.5863 62.5877 61.698 62.2804C61.1881 62.1041 60.6681 61.9242 60.1699 61.9136C59.5088 61.8996 58.7708 62.1571 58.0649 62.4035Z" fill="white"/>
<path d="M28.2434 67.2057C28.7873 67.0425 29.0975 66.6829 29.3927 66.3406C29.743 65.9343 30.0723 65.5524 30.7464 65.5527C31.6445 65.5532 32.1776 65.9481 32.7934 66.6027C33.3573 67.2022 33.4727 67.7714 33.6197 68.4967L33.6206 68.5008C33.6526 68.6585 33.686 68.8238 33.7261 68.9984C33.8943 69.7323 33.809 70.3325 33.7242 70.9304C33.6374 71.5421 33.5509 72.1514 33.7365 72.8991C33.9378 73.7102 34.2028 74.2071 34.5367 74.8333L34.5515 74.861C34.6055 74.9623 34.6612 75.067 34.7188 75.1771C34.7439 75.2251 34.7693 75.2741 34.7951 75.3242C34.8169 75.3666 34.8389 75.4099 34.8613 75.4542C35.1823 76.0906 35.881 76.7289 36.521 77.3135C37.542 78.2463 38.4135 79.0424 37.3634 79.4765C36.9179 79.6608 36.6158 79.6028 36.281 79.5387C36.0338 79.4914 35.7687 79.4406 35.415 79.4815C34.8909 79.542 34.4711 79.7571 34.0415 79.9774C33.7226 80.1407 33.3983 80.3069 33.022 80.4147C32.6121 80.5321 32.247 80.4898 31.8972 80.4493C31.4478 80.3972 31.0239 80.348 30.5631 80.6448C30.1828 80.8896 29.9618 81.246 29.7579 81.5747C29.5 81.9904 29.2695 82.3619 28.7792 82.4078C28.0405 82.4769 28.1208 81.0506 28.1208 81.0506C28.1208 81.0506 28.2045 79.6546 27.9328 78.5853L27.8937 78.4315C27.5161 76.9411 27.3067 76.1144 25.9904 74.8652C25.898 74.7776 25.8032 74.6892 25.7071 74.6005C25.6273 74.5268 25.5466 74.4528 25.4658 74.3787C25.3853 74.3049 25.3048 74.2311 25.2248 74.1571C25.0728 74.0168 24.9227 73.8764 24.7794 73.7371C24.2267 73.2 23.9858 72.7907 23.7368 72.0611C23.3555 70.9441 23.3397 70.1224 23.8086 69.0394C24.1452 68.2618 24.5114 68.0727 25.2375 67.6976L25.3163 67.6569C25.9057 67.3519 26.394 67.3532 26.9084 67.3546C27.316 67.3557 27.7399 67.3568 28.2434 67.2057Z" fill="white"/>
<path d="M30.5785 81.6876C29.379 82.6341 29.0227 84.3014 29.7303 85.6566L30.2334 86.6202C30.379 86.8992 30.5536 87.162 30.7541 87.4043L32.2875 89.2578C33.0491 90.1783 33.565 91.2773 33.7867 92.4517L34.4301 95.8593C34.4774 96.1095 34.5706 96.3489 34.7051 96.5651L34.7245 96.5961C35.2984 97.5188 36.4985 97.8218 37.4407 97.2819C37.5009 97.2475 37.5593 97.2099 37.6156 97.1695C37.6325 97.1573 37.6492 97.1448 37.6658 97.1321C37.6925 97.1116 37.7187 97.0904 37.7444 97.0686L38.7255 96.2347C39.0672 95.9443 39.4654 95.7279 39.8949 95.5993L40.4516 95.4327C40.7855 95.3327 41.0764 95.1235 41.2776 94.8386C41.655 94.3043 41.659 93.591 41.2878 93.0523L39.0359 89.7838L38.0848 86.4277C37.8397 85.5632 37.7617 84.6598 37.855 83.7661L37.9941 82.4325L38.0212 81.5599C38.0515 80.5817 37.1246 79.8551 36.1833 80.119L34.1499 80.7277C33.783 80.8376 33.4062 80.9109 33.0249 80.9465L32.2488 81.0191C31.6392 81.0761 31.0592 81.3083 30.5785 81.6876Z" fill="white"/>
<path d="M64.5575 84.3794C63.8551 83.4351 64.4551 82.0853 65.6261 81.9757C66.149 81.9268 66.6087 81.609 66.8396 81.1369L67.5708 79.6418C67.9019 78.9646 68.5613 78.5088 69.3113 78.4387C69.6714 78.405 70.0343 78.4623 70.3668 78.6053L71.1327 78.9351C71.6244 79.1468 72.0327 79.5145 72.2946 79.9817C72.5826 80.4952 72.6753 81.0956 72.5554 81.6721L72.3163 82.8222C72.2738 83.0265 72.2133 83.2267 72.1356 83.4204L67.5966 94.7178C67.4442 95.0975 67.3587 95.5008 67.3442 95.9098L67.0512 104.149C67.0336 104.645 66.9119 105.131 66.6942 105.576L66.0782 106.836C65.6502 107.711 65.7111 108.747 66.2387 109.566C67.1914 111.044 66.5505 113.025 64.913 113.664L64.0461 114.002C63.5527 114.194 63.109 114.495 62.7478 114.883L61.615 116.098C60.9141 116.85 59.7711 116.98 58.9188 116.406C58.5298 116.144 58.2402 115.759 58.0962 115.312L57.5459 113.604C57.4057 113.169 57.0477 112.839 56.6028 112.736C56.0577 112.609 55.6548 112.147 55.6026 111.589L55.5417 110.938C55.4991 110.482 55.5988 110.025 55.8271 109.628L58.0674 105.739L60.0823 100.762L64.0754 93.1559C64.2199 92.8809 64.3273 92.5879 64.3952 92.2847L65.5794 86.9904C65.7145 86.3866 65.5799 85.7538 65.2106 85.2574L64.5575 84.3794Z" fill="white"/>
<path d="M50.4454 65.4834C49.4918 65.5726 48.8321 66.4784 49.039 67.4146L49.1758 68.034C49.2335 68.2958 49.2348 68.5676 49.1792 68.8298L49.0335 69.5151C48.8427 70.4137 49.5771 71.2399 50.4908 71.1544C50.666 71.138 50.8428 71.1558 51.0112 71.2068L55.0644 72.4338C55.4708 72.5569 55.8517 72.7523 56.1888 73.0108L60.1331 76.0356C60.5917 76.3875 60.9577 76.8472 61.1975 77.3734L62.3833 79.975C62.5364 80.3109 62.7549 80.6127 63.0261 80.863L63.4178 81.2245C63.9902 81.7527 64.8209 81.891 65.5333 81.5769C66.0819 81.335 66.4894 80.8545 66.6391 80.2734L66.9183 79.1888C67.2636 77.8477 68.7137 77.1221 69.9927 77.6503L70.5769 77.8916C70.8882 78.0198 71.243 77.9906 71.5288 77.8125C71.8442 77.616 72.0301 77.2681 72.0217 76.8999C72.0213 76.886 72.0207 76.8721 72.0198 76.8582L72.019 76.8463L72.0174 76.826L71.9397 75.9959C71.9149 75.7304 71.8459 75.4711 71.736 75.2287L71.7249 75.2048L71.7161 75.1859L71.7033 75.1595L71.6864 75.1259L71.6424 75.0399C71.2539 74.2815 70.5516 73.7327 69.7223 73.5396L68.0543 73.1512C67.865 73.1071 67.6724 73.0787 67.4785 73.0664L65.1814 72.9204C64.7218 72.8912 64.2731 72.7722 63.8601 72.571C63.8011 72.5422 63.7428 72.5118 63.6854 72.4797L61.3926 71.1986L56.5512 68.1887C56.1465 67.9371 55.798 67.6046 55.5276 67.212L54.0991 65.1386C53.5706 64.3717 52.4678 64.2936 51.837 64.9786C51.6091 65.226 51.3031 65.3861 50.9716 65.4326L50.9486 65.4356C50.934 65.4374 50.9195 65.439 50.9049 65.4404L50.4454 65.4834Z" fill="white"/>
<path d="M61.7939 69.7493C61.6725 69.9993 61.5521 70.2589 61.475 70.4184L59.84 69.7477L57.2328 68.3955C56.9106 68.1951 56.0708 67.2407 55.8555 66.9282L55.6911 65.17C56.5981 63.1137 59.1988 62.8908 59.1988 62.8908C59.1988 62.8908 62.3974 62.6622 63.0185 63.9523C63.7304 65.4308 63.9341 66.1726 62.0899 69.1825C62.0102 69.3126 61.9017 69.5271 61.7939 69.7493Z" fill="white"/>
<path d="M52.8702 101.314C54.2339 102.593 54.5745 102.764 56.1907 102.722C57.3936 102.691 59.2722 100.992 59.5914 99.7434C59.3893 97.5836 59.2018 96.6211 58.8354 94.742L58.7879 94.498C58.7314 94.2078 58.7492 93.035 58.7633 92.1044C58.7723 91.5053 58.7799 91.0067 58.7651 90.9083C58.771 90.8053 58.7765 90.7048 58.7815 90.6065C58.7868 90.5031 58.7917 90.4021 58.7962 90.3035C58.8016 90.184 58.8065 90.068 58.811 89.9551C58.825 89.6027 58.8346 89.2808 58.8428 88.9798L58.8495 88.7303C58.8827 87.4849 58.907 86.575 59.1624 85.2407C59.4457 83.7608 59.7317 81.5787 59.7233 79.8675C59.7216 79.515 59.7881 79.2387 59.8596 78.9422C59.9653 78.5034 60.0817 78.0204 60.0032 77.1812C60.0032 77.1812 59.316 76.3498 58.8179 75.8733C57.8293 74.9275 57.2521 74.3095 55.9698 73.8342C55.3569 73.607 54.3398 73.4546 54.3398 73.4546C54.7127 75.5479 54.9237 86.0902 54.1237 88.195C53.7436 89.1949 52.9304 92.0747 52.5757 93.9514L52.5755 93.9524L52.5751 93.954C52.2379 95.7383 51.9136 97.4545 51.6046 98.2195C51.2622 99.0672 51.9232 100.427 52.8702 101.314Z" fill="white"/>
<path d="M39.8324 106.493C39.6572 105.944 40.1765 105.428 40.7235 105.607L42.1216 106.064C43.8976 106.645 45.8312 106.497 47.4982 105.652L49.2705 104.754C49.7794 104.497 50.3677 104.918 50.2879 105.483L49.6701 109.859C49.5008 111.058 49.6611 112.281 50.1337 113.395L50.3346 113.869C50.7681 114.891 50.8579 116.027 50.5906 117.105L50.5431 117.297C50.2597 118.439 49.5516 119.431 48.5632 120.069L48.4073 120.17C46.9089 121.137 44.9723 121.09 43.5219 120.052L43.3454 119.925C43.1669 119.798 42.9733 119.693 42.7688 119.613C41.6517 119.179 40.9704 118.042 41.1134 116.851L41.4926 113.693C41.6076 112.735 41.5152 111.763 41.2216 110.843L39.8324 106.493Z" fill="white"/>
<path d="M32.9081 102.686C32.45 102.151 31.6065 102.204 31.2196 102.793L30.7039 103.579C30.3304 104.148 29.8006 104.596 29.1784 104.871L28.3621 105.231C28.181 105.31 28.0069 105.406 27.8417 105.515L26.5631 106.359C25.9393 106.771 25.5094 107.419 25.3719 108.154L25.3105 108.483C25.1874 109.141 25.3856 109.819 25.844 110.308C26.2561 110.747 26.8365 110.987 27.4379 110.969L28.0295 110.951C28.8602 110.925 29.6716 111.204 30.3115 111.735L32.359 113.434C32.6352 113.663 32.8749 113.933 33.0698 114.235L34.461 116.388C34.9733 117.18 35.7812 117.735 36.7044 117.927L37.6105 118.116L38.2201 118.169C39.053 118.241 39.8571 117.845 40.3067 117.139C40.5354 116.78 40.6574 116.364 40.6588 115.938L40.67 112.345C40.6726 111.515 40.529 110.691 40.2458 109.911L39.5951 108.118C39.3646 107.483 38.9569 106.927 38.4202 106.517L37.204 105.587C36.9109 105.363 36.5844 105.186 36.2366 105.063L35.2715 104.722C34.6873 104.516 34.1677 104.159 33.7648 103.688L32.9081 102.686Z" fill="white"/>
<path d="M24.0456 113.596C24.5725 112.238 25.9086 111.37 27.3627 111.441L27.6657 111.455C28.3192 111.487 28.9511 111.7 29.4905 112.071L30.9373 113.065L32.4737 114.34C32.8537 114.655 33.1634 115.047 33.3828 115.49L33.6466 116.022C33.9689 116.673 34.0832 117.407 33.9736 118.125L33.9523 118.264C33.8605 118.865 33.6155 119.432 33.2409 119.91L31.8078 121.739C31.3109 122.373 30.4478 122.59 29.7106 122.266L28.1324 121.572C27.8045 121.428 27.5004 121.235 27.2307 120.999L25.1037 119.14C24.3805 118.508 23.9459 117.608 23.8999 116.648L23.8202 114.984C23.7975 114.511 23.8743 114.038 24.0456 113.596Z" fill="white"/>
<path d="M36.1608 118.159C35.3676 117.682 34.343 118.153 34.1889 119.067C34.1017 119.583 33.8323 120.052 33.4296 120.387L32.6085 121.07C31.7449 121.788 31.7628 123.121 32.6455 123.816L33.7915 124.718C34.4159 125.21 35.1876 125.476 35.9819 125.474L38.2428 125.468C38.5148 125.468 38.786 125.498 39.0511 125.56L41.3968 126.106C41.734 126.185 42.0863 126.17 42.4159 126.064C43.0625 125.855 43.5497 125.319 43.6955 124.654L44.1053 122.788C44.311 121.852 43.8624 120.893 43.0116 120.452L41.8473 119.848L41.2808 118.937C41.0064 118.496 40.4528 118.319 39.9739 118.52L39.4796 118.727C38.5978 119.096 37.593 119.022 36.7739 118.529L36.1608 118.159Z" fill="white"/>
<path d="M51.4795 115.935C51.5059 115.65 51.7781 115.453 52.0572 115.518C52.7359 115.676 53.4463 115.448 53.906 114.924L54.7387 113.975C55.3323 113.298 56.4313 113.492 56.758 114.331L57.0709 115.135C57.3152 115.762 57.6678 116.342 58.1126 116.848L58.3538 117.122C58.7553 117.578 58.8201 118.241 58.5146 118.766L58.2669 119.192C57.7615 120.062 57.0762 120.813 56.2571 121.396L54.3439 122.758L50.2932 124.91L48.1916 126.276C47.348 126.824 46.2516 126.784 45.4499 126.176C44.8504 125.72 44.5002 125.009 44.5049 124.256L44.5093 123.564C44.5153 122.615 45.2253 121.818 46.1668 121.704L46.8074 121.627C49.2546 121.331 51.1633 119.366 51.3898 116.909L51.4795 115.935Z" fill="white"/>
<path d="M51.9745 100.924C51.5977 100.574 50.986 100.732 50.8248 101.22L50.5374 102.091C50.3193 102.752 50.3012 103.463 50.4853 104.134L50.7785 105.203C50.93 105.755 50.9451 106.337 50.8222 106.896L50.1564 109.928C50.0631 110.353 50.049 110.791 50.1148 111.221L50.3375 112.676C50.4226 113.232 50.7231 113.731 51.1738 114.067C51.8946 114.604 52.8739 114.632 53.6237 114.136L53.8533 113.985C54.5 113.558 54.9152 112.857 54.9798 112.084L55.2247 109.15C55.2711 108.594 55.4489 108.056 55.7432 107.582L57.9329 104.052C58.2406 103.556 57.8484 102.921 57.2677 102.976L54.4673 103.238L51.9745 100.924Z" fill="white"/>
<path d="M35.9917 98.9035C35.8599 98.4753 36.1546 98.0342 36.6002 97.9925L36.7332 97.98C37.1151 97.9443 37.4803 97.8053 37.7894 97.578L39.9241 96.0079C40.4519 95.6197 41.1775 96.0984 41.0292 96.7372L40.9746 96.972C40.88 97.3794 40.908 97.8058 41.0551 98.1974L41.0891 98.288C41.3787 99.0593 41.3899 99.9076 41.1206 100.686L40.3879 102.805C40.2549 103.189 39.8258 103.382 39.4505 103.226L37.9275 102.593C37.3457 102.351 36.9017 101.862 36.7163 101.259L35.9917 98.9035Z" fill="white"/>
<path d="M30.1341 87.4242L30.843 95.0053C30.8744 95.3412 30.8576 95.6798 30.7931 96.0108L30.5228 97.3971C30.3733 98.1641 30.4915 98.9594 30.8577 99.6497L30.9173 99.7622C31.2099 100.314 31.6667 100.761 32.2243 101.041C32.6387 101.249 32.9994 101.551 33.2782 101.922L33.9092 102.761C34.2787 103.253 34.7703 103.64 35.335 103.883L36.3724 104.33C36.4598 104.367 36.544 104.412 36.6243 104.463L37.869 105.258C38.0789 105.392 38.3366 105.428 38.575 105.357L38.9012 105.259C39.3672 105.119 39.5199 104.535 39.1821 104.185C39.1529 104.155 39.1209 104.128 39.0865 104.104L37.5655 103.042C36.9847 102.636 36.5392 102.065 36.287 101.403L35.6216 99.6558C35.5866 99.564 35.5478 99.4737 35.5054 99.3852C35.4857 99.3443 35.4653 99.3036 35.4441 99.2635C35.4053 99.1899 35.3638 99.1178 35.3199 99.0471L34.249 97.3257L33.4692 95.6516C33.2528 95.1871 33.14 94.6809 33.1386 94.1684L33.1336 92.313C33.1315 91.4937 32.8448 90.7006 32.3227 90.0696L30.1341 87.4242Z" fill="white"/>
<path d="M25.0536 74.7755L27.188 77.4107C27.3635 77.6274 27.471 77.8912 27.4969 78.1689L27.7037 80.3802L26.1784 77.3306L25.0536 74.7755Z" fill="white"/>
<path d="M37.9493 61.6988C37.492 61.9393 37.2751 62.4752 37.436 62.9665L38.2372 65.413C38.3432 65.7367 38.4955 66.0434 38.6893 66.3235L39.8885 68.057C40.1216 68.3939 40.2944 68.7689 40.399 69.1651L40.9477 71.2425C40.9793 71.3622 41.0045 71.4834 41.0234 71.6055C41.0505 71.7808 41.0644 71.9581 41.0648 72.1358L41.0672 73.0226C41.0683 73.4259 41.0004 73.8264 40.8664 74.2066L40.3734 75.6058C40.2782 75.8761 40.2426 76.164 40.2693 76.4495C40.3623 77.4434 41.1793 78.2131 42.1761 78.2455L42.3323 78.2506C42.6031 78.2594 42.8732 78.217 43.1283 78.1257L46.2226 77.0183C46.8603 76.7902 47.5501 76.7505 48.2096 76.9041L49.0394 77.0973C49.4853 77.2012 49.9104 76.8589 49.9047 76.4006L49.9016 76.156C49.893 75.4749 49.6878 74.8108 49.3107 74.2436L48.7697 73.4297C48.5548 73.1067 48.3948 72.7505 48.2957 72.3755L48.0623 71.4915C47.9529 71.0773 47.7691 70.6864 47.5199 70.3381L46.6219 69.0825C46.5791 69.0227 46.5382 68.9616 46.4993 68.8992C46.4462 68.8143 46.3967 68.7271 46.3511 68.638L46.3417 68.6197C46.1401 68.2261 45.8664 67.8739 45.535 67.5815L43.2783 65.5903C43.0583 65.3963 42.815 65.2305 42.5541 65.0966L42.2726 64.9522C41.3975 64.5033 40.7492 63.7093 40.4839 62.7616L40.3679 62.3471L40.1187 61.071C40.0735 60.8389 39.8175 60.7161 39.6084 60.826L37.9493 61.6988Z" fill="white"/>
<path d="M41.3166 80.4478C40.8667 79.6612 41.4408 78.6831 42.3462 78.6937L43.2375 78.7042C43.5209 78.7075 43.8007 78.639 44.0506 78.505L45.9455 77.489C46.5434 77.1684 47.2397 77.0836 47.8971 77.2515L48.2357 77.3381C48.9661 77.5246 49.5415 78.0873 49.7448 78.8138C49.8764 79.2838 49.8411 79.7849 49.6451 80.2317L49.4762 80.6165C49.3057 81.0052 49.2121 81.4234 49.2005 81.8478L49.0891 85.9337C49.069 86.672 49.2952 87.3958 49.7321 87.991L50.1176 88.5162C50.2214 88.6575 50.2849 88.8245 50.3012 88.9992L50.3161 89.1587C50.3576 89.6028 50.0316 89.9966 49.5879 90.0381C49.5736 90.0395 49.5594 90.0404 49.5451 90.0409C49.5327 90.0414 49.5203 90.0416 49.5078 90.0415C49.4846 90.0415 49.4615 90.0403 49.4385 90.0382L47.3025 89.8406C46.8737 89.8008 46.4412 89.8402 46.0264 89.9564L44.9613 90.255C44.8251 90.2932 44.6824 90.3018 44.5427 90.2804C43.9136 90.1841 43.5352 89.5294 43.7656 88.9356L44.0111 88.3026C44.117 88.0294 44.1429 87.7318 44.0859 87.4444L43.3338 83.6612C43.2258 83.1181 42.9918 82.608 42.6506 82.172L41.4111 80.5885C41.4003 80.5747 41.3898 80.5606 41.3796 80.5463C41.3735 80.5378 41.3675 80.5292 41.3617 80.5204L41.3481 80.4998C41.3402 80.4875 41.3325 80.475 41.3251 80.4624L41.3166 80.4478Z" fill="white"/>
<path d="M39.1276 68.0705L38.0623 66.1098L38.4558 67.7532C38.5764 68.2571 38.4985 68.7882 38.2382 69.236C38.0068 69.6341 37.9186 70.0994 37.9884 70.5547L38.226 72.107C38.2984 72.5798 38.466 73.0329 38.7186 73.439L40.0038 75.5051L40.3298 73.9371C40.437 73.4214 40.4276 72.8884 40.3023 72.3768L39.4551 68.9172C39.3829 68.622 39.2728 68.3375 39.1276 68.0705Z" fill="white"/>
<path d="M44.2101 59.8594L45.352 59.6696C46.1481 59.5374 46.9502 59.8698 47.42 60.5267L47.746 60.9825C47.9643 61.2876 48.0976 61.6452 48.1325 62.0187L48.1843 62.5721C48.2101 62.8482 47.9224 63.045 47.6747 62.9205L47.2445 62.7042C46.9243 62.5433 46.6501 62.3035 46.4477 62.0076L45.9386 61.2632C45.8007 61.0617 45.6291 60.8855 45.4314 60.7425L44.2101 59.8594Z" fill="white"/>
<path d="M42.5208 83.6131L41.4574 81.5765L42.2282 85.2285C42.3501 85.8061 42.3992 86.3967 42.3743 86.9865L42.2466 90.0155L41.5709 94.1578L41.4992 97.1795L41.5883 99.3687C41.6199 100.142 41.5242 100.915 41.3052 101.657L40.8997 103.032C40.8745 103.117 40.8552 103.204 40.842 103.292C40.8303 103.368 40.8234 103.445 40.8209 103.523C40.7986 104.244 41.1765 104.918 41.8029 105.275L42.0942 105.441C42.4627 105.651 42.8784 105.764 43.3024 105.769L44.6592 105.785C45.5577 105.795 46.446 105.594 47.2521 105.197C48.7331 104.468 49.8272 103.134 50.2537 101.538L50.3868 101.04C50.7189 99.7971 50.6953 98.4857 50.3187 97.2554L49.6886 95.1973C49.602 94.9142 49.1957 94.932 49.1342 95.2216L48.8795 96.4206C48.7948 96.8189 48.5872 97.1805 48.2859 97.4541C47.7655 97.9267 47.0302 98.0804 46.3642 97.8557L46.1921 97.7976C45.9306 97.7094 45.6875 97.5738 45.4751 97.3975L45.3209 97.2696C44.6415 96.7058 44.2137 95.8951 44.1315 95.0157L44.0078 93.6931C43.9677 93.2646 43.8855 92.841 43.7622 92.4285L43.5155 91.6031C43.2895 90.8469 43.1917 90.0582 43.2262 89.2696L43.3168 87.194C43.3712 85.951 43.0966 84.7158 42.5208 83.6131Z" fill="white"/>
<path d="M80.3091 203.272C80.3091 203.272 79.6952 197.473 78.0666 198.339C76.0413 199.415 76.1304 203.146 76.9819 204.825C77.3608 205.946 76.7442 206.834 76.2009 207.617C75.8265 208.156 75.487 208.645 75.532 209.125C75.6225 210.094 77.2198 210.123 77.2198 210.123C77.2198 210.123 78.29 210.2 79.7885 209.173C80.2258 209.075 80.64 209.1 80.9708 209.12C81.4364 209.149 81.7367 209.167 81.704 208.817C81.6333 208.061 81.4077 207.725 81.1448 207.334C80.9657 207.068 80.7692 206.776 80.5929 206.307C80.2399 205.369 80.3091 203.272 80.3091 203.272Z" fill="#EDDFDF"/>
<path d="M81.6763 210.415C81.3672 209.746 80.7346 209.617 80.0299 209.86C79.9207 209.898 79.8103 209.949 79.6989 210.008C79.603 210.058 79.5065 210.113 79.4094 210.169C79.0821 210.357 78.7491 210.548 78.4178 210.561C78.2812 210.566 78.1418 210.562 78.0013 210.552C77.8423 210.541 77.6818 210.524 77.5222 210.506L77.5211 210.506C76.8373 210.431 76.1676 210.358 75.6901 210.816C75.0366 211.444 74.4149 212.336 75.2654 213.853C75.3746 214.047 75.5783 214.246 75.7768 214.44C75.977 214.636 76.1718 214.826 76.2586 215.001C76.6469 215.784 76.6056 216.789 76.5526 218.078L76.5527 218.081C76.5336 218.546 76.5129 219.047 76.5104 219.589C76.5023 221.394 76.2794 223.711 75.719 225.531C74.3744 227.06 74.8243 228.082 76.0032 228.571C76.7034 228.861 77.8947 229.007 77.8947 229.007C77.8947 229.007 83.7684 228.999 83.5894 227.085C83.5091 226.226 83.1376 225.64 82.7379 225.008C82.3826 224.447 82.005 223.85 81.7898 222.997C81.4727 221.739 81.049 219.844 80.9322 219.318C80.9113 219.224 80.8948 219.132 80.8835 219.036C80.821 218.506 80.6279 216.609 80.8908 215.277C81.0163 214.642 81.161 214.284 81.2997 213.942C81.4502 213.57 81.5937 213.215 81.6979 212.542L81.706 212.489C81.8316 211.679 81.9392 210.985 81.6763 210.415Z" fill="#EDDFDF"/>
<path d="M25.2817 221.189C23.6548 220.507 24.2549 225.364 24.2549 225.364C24.2549 225.364 25.2795 228.466 25.1599 229.359C25.1361 229.536 25.1102 229.698 25.0839 229.851C25.0701 229.93 25.0563 230.007 25.0425 230.082L25.0208 230.201L25.0189 230.211C24.9058 230.825 24.8127 231.329 24.8889 232.144C24.9936 233.264 28.0738 232.101 28.0738 232.101C28.0738 232.101 29.4789 231.97 29.3967 231.091C29.356 230.656 29.0254 230.253 28.66 229.807C28.1267 229.157 27.519 228.417 27.6299 227.354C28.0089 225.722 28.0478 222.349 25.2817 221.189Z" fill="#EDDFDF"/>
<path d="M24.6763 233.66C24.8681 232.895 25.5355 232.908 26.2993 232.922C26.6125 232.927 26.9419 232.934 27.2614 232.886C27.5254 232.848 27.7664 232.766 27.995 232.689C28.4748 232.527 28.9002 232.383 29.369 232.689C29.9248 233.053 29.9206 233.724 29.9164 234.398C29.9161 234.457 29.9158 234.517 29.9158 234.576C29.9158 234.64 29.9162 234.703 29.9176 234.766C29.9366 235.632 29.9091 236.301 29.8844 236.905L29.8845 236.906C29.8384 238.028 29.8017 238.922 30.0924 240.425C30.3896 241.963 31.1975 243.753 31.9676 245.215C33.1431 246.524 32.8732 247.056 32.2143 247.853C31.7952 248.359 30.673 248.529 30.673 248.529C30.673 248.529 26.3389 249.545 26.1836 247.885C26.114 247.14 26.3387 246.57 26.58 245.959C26.7943 245.416 27.0218 244.84 27.0678 244.078C27.1473 242.763 27.1067 240.704 27.1067 240.704C27.1067 240.704 26.9402 238.503 26.4266 237.221C26.1286 236.477 25.7587 236.049 25.36 235.588C25.1752 235.375 24.9842 235.154 24.7914 234.891C24.4749 234.46 24.5357 234.218 24.6613 233.72L24.6763 233.66Z" fill="#EDDFDF"/>
<path d="M68.3833 291.821C68.3833 291.821 67.5332 295.418 66.138 294.337C64.7078 293.23 63.759 292.062 64.5469 290.585C64.4905 289.981 64.2386 289.757 64.0178 289.56C63.7882 289.356 63.5921 289.181 63.6838 288.641C63.8018 287.946 64.9191 287.958 65.3643 287.99C65.3955 287.993 65.4268 287.993 65.4578 287.993C65.4824 287.992 65.507 287.99 65.5314 287.988C65.5944 287.981 65.6566 287.967 65.717 287.945C66.4323 287.69 69.1547 286.807 69.2773 288.118C69.3414 288.805 69.2238 288.927 69.028 289.129C68.8951 289.266 68.7261 289.441 68.5536 289.855C68.2072 290.686 68.3833 291.821 68.3833 291.821Z" fill="#EDDFDF"/>
<path d="M38.5897 270.667C38.4302 271.771 37.2702 271.731 36.1127 271.691L36.1117 271.692L36.1106 271.691C35.5794 271.673 35.0488 271.655 34.616 271.748C34.2028 271.836 33.8036 272.174 33.4137 272.503C32.8368 272.991 32.2802 273.462 31.7288 273.082C30.4035 272.169 30.2238 270.318 30.1214 269.153C30.0057 267.837 29.9789 266.862 29.9552 265.996C29.9128 264.448 29.88 263.248 29.3651 261.066C29.2317 260.5 29.1069 259.882 28.9771 259.239C28.5871 257.307 28.1525 255.155 27.3075 253.557L27.2523 253.453C26.1676 251.403 25.7658 250.644 26.5073 249.451C26.9869 248.679 29.7695 249.376 29.7695 249.376C29.7695 249.376 33.0723 247.235 33.4391 249.689C33.6945 251.397 33.7198 253.564 33.7439 255.617L33.7438 255.619L33.7441 255.622C33.7493 256.065 33.7544 256.503 33.7618 256.93C33.7618 256.93 34.3434 262.364 35.4897 264.04C36.0502 264.86 36.4599 265.311 36.8559 265.748C37.1846 266.111 37.5044 266.463 37.8932 267.007C38.3561 267.655 38.7059 269.861 38.5897 270.667Z" fill="#EDDFDF"/>
<path d="M48.7779 301.258C49.3467 301.232 49.5852 301.221 50.2155 300.261C50.836 299.316 51.2642 298.389 49.2446 295.563C48.8747 295.046 47.9646 293.899 46.967 292.642C45.6528 290.987 44.1868 289.14 43.6036 288.288C42.4573 286.611 40.0546 280.106 40.0546 280.106C40.051 279.897 40.0489 279.694 40.0476 279.497C40.0466 279.345 40.0461 279.197 40.0457 279.052L40.0453 278.81C40.0427 277.102 40.0406 275.798 39.4956 274.129C38.7254 271.771 34.8249 272.083 34.8249 272.083C34.8249 272.083 33.3284 272.914 32.8488 273.686C32.0949 274.9 32.2414 275.459 33.2763 278.258C33.7869 279.638 34.8735 280.978 35.9078 282.253C36.9698 283.563 37.9766 284.804 38.2473 285.951C38.6447 287.635 39.236 289.291 39.8376 290.976L39.8383 290.979C40.4521 292.698 41.0766 294.447 41.5169 296.286C41.5802 296.551 41.6325 297.094 41.6983 297.778C41.9153 300.035 42.2802 303.828 43.6782 304.242C44.2925 304.424 45.2282 303.533 46.1086 302.694C46.7696 302.064 47.3995 301.464 47.8389 301.37C48.2447 301.283 48.5402 301.269 48.7779 301.258Z" fill="#EDDFDF"/>
<path d="M68.1952 263.286C68.1952 263.286 69.0838 267.105 67.1968 267.101C66.8051 267.1 66.789 266.912 66.7576 266.543C66.7261 266.172 66.6791 265.618 66.2189 264.89C66.048 264.619 65.7788 264.472 65.4382 264.287C64.8563 263.97 64.066 263.54 63.2007 262.183C62.1106 261.96 61.6437 261.811 60.8575 260.603C60.0294 259.33 59.3217 256.553 59.9031 256.081C60.228 255.817 60.5413 256.101 61.0238 256.538C61.281 256.77 61.5861 257.047 61.9667 257.307C63.7888 257.846 64.7491 258.643 64.7491 258.643C64.7491 258.643 66.1204 260.192 67.054 260.555C67.5225 260.737 68.114 260.66 68.7058 260.583C69.5073 260.479 70.3094 260.374 70.808 260.913C71.6485 261.822 68.1952 263.286 68.1952 263.286Z" fill="#EDDFDF"/>
<path d="M77.5776 259.686C76.3229 260.124 75.1698 260.526 74.7319 259.305C74.3899 258.35 74.1737 255.026 74.2388 254.03L74.2516 253.834C74.3909 251.69 74.5079 249.893 75.436 247.888C76.5045 245.581 75.893 239.51 75.893 239.51C76.4423 235.912 76.4464 234.492 74.9282 231.087C73.6758 228.278 78.5014 229.512 78.5014 229.512C78.5014 229.512 80.082 229.364 81.2786 228.897C81.8557 228.921 82.1929 229.313 82.4612 229.626C82.5204 229.695 82.5763 229.76 82.6307 229.816C83.8389 231.068 83.7766 231.471 83.2277 235.014L83.1585 235.461C82.7351 238.204 82.7195 239.617 82.7022 241.185L82.7023 241.186L82.7022 241.191C82.6946 241.884 82.6867 242.607 82.6429 243.49C82.5171 246.027 82.9461 247.812 83.4164 249.77C83.7489 251.153 84.102 252.623 84.2945 254.505C84.3186 254.741 84.3563 254.997 84.3959 255.266C84.5981 256.638 84.8505 258.351 83.6123 259.538C82.9563 260.167 82.099 259.871 81.2107 259.563C80.7008 259.387 80.1808 259.207 79.6826 259.196C79.0215 259.182 78.2835 259.44 77.5776 259.686Z" fill="#EDDFDF"/>
<path d="M47.7561 264.489C48.3 264.325 48.6102 263.966 48.9053 263.623C49.2557 263.217 49.585 262.835 50.259 262.836C51.1572 262.836 51.6902 263.231 52.3061 263.886C52.87 264.485 52.9853 265.054 53.1324 265.78L53.1333 265.784C53.1653 265.941 53.1987 266.107 53.2388 266.281C53.407 267.015 53.3217 267.615 53.2369 268.213C53.1501 268.825 53.0636 269.434 53.2492 270.182C53.4505 270.993 53.7155 271.49 54.0494 272.116L54.0642 272.144C54.1182 272.245 54.1739 272.35 54.2315 272.46C54.2566 272.508 54.282 272.557 54.3078 272.607C54.3296 272.649 54.3516 272.693 54.3739 272.737C54.695 273.373 55.3937 274.012 56.0337 274.596C57.0546 275.529 57.9262 276.325 56.8761 276.759C56.4306 276.944 56.1285 276.886 55.7937 276.822C55.5465 276.774 55.2814 276.723 54.9277 276.764C54.4036 276.825 53.9838 277.04 53.5542 277.26C53.2353 277.424 52.911 277.59 52.5347 277.698C52.1248 277.815 51.7597 277.773 51.4099 277.732C50.9605 277.68 50.5366 277.631 50.0758 277.928C49.6955 278.172 49.4745 278.529 49.2706 278.858C49.0127 279.273 48.7822 279.645 48.2919 279.691C47.5532 279.76 47.6334 278.333 47.6334 278.333C47.6334 278.333 47.7172 276.937 47.4455 275.868L47.4064 275.714C47.0288 274.224 46.8194 273.397 45.5031 272.148C45.4107 272.06 45.3159 271.972 45.2198 271.883C45.14 271.81 45.0593 271.736 44.9784 271.662C44.898 271.588 44.8175 271.514 44.7375 271.44C44.5855 271.3 44.4354 271.159 44.292 271.02C43.7394 270.483 43.4985 270.074 43.2495 269.344C42.8682 268.227 42.8524 267.405 43.3213 266.322C43.6579 265.545 44.0241 265.356 44.7502 264.98L44.829 264.94C45.4184 264.635 45.9067 264.636 46.4211 264.637C46.8287 264.639 47.2526 264.64 47.7561 264.489Z" fill="#EDDFDF"/>
<path d="M50.0912 278.97C48.8917 279.917 48.5354 281.584 49.243 282.939L49.7461 283.903C49.8917 284.182 50.0663 284.445 50.2668 284.687L51.8002 286.541C52.5618 287.461 53.0777 288.56 53.2994 289.734L53.9428 293.142C53.9901 293.392 54.0833 293.632 54.2178 293.848L54.2372 293.879C54.8111 294.802 56.0112 295.105 56.9534 294.565C57.0136 294.53 57.072 294.493 57.1283 294.452C57.1452 294.44 57.1619 294.428 57.1784 294.415C57.2052 294.394 57.2314 294.373 57.2571 294.351L58.2382 293.518C58.5799 293.227 58.9781 293.011 59.4076 292.882L59.9643 292.716C60.2982 292.616 60.5891 292.406 60.7903 292.121C61.1677 291.587 61.1717 290.874 60.8005 290.335L58.5486 287.067L57.5975 283.711C57.3524 282.846 57.2744 281.943 57.3677 281.049L57.5068 279.715L57.5339 278.843C57.5642 277.865 56.6373 277.138 55.696 277.402L53.6626 278.011C53.2957 278.12 52.9189 278.194 52.5376 278.229L51.7615 278.302C51.1519 278.359 50.5719 278.591 50.0912 278.97Z" fill="#EDDFDF"/>
<path d="M84.0702 281.662C83.3678 280.718 83.9678 279.368 85.1388 279.259C85.6617 279.21 86.1214 278.892 86.3523 278.42L87.0835 276.925C87.4146 276.247 88.074 275.792 88.824 275.721C89.1841 275.688 89.547 275.745 89.8794 275.888L90.6454 276.218C91.1371 276.43 91.5454 276.797 91.8073 277.265C92.0953 277.778 92.188 278.378 92.0681 278.955L91.829 280.105C91.7865 280.309 91.726 280.51 91.6483 280.703L87.1093 292.001C86.9569 292.38 86.8714 292.784 86.8569 293.193L86.5639 301.432C86.5463 301.927 86.4246 302.414 86.2069 302.859L85.5909 304.119C85.1628 304.994 85.2238 306.029 85.7514 306.848C86.7041 308.327 86.0632 310.308 84.4257 310.947L83.5588 311.285C83.0654 311.477 82.6217 311.778 82.2605 312.166L81.1277 313.381C80.4267 314.133 79.2838 314.263 78.4315 313.689C78.0425 313.427 77.7528 313.041 77.6089 312.595L77.0586 310.887C76.9184 310.452 76.5604 310.122 76.1155 310.018C75.5704 309.891 75.1675 309.43 75.1153 308.872L75.0544 308.22C75.0118 307.765 75.1115 307.307 75.3398 306.911L77.5801 303.021L79.595 298.044L83.5881 290.439C83.7325 290.164 83.84 289.871 83.9079 289.568L85.0921 284.273C85.2272 283.669 85.0926 283.037 84.7233 282.54L84.0702 281.662Z" fill="#EDDFDF"/>
<path d="M69.9581 262.766C69.0045 262.855 68.3448 263.761 68.5517 264.697L68.6885 265.317C68.7462 265.579 68.7475 265.85 68.6918 266.113L68.5462 266.798C68.3554 267.697 69.0898 268.523 70.0035 268.437C70.1787 268.421 70.3555 268.439 70.5239 268.49L74.5771 269.717C74.9835 269.84 75.3644 270.035 75.7015 270.294L79.6458 273.318C80.1044 273.67 80.4704 274.13 80.7102 274.656L81.896 277.258C82.049 277.594 82.2676 277.896 82.5388 278.146L82.9305 278.507C83.5029 279.036 84.3336 279.174 85.046 278.86C85.5946 278.618 86.0021 278.137 86.1518 277.556L86.431 276.472C86.7763 275.131 88.2263 274.405 89.5053 274.933L90.0896 275.174C90.4009 275.303 90.7557 275.273 91.0415 275.095C91.3569 274.899 91.5428 274.551 91.5344 274.183C91.534 274.169 91.5334 274.155 91.5325 274.141L91.5317 274.129L91.5301 274.109L91.4524 273.279C91.4276 273.013 91.3586 272.754 91.2487 272.512L91.2376 272.488L91.2288 272.469L91.216 272.442L91.1991 272.409L91.1551 272.323C90.7666 271.564 90.0643 271.016 89.235 270.822L87.567 270.434C87.3777 270.39 87.1851 270.362 86.9912 270.349L84.6941 270.203C84.2345 270.174 83.7858 270.055 83.3728 269.854C83.3138 269.825 83.2555 269.795 83.1981 269.763L80.9053 268.481L76.0639 265.472C75.6592 265.22 75.3107 264.887 75.0403 264.495L73.6118 262.421C73.0833 261.654 71.9805 261.576 71.3497 262.261C71.1218 262.509 70.8158 262.669 70.4843 262.715L70.4613 262.718C70.4467 262.72 70.4322 262.722 70.4176 262.723L69.9581 262.766Z" fill="#EDDFDF"/>
<path d="M81.3066 267.032C81.1852 267.282 81.0648 267.542 80.9876 267.701L79.3527 267.031L76.7455 265.678C76.4233 265.478 75.5835 264.524 75.3682 264.211L75.2038 262.453C76.1108 260.397 78.7115 260.174 78.7115 260.174C78.7115 260.174 81.91 259.945 82.5312 261.235C83.2431 262.714 83.4468 263.455 81.6026 266.465C81.5229 266.595 81.4143 266.81 81.3066 267.032Z" fill="#EDDFDF"/>
<path d="M72.3829 298.597C73.7466 299.875 74.0872 300.046 75.7034 300.005C76.9063 299.973 78.7849 298.275 79.1041 297.026C78.902 294.866 78.7144 293.904 78.3481 292.025L78.3006 291.781C78.2441 291.491 78.2619 290.318 78.276 289.387C78.285 288.788 78.2926 288.29 78.2778 288.191C78.2837 288.088 78.2891 287.988 78.2942 287.889C78.2995 287.786 78.3044 287.685 78.3089 287.586C78.3143 287.467 78.3192 287.351 78.3237 287.238C78.3377 286.886 78.3473 286.564 78.3555 286.263L78.3622 286.013C78.3954 284.768 78.4197 283.858 78.6751 282.524C78.9584 281.044 79.2444 278.862 79.236 277.15C79.2342 276.798 79.3008 276.522 79.3723 276.225C79.478 275.786 79.5944 275.303 79.5159 274.464C79.5159 274.464 78.8287 273.633 78.3306 273.156C77.342 272.21 76.7648 271.592 75.4824 271.117C74.8696 270.89 73.8525 270.737 73.8525 270.737C74.2254 272.831 74.4364 283.373 73.6364 285.478C73.2563 286.478 72.4431 289.358 72.0884 291.234L72.0882 291.235L72.0878 291.237C71.7506 293.021 71.4263 294.737 71.1173 295.502C70.7749 296.35 71.4359 297.71 72.3829 298.597Z" fill="#EDDFDF"/>
<path d="M59.3451 303.776C59.1699 303.227 59.6892 302.711 60.2362 302.89L61.6343 303.347C63.4103 303.927 65.3439 303.779 67.0109 302.935L68.7832 302.037C69.2921 301.779 69.8804 302.201 69.8006 302.766L69.1828 307.142C69.0135 308.341 69.1738 309.563 69.6464 310.678L69.8473 311.152C70.2808 312.174 70.3706 313.31 70.1033 314.388L70.0558 314.58C69.7724 315.722 69.0643 316.714 68.0758 317.352L67.92 317.452C66.4216 318.42 64.485 318.373 63.0346 317.334L62.858 317.208C62.6796 317.08 62.486 316.976 62.2815 316.896C61.1644 316.462 60.4831 315.325 60.6261 314.134L61.0053 310.976C61.1203 310.018 61.0279 309.046 60.7343 308.126L59.3451 303.776Z" fill="#EDDFDF"/>
<path d="M52.4208 299.969C51.9627 299.433 51.1192 299.487 50.7323 300.076L50.2166 300.862C49.8431 301.43 49.3133 301.879 48.6911 302.153L47.8748 302.513C47.6937 302.593 47.5196 302.688 47.3544 302.797L46.0758 303.642C45.452 304.054 45.0221 304.702 44.8846 305.437L44.8232 305.766C44.7001 306.424 44.8983 307.102 45.3567 307.59C45.7687 308.029 46.3492 308.27 46.9505 308.252L47.5422 308.233C48.3729 308.208 49.1843 308.487 49.8242 309.018L51.8717 310.717C52.1479 310.946 52.3876 311.216 52.5825 311.518L53.9737 313.67C54.486 314.463 55.2939 315.017 56.2171 315.21L57.1232 315.399L57.7328 315.452C58.5657 315.524 59.3698 315.127 59.8194 314.422C60.0481 314.063 60.1701 313.646 60.1715 313.221L60.1827 309.628C60.1853 308.798 60.0417 307.974 59.7585 307.193L59.1078 305.401C58.8773 304.765 58.4696 304.21 57.9329 303.8L56.7167 302.87C56.4236 302.646 56.0971 302.469 55.7493 302.346L54.7842 302.005C54.2 301.799 53.6804 301.442 53.2775 300.971L52.4208 299.969Z" fill="#EDDFDF"/>
<path d="M43.5583 310.879C44.0852 309.521 45.4213 308.652 46.8754 308.723L47.1784 308.738C47.8319 308.77 48.4638 308.983 49.0032 309.354L50.45 310.348L51.9864 311.623C52.3664 311.938 52.6761 312.33 52.8955 312.773L53.1593 313.305C53.4816 313.955 53.5959 314.69 53.4863 315.408L53.465 315.547C53.3732 316.148 53.1282 316.715 52.7536 317.193L51.3205 319.022C50.8236 319.656 49.9605 319.873 49.2233 319.549L47.6451 318.855C47.3172 318.711 47.0131 318.517 46.7434 318.282L44.6164 316.423C43.8932 315.79 43.4586 314.891 43.4126 313.931L43.3329 312.267C43.3102 311.793 43.387 311.321 43.5583 310.879Z" fill="#EDDFDF"/>
<path d="M55.6735 315.442C54.8803 314.964 53.8557 315.436 53.7016 316.349C53.6144 316.866 53.345 317.335 52.9423 317.669L52.1212 318.352C51.2576 319.071 51.2755 320.404 52.1582 321.098L53.3042 322.001C53.9286 322.493 54.7003 322.759 55.4946 322.757L57.7555 322.751C58.0275 322.751 58.2987 322.781 58.5638 322.843L60.9095 323.389C61.2467 323.468 61.599 323.453 61.9286 323.347C62.5752 323.138 63.0624 322.601 63.2082 321.937L63.618 320.071C63.8237 319.134 63.3751 318.176 62.5243 317.735L61.36 317.131L60.7935 316.22C60.5191 315.779 59.9655 315.602 59.4866 315.803L58.9923 316.009C58.1105 316.379 57.1057 316.305 56.2866 315.812L55.6735 315.442Z" fill="#EDDFDF"/>
<path d="M70.9922 313.218C71.0186 312.932 71.2908 312.736 71.5699 312.801C72.2486 312.959 72.959 312.73 73.4187 312.207L74.2514 311.257C74.845 310.581 75.944 310.775 76.2707 311.614L76.5836 312.418C76.8279 313.045 77.1805 313.625 77.6253 314.131L77.8665 314.405C78.268 314.861 78.3328 315.523 78.0273 316.049L77.7796 316.475C77.2742 317.345 76.5889 318.096 75.7698 318.679L73.8566 320.041L69.8059 322.193L67.7043 323.559C66.8607 324.107 65.7643 324.067 64.9626 323.458C64.3631 323.003 64.0129 322.292 64.0176 321.539L64.022 320.847C64.028 319.898 64.738 319.101 65.6795 318.987L66.3201 318.91C68.7673 318.614 70.676 316.648 70.9025 314.191L70.9922 313.218Z" fill="#EDDFDF"/>
<path d="M71.4872 298.207C71.1104 297.857 70.4987 298.015 70.3375 298.503L70.0501 299.374C69.832 300.035 69.8139 300.746 69.998 301.417L70.2912 302.486C70.4427 303.038 70.4578 303.619 70.3349 304.179L69.6691 307.211C69.5758 307.636 69.5617 308.074 69.6275 308.504L69.8502 309.959C69.9353 310.515 70.2358 311.014 70.6865 311.35C71.4073 311.887 72.3866 311.914 73.1364 311.419L73.3659 311.268C74.0127 310.84 74.4279 310.14 74.4925 309.367L74.7373 306.433C74.7838 305.876 74.9616 305.339 75.2559 304.864L77.4456 301.334C77.7533 300.839 77.3611 300.204 76.7804 300.259L73.98 300.521L71.4872 298.207Z" fill="#EDDFDF"/>
<path d="M55.5043 296.186C55.3726 295.758 55.6673 295.317 56.1129 295.275L56.2459 295.263C56.6278 295.227 56.9929 295.088 57.3021 294.861L59.4368 293.291C59.9646 292.903 60.6902 293.381 60.5419 294.02L60.4873 294.255C60.3927 294.662 60.4207 295.089 60.5678 295.48L60.6017 295.571C60.8914 296.342 60.9026 297.19 60.6333 297.969L59.9006 300.088C59.7676 300.472 59.3385 300.665 58.9632 300.509L57.4402 299.875C56.8584 299.633 56.4144 299.145 56.229 298.542L55.5043 296.186Z" fill="#EDDFDF"/>
<path d="M49.6468 284.707L50.3557 292.288C50.3871 292.624 50.3703 292.963 50.3058 293.294L50.0355 294.68C49.886 295.447 50.0042 296.242 50.3704 296.933L50.43 297.045C50.7226 297.597 51.1794 298.044 51.737 298.324C52.1514 298.532 52.5121 298.834 52.7909 299.205L53.4219 300.044C53.7914 300.536 54.2829 300.923 54.8477 301.166L55.8851 301.612C55.9725 301.65 56.0567 301.695 56.137 301.746L57.3817 302.541C57.5916 302.675 57.8493 302.711 58.0877 302.639L58.4139 302.542C58.8799 302.402 59.0326 301.818 58.6948 301.468C58.6655 301.438 58.6336 301.41 58.5991 301.386L57.0782 300.324C56.4974 299.919 56.0519 299.348 55.7997 298.686L55.1343 296.939C55.0993 296.847 55.0605 296.757 55.0181 296.668C54.9984 296.627 54.978 296.586 54.9568 296.546C54.918 296.473 54.8765 296.401 54.8325 296.33L53.7617 294.609L52.9819 292.934C52.7655 292.47 52.6527 291.964 52.6513 291.451L52.6463 289.596C52.6442 288.777 52.3575 287.983 51.8354 287.352L49.6468 284.707Z" fill="#EDDFDF"/>
<path d="M44.5663 272.058L46.7007 274.694C46.8762 274.91 46.9837 275.174 47.0096 275.452L47.2164 277.663L45.6911 274.613L44.5663 272.058Z" fill="#EDDFDF"/>
<path d="M57.462 258.982C57.0047 259.222 56.7878 259.758 56.9487 260.249L57.7499 262.696C57.8559 263.02 58.0082 263.326 58.202 263.606L59.4012 265.34C59.6343 265.677 59.8071 266.052 59.9117 266.448L60.4604 268.525C60.492 268.645 60.5172 268.766 60.5361 268.888C60.5632 269.064 60.5771 269.241 60.5775 269.419L60.5799 270.305C60.581 270.709 60.5131 271.109 60.3791 271.489L59.8861 272.889C59.7909 273.159 59.7553 273.447 59.782 273.732C59.875 274.726 60.692 275.496 61.6888 275.528L61.8449 275.533C62.1158 275.542 62.3859 275.5 62.641 275.409L65.7353 274.301C66.373 274.073 67.0627 274.033 67.7223 274.187L68.552 274.38C68.998 274.484 69.4231 274.142 69.4174 273.683L69.4143 273.439C69.4057 272.758 69.2005 272.094 68.8234 271.526L68.2824 270.713C68.0675 270.39 67.9075 270.033 67.8084 269.658L67.575 268.774C67.4656 268.36 67.2818 267.969 67.0326 267.621L66.1346 266.365C66.0918 266.306 66.0509 266.244 66.012 266.182C65.9589 266.097 65.9094 266.01 65.8638 265.921L65.8544 265.903C65.6528 265.509 65.3791 265.157 65.0477 264.864L62.791 262.873C62.571 262.679 62.3277 262.513 62.0668 262.379L61.7853 262.235C60.9102 261.786 60.2619 260.992 59.9966 260.044L59.8806 259.63L59.6314 258.354C59.5862 258.122 59.3302 257.999 59.1211 258.109L57.462 258.982Z" fill="#EDDFDF"/>
<path d="M60.8293 277.731C60.3794 276.944 60.9535 275.966 61.8589 275.977L62.7502 275.987C63.0336 275.99 63.3134 275.922 63.5633 275.788L65.4582 274.772C66.0561 274.451 66.7524 274.366 67.4098 274.534L67.7484 274.621C68.4788 274.807 69.0541 275.37 69.2575 276.097C69.3891 276.567 69.3538 277.068 69.1578 277.515L68.9889 277.899C68.8184 278.288 68.7248 278.706 68.7132 279.131L68.6018 283.217C68.5817 283.955 68.8079 284.679 69.2448 285.274L69.6303 285.799C69.7341 285.94 69.7976 286.107 69.8139 286.282L69.8288 286.441C69.8703 286.886 69.5443 287.279 69.1006 287.321C69.0863 287.322 69.0721 287.323 69.0578 287.324C69.0454 287.324 69.033 287.324 69.0205 287.324C68.9973 287.324 68.9742 287.323 68.9512 287.321L66.8152 287.123C66.3864 287.084 65.9539 287.123 65.5391 287.239L64.474 287.538C64.3378 287.576 64.1951 287.585 64.0554 287.563C63.4263 287.467 63.0479 286.812 63.2783 286.218L63.5238 285.585C63.6297 285.312 63.6556 285.015 63.5986 284.727L62.8465 280.944C62.7385 280.401 62.5045 279.891 62.1633 279.455L60.9238 277.871C60.913 277.858 60.9025 277.843 60.8923 277.829C60.8862 277.821 60.8802 277.812 60.8744 277.803L60.8608 277.783C60.8529 277.77 60.8452 277.758 60.8378 277.745L60.8293 277.731Z" fill="#EDDFDF"/>
<path d="M58.6403 265.353L57.575 263.393L57.9684 265.036C58.0891 265.54 58.0112 266.071 57.7509 266.519C57.5195 266.917 57.4313 267.382 57.5011 267.837L57.7387 269.39C57.8111 269.863 57.9787 270.316 58.2313 270.722L59.5165 272.788L59.8425 271.22C59.9497 270.704 59.9403 270.171 59.815 269.66L58.9678 266.2C58.8956 265.905 58.7855 265.62 58.6403 265.353Z" fill="#EDDFDF"/>
<path d="M63.7228 257.142L64.8647 256.952C65.6608 256.82 66.4629 257.153 66.9327 257.81L67.2587 258.265C67.477 258.57 67.6103 258.928 67.6452 259.302L67.697 259.855C67.7228 260.131 67.4351 260.328 67.1874 260.203L66.7572 259.987C66.437 259.826 66.1628 259.586 65.9604 259.29L65.4513 258.546C65.3134 258.345 65.1418 258.168 64.9441 258.025L63.7228 257.142Z" fill="#EDDFDF"/>
<path d="M62.0335 280.896L60.9701 278.859L61.7409 282.511C61.8628 283.089 61.9119 283.68 61.887 284.269L61.7593 287.298L61.0836 291.441L61.0119 294.462L61.101 296.652C61.1326 297.425 61.0368 298.198 60.8179 298.94L60.4124 300.315C60.3872 300.4 60.3679 300.487 60.3547 300.574C60.343 300.651 60.3361 300.728 60.3336 300.806C60.3113 301.527 60.6892 302.201 61.3156 302.558L61.6069 302.724C61.9754 302.934 62.3911 303.047 62.8151 303.052L64.1719 303.068C65.0704 303.078 65.9587 302.877 66.7648 302.48C68.2458 301.751 69.3399 300.417 69.7664 298.821L69.8994 298.323C70.2316 297.08 70.208 295.769 69.8314 294.538L69.2013 292.48C69.1147 292.197 68.7084 292.215 68.6469 292.504L68.3922 293.703C68.3075 294.102 68.0999 294.463 67.7986 294.737C67.2781 295.21 66.5429 295.363 65.8769 295.139L65.7048 295.08C65.4433 294.992 65.2002 294.857 64.9878 294.68L64.8336 294.552C64.1542 293.989 63.7264 293.178 63.6442 292.299L63.5205 290.976C63.4804 290.547 63.3982 290.124 63.2749 289.711L63.0282 288.886C62.8022 288.13 62.7044 287.341 62.7388 286.552L62.8295 284.477C62.8839 283.234 62.6093 281.999 62.0335 280.896Z" fill="#EDDFDF"/>
</svg>
