<svg width="263" height="282" viewBox="0 0 263 282" fill="none" xmlns="http://www.w3.org/2000/svg">
<path d="M222 49.5623C248.001 86.0525 217.61 134.04 178 134.04C127 134.04 143.356 91.8397 38.9584 91.8397C-16.4998 91.8396 -5.4998 -34.4152 92.5002 15.5714C130.81 35.112 196 13.0721 222 49.5623Z" fill="url(#paint0_linear)"/>
<path d="M23.4669 149.958C2.65236 128.054 23.4664 112.046 38.4997 115.276C54.6333 118.743 67.6523 102.133 93.2144 115.276C105.975 121.837 102.428 145.577 67.6524 145.577C50.8545 145.577 44.2814 171.863 23.4669 149.958Z" fill="url(#paint1_linear)"/>
<path d="M177.5 203.021C186.677 176.104 154.5 143.537 116 151.035C80.9102 157.869 116.745 189.025 32.4993 200.522C-3.33119 205.412 35.3635 262.524 69.5714 263.367C102.819 264.186 159.088 257.025 177.5 203.021Z" fill="url(#paint2_linear)"/>
<path d="M60.0488 66.102C69.3696 57.7873 80.6229 56.4763 87.9832 58.5C92.8558 59.8397 97.0454 62.2291 99.7689 66.4166C102.472 70.5733 103.48 76.1176 102.812 83.2546C101.933 92.6474 99.1825 98.9456 95.1781 102.892C91.1443 106.867 86.1713 108.131 81.5545 108.131C72.3629 108.131 69.3695 105.345 67.2263 103.35C66.4009 102.582 65.7015 101.931 64.8228 101.602C67.6963 102.678 75.5744 102.892 79.3228 102.892C83.8228 102.892 87.9769 100.891 90.8228 98.0863C93.698 95.2526 96.5101 91.9416 97.3228 83.2546C97.9296 76.7682 97.0432 73.3318 95.1781 70.4642C93.3329 67.6272 92.1102 66.5767 87.9832 65.442C82.2036 63.8529 72.7077 64.802 64.6891 71.955C56.7247 79.0597 55 97 56.7359 114.125C58.4717 131.25 64.6918 144.843 71.0477 160.626C73.6327 167.045 76.3096 173.692 78.7359 180.722L78.7373 180.725L78.7393 180.731C79.7337 183.612 80.7371 186.519 81.738 189.454C89.4289 212.003 97.2874 236.484 98.2189 263.665C99.5009 261.023 101.89 256.495 105.744 253.542C109.127 250.951 122.703 244.568 122.703 244.568C122.703 244.568 120.928 267.366 102.812 268.867C101.068 269.011 99.5779 269.108 98.3107 269.164C98.3063 273.377 98.1287 277.655 97.7526 282H80.7526C82.4605 250.892 79.1252 222.683 69.7513 195.199C68.7516 192.268 67.7431 189.349 66.7388 186.443L66.738 186.44C65.4209 182.629 64.0645 178.828 62.7131 175.041L62.7128 175.039C61.557 171.801 60.4049 168.572 59.2842 165.356C58.4808 165.849 57.6789 166.289 56.9147 166.631C52.87 168.438 39.7525 172.815 14.9154 146.483C10.8376 142.16 0 143.639 0 143.639C0 143.639 4.87186 135.336 12.3386 133.163C20.2446 130.862 26.6814 131.455 34.4577 134.165C40.7234 136.349 47.8681 141.888 53.2962 146.717C50.3547 136.314 48.9751 136.759 46.2376 115.129C43.5 93.5 50.6739 74.4649 60.0488 66.102Z" fill="url(#paint3_linear)"/>
<path d="M169.171 12.1016C172.381 9.87788 178.037 8.58704 183.946 10.9786C189.889 13.3841 202.36 15.4301 206.487 27.4807C208.634 33.752 207.065 40.1005 205.392 46.8731C204.19 51.7344 202.935 56.8142 202.961 62.2408C202.961 62.2408 212.768 79.3092 206.487 94.8574C204.851 98.9071 201.924 103.836 198.383 109.8C190.814 122.548 180.437 140.026 173.848 163.762C177.015 160.002 181.163 155.739 185.089 153.722C190.143 151.126 194.506 150.126 200.195 151.007C205.569 151.839 209.826 157.176 209.826 157.176C209.826 157.176 203.318 158.306 199.876 160.517C197.095 162.302 195.981 164.723 194.839 167.206C193.83 169.397 192.8 171.637 190.581 173.532C190.131 173.916 189.707 174.289 189.298 174.648C186.716 176.915 184.768 178.624 181.056 179.21C178.024 179.688 176.163 179.263 173.183 178.373C172.389 178.136 171.522 177.77 170.666 177.352C165.458 204.543 165.679 238.848 178.819 282H170.77C169.585 277.94 168.512 273.951 167.544 270.033C167.154 270.064 166.742 270.095 166.308 270.125C153.594 271.002 150 255.388 150 255.388C150 255.388 160.074 258.375 162.687 259.814C163.816 260.435 164.822 261.235 165.7 262.081C153.61 206.227 163.023 165.246 175.002 137.43C174.675 135.96 174.079 134.52 172.798 133.819C172.674 133.751 172.546 133.681 172.416 133.61C168.752 131.613 162.842 128.391 162.474 122.894C162.229 119.231 161.008 115.647 161.008 115.647C161.008 115.647 177.196 118.034 177.552 127.949C177.6 129.295 177.618 130.524 177.614 131.644C183.57 119.033 189.811 109.507 194.161 102.867C195.132 101.385 196.009 100.046 196.768 98.8498C205.348 85.3096 201.704 75.776 198.884 68.3984C197.613 65.0736 196.509 62.1867 196.768 59.5683C197.298 54.1875 198.673 49.8582 199.916 45.9453C201.803 40.0076 203.384 35.0287 201.248 28.7896C197.276 17.1926 187.746 16.6154 182.697 14.5718C177.614 12.5144 173.596 13.7024 171.075 15.4485C169.274 16.6953 168.114 18.2559 167.704 19.9286C167.289 21.6194 164.822 30.4427 180.874 31.8776C185.312 31.8776 192.631 34.6471 193 39C193.157 40.8491 192.571 44 188.822 45.3137C191.152 43 191.043 41.3831 190.5 40C189.356 37.0873 184.313 35.7428 180.288 35.0007C180.055 34.9576 179.67 34.9227 179.17 34.8774C174.699 34.472 161.061 33.2352 164.822 17.9009C165.427 15.4318 167.045 13.5736 169.171 12.1016Z" fill="url(#paint4_linear)"/>
<path d="M252.963 166.16C253.266 165.957 253.666 166.155 253.689 166.519C253.857 169.191 253.354 171.921 252.094 174.468C250.834 177.015 248.968 179.071 246.743 180.56C246.44 180.762 246.04 180.565 246.017 180.201C245.849 177.529 246.352 174.799 247.612 172.252C248.872 169.705 250.738 167.648 252.963 166.16Z" fill="white"/>
<path d="M234.945 131.369C235.04 131.084 235.372 130.962 235.629 131.117C237.493 132.241 238.897 133.812 239.618 135.769C240.339 137.726 240.288 139.832 239.598 141.895C239.503 142.18 239.171 142.303 238.914 142.147C237.051 141.023 235.646 139.453 234.926 137.495C234.205 135.538 234.256 133.432 234.945 131.369Z" fill="white"/>
<path d="M234.43 104.991C234.543 105.2 234.489 105.46 234.301 105.605C231.522 107.749 228.605 108.701 225.825 108.118C223.047 107.535 220.759 105.49 219.077 102.411C218.963 102.202 219.018 101.942 219.206 101.797C221.985 99.6535 224.902 98.7008 227.681 99.284C230.46 99.8672 232.747 101.912 234.43 104.991Z" fill="url(#paint5_linear)"/>
<path d="M232.589 104.401C231.181 103.595 230.528 102.947 227.128 102.233C224.484 101.678 222.871 101.851 221.257 102.023C222.973 101.361 225.256 100.818 227.334 101.255C229.413 101.691 231.284 103.105 232.589 104.401Z" fill="#F4B9FF"/>
<path d="M221.052 103C222.46 103.807 223.113 104.455 226.513 105.168C229.157 105.723 230.771 105.551 232.385 105.378C230.668 106.04 228.386 106.583 226.307 106.147C224.229 105.71 222.358 104.296 221.052 103Z" fill="#F4B9FF"/>
<path d="M106.689 124.138C106.974 124.104 107.225 124.322 107.232 124.609C107.343 129.629 105.96 134.177 102.92 137.68C99.8798 141.181 95.5703 143.19 90.5843 143.786C90.2992 143.82 90.0477 143.602 90.0413 143.315C89.9299 138.295 91.3127 133.747 94.3531 130.245C97.3933 126.743 101.703 124.734 106.689 124.138Z" fill="url(#paint6_linear)"/>
<path d="M104.397 126.342C102.275 127.828 100.977 128.365 97.2707 132.635C94.3881 135.955 93.2153 138.264 92.0424 140.573C92.7408 137.852 94.0561 134.421 96.3222 131.811C98.588 129.201 101.801 127.416 104.397 126.342Z" fill="#F4B9FF"/>
<path d="M92.9904 141.397C95.1122 139.911 96.4104 139.374 100.117 135.105C103 131.785 104.172 129.475 105.345 127.166C104.647 129.887 103.332 133.319 101.066 135.929C98.7997 138.539 95.5867 140.323 92.9904 141.397Z" fill="#F4B9FF"/>
<path d="M107.992 2.99047C108.265 2.90282 108.554 3.06925 108.615 3.3498C109.678 8.25662 109.185 12.985 106.866 17.0011C104.547 21.0168 100.697 23.8077 95.9157 25.3405C95.6423 25.4282 95.3539 25.2617 95.2931 24.9812C94.2297 20.0744 94.7227 15.346 97.042 11.3299C99.3611 7.31417 103.21 4.52326 107.992 2.99047Z" fill="url(#paint7_linear)"/>
<path d="M106.161 5.59008C104.36 7.45193 103.188 8.22585 100.361 13.1219C98.1618 16.9294 97.4493 19.4193 96.7367 21.9092C96.9052 19.1052 97.5443 15.4864 99.2729 12.4933C101.001 9.50034 103.816 7.13791 106.161 5.59008Z" fill="#F4B9FF"/>
<path d="M97.8241 22.5383C99.6248 20.6764 100.797 19.9025 103.625 15.0065C105.824 11.199 106.536 8.70916 107.249 6.21927C107.08 9.02318 106.441 12.642 104.712 15.6351C102.984 18.628 100.169 20.9905 97.8241 22.5383Z" fill="#F4B9FF"/>
<path d="M3.89072 60.5332C3.90241 60.2464 4.15937 60.034 4.44336 60.0764C8.35341 60.6602 11.7042 62.3355 14.0352 65.154C16.366 67.9723 17.3824 71.5769 17.2214 75.5256C17.2097 75.8125 16.9528 76.0249 16.6688 75.9825C12.7587 75.3986 9.40795 73.7233 7.07694 70.9048C4.74613 68.0866 3.72979 64.4819 3.89072 60.5332Z" fill="url(#paint8_linear)"/>
<path d="M5.32672 62.5124C6.21584 64.3718 6.46774 65.4608 9.3354 68.9282C11.5655 71.6247 13.2253 72.8471 14.885 74.0696C12.84 73.1656 10.3176 71.6846 8.56442 69.5648C6.81143 67.4452 5.83052 64.6903 5.32672 62.5124Z" fill="#F4B9FF"/>
<path d="M15.6557 73.4331C14.7666 71.5736 14.5147 70.4846 11.647 67.0172C9.41691 64.3207 7.75714 63.0983 6.09737 61.8758C8.14247 62.7798 10.6649 64.2609 12.418 66.3806C14.171 68.5002 15.1519 71.2551 15.6557 73.4331Z" fill="#F4B9FF"/>
<path d="M18.6367 237.926C18.437 237.872 18.2935 237.697 18.2793 237.49C18.0068 233.515 18.9129 230.36 21.1455 228.532C23.3779 226.703 26.6499 226.435 30.4944 227.484C30.6942 227.538 30.8377 227.713 30.8518 227.92C31.1243 231.895 30.2182 235.05 27.9856 236.878C25.7532 238.707 22.4812 238.975 18.6367 237.926Z" fill="url(#paint9_linear)"/>
<path d="M20.396 236.915C21.977 236.392 22.957 236.362 25.662 234.146C27.7657 232.423 28.589 230.976 29.4124 229.529C28.9679 231.438 28.0731 233.716 26.4194 235.071C24.7658 236.426 22.3559 236.855 20.396 236.915Z" fill="#F4B9FF"/>
<path d="M28.6548 228.605C27.0738 229.128 26.0938 229.158 23.3888 231.374C21.2851 233.097 20.4617 234.544 19.6384 235.991C20.0829 234.082 20.9777 231.804 22.6314 230.449C24.285 229.094 26.6949 228.665 28.6548 228.605Z" fill="#F4B9FF"/>
<path d="M253.136 100.037C253.279 99.7887 253.605 99.7251 253.83 99.9016C255.474 101.191 256.589 102.833 256.96 104.739C257.332 106.646 256.916 108.585 255.877 110.398C255.735 110.646 255.408 110.709 255.183 110.533C253.539 109.243 252.424 107.602 252.053 105.695C251.681 103.789 252.097 101.849 253.136 100.037Z" fill="white"/>
<path d="M22.7061 12.8199C22.5555 12.4882 22.8158 12.1258 23.1783 12.1624C25.8425 12.4318 28.4556 13.3719 30.7642 15.0293C33.0727 16.6865 34.7988 18.8611 35.9055 21.2986C36.0561 21.6303 35.7958 21.9927 35.4333 21.9561C32.769 21.6867 30.156 20.7466 27.8474 19.0892C25.5389 17.432 23.8128 15.2574 22.7061 12.8199Z" fill="white"/>
<path d="M58.3244 242.713C58.5122 242.401 58.9582 242.409 59.1336 242.729C60.4232 245.075 61.131 247.76 61.0755 250.601C61.0199 253.441 60.2076 256.096 58.8275 258.39C58.6397 258.702 58.1937 258.693 58.0182 258.374C56.7287 256.028 56.0208 253.343 56.0764 250.502C56.132 247.661 56.9442 245.007 58.3244 242.713Z" fill="white"/>
<path d="M142.896 138.25C143.234 138.388 143.293 138.831 143.004 139.053C140.881 140.684 138.335 141.792 135.518 142.17C132.701 142.548 129.953 142.15 127.475 141.136C127.138 140.998 127.078 140.555 127.367 140.333C129.49 138.702 132.037 137.594 134.854 137.216C137.67 136.838 140.418 137.236 142.896 138.25Z" fill="white"/>
<path d="M196.945 196.382C197.038 196.03 197.469 195.914 197.727 196.171C199.62 198.064 201.05 200.445 201.79 203.188C202.531 205.931 202.492 208.707 201.808 211.295C201.715 211.647 201.284 211.763 201.027 211.506C199.133 209.613 197.703 207.233 196.963 204.489C196.223 201.746 196.261 198.97 196.945 196.382Z" fill="white"/>
<path d="M129.875 164.595C130.229 164.508 130.537 164.831 130.434 165.181C129.675 167.748 128.266 170.141 126.209 172.101C124.152 174.061 121.694 175.354 119.093 175.989C118.739 176.075 118.431 175.752 118.534 175.403C119.293 172.836 120.702 170.443 122.759 168.482C124.816 166.522 127.274 165.23 129.875 164.595Z" fill="white"/>
<path d="M45.7391 54.7459C45.9758 54.7004 46.2076 54.841 46.2766 55.0719C46.8134 56.8685 46.7379 58.5245 45.9334 59.85C45.1291 61.1754 43.695 62.0072 41.8532 62.361C41.6166 62.4064 41.3848 62.2658 41.3158 62.035C40.7789 60.2383 40.8545 58.5823 41.6589 57.2568C42.4633 55.9314 43.8974 55.0997 45.7391 54.7459Z" fill="white"/>
<path d="M242.176 256.276C242.349 256.596 242.115 256.976 241.75 256.964C239.074 256.88 236.402 256.123 233.984 254.63C231.566 253.137 229.694 251.087 228.421 248.732C228.247 248.411 228.482 248.032 228.846 248.043C231.523 248.127 234.194 248.884 236.612 250.378C239.03 251.871 240.903 253.921 242.176 256.276Z" fill="white"/>
<path d="M227.275 171.367C222.457 167.087 216.639 166.412 212.834 167.454C210.315 168.143 208.15 169.373 206.742 171.529C205.344 173.668 204.823 176.522 205.168 180.196C205.554 184.302 207.712 186.708 210.089 187.537C210.337 187.623 210.578 187.71 210.815 187.795C212.855 188.526 214.56 189.137 216.833 188.43C219.035 187.744 220.49 186.811 221.443 184.74C222.137 183.232 222.429 180.689 221.905 178.745C221.184 176.071 219.12 174.729 216.833 175.229C211.3 176.44 215.45 181.512 215.45 181.512C215.45 181.512 214.066 176.901 217.755 176.901C220.333 176.901 220.984 183.184 218.677 184.74C216.113 186.471 214.611 186.544 212.222 185.663C210.426 185 208.81 183.335 208.533 182.435C208.455 182.178 208.356 181.913 208.252 181.634C207.992 180.933 207.7 180.148 207.611 179.207C207.332 176.238 207.976 175.293 208.8 174.082C208.902 173.931 209.008 173.776 209.115 173.612C210.069 172.152 210.701 171.611 212.834 171.027C215.822 170.209 220.731 170.697 224.876 174.379C228.993 178.037 232.171 183.679 232.045 196.103C231.964 203.985 228.966 211.4 225.68 219.524C224.344 222.828 222.96 226.25 221.705 229.868L221.703 229.876C221.189 231.358 220.671 232.853 220.154 234.363C219.132 237.346 218.092 240.395 217.103 243.517C216.463 241.593 215.441 239.221 213.754 237.333C211.734 235.074 203.091 228.803 203.091 228.803C203.091 228.803 201.282 244.921 213.754 248.402C214.377 248.576 214.955 248.732 215.489 248.871C212.589 259.07 210.577 270.041 211.617 282H220.117C219.234 265.987 221.504 251.467 226.35 237.32C226.866 235.813 227.387 234.313 227.905 232.818L227.908 232.812C228.589 230.849 229.29 228.893 229.989 226.943C230.967 224.214 231.94 221.499 232.845 218.803C233.978 219.29 235.343 219.796 236.483 219.988C238.74 220.367 240.141 220.508 242.342 219.883C245.037 219.118 246.354 217.693 248.1 215.803C248.376 215.504 248.664 215.193 248.969 214.872C250.473 213.287 251.077 211.557 251.669 209.866C252.339 207.949 252.993 206.081 254.918 204.524C257.302 202.598 262.019 201.181 262.019 201.181C262.019 201.181 258.514 197.671 254.497 197.552C250.244 197.426 247.098 198.552 243.553 200.907C240.597 202.871 237.631 206.749 235.517 209.921C236.672 205.407 237.427 200.966 237.472 196.62C237.603 183.71 232.121 175.671 227.275 171.367Z" fill="url(#paint10_linear)"/>
<path d="M120.366 84.6999C124.192 95.9984 136.456 102.057 147.757 98.2314C159.059 94.406 163.087 71.5682 170.586 58.4032C149.285 56.315 145.202 53.4904 133.901 57.3157C122.599 61.1411 116.539 73.4014 120.366 84.6999Z" fill="url(#paint11_linear)"/>
<path d="M170.584 58.4032C169.133 60.0016 168.144 60.7276 166.559 62.8651L164.544 65.6442C157.922 74.5777 151.504 83.2367 145.572 85.2446C139.939 87.1513 136.177 79.0166 130.321 80.999C126.901 82.1567 123.799 87.8538 118.078 87.7087C109.179 87.4828 109.373 76.8629 103.406 78.0685C97.4392 79.2741 88.4661 76.8249 85.8657 69.1463C85.8657 69.1463 116.019 35.2518 170.584 58.4032Z" fill="#F1FF00"/>
<path d="M138.502 62.7702C135.833 68.3615 130.641 72.6174 124.072 73.831C117.502 75.0446 111.131 72.9247 106.639 68.6563C109.308 63.065 114.5 58.8091 121.069 57.5955C127.639 56.3819 134.043 58.4958 138.502 62.7702Z" fill="url(#paint12_linear)"/>
<path d="M124.476 71.1465C120.237 72.3101 115.857 69.8154 114.691 65.5748C114.108 63.4502 114.442 61.2905 115.454 59.5178C117.174 58.6246 119.057 57.9677 121.069 57.596C123.282 57.1871 125.477 57.156 127.585 57.4581C128.733 58.4533 129.608 59.787 130.041 61.3615C131.206 65.6021 128.714 69.983 124.476 71.1465Z" fill="#0038FF"/>
<path d="M122.999 65.8127C121.593 66.1985 120.141 65.3712 119.754 63.9648C119.368 62.5585 120.194 61.1056 121.6 60.7198C123.005 60.334 124.458 61.1613 124.844 62.5677C125.23 63.974 124.404 65.4269 122.999 65.8127Z" fill="#F1FF00"/>
<path d="M243.39 44.7201C247.077 56.0649 240.867 68.2497 229.519 71.9356C218.171 75.6215 201.289 59.7181 187.405 53.6443C203.235 39.2421 204.82 34.5384 216.167 30.8525C227.515 27.1666 239.703 33.3753 243.39 44.7201Z" fill="url(#paint13_linear)"/>
<path d="M187.406 53.6436C189.526 54.0576 190.753 54.0487 193.301 54.8158L196.578 55.8395C207.228 59.0454 217.55 62.1527 223.507 60.2181C229.163 58.3809 227.316 49.6111 233.196 47.7016C236.629 46.5865 242.522 49.3006 247.022 45.7658C254.022 40.2673 247.518 31.869 253.022 29.2703C258.527 26.6716 264.257 19.3464 261.751 11.6364C261.751 11.6364 217.313 2.47857 187.406 53.6436Z" fill="#F1FF00"/>
<path d="M215.74 37.9731C221.223 40.8611 227.93 41.1713 233.923 38.2192C239.915 35.2671 243.756 29.7613 244.805 23.6555C239.323 20.7674 232.616 20.4572 226.623 23.4093C220.63 26.3614 216.759 31.882 215.74 37.9731Z" fill="url(#paint14_linear)"/>
<path d="M231.992 36.309C236.087 34.7093 238.107 30.0923 236.506 25.9963C235.703 23.9442 234.144 22.4123 232.273 21.5955C230.36 21.9074 228.458 22.5054 226.622 23.4095C224.603 24.4042 222.825 25.6906 221.315 27.1922C220.99 28.6755 221.086 30.268 221.68 31.7886C223.282 35.8847 227.899 37.9085 231.992 36.309Z" fill="#0038FF"/>
<path d="M229.988 31.1502C231.345 30.6198 232.015 29.0886 231.484 27.7303C230.953 26.3719 229.422 25.7007 228.065 26.2311C226.707 26.7615 226.037 28.2927 226.568 29.651C227.099 31.0094 228.63 31.6806 229.988 31.1502Z" fill="#F1FF00"/>
<path d="M188.149 36.5313C186.454 38.8018 185.134 41.0708 183.889 43.4921C183.385 44.471 181.867 44.0758 181.935 42.9772L182.048 41.163C182.074 40.7321 182.499 40.4409 182.91 40.571C183.308 40.6967 183.722 40.4289 183.77 40.0146L184.136 36.8617C184.193 36.3701 184.756 36.1184 185.16 36.4032C185.505 36.6456 185.986 36.503 186.142 36.1119L187.705 32.2068C187.853 31.8376 188.36 31.7989 188.562 32.1414C188.746 32.4528 189.195 32.4562 189.384 32.1477L191.331 28.9588C191.542 28.612 192.018 28.5438 192.319 28.8171C192.615 29.0867 193.086 29.0269 193.322 28.7026C193.803 28.0409 194.614 27.0245 195.401 26.4946C195.86 26.1857 196.251 26.1518 196.555 26.2237C197.046 26.3396 197.014 26.9505 196.652 27.302C195.002 28.9068 190.532 33.3398 188.149 36.5313Z" fill="#0D38A0"/>
<path d="M159.985 45.6789C162.691 46.5199 165.093 47.5794 167.524 48.8067C168.507 49.3029 169.502 48.0911 168.801 47.2422L167.644 45.8415C167.37 45.5086 166.855 45.5224 166.598 45.8696C166.351 46.2049 165.858 46.2314 165.576 45.9246L163.425 43.5889C163.09 43.2248 162.488 43.3515 162.328 43.8198C162.191 44.2183 161.719 44.3854 161.362 44.1609L157.801 41.9197C157.465 41.7079 157.032 41.9747 157.07 42.3705C157.104 42.7302 156.743 42.997 156.409 42.8581L152.959 41.422C152.583 41.2659 152.159 41.4899 152.076 41.8877C151.995 42.2801 151.579 42.5082 151.198 42.3844C150.42 42.1316 149.166 41.7857 148.217 41.8197C147.664 41.8395 147.328 42.0414 147.124 42.2783C146.795 42.6604 147.18 43.1356 147.679 43.2076C149.958 43.5365 156.181 44.4966 159.985 45.6789Z" fill="#0D38A0"/>
<path fill-rule="evenodd" clip-rule="evenodd" d="M199.224 70.9702C197.545 66.3395 195.206 59.8874 187.918 55.4501C187.446 55.1629 187.27 54.5549 187.539 54.0724L188.018 53.213C188.286 52.7306 188.897 52.5561 189.369 52.842C197.794 57.941 200.6 65.8288 202.226 70.4024C202.616 71.4975 202.937 72.4026 203.253 73.034C203.812 74.1532 204.408 75.2262 205.312 75.8942C205.969 76.3797 206.924 76.7453 208.482 76.4391C209.024 76.3326 209.587 76.6101 209.758 77.1353L210.062 78.071C210.233 78.5962 209.946 79.1662 209.408 79.291C206.951 79.8608 205.021 79.3886 203.539 78.2939C201.989 77.1489 201.123 75.4475 200.583 74.3665C200.118 73.4365 199.698 72.2757 199.224 70.9702Z" fill="url(#paint15_linear)"/>
<path fill-rule="evenodd" clip-rule="evenodd" d="M171.272 80.0485C169.907 75.3155 168.006 68.7211 171.294 60.8491C171.507 60.3395 171.292 59.7443 170.79 59.5119L169.898 59.0979C169.397 58.8656 168.8 59.083 168.586 59.592C164.768 68.6673 167.136 76.6969 168.509 81.3528C168.838 82.4676 169.11 83.389 169.226 84.085C169.432 85.3189 169.581 86.5371 169.242 87.6088C168.995 88.3878 168.438 89.2448 166.997 89.9123C166.496 90.1445 166.204 90.6999 166.375 91.2252L166.679 92.1608C166.849 92.686 167.417 92.9785 167.925 92.7634C170.248 91.781 171.532 90.2651 172.087 88.5085C172.668 86.6715 172.368 84.7861 172.17 83.5944C171.999 82.5691 171.657 81.3827 171.272 80.0485Z" fill="url(#paint16_linear)"/>
<path d="M173.605 41.9697C173.845 41.4655 174.457 41.2667 174.947 41.5339C183.619 46.2593 189.915 53.0229 192.681 61.5339C195.447 70.0443 194.33 79.2146 190.094 88.1318C189.854 88.636 189.243 88.8348 188.752 88.5676C180.081 83.8422 173.785 77.0786 171.019 68.5675C168.253 60.0572 169.369 50.8869 173.605 41.9697Z" fill="url(#paint17_linear)"/>
<path d="M192.172 60.0934C192.018 59.6883 191.611 59.4318 191.184 59.5078C190.862 59.5651 190.541 59.6452 190.221 59.749C188.735 60.2316 187.515 61.1551 186.66 62.3276C186.347 62.7566 185.779 62.9408 185.274 62.7776C183.892 62.3317 182.363 62.3012 180.876 62.7839C179.39 63.2666 178.171 64.19 177.315 65.3623C177.002 65.7913 176.435 65.9755 175.929 65.8123C174.548 65.3665 173.018 65.336 171.532 65.8187C171.379 65.8686 171.228 65.9231 171.08 65.9821C170.656 66.1516 170.45 66.6193 170.569 67.0601C170.705 67.5647 170.854 68.0673 171.017 68.5675C172.191 72.1813 174.002 75.4801 176.361 78.4416C176.647 78.8003 177.148 78.9127 177.537 78.6696C178.318 78.1811 178.983 77.5531 179.511 76.8305C179.824 76.4015 180.391 76.2174 180.896 76.3805C182.278 76.8264 183.807 76.8568 185.293 76.3741C186.78 75.8915 187.999 74.968 188.855 73.7955C189.168 73.3665 189.735 73.1823 190.241 73.3455C191.24 73.6679 192.316 73.7731 193.397 73.6243C193.829 73.5649 194.137 73.1925 194.158 72.7575C194.337 68.9429 193.865 65.1778 192.68 61.5336C192.522 61.0478 192.353 60.5677 192.172 60.0934Z" fill="url(#paint18_linear)"/>
<path d="M186.697 50.8809C186.41 50.5418 185.926 50.4377 185.546 50.6679C184.728 51.1637 184.032 51.8111 183.486 52.5602C183.173 52.9892 182.606 53.1734 182.1 53.0103C180.719 52.5643 179.189 52.5339 177.703 53.0166C176.216 53.4992 174.997 54.4226 174.141 55.595C173.828 56.0239 173.261 56.2081 172.756 56.045C172.019 55.8072 171.24 55.6876 170.448 55.7009C169.981 55.7087 169.619 56.0892 169.586 56.5551C169.299 60.6393 169.752 64.6728 171.018 68.5681C171.085 68.7751 171.154 68.9811 171.226 69.1861C171.379 69.6248 171.825 69.8958 172.276 69.7843C172.442 69.743 172.609 69.6955 172.775 69.6415C174.261 69.1589 175.481 68.2355 176.337 67.0631C176.65 66.6342 177.217 66.45 177.722 66.6131C179.104 67.059 180.634 67.0894 182.12 66.6068C183.606 66.1241 184.826 65.2006 185.681 64.0282C185.994 63.5992 186.561 63.415 187.067 63.5781C188.448 64.024 189.978 64.0545 191.464 63.5718C191.796 63.464 192.115 63.3342 192.419 63.1845C192.816 62.9896 192.989 62.5299 192.861 62.1074C192.803 61.916 192.743 61.7249 192.681 61.5342C191.402 57.6002 189.37 54.0396 186.697 50.8809Z" fill="url(#paint19_linear)"/>
<path d="M189.286 52.5429C187.585 47.5843 182.589 42.1408 173.77 39.2563C173.567 39.1898 173.341 39.2631 173.216 39.4362C167.777 46.9514 166.936 54.2906 168.476 59.3014C168.512 59.4193 168.639 59.4825 168.756 59.445C172.761 58.1657 176.176 57.6547 178.24 54.9592C178.378 54.7792 178.615 54.7023 178.832 54.7669C182.088 55.7347 185.151 54.1419 189.143 52.8238C189.26 52.7851 189.326 52.6596 189.286 52.5429Z" fill="url(#paint20_linear)"/>
<path d="M72.5177 201.778C70.4535 210.022 75.466 218.378 83.7134 220.441C91.9608 222.504 103.181 210.371 112.752 205.372C100.793 195.912 99.4361 192.647 91.1886 190.584C82.9412 188.522 74.5819 193.533 72.5177 201.778Z" fill="url(#paint21_linear)"/>
<path d="M112.751 205.37C111.265 205.769 110.392 205.822 108.619 206.493L106.339 207.381C98.9262 210.183 91.7411 212.898 87.4121 211.816C83.3013 210.788 84.184 204.464 79.9105 203.395C77.415 202.771 73.3591 204.99 69.9868 202.698C64.7411 199.134 68.9529 192.845 64.9125 191.268C60.872 189.691 56.4395 184.766 57.8424 179.163C57.8424 179.163 88.9819 170.472 112.751 205.37Z" fill="#FF46B5"/>
<path d="M91.8424 195.624C88.087 197.946 83.3346 198.496 78.9297 196.691C74.5248 194.887 71.5246 191.162 70.4787 186.873C74.2342 184.551 78.9865 184.002 83.3914 185.806C87.7963 187.61 90.8185 191.345 91.8424 195.624Z" fill="url(#paint22_linear)"/>
<path d="M80.207 195.238C77.2181 194.302 75.5554 191.12 76.4925 188.129C76.9621 186.632 77.9952 185.466 79.2851 184.794C80.6605 184.921 82.042 185.253 83.3909 185.806C84.8752 186.414 86.2025 187.241 87.3492 188.234C87.6528 189.273 87.6632 190.409 87.3152 191.519C86.3781 194.51 83.1956 196.175 80.207 195.238Z" fill="#0038FF"/>
<path d="M81.3788 191.473C80.3877 191.163 79.8362 190.107 80.147 189.116C80.4578 188.124 81.5132 187.572 82.5043 187.882C83.4954 188.193 84.0469 189.248 83.7361 190.24C83.4253 191.231 82.3699 191.783 81.3788 191.473Z" fill="#FF46B5"/>
<path d="M161.655 225.23C159.489 233.449 151.069 238.358 142.848 236.194C134.627 234.03 130.643 217.994 124.666 209.004C139.706 206.473 142.469 204.265 150.69 206.429C158.911 208.593 163.82 217.011 161.655 225.23Z" fill="url(#paint23_linear)"/>
<path d="M124.667 209.004C125.777 210.069 126.516 210.537 127.747 211.978L129.316 213.855C134.461 219.88 139.448 225.72 143.764 226.856C147.861 227.934 150.136 221.967 154.396 223.089C156.884 223.744 159.368 227.641 163.428 227.257C169.743 226.66 169.083 219.12 173.384 219.684C177.685 220.248 183.943 218.066 185.414 212.48C185.414 212.48 162.318 189.868 124.667 209.004Z" fill="#FF46B5"/>
<path d="M147.686 210.532C149.858 214.376 153.757 217.146 158.487 217.686C163.216 218.227 167.641 216.407 170.624 213.153C168.453 209.309 164.553 206.539 159.824 205.999C155.094 205.458 150.646 207.275 147.686 210.532Z" fill="url(#paint24_linear)"/>
<path d="M158.068 215.798C161.139 216.417 164.13 214.429 164.75 211.358C165.06 209.819 164.717 208.3 163.91 207.089C162.643 206.539 161.273 206.164 159.825 205.999C158.231 205.817 156.669 205.902 155.186 206.221C154.419 206.984 153.862 207.975 153.632 209.116C153.012 212.187 154.998 215.179 158.068 215.798Z" fill="#0038FF"/>
<path d="M158.855 211.934C159.873 212.139 160.865 211.48 161.07 210.461C161.276 209.443 160.617 208.451 159.599 208.245C158.581 208.04 157.589 208.699 157.384 209.718C157.178 210.736 157.837 211.729 158.855 211.934Z" fill="#FF46B5"/>
<path d="M131.709 199.035C128.658 200.176 126.192 201.69 123.311 203.481L126.625 198.971L127.378 199.878L129.673 197.082L130.189 198.351L133.676 195.87L133.627 197.132L137.038 195.48L137.323 196.547C137.323 196.547 138.869 195.837 139.925 195.815C140.922 195.794 140.977 196.659 140.977 196.659C140.977 196.659 135.009 197.8 131.709 199.035Z" fill="#0D38A0"/>
<path d="M111.305 193.663C113.398 196.158 114.798 198.69 116.422 201.667L115.761 196.111L114.659 196.529L114.039 192.966L112.965 193.816L111.152 189.94L110.573 191.062L108.419 187.945L107.645 188.733C107.645 188.733 106.649 187.354 105.741 186.815C104.883 186.306 104.409 187.031 104.409 187.031C104.409 187.031 109.041 190.963 111.305 193.663Z" fill="#0D38A0"/>
<path fill-rule="evenodd" clip-rule="evenodd" d="M125.066 223.939C125.846 220.517 126.932 215.75 124.276 210.282C124.104 209.928 124.233 209.496 124.58 209.311L125.199 208.98C125.546 208.795 125.979 208.926 126.152 209.279C129.234 215.581 127.873 221.388 127.084 224.756C126.895 225.562 126.739 226.228 126.684 226.728C126.588 227.614 126.531 228.487 126.815 229.236C127.022 229.78 127.453 230.367 128.505 230.784C128.871 230.929 129.101 231.312 129.001 231.693L128.822 232.37C128.722 232.751 128.33 232.982 127.96 232.849C126.268 232.244 125.293 231.218 124.828 229.99C124.34 228.707 124.477 227.354 124.571 226.498C124.651 225.762 124.846 224.904 125.066 223.939Z" fill="url(#paint25_linear)"/>
<path fill-rule="evenodd" clip-rule="evenodd" d="M104.815 218.608C105.823 215.246 107.227 210.562 112.232 207.112C112.556 206.888 112.657 206.449 112.446 206.117L112.071 205.525C111.86 205.192 111.419 205.093 111.094 205.315C105.307 209.282 103.629 215.006 102.657 218.325C102.424 219.12 102.231 219.777 102.033 220.238C101.68 221.057 101.3 221.844 100.683 222.356C100.235 222.728 99.5705 223.027 98.4501 222.872C98.0602 222.818 97.6707 223.038 97.5705 223.418L97.3919 224.096C97.2916 224.477 97.5189 224.87 97.9067 224.938C99.6773 225.244 101.031 224.83 102.041 223.992C103.098 223.115 103.645 221.869 103.986 221.079C104.279 220.398 104.531 219.556 104.815 218.608Z" fill="url(#paint26_linear)"/>
<path d="M120.897 196.689C121.235 196.479 121.678 196.596 121.869 196.945C125.243 203.118 126.407 209.597 124.783 215.763C123.159 221.929 118.953 226.994 112.976 230.705C112.638 230.914 112.195 230.798 112.004 230.449C108.63 224.276 107.465 217.796 109.09 211.63C110.714 205.465 114.919 200.4 120.897 196.689Z" fill="url(#paint27_linear)"/>
<path d="M125.035 214.704C125.098 214.402 124.953 214.092 124.668 213.973C124.453 213.883 124.23 213.807 123.998 213.746C122.922 213.463 121.835 213.546 120.87 213.919C120.517 214.055 120.106 213.947 119.866 213.654C119.21 212.855 118.305 212.247 117.228 211.964C116.151 211.68 115.065 211.764 114.1 212.136C113.747 212.273 113.336 212.165 113.096 211.872C112.44 211.073 111.535 210.465 110.458 210.182C110.347 210.152 110.236 210.127 110.125 210.105C109.805 210.044 109.501 210.244 109.403 210.554C109.289 210.909 109.185 211.268 109.089 211.63C108.4 214.248 108.213 216.923 108.484 219.606C108.517 219.931 108.774 220.192 109.101 220.196C109.757 220.204 110.398 220.084 110.993 219.854C111.346 219.718 111.757 219.826 111.997 220.119C112.653 220.918 113.558 221.526 114.634 221.809C115.711 222.093 116.798 222.01 117.763 221.637C118.116 221.5 118.527 221.608 118.767 221.901C119.241 222.479 119.845 222.957 120.551 223.284C120.832 223.415 121.161 223.311 121.341 223.058C122.919 220.841 124.088 218.403 124.784 215.763C124.876 215.411 124.96 215.058 125.035 214.704Z" fill="url(#paint28_linear)"/>
<path d="M125.306 207.074C125.265 206.76 125.015 206.511 124.698 206.502C124.017 206.484 123.35 206.604 122.734 206.842C122.381 206.979 121.97 206.871 121.73 206.578C121.074 205.779 120.169 205.171 119.092 204.887C118.016 204.604 116.929 204.687 115.964 205.06C115.611 205.196 115.2 205.088 114.96 204.796C114.61 204.369 114.19 203.998 113.71 203.7C113.427 203.525 113.064 203.614 112.864 203.88C111.117 206.217 109.833 208.808 109.089 211.63C109.05 211.78 109.012 211.93 108.976 212.081C108.898 212.403 109.061 212.737 109.374 212.844C109.49 212.883 109.608 212.919 109.729 212.951C110.805 213.234 111.892 213.151 112.857 212.778C113.21 212.642 113.621 212.75 113.861 213.042C114.517 213.842 115.422 214.45 116.498 214.733C117.575 215.016 118.662 214.933 119.627 214.56C119.98 214.424 120.391 214.532 120.631 214.825C121.287 215.624 122.192 216.232 123.269 216.515C123.509 216.579 123.75 216.624 123.99 216.651C124.303 216.687 124.584 216.479 124.67 216.176C124.709 216.039 124.747 215.901 124.783 215.763C125.534 212.913 125.689 209.996 125.306 207.074Z" fill="url(#paint29_linear)"/>
<path d="M126.216 209.067C127.109 205.441 126.215 200.254 122.042 195.127C121.946 195.009 121.783 194.966 121.641 195.021C115.484 197.428 112.149 201.502 111.14 205.098C111.116 205.183 111.168 205.269 111.252 205.292C114.146 206.069 116.389 207.079 118.666 206.259C118.818 206.204 118.989 206.249 119.095 206.372C120.672 208.206 123.122 208.432 126.023 209.181C126.108 209.203 126.195 209.152 126.216 209.067Z" fill="url(#paint30_linear)"/>
<defs>
<linearGradient id="paint0_linear" x1="165.889" y1="107.857" x2="57.5623" y2="22.0247" gradientUnits="userSpaceOnUse">
<stop stop-color="white"/>
<stop offset="1" stop-color="#E395FF"/>
</linearGradient>
<linearGradient id="paint1_linear" x1="102.027" y1="134.308" x2="11.0382" y2="139.041" gradientUnits="userSpaceOnUse">
<stop stop-color="white"/>
<stop offset="1" stop-color="#E395FF"/>
</linearGradient>
<linearGradient id="paint2_linear" x1="98.6366" y1="253.008" x2="123.987" y2="136.036" gradientUnits="userSpaceOnUse">
<stop stop-color="white"/>
<stop offset="1" stop-color="#CF69FF"/>
</linearGradient>
<linearGradient id="paint3_linear" x1="61.5018" y1="282" x2="61.5018" y2="58.6298" gradientUnits="userSpaceOnUse">
<stop stop-color="white"/>
<stop offset="1" stop-color="#0047FF"/>
</linearGradient>
<linearGradient id="paint4_linear" x1="112.322" y1="-75.9038" x2="112.322" y2="282" gradientUnits="userSpaceOnUse">
<stop stop-color="white"/>
<stop offset="1" stop-color="#0047FF"/>
</linearGradient>
<linearGradient id="paint5_linear" x1="234.466" y1="104.08" x2="216.537" y2="103.411" gradientUnits="userSpaceOnUse">
<stop stop-color="#414751"/>
<stop offset="1" stop-color="#19394B"/>
</linearGradient>
<linearGradient id="paint6_linear" x1="105.623" y1="123.59" x2="91.8498" y2="149.022" gradientUnits="userSpaceOnUse">
<stop stop-color="#414751"/>
<stop offset="1" stop-color="#19394B"/>
</linearGradient>
<linearGradient id="paint7_linear" x1="106.842" y1="2.65456" x2="98.1523" y2="30.2405" gradientUnits="userSpaceOnUse">
<stop stop-color="#414751"/>
<stop offset="1" stop-color="#19394B"/>
</linearGradient>
<linearGradient id="paint8_linear" x1="3.32543" y1="61.1897" x2="21.487" y2="75.3341" gradientUnits="userSpaceOnUse">
<stop stop-color="#414751"/>
<stop offset="1" stop-color="#19394B"/>
</linearGradient>
<linearGradient id="paint9_linear" x1="19.5459" y1="238.691" x2="31.7871" y2="225.311" gradientUnits="userSpaceOnUse">
<stop stop-color="#414751"/>
<stop offset="1" stop-color="#19394B"/>
</linearGradient>
<linearGradient id="paint10_linear" x1="232.582" y1="282" x2="232.582" y2="167.022" gradientUnits="userSpaceOnUse">
<stop stop-color="white"/>
<stop offset="1" stop-color="#0047FF"/>
</linearGradient>
<linearGradient id="paint11_linear" x1="139.96" y1="55.2646" x2="153.809" y2="96.1825" gradientUnits="userSpaceOnUse">
<stop stop-color="#0038FF"/>
<stop offset="1" stop-color="#F1FF00"/>
</linearGradient>
<linearGradient id="paint12_linear" x1="121.069" y1="57.5955" x2="124.069" y2="73.8316" gradientUnits="userSpaceOnUse">
<stop stop-color="white"/>
<stop offset="1" stop-color="#C5D5FF"/>
</linearGradient>
<linearGradient id="paint13_linear" x1="210.084" y1="32.8283" x2="223.428" y2="73.9135" gradientUnits="userSpaceOnUse">
<stop stop-color="#0038FF"/>
<stop offset="1" stop-color="#F1FF00"/>
</linearGradient>
<linearGradient id="paint14_linear" x1="226.623" y1="23.4093" x2="233.919" y2="38.221" gradientUnits="userSpaceOnUse">
<stop stop-color="white"/>
<stop offset="1" stop-color="#C5D5FF"/>
</linearGradient>
<linearGradient id="paint15_linear" x1="178.747" y1="55.5084" x2="188.673" y2="86.0691" gradientUnits="userSpaceOnUse">
<stop stop-color="#19394B"/>
<stop offset="1" stop-color="#0038FF"/>
</linearGradient>
<linearGradient id="paint16_linear" x1="178.747" y1="55.5084" x2="188.673" y2="86.0691" gradientUnits="userSpaceOnUse">
<stop stop-color="#19394B"/>
<stop offset="1" stop-color="#0038FF"/>
</linearGradient>
<linearGradient id="paint17_linear" x1="180.093" y1="65.6213" x2="187.886" y2="89.6171" gradientUnits="userSpaceOnUse">
<stop stop-color="#19394B"/>
<stop offset="1" stop-color="#0038FF"/>
</linearGradient>
<linearGradient id="paint18_linear" x1="181.089" y1="62.7148" x2="185.503" y2="76.306" gradientUnits="userSpaceOnUse">
<stop stop-color="#19394B"/>
<stop offset="1" stop-color="#0038FF"/>
</linearGradient>
<linearGradient id="paint19_linear" x1="177.915" y1="52.9474" x2="182.33" y2="66.5386" gradientUnits="userSpaceOnUse">
<stop stop-color="#19394B"/>
<stop offset="1" stop-color="#0038FF"/>
</linearGradient>
<linearGradient id="paint20_linear" x1="173.428" y1="39.1463" x2="178.975" y2="56.2248" gradientUnits="userSpaceOnUse">
<stop stop-color="#19394B"/>
<stop offset="1" stop-color="#0038FF"/>
</linearGradient>
<linearGradient id="paint21_linear" x1="95.6103" y1="191.69" x2="88.1428" y2="221.548" gradientUnits="userSpaceOnUse">
<stop stop-color="#0038FF"/>
<stop offset="1" stop-color="#FF46B5"/>
</linearGradient>
<linearGradient id="paint22_linear" x1="83.3914" y1="185.806" x2="78.9321" y2="196.692" gradientUnits="userSpaceOnUse">
<stop stop-color="white"/>
<stop offset="1" stop-color="#C5D5FF"/>
</linearGradient>
<linearGradient id="paint23_linear" x1="146.283" y1="205.269" x2="138.447" y2="235.035" gradientUnits="userSpaceOnUse">
<stop stop-color="#0038FF"/>
<stop offset="1" stop-color="#FF46B5"/>
</linearGradient>
<linearGradient id="paint24_linear" x1="159.824" y1="205.999" x2="158.488" y2="217.687" gradientUnits="userSpaceOnUse">
<stop stop-color="white"/>
<stop offset="1" stop-color="#C5D5FF"/>
</linearGradient>
<linearGradient id="paint25_linear" x1="118.758" y1="206.784" x2="112.93" y2="228.923" gradientUnits="userSpaceOnUse">
<stop stop-color="#19394B"/>
<stop offset="1" stop-color="#0038FF"/>
</linearGradient>
<linearGradient id="paint26_linear" x1="118.758" y1="206.784" x2="112.93" y2="228.923" gradientUnits="userSpaceOnUse">
<stop stop-color="#19394B"/>
<stop offset="1" stop-color="#0038FF"/>
</linearGradient>
<linearGradient id="paint27_linear" x1="115.663" y1="213.362" x2="111.087" y2="230.746" gradientUnits="userSpaceOnUse">
<stop stop-color="#19394B"/>
<stop offset="1" stop-color="#0038FF"/>
</linearGradient>
<linearGradient id="paint28_linear" x1="117.382" y1="212.004" x2="114.79" y2="221.85" gradientUnits="userSpaceOnUse">
<stop stop-color="#19394B"/>
<stop offset="1" stop-color="#0038FF"/>
</linearGradient>
<linearGradient id="paint29_linear" x1="119.247" y1="204.928" x2="116.654" y2="214.774" gradientUnits="userSpaceOnUse">
<stop stop-color="#19394B"/>
<stop offset="1" stop-color="#0038FF"/>
</linearGradient>
<linearGradient id="paint30_linear" x1="121.88" y1="194.929" x2="118.623" y2="207.302" gradientUnits="userSpaceOnUse">
<stop stop-color="#19394B"/>
<stop offset="1" stop-color="#0038FF"/>
</linearGradient>
</defs>
</svg>
