<svg width="294" height="342" viewBox="0 0 294 342" fill="none" xmlns="http://www.w3.org/2000/svg">
<path d="M122.258 6.83957C125.18 41.4761 166.848 55.1477 164.141 89.6715C162.191 114.554 142.158 129.086 137.397 153.291C128.329 199.392 157.18 212.162 164.141 259.236C171.102 306.31 137.397 336.452 137.397 336.452" stroke="#BEE7B5" stroke-width="5"/>
<path d="M192.63 1C192.63 1 207.625 6.5 202.999 24.5C198.373 42.5 163.12 50.2556 189.125 83.5C215.13 116.744 170.988 143.5 176.625 166.5C182.262 189.5 208.979 188.58 202.999 215.5C199.444 231.504 187.377 236.424 182.262 252C171.406 285.061 211.625 297 192.63 340.5" stroke="#9CC592" stroke-width="2"/>
<path d="M195.401 340.5C195.401 340.5 180.406 335 185.033 317C189.659 299 217.13 285.744 191.125 252.5C165.12 219.256 205.769 222.5 205.769 191.5C205.769 168.647 173.645 150.92 179.625 124C184.47 102.188 200.655 105.076 205.769 89.5C216.625 56.439 176.406 44.5 195.401 0.999999" stroke="#9CC592" stroke-width="2"/>
<path d="M69.0013 340.5C69.0013 340.5 54.0069 335 58.6331 317C63.2593 299 98.5116 291.244 72.5067 258C46.5019 224.756 90.6435 198 85.0067 175C79.3698 152 52.653 152.92 58.6331 126C62.1883 109.996 74.2552 105.076 79.3696 89.5C90.2257 56.439 50.0067 44.5 69.0014 0.999999" stroke="#9CC592" stroke-width="2"/>
<path d="M66.231 1C66.231 1 81.2254 6.5 76.5993 24.5C71.9731 42.5 44.502 55.7556 70.5068 89C96.5117 122.244 55.8627 119 55.8627 150C55.8627 172.853 87.9871 190.58 82.0069 217.5C77.1615 239.312 60.9772 236.424 55.8627 252C45.0066 285.061 85.2257 297 66.231 340.5" stroke="#9CC592" stroke-width="2"/>
<path d="M19.6115 336.452C19.6115 336.452 50.4131 310.292 46.6943 277.492C42.7106 242.355 -2.52479 214.282 5.2844 179.857C10.9127 155.046 27.7658 150.637 36.5239 126.886C53.2039 81.6521 11.6594 55.2127 10.0958 6.83957" stroke="#BEE7B5" stroke-width="5"/>
<path d="M135.861 6.83957C135.861 6.83957 103.255 28.6419 108.445 55.0962C114.004 83.4353 164.207 105.202 156.909 133.211C151.649 153.398 133.464 157.315 124.761 176.71C108.187 213.647 162.584 249.008 157.704 273.265C152.823 297.522 113.426 312.008 124.761 336.452" stroke="#9CC592" stroke-width="2"/>
<path d="M241 336.452C241 336.452 301.351 285 291.351 232C280.963 176.942 243.647 185.146 250.351 130C255.183 90.2549 291.351 78 278.19 2" stroke="#9CC592" stroke-width="2"/>
<path d="M242.287 6.8396C230.272 32.354 266.44 37.2961 279.336 68.5649C297.118 111.683 240.126 131.115 242.287 173C244.449 214.885 267.055 207.628 280.588 257.255C294.121 306.883 279.336 336.452 279.336 336.452" stroke="#BEE7B5" stroke-width="5"/>
<path d="M96.8224 99.9903C99.115 99.2586 98.4407 97.7551 98.0873 97.4309C97.7096 97.0845 96.3002 96.1921 94.6311 97.9773C93.7251 98.9462 93.6406 101.222 93.6406 101.222L94.2141 102.248L95.3688 101.763C95.3688 101.763 95.7044 100.347 96.8224 99.9903Z" fill="#F56191"/>
<path d="M107.785 110.597C112.189 111.446 112.432 108.386 112.144 107.54C111.836 106.636 110.329 103.919 106.002 105.349C103.654 106.125 101.48 109.771 101.48 109.771L101.5 111.961L103.822 112.199C103.822 112.199 105.637 110.183 107.785 110.597Z" fill="#F56191"/>
<path d="M58.5833 128.239C55.707 130.332 54.5 128.215 54.4215 127.511C54.3376 126.758 54.5027 124.299 58.0928 123.87C60.0414 123.636 62.8334 125.523 62.8334 125.523L63.5575 127.102L61.9703 128.055C61.9703 128.055 59.9861 127.218 58.5833 128.239Z" fill="#F56191"/>
<path d="M69.1004 103.492C65.5526 103.217 66.0113 100.825 66.4095 100.239C66.8352 99.612 68.5596 97.8496 71.5688 99.852C73.2021 100.939 74.0979 104.185 74.0979 104.185L73.6215 105.855L71.7952 105.55C71.7952 105.55 70.8306 103.626 69.1004 103.492Z" fill="#F56191"/>
<path d="M104.643 140.172C109.119 140.467 108.73 144.107 108.236 144.852C107.709 145.648 106.278 148.038 102.457 145.558C100.382 144.212 98.4891 139.99 98.4891 139.99L101.372 138.236C101.372 138.236 102.461 140.028 104.643 140.172Z" fill="#F56191"/>
<path d="M110.836 124.569C113.9 121.298 115.897 123.633 116.161 124.486C116.443 125.398 116.822 128.481 112.479 129.863C110.122 130.612 106.218 128.937 106.218 128.937L104.947 127.153L106.686 125.598C106.686 125.598 109.341 126.165 110.836 124.569Z" fill="#F56191"/>
<path d="M76.7226 149.856C76.2206 154.308 73.2234 153.626 72.5014 153.099C71.7295 152.536 69.5822 150.29 72.2393 146.591C73.6815 144.584 77.8146 143.599 77.8146 143.599L79.9006 144.271L79.4356 146.556C79.4356 146.556 76.9675 147.685 76.7226 149.856Z" fill="#F56191"/>
<path d="M81.5295 96.6677C84.4924 94.0139 82.4563 92.2013 81.7035 91.9512C80.8988 91.6838 78.1678 91.2902 76.8592 95.1119C76.1489 97.1862 77.5635 100.677 77.5635 100.677L79.1238 101.836L80.5376 100.325C80.5376 100.325 80.0844 97.9619 81.5295 96.6677Z" fill="#F56191"/>
<path d="M60.4851 113.008C56.5077 112.87 57.1358 109.198 57.5527 108.524C57.9983 107.804 59.7036 105.185 62.5821 106.684C64.5286 107.697 66.2557 113.008 66.2557 113.008L66.2572 114.897L64.2019 114.643C64.2019 114.643 62.4249 113.075 60.4851 113.008Z" fill="#F56191"/>
<path d="M89.7098 149.447C88.3219 153.173 91.9603 153.992 92.7431 153.863C93.5801 153.726 96.5286 153.881 95.9082 149.89C95.5715 147.724 91.9081 144.118 91.9081 144.118L90.1599 143.397L89.6118 145.392C89.6118 145.392 90.3867 147.63 89.7098 149.447Z" fill="#F56191"/>
<path d="M113.171 126.203C111.885 141.505 98.0784 152.674 82.7765 151.191C67.722 149.732 56.5041 136.783 57.6862 121.722C58.8419 106.998 70.1492 96.5118 84.9361 96.5115C101.537 96.5111 114.492 110.497 113.171 126.203Z" fill="#F56191"/>
<path d="M86.3611 96.8952C85.2899 96.8777 84.2353 96.9189 83.2002 97.0158M96.8092 149.987C99.3019 149.012 101.631 147.69 103.727 146.073M90.1113 151.689C88.0891 151.942 86.0097 151.978 83.9019 151.774C81.8423 151.574 79.8545 151.16 77.9604 150.554M64.0133 107.902C66.2357 104.83 69.0738 102.275 72.365 100.402C73.9568 99.4965 75.6547 98.7502 77.4401 98.1822M60.8864 113.523C59.7714 116.233 59.0567 119.184 58.8117 122.305C57.96 133.156 62.2728 142.48 72.365 148.536M102.287 102.185C103.698 103.183 105.02 104.301 106.233 105.522M108.375 141.531C111.67 137.451 113.825 132.396 114.297 126.786C114.784 120.987 113.255 115.43 110.337 110.715" stroke="#9F0039" stroke-width="1.5" stroke-linecap="round"/>
<path d="M86.4208 109.073C86.4208 109.073 88.4214 106.462 86.8262 105.358C82.3666 102.27 85.8032 100.083 87.8805 100.083C92.3402 100.083 95.9074 103.971 91.0287 105.358C89.2904 105.852 89.2406 108.542 89.6091 109.623" stroke="#9F0039" stroke-width="1.5" stroke-linecap="round"/>
<path d="M88.5145 123.02C90.5001 126.465 88.0162 128.878 85.6091 128.347C83.6296 127.91 82.5406 126.495 82.5402 123.682" stroke="#9F0039" stroke-width="1.5" stroke-linecap="round"/>
<path d="M80.8374 134.304C78.336 135.735 80.1735 138.238 79.6743 139.783C79.2871 140.981 77.6157 141.898 75.4717 141.303C72.6148 140.509 71.0387 136.92 74.3394 135.879C77.6402 134.838 78.2657 134.726 77.7179 132.693" stroke="#9F0039" stroke-width="1.5" stroke-linecap="round"/>
<path d="M65.3794 110.288C63.1091 109.397 64.0451 106.897 62.2579 106.076C60.2308 105.145 58.244 106.643 57.644 108.158C57.3568 108.883 56.5008 111.178 58.69 112.798C61.2037 114.094 61.9335 112.15 63.8796 112.798" stroke="#9F0039" stroke-width="1.5" stroke-linecap="round"/>
<path d="M72.0686 123.407C72.0686 123.407 69.6499 122.821 69.0935 125.061C68.1767 128.753 64.9128 127.936 64.0021 124.237C63.0914 120.538 65.2936 117.425 66.8984 119.349C69.4995 122.468 71.2581 120.006 71.2581 120.006" stroke="#9F0039" stroke-width="1.5" stroke-linecap="round"/>
<path d="M70.7977 109.865C72.3351 111.149 74.2931 110.1 76.2711 108.898C78.2853 107.674 80.1602 106.359 79.3491 104.553C78.538 102.747 76.0518 102.528 73.834 103.343C70.9672 104.396 68.7743 108.174 70.7977 109.865Z" fill="#FFB9D0"/>
<path d="M87.0474 102.467C87.2005 103.013 87.7355 103.22 88.3034 103.201C88.8817 103.181 89.4518 102.927 89.5177 102.352C89.5836 101.778 89.0945 101.365 88.527 101.252C87.7934 101.106 86.8458 101.747 87.0474 102.467Z" fill="#FFB9D0"/>
<path d="M65.688 123.333C66.0662 123.757 66.6378 123.708 67.1392 123.44C67.6498 123.168 68.0499 122.69 67.8562 122.145C67.6625 121.601 67.0413 121.444 66.4818 121.592C65.7587 121.783 65.1902 122.775 65.688 123.333Z" fill="#FFB9D0"/>
<path d="M81.3581 146.65C78.9024 143.768 89.9343 140.412 94.9765 136.126C100.019 131.84 106.068 122.578 109.489 126.595C111.51 128.966 106.883 138.052 101.841 142.338C96.7985 146.624 84.8383 150.735 81.3581 146.65Z" fill="#E43D73"/>
<path d="M99.2805 128.96C103.089 130.114 103.18 133.368 101.536 134.636C99.6407 136.099 95.3734 136.324 94.6843 130.652" stroke="#9F0039" stroke-width="1.5" stroke-linecap="round"/>
<path d="M89.9077 145.679C89.9077 145.679 92.467 146.551 90.7183 149.161C88.5737 152.362 90.0105 154.013 92.3609 154.013C95.3516 154.013 97.6917 151.105 95.5024 149.161C93.049 146.983 94.0428 144.626 94.0428 144.626" stroke="#9F0039" stroke-width="1.5" stroke-linecap="round"/>
<path d="M97.9917 131.492C98.21 132.016 98.7661 132.157 99.3275 132.069C99.8991 131.979 100.434 131.658 100.43 131.08C100.426 130.502 99.8902 130.151 99.3132 130.107C98.5673 130.051 97.7045 130.802 97.9917 131.492Z" fill="#FFB9D0"/>
<path d="M59.4917 108.96C59.71 109.484 60.2661 109.625 60.8275 109.537C61.3991 109.447 61.9342 109.126 61.93 108.548C61.9258 107.97 61.3902 107.619 60.8132 107.575C60.0673 107.519 59.2045 108.27 59.4917 108.96Z" fill="#FFB9D0"/>
<path d="M106.438 116.158C110.365 115.513 111.753 118.684 110.408 120.748C109.303 122.445 107.593 122.966 104.957 121.977" stroke="#9F0039" stroke-width="1.5" stroke-linecap="round"/>
<path d="M89.961 141.264C89.7622 142.281 89.2866 144.327 86.8799 143.795C85.908 143.58 85.19 142.926 84.5438 141.536" stroke="#9F0039" stroke-width="1.5" stroke-linecap="round"/>
<path d="M98.5882 108.706C99.1987 108.217 100.471 107.271 101.596 108.749C102.051 109.345 102.145 110.071 101.839 111.186" stroke="#9F0039" stroke-width="1.5" stroke-linecap="round"/>
<path d="M64.5247 132.749C63.7295 133.345 62.3783 135.378 64.3012 136.919C65.0777 137.541 66.5142 137.54 67.5813 136.919" stroke="#9F0039" stroke-width="1.5" stroke-linecap="round"/>
<path d="M102.799 143.249C102.799 147.218 106.038 147.295 107.526 145.854C108.469 144.941 109.691 141.387 105.394 141.387" stroke="#9F0039" stroke-width="1.5" stroke-linecap="round"/>
<path d="M247.676 223.567C249.968 222.835 249.294 221.331 248.941 221.007C248.563 220.661 247.154 219.769 245.485 221.554C244.579 222.523 244.494 224.798 244.494 224.798L245.068 225.824L246.222 225.339C246.222 225.339 246.558 223.924 247.676 223.567Z" fill="#F56191"/>
<path d="M258.639 234.173C263.043 235.023 263.285 231.962 262.997 231.116C262.689 230.213 261.183 227.495 256.856 228.925C254.507 229.701 252.333 233.348 252.333 233.348L252.354 235.537L254.675 235.775C254.675 235.775 256.491 233.759 258.639 234.173Z" fill="#F56191"/>
<path d="M209.437 251.815C206.561 253.908 205.354 251.791 205.275 251.087C205.191 250.335 205.356 247.876 208.946 247.446C210.895 247.213 213.687 249.1 213.687 249.1L214.411 250.679L212.824 251.632C212.824 251.632 210.84 250.795 209.437 251.815Z" fill="#F56191"/>
<path d="M219.954 227.069C216.406 226.794 216.865 224.402 217.263 223.815C217.689 223.188 219.413 221.426 222.422 223.428C224.056 224.515 224.951 227.761 224.951 227.761L224.475 229.432L222.649 229.126C222.649 229.126 221.684 227.203 219.954 227.069Z" fill="#F56191"/>
<path d="M255.497 263.748C259.973 264.044 259.583 267.684 259.09 268.429C258.563 269.225 257.132 271.615 253.31 269.134C251.236 267.788 249.343 263.566 249.343 263.566L252.225 261.812C252.225 261.812 253.314 263.604 255.497 263.748Z" fill="#F56191"/>
<path d="M261.689 248.146C264.754 244.875 266.75 247.209 267.014 248.063C267.297 248.975 267.675 252.058 263.333 253.439C260.976 254.189 257.072 252.513 257.072 252.513L255.801 250.73L257.54 249.175C257.54 249.175 260.195 249.741 261.689 248.146Z" fill="#F56191"/>
<path d="M227.576 273.433C227.074 277.884 224.077 277.202 223.355 276.676C222.583 276.113 220.436 273.866 223.093 270.167C224.535 268.16 228.668 267.175 228.668 267.175L230.754 267.848L230.289 270.132C230.289 270.132 227.821 271.261 227.576 273.433Z" fill="#F56191"/>
<path d="M232.383 220.244C235.346 217.59 233.31 215.778 232.557 215.528C231.752 215.26 229.021 214.867 227.713 218.688C227.002 220.763 228.417 224.253 228.417 224.253L229.977 225.413L231.391 223.901C231.391 223.901 230.938 221.538 232.383 220.244Z" fill="#F56191"/>
<path d="M211.339 236.584C207.361 236.447 207.989 232.775 208.406 232.101C208.852 231.38 210.557 228.762 213.436 230.26C215.382 231.273 217.109 236.585 217.109 236.585L217.111 238.474L215.055 238.22C215.055 238.22 213.278 236.651 211.339 236.584Z" fill="#F56191"/>
<path d="M240.563 273.024C239.175 276.749 242.814 277.568 243.597 277.44C244.434 277.303 247.382 277.458 246.762 273.466C246.425 271.3 242.762 267.695 242.762 267.695L241.013 266.973L240.465 268.968C240.465 268.968 241.24 271.207 240.563 273.024Z" fill="#F56191"/>
<path d="M264.025 249.779C262.739 265.081 248.932 276.251 233.63 274.768C218.576 273.309 207.358 260.359 208.54 245.299C209.695 230.575 221.003 220.088 235.79 220.088C252.391 220.088 265.345 234.073 264.025 249.779Z" fill="#F56191"/>
<path d="M237.215 220.472C236.143 220.454 235.089 220.495 234.054 220.592M247.663 273.563C250.155 272.589 252.485 271.266 254.58 269.65M240.965 275.265C238.943 275.519 236.863 275.555 234.755 275.35C232.696 275.151 230.708 274.736 228.814 274.13M214.867 231.478C217.089 228.406 219.927 225.851 223.218 223.979C224.81 223.073 226.508 222.327 228.294 221.759M211.74 237.1C210.625 239.81 209.91 242.76 209.665 245.881C208.813 256.733 213.126 266.056 223.218 272.113M253.14 225.762C254.552 226.759 255.873 227.877 257.086 229.099M259.229 265.107C262.524 261.028 264.679 255.973 265.15 250.362C265.638 244.563 264.108 239.007 261.19 234.291" stroke="#9F0039" stroke-width="1.5" stroke-linecap="round"/>
<path d="M237.274 232.649C237.274 232.649 239.275 230.039 237.68 228.934C233.22 225.846 236.657 223.66 238.734 223.66C243.194 223.66 246.761 227.547 241.882 228.934C240.144 229.428 240.094 232.118 240.463 233.2" stroke="#9F0039" stroke-width="1.5" stroke-linecap="round"/>
<path d="M239.368 246.596C241.354 250.041 238.87 252.454 236.463 251.923C234.483 251.487 233.394 250.072 233.394 247.258" stroke="#9F0039" stroke-width="1.5" stroke-linecap="round"/>
<path d="M231.691 257.88C229.19 259.312 231.027 261.814 230.528 263.359C230.141 264.558 228.469 265.475 226.325 264.879C223.468 264.086 221.892 260.497 225.193 259.456C228.494 258.415 229.119 258.302 228.571 256.27" stroke="#9F0039" stroke-width="1.5" stroke-linecap="round"/>
<path d="M216.233 233.864C213.963 232.973 214.899 230.474 213.111 229.653C211.084 228.721 209.098 230.22 208.497 231.734C208.21 232.46 207.354 234.755 209.544 236.375C212.057 237.67 212.787 235.727 214.733 236.375" stroke="#9F0039" stroke-width="1.5" stroke-linecap="round"/>
<path d="M222.922 246.984C222.922 246.984 220.503 246.397 219.947 248.637C219.03 252.329 215.766 251.513 214.856 247.814C213.945 244.115 216.147 241.001 217.752 242.926C220.353 246.045 222.112 243.582 222.112 243.582" stroke="#9F0039" stroke-width="1.5" stroke-linecap="round"/>
<path d="M221.651 233.441C223.189 234.725 225.147 233.676 227.125 232.474C229.139 231.25 231.014 229.935 230.203 228.129C229.392 226.323 226.905 226.104 224.687 226.919C221.821 227.972 219.628 231.751 221.651 233.441Z" fill="#FFB9D0"/>
<path d="M237.901 226.043C238.054 226.59 238.589 226.797 239.157 226.777C239.735 226.757 240.305 226.503 240.371 225.929C240.437 225.355 239.948 224.941 239.38 224.828C238.647 224.682 237.699 225.324 237.901 226.043Z" fill="#FFB9D0"/>
<path d="M216.541 246.909C216.92 247.333 217.491 247.284 217.993 247.017C218.503 246.745 218.903 246.266 218.71 245.722C218.516 245.177 217.895 245.021 217.335 245.168C216.612 245.36 216.044 246.352 216.541 246.909Z" fill="#FFB9D0"/>
<path d="M232.212 270.226C229.756 267.344 240.788 263.988 245.83 259.702C250.872 255.417 256.921 246.155 260.343 250.171C262.364 252.542 257.736 261.629 252.694 265.915C247.652 270.2 235.692 274.311 232.212 270.226Z" fill="#E43D73"/>
<path d="M250.134 252.537C253.943 253.69 254.034 256.944 252.39 258.213C250.494 259.675 246.227 259.901 245.538 254.228" stroke="#9F0039" stroke-width="1.5" stroke-linecap="round"/>
<path d="M240.761 269.255C240.761 269.255 243.321 270.128 241.572 272.738C239.427 275.939 240.864 277.589 243.214 277.589C246.205 277.589 248.545 274.681 246.356 272.738C243.903 270.559 244.896 268.202 244.896 268.202" stroke="#9F0039" stroke-width="1.5" stroke-linecap="round"/>
<path d="M248.845 255.068C249.063 255.592 249.62 255.733 250.181 255.645C250.753 255.555 251.288 255.234 251.284 254.656C251.279 254.078 250.744 253.727 250.167 253.684C249.421 253.627 248.558 254.379 248.845 255.068Z" fill="#FFB9D0"/>
<path d="M210.345 232.537C210.563 233.061 211.12 233.201 211.681 233.113C212.253 233.023 212.788 232.702 212.784 232.124C212.779 231.547 212.244 231.195 211.667 231.152C210.921 231.096 210.058 231.847 210.345 232.537Z" fill="#FFB9D0"/>
<path d="M257.291 239.734C261.219 239.09 262.606 242.261 261.262 244.325C260.156 246.022 258.447 246.542 255.81 245.553" stroke="#9F0039" stroke-width="1.5" stroke-linecap="round"/>
<path d="M240.815 264.841C240.616 265.857 240.14 267.904 237.733 267.371C236.761 267.156 236.044 266.503 235.397 265.113" stroke="#9F0039" stroke-width="1.5" stroke-linecap="round"/>
<path d="M249.442 232.282C250.052 231.793 251.324 230.847 252.45 232.325C252.904 232.922 252.999 233.647 252.692 234.762" stroke="#9F0039" stroke-width="1.5" stroke-linecap="round"/>
<path d="M215.378 256.326C214.583 256.921 213.232 258.955 215.155 260.495C215.931 261.118 217.368 261.116 218.435 260.495" stroke="#9F0039" stroke-width="1.5" stroke-linecap="round"/>
<path d="M253.652 266.826C253.652 270.794 256.892 270.871 258.38 269.43C259.323 268.517 260.545 264.963 256.247 264.963" stroke="#9F0039" stroke-width="1.5" stroke-linecap="round"/>
<path d="M118.162 206.969C123.39 205.301 121.852 201.872 121.047 201.133C120.185 200.343 116.972 198.308 113.166 202.379C111.1 204.588 110.907 209.778 110.907 209.778L112.215 212.116L114.848 211.012C114.848 211.012 115.613 207.783 118.162 206.969Z" fill="#F56191"/>
<path d="M143.161 231.155C153.203 233.092 153.756 226.113 153.099 224.185C152.397 222.124 148.962 215.928 139.095 219.188C133.74 220.958 128.782 229.273 128.782 229.273L128.829 234.265L134.123 234.808C134.123 234.808 138.263 230.211 143.161 231.155Z" fill="#F56191"/>
<path d="M30.9697 271.383C24.4109 276.155 21.6588 271.329 21.4797 269.723C21.2884 268.007 21.6647 262.4 29.851 261.42C34.2944 260.888 40.661 265.191 40.661 265.191L42.312 268.792L38.6929 270.964C38.6929 270.964 34.1684 269.056 30.9697 271.383Z" fill="#F56191"/>
<path d="M54.9504 214.955C46.8605 214.328 47.9065 208.873 48.8145 207.536C49.7852 206.107 53.7173 202.088 60.579 206.654C64.3033 209.132 66.3461 216.534 66.3461 216.534L65.2597 220.343L61.0952 219.647C61.0952 219.647 58.8958 215.261 54.9504 214.955Z" fill="#F56191"/>
<path d="M135.996 298.594C146.201 299.267 145.314 307.567 144.189 309.265C142.986 311.081 139.724 316.531 131.01 310.875C126.28 307.805 121.962 298.178 121.962 298.178L128.536 294.178C128.536 294.178 131.019 298.265 135.996 298.594Z" fill="#F56191"/>
<path d="M150.118 263.016C157.107 255.557 161.658 260.881 162.261 262.826C162.905 264.906 163.769 271.936 153.866 275.086C148.491 276.795 139.589 272.975 139.589 272.975L136.691 268.908L140.656 265.362C140.656 265.362 146.71 266.654 150.118 263.016Z" fill="#F56191"/>
<path d="M72.3302 320.676C71.1853 330.827 64.351 329.272 62.7046 328.071C60.9445 326.788 56.0481 321.664 62.107 313.231C65.3956 308.653 74.8202 306.407 74.8202 306.407L79.5768 307.941L78.5165 313.15C78.5165 313.15 72.8885 315.725 72.3302 320.676Z" fill="#F56191"/>
<path d="M83.2908 199.393C90.047 193.342 85.4042 189.208 83.6877 188.638C81.8527 188.028 75.6253 187.131 72.6414 195.845C71.0218 200.575 74.2474 208.535 74.2474 208.535L77.8054 211.179L81.0291 207.732C81.0291 207.732 79.9958 202.344 83.2908 199.393Z" fill="#F56191"/>
<path d="M35.3057 236.653C26.2363 236.339 27.6685 227.966 28.6191 226.429C29.6352 224.785 33.5238 218.815 40.0875 222.232C44.526 224.542 48.4642 236.653 48.4642 236.653L48.4677 240.961L43.781 240.382C43.781 240.382 39.7289 236.806 35.3057 236.653Z" fill="#F56191"/>
<path d="M101.945 319.744C98.7798 328.239 107.076 330.106 108.861 329.814C110.77 329.501 117.493 329.854 116.078 320.753C115.311 315.814 106.957 307.592 106.957 307.592L102.971 305.948L101.721 310.496C101.721 310.496 103.488 315.601 101.945 319.744Z" fill="#F56191"/>
<path d="M155.443 266.741C152.509 301.632 121.027 327.102 86.1345 323.721C51.8065 320.394 26.2268 290.866 28.9224 256.523C31.5576 222.949 57.3412 199.038 91.0589 199.037C128.914 199.036 158.454 230.926 155.443 266.741Z" fill="#F56191"/>
<path d="M94.3085 199.912C91.8658 199.872 89.4611 199.966 87.1008 200.187M118.133 320.974C123.817 318.752 129.128 315.736 133.907 312.05M102.86 324.855C98.2487 325.433 93.5072 325.515 88.7009 325.049C84.0045 324.594 79.4717 323.649 75.1527 322.267M43.3497 225.01C48.4174 218.005 54.8889 212.179 62.3937 207.909C66.0235 205.843 69.8951 204.142 73.9664 202.846M36.2197 237.828C33.6771 244.007 32.0474 250.735 31.4888 257.852C29.5467 282.596 39.3811 303.857 62.3937 317.667M130.622 211.974C133.842 214.249 136.855 216.799 139.621 219.584M144.507 301.693C152.02 292.39 156.934 280.863 158.009 268.07C159.121 254.846 155.633 242.176 148.979 231.424" stroke="#9F0039" stroke-width="2.13358" stroke-linecap="round"/>
<path d="M94.4451 227.68C94.4451 227.68 99.0069 221.727 95.3695 219.208C85.2005 212.167 93.0368 207.181 97.7736 207.181C107.943 207.181 116.077 216.045 104.952 219.208C100.988 220.335 100.875 226.469 101.715 228.935" stroke="#9F0039" stroke-width="2.13358" stroke-linecap="round"/>
<path d="M99.2199 259.483C103.748 267.338 98.0837 272.84 92.595 271.63C88.0811 270.634 85.5979 267.407 85.5971 260.992" stroke="#9F0039" stroke-width="2.13358" stroke-linecap="round"/>
<path d="M81.7136 285.212C76.0099 288.477 80.1998 294.183 79.0615 297.706C78.1785 300.44 74.3674 302.53 69.4786 301.172C62.9641 299.363 59.3701 291.179 66.8966 288.805C74.4232 286.432 75.8496 286.175 74.6005 281.541" stroke="#9F0039" stroke-width="2.13358" stroke-linecap="round"/>
<path d="M46.4654 230.45C41.2884 228.418 43.4228 222.719 39.3474 220.847C34.7251 218.723 30.1948 222.139 28.8266 225.594C28.1717 227.247 26.2199 232.481 31.2118 236.174C36.9436 239.129 38.6078 234.697 43.0454 236.174" stroke="#9F0039" stroke-width="2.13358" stroke-linecap="round"/>
<path d="M61.7192 260.366C61.7192 260.366 56.204 259.028 54.9354 264.137C52.8449 272.555 45.4023 270.693 43.3257 262.259C41.249 253.824 46.2706 246.725 49.9299 251.113C55.861 258.225 59.8711 252.61 59.8711 252.61" stroke="#9F0039" stroke-width="2.13358" stroke-linecap="round"/>
<path d="M58.8214 229.485C62.3269 232.413 66.7916 230.022 71.302 227.281C75.8949 224.49 80.1701 221.491 78.3207 217.373C76.4712 213.255 70.8019 212.756 65.7448 214.614C59.2079 217.015 54.2074 225.631 58.8214 229.485Z" fill="#FFB9D0"/>
<path d="M95.872 212.616C96.2211 213.862 97.441 214.334 98.7361 214.29C100.055 214.244 101.355 213.665 101.505 212.355C101.655 211.046 100.54 210.103 99.2458 209.846C97.5731 209.513 95.4124 210.975 95.872 212.616Z" fill="#FFB9D0"/>
<path d="M47.1693 260.197C48.0317 261.163 49.3351 261.051 50.4785 260.442C51.6427 259.821 52.5552 258.73 52.1135 257.488C51.6719 256.246 50.2552 255.89 48.9796 256.227C47.3307 256.663 46.0342 258.925 47.1693 260.197Z" fill="#FFB9D0"/>
<path d="M82.902 313.365C77.3024 306.793 102.458 299.14 113.955 289.368C125.453 279.595 139.246 258.476 147.049 267.634C151.656 273.041 141.105 293.761 129.607 303.533C118.11 313.306 90.8377 322.679 82.902 313.365Z" fill="#E43D73"/>
<path d="M123.769 273.028C132.454 275.658 132.662 283.079 128.913 285.971C124.59 289.306 114.86 289.82 113.289 276.885" stroke="#9F0039" stroke-width="2.13358" stroke-linecap="round"/>
<path d="M102.396 311.151C102.396 311.151 108.232 313.14 104.244 319.092C99.354 326.391 102.63 330.155 107.99 330.155C114.809 330.155 120.145 323.524 115.153 319.092C109.559 314.125 111.825 308.75 111.825 308.75" stroke="#9F0039" stroke-width="2.13358" stroke-linecap="round"/>
<path d="M120.83 278.801C121.328 279.996 122.596 280.317 123.876 280.116C125.18 279.911 126.4 279.179 126.39 277.861C126.381 276.543 125.159 275.742 123.844 275.643C122.143 275.515 120.175 277.228 120.83 278.801Z" fill="#FFB9D0"/>
<path d="M33.0414 227.423C33.539 228.618 34.8071 228.939 36.0872 228.738C37.3907 228.533 38.6109 227.801 38.6013 226.483C38.5917 225.165 37.3704 224.364 36.0546 224.265C34.3538 224.137 32.3864 225.85 33.0414 227.423Z" fill="#FFB9D0"/>
<path d="M12.8001 250.161C13.4967 251.834 15.2717 252.283 17.0634 252.002C18.888 251.715 20.5959 250.691 20.5825 248.846C20.569 247.001 18.8596 245.88 17.0178 245.741C14.6372 245.562 11.8833 247.96 12.8001 250.161Z" fill="#F56191" stroke="#9F0039" stroke-width="2.13358" stroke-linecap="round"/>
<path d="M160.184 231.62C161.693 232.626 163.419 232.017 164.754 230.79C166.113 229.541 166.966 227.743 165.93 226.215C164.895 224.687 162.85 224.701 161.24 225.606C159.16 226.775 158.199 230.296 160.184 231.62Z" fill="#F56191" stroke="#9F0039" stroke-width="2.13358" stroke-linecap="round"/>
<path d="M136.023 323.569C135.318 325.238 136.243 326.817 137.701 327.895C139.185 328.992 141.115 329.489 142.421 328.185C143.728 326.881 143.328 324.878 142.135 323.47C140.593 321.65 136.95 321.372 136.023 323.569Z" fill="#F56191" stroke="#9F0039" stroke-width="2.13358" stroke-linecap="round"/>
<path d="M140.089 243.836C149.044 242.366 152.208 249.597 149.143 254.303C146.622 258.173 142.724 259.359 136.712 257.104" stroke="#9F0039" stroke-width="2.13358" stroke-linecap="round"/>
<path d="M102.517 301.084C102.063 303.403 100.979 308.069 95.4909 306.855C93.2747 306.365 91.6376 304.874 90.1642 301.705" stroke="#9F0039" stroke-width="2.13358" stroke-linecap="round"/>
<path d="M122.191 226.842C123.583 225.728 126.484 223.571 129.05 226.94C130.087 228.301 130.302 229.956 129.603 232.497" stroke="#9F0039" stroke-width="2.13358" stroke-linecap="round"/>
<path d="M44.5175 281.668C42.7042 283.026 39.6231 287.663 44.0078 291.176C45.7784 292.595 49.054 292.591 51.4873 291.176" stroke="#9F0039" stroke-width="2.13358" stroke-linecap="round"/>
<path d="M131.792 305.611C131.792 314.659 139.179 314.836 142.572 311.55C144.722 309.467 147.508 301.363 137.71 301.363" stroke="#9F0039" stroke-width="2.13358" stroke-linecap="round"/>
<path d="M255.16 30.8274C259.226 29.5296 258.031 26.8631 257.404 26.2883C256.734 25.6738 254.234 24.0911 251.274 27.2572C249.667 28.9756 249.517 33.0117 249.517 33.0117L250.535 34.8306L252.582 33.9714C252.582 33.9714 253.178 31.4604 255.16 30.8274Z" fill="#F56191"/>
<path d="M274.603 49.6385C282.414 51.1447 282.844 45.7165 282.333 44.217C281.787 42.6141 279.115 37.7949 271.441 40.3309C267.276 41.7073 263.42 48.1744 263.42 48.1744L263.457 52.057L267.574 52.4794C267.574 52.4794 270.794 48.9039 274.603 49.6385Z" fill="#F56191"/>
<path d="M187.343 80.9272C182.242 84.6385 180.101 80.8847 179.962 79.6359C179.813 78.3008 180.106 73.9402 186.473 73.1781C189.929 72.7644 194.881 76.1108 194.881 76.1108L196.165 78.9116L193.35 80.6012C193.35 80.6012 189.831 79.1173 187.343 80.9272Z" fill="#F56191"/>
<path d="M205.996 37.0386C199.704 36.551 200.517 32.3081 201.223 31.2683C201.978 30.1566 205.037 27.031 210.374 30.5821C213.27 32.5096 214.859 38.2665 214.859 38.2665L214.014 41.2291L210.775 40.6877C210.775 40.6877 209.064 37.2763 205.996 37.0386Z" fill="#F56191"/>
<path d="M269.031 102.091C276.969 102.614 276.279 109.07 275.404 110.391C274.468 111.803 271.931 116.042 265.153 111.643C261.474 109.255 258.116 101.767 258.116 101.767L263.229 98.6564C263.229 98.6564 265.16 101.835 269.031 102.091Z" fill="#F56191"/>
<path d="M280.013 74.4189C285.449 68.6175 288.989 72.7583 289.457 74.2715C289.958 75.889 290.63 81.3568 282.928 83.8067C278.748 85.1364 271.824 82.1649 271.824 82.1649L269.57 79.0014L272.654 76.2436C272.654 76.2436 277.362 77.2483 280.013 74.4189Z" fill="#F56191"/>
<path d="M219.513 119.266C218.622 127.161 213.307 125.952 212.026 125.018C210.657 124.019 206.849 120.034 211.561 113.475C214.119 109.915 221.449 108.168 221.449 108.168L225.149 109.361L224.324 113.412C224.324 113.412 219.947 115.415 219.513 119.266Z" fill="#F56191"/>
<path d="M228.039 24.9346C233.294 20.2281 229.683 17.0134 228.348 16.5698C226.92 16.0956 222.077 15.3975 219.756 22.1754C218.496 25.8543 221.005 32.0449 221.005 32.0449L223.773 34.1016L226.28 31.4208C226.28 31.4208 225.476 27.2301 228.039 24.9346Z" fill="#F56191"/>
<path d="M190.716 53.9143C183.662 53.6703 184.776 47.1581 185.515 45.9624C186.305 44.6842 189.33 40.0409 194.435 42.6981C197.887 44.495 200.95 53.9147 200.95 53.9147L200.953 57.265L197.307 56.8149C197.307 56.8149 194.156 54.0333 190.716 53.9143Z" fill="#F56191"/>
<path d="M242.546 118.541C240.084 125.148 246.537 126.6 247.925 126.373C249.41 126.13 254.639 126.405 253.539 119.326C252.941 115.484 246.444 109.089 246.444 109.089L243.344 107.811L242.372 111.348C242.372 111.348 243.746 115.318 242.546 118.541Z" fill="#F56191"/>
<path d="M284.156 77.3164C281.874 104.454 257.388 124.264 230.25 121.634C203.55 119.046 183.655 96.08 185.751 69.3693C187.801 43.256 207.855 24.6582 234.08 24.6576C263.522 24.6569 286.498 49.4605 284.156 77.3164Z" fill="#F56191"/>
<path d="M236.607 25.3382C234.708 25.3072 232.837 25.3802 231.001 25.5521M255.137 119.498C259.558 117.769 263.689 115.423 267.406 112.557M243.258 122.516C239.672 122.966 235.984 123.029 232.246 122.667C228.593 122.313 225.068 121.578 221.709 120.503M196.973 44.8589C200.914 39.4103 205.948 34.8794 211.785 31.558C214.608 29.9516 217.619 28.6281 220.786 27.6207M191.427 54.8288C189.45 59.6345 188.182 64.8673 187.748 70.4027C186.237 89.6478 193.886 106.184 211.785 116.925M264.852 34.7201C267.355 36.4891 269.699 38.4724 271.85 40.6385M275.65 104.501C281.494 97.2657 285.316 88.3003 286.152 78.3498C287.017 68.0649 284.304 58.2105 279.129 49.8478" stroke="#9F0039" stroke-width="2" stroke-linecap="round"/>
<path d="M236.713 46.9353C236.713 46.9353 240.261 42.3053 237.432 40.3465C229.523 34.8702 235.618 30.9921 239.302 30.9921C247.211 30.992 253.538 37.8865 244.885 40.3465C241.802 41.2229 241.714 45.9935 242.368 47.912" stroke="#9F0039" stroke-width="2" stroke-linecap="round"/>
<path d="M240.427 71.6714C243.948 77.781 239.543 82.0604 235.274 81.1187C231.763 80.3443 229.832 77.8345 229.831 72.8452" stroke="#9F0039" stroke-width="2" stroke-linecap="round"/>
<path d="M226.81 91.6828C222.374 94.2224 225.633 98.66 224.747 101.401C224.06 103.526 221.096 105.152 217.294 104.096C212.227 102.689 209.432 96.3239 215.286 94.4777C221.14 92.6315 222.249 92.4314 221.278 88.8274" stroke="#9F0039" stroke-width="2" stroke-linecap="round"/>
<path d="M199.397 49.0898C195.37 47.5098 197.03 43.0773 193.86 41.6209C190.265 39.9692 186.742 42.6264 185.678 45.3131C185.168 46.599 183.65 50.6698 187.533 53.5425C191.991 55.8406 193.285 52.3933 196.737 53.5424" stroke="#9F0039" stroke-width="2" stroke-linecap="round"/>
<path d="M211.259 72.3582C211.259 72.3582 206.969 71.3176 205.983 75.2908C204.357 81.838 198.568 80.3902 196.953 73.8302C195.338 67.2702 199.243 61.7483 202.09 65.1613C206.703 70.693 209.822 66.3257 209.822 66.3257" stroke="#9F0039" stroke-width="2" stroke-linecap="round"/>
<path d="M209.005 48.3396C211.732 50.617 215.204 48.7569 218.713 46.6252C222.285 44.4545 225.61 42.122 224.172 38.9191C222.733 35.7163 218.324 35.3282 214.39 36.773C209.306 38.6405 205.417 45.3419 209.005 48.3396Z" fill="#FFB9D0"/>
<path d="M237.824 35.2193C238.096 36.1887 239.044 36.5559 240.052 36.5209C241.077 36.4854 242.089 36.035 242.205 35.0166C242.322 33.9981 241.455 33.265 240.448 33.0647C239.147 32.8057 237.467 33.9433 237.824 35.2193Z" fill="#FFB9D0"/>
<path d="M199.944 72.2264C200.614 72.9778 201.628 72.8907 202.517 72.4169C203.423 71.9344 204.133 71.0858 203.789 70.1198C203.446 69.1539 202.344 68.8765 201.352 69.1387C200.069 69.4776 199.061 71.2375 199.944 72.2264Z" fill="#FFB9D0"/>
<path d="M227.734 113.58C223.379 108.468 242.944 102.515 251.886 94.9146C260.829 87.3137 271.557 70.8879 277.626 78.0105C281.209 82.2164 273.003 98.3315 264.06 105.932C255.118 113.533 233.906 120.824 227.734 113.58Z" fill="#E43D73"/>
<path d="M259.522 82.2066C266.276 84.2518 266.438 90.0236 263.523 92.2731C260.16 94.8671 252.592 95.2669 251.37 85.2063" stroke="#9F0039" stroke-width="2" stroke-linecap="round"/>
<path d="M242.897 111.857C242.897 111.857 247.436 113.404 244.335 118.033C240.531 123.71 243.079 126.638 247.248 126.638C252.552 126.638 256.702 121.48 252.819 118.033C248.468 114.17 250.231 109.99 250.231 109.99" stroke="#9F0039" stroke-width="2" stroke-linecap="round"/>
<path d="M257.235 86.6964C257.622 87.6259 258.609 87.8756 259.604 87.7192C260.618 87.5599 261.567 86.9905 261.56 85.9655C261.552 84.9404 260.602 84.3175 259.579 84.2404C258.256 84.1406 256.726 85.473 257.235 86.6964Z" fill="#FFB9D0"/>
<path d="M188.955 46.7356C189.342 47.6651 190.328 47.9148 191.324 47.7584C192.338 47.5991 193.287 47.0297 193.279 46.0047C193.272 44.9796 192.322 44.3567 191.299 44.2796C189.976 44.1798 188.445 45.5122 188.955 46.7356Z" fill="#FFB9D0"/>
<path d="M173.212 64.421C173.754 65.722 175.134 66.0715 176.528 65.8526C177.947 65.6296 179.275 64.8327 179.265 63.3979C179.254 61.9631 177.925 61.0913 176.492 60.9833C174.641 60.8437 172.499 62.7086 173.212 64.421Z" fill="#F56191" stroke="#9F0039" stroke-width="2" stroke-linecap="round"/>
<path d="M287.844 49.9998C289.017 50.7824 290.36 50.3086 291.398 49.3545C292.455 48.383 293.118 46.9841 292.313 45.7959C291.508 44.6077 289.917 44.6186 288.665 45.3221C287.047 46.2315 286.3 48.9697 287.844 49.9998Z" fill="#F56191" stroke="#9F0039" stroke-width="2" stroke-linecap="round"/>
<path d="M269.051 121.516C268.503 122.814 269.223 124.042 270.356 124.88C271.511 125.734 273.012 126.12 274.028 125.106C275.044 124.092 274.733 122.534 273.805 121.439C272.606 120.023 269.773 119.807 269.051 121.516Z" fill="#F56191" stroke="#9F0039" stroke-width="2" stroke-linecap="round"/>
<path d="M272.214 59.5011C279.179 58.3577 281.64 63.9818 279.255 67.6419C277.295 70.652 274.263 71.5749 269.587 69.8204" stroke="#9F0039" stroke-width="2" stroke-linecap="round"/>
<path d="M242.991 104.028C242.638 105.831 241.795 109.46 237.526 108.516C235.803 108.135 234.529 106.975 233.383 104.51" stroke="#9F0039" stroke-width="2" stroke-linecap="round"/>
<path d="M258.293 46.2842C259.376 45.4178 261.632 43.7395 263.628 46.3604C264.434 47.4188 264.602 48.7058 264.059 50.6825" stroke="#9F0039" stroke-width="2" stroke-linecap="round"/>
<path d="M197.882 88.9259C196.471 89.9824 194.075 93.5889 197.485 96.3212C198.862 97.4246 201.41 97.4217 203.303 96.3212" stroke="#9F0039" stroke-width="2" stroke-linecap="round"/>
<path d="M265.762 107.548C265.762 114.586 271.507 114.723 274.146 112.167C275.818 110.548 277.985 104.244 270.364 104.245" stroke="#9F0039" stroke-width="2" stroke-linecap="round"/>
<path d="M218.402 184.75C219.029 186.254 220.625 186.658 222.237 186.405C223.877 186.147 225.414 185.226 225.401 183.567C225.389 181.908 223.852 180.899 222.195 180.775C220.054 180.613 217.578 182.77 218.402 184.75Z" fill="#F56191" stroke="#9F0039" stroke-width="2" stroke-linecap="round"/>
<path d="M93.827 73.6339C94.4535 75.1383 96.0498 75.5425 97.6613 75.2893C99.3023 75.0315 100.838 74.1099 100.826 72.4508C100.814 70.7917 99.2767 69.7836 97.6203 69.6587C95.4792 69.4972 93.0024 71.6538 93.827 73.6339Z" fill="#F56191" stroke="#9F0039" stroke-width="2" stroke-linecap="round"/>
<path d="M2.35082 210.154C3.70736 211.059 5.26021 210.511 6.46064 209.408C7.68303 208.285 8.44967 206.667 7.5185 205.293C6.58732 203.919 4.74818 203.932 3.30043 204.745C1.42908 205.797 0.565276 208.963 2.35082 210.154Z" fill="#F56191" stroke="#9F0039" stroke-width="2" stroke-linecap="round"/>
<path d="M146.011 143.322C145.154 145.353 146.279 147.273 148.052 148.583C149.858 149.918 152.204 150.522 153.793 148.936C155.383 147.351 154.897 144.914 153.445 143.201C151.57 140.988 147.139 140.65 146.011 143.322Z" fill="#F56191" stroke="#9F0039" stroke-width="2" stroke-linecap="round"/>
</svg>
