<svg width="146" height="274" viewBox="0 0 146 274" fill="none" xmlns="http://www.w3.org/2000/svg">
<rect y="0.5" width="146" height="273" fill="#2E2E2E"/>
<circle cx="63.6833" cy="244.358" r="7.03218" transform="rotate(-60 63.6833 244.358)" stroke="#346DFF" stroke-width="2.41203"/>
<path d="M52.0059 240.507L54.628 235.965L59.9955 239.064C61.2497 239.788 61.6794 241.392 60.9553 242.646C60.2312 243.9 58.6275 244.33 57.3734 243.606L52.0059 240.507Z" fill="white"/>
<path fill-rule="evenodd" clip-rule="evenodd" d="M59.6983 222.652C61.5795 223.738 59.3692 231.089 54.7613 239.07C50.1535 247.051 44.893 252.64 43.0118 251.554C41.1305 250.468 43.3409 243.117 47.9487 235.136C52.5566 227.155 57.817 221.566 59.6983 222.652ZM47.5578 243.443C48.0138 243.706 47.7165 245.075 46.8937 246.5C46.0708 247.925 45.0341 248.867 44.578 248.604C44.122 248.34 44.4193 246.972 45.2421 245.547C46.065 244.121 47.1017 243.179 47.5578 243.443ZM57.2627 228.54C58.0856 227.115 58.3829 225.746 57.9268 225.482C57.4708 225.219 56.434 226.161 55.6112 227.586C54.7884 229.011 54.4911 230.38 54.9471 230.644C55.4032 230.907 56.4399 229.965 57.2627 228.54Z" fill="white"/>
<path fill-rule="evenodd" clip-rule="evenodd" d="M48.5245 231.34C48.57 228.741 47.2402 226.196 44.8295 224.804C41.295 222.764 36.7755 223.975 34.7349 227.509C32.6943 231.043 33.9053 235.563 37.4397 237.604C39.8514 238.996 42.7216 238.874 44.9501 237.534L48.1056 239.356C48.9698 239.855 50.0748 239.559 50.5738 238.694L52.3426 235.631C52.8416 234.767 52.5455 233.662 51.6812 233.163L48.5245 231.34Z" fill="#FFE600"/>
<circle cx="22.5166" cy="136.74" r="7.03218" transform="rotate(45 22.5166 136.74)" stroke="#E53F49" stroke-width="2.41203"/>
<path d="M29.2588 126.458L32.9671 130.166L28.5846 134.549C27.5605 135.573 25.9003 135.573 24.8762 134.549C23.8522 133.525 23.8522 131.865 24.8762 130.841L29.2588 126.458Z" fill="white"/>
<path fill-rule="evenodd" clip-rule="evenodd" d="M44.5134 138.509C42.9773 140.045 36.4495 136.008 29.933 129.491C23.4165 122.975 19.379 116.447 20.9151 114.911C22.4511 113.375 28.9789 117.413 35.4954 123.929C42.0119 130.446 46.0494 136.973 44.5134 138.509ZM27.5726 121.401C27.2002 121.774 25.955 121.132 24.7913 119.969C23.6277 118.805 22.9862 117.56 23.3586 117.187C23.731 116.815 24.9762 117.456 26.1398 118.62C27.3035 119.784 27.9449 121.029 27.5726 121.401ZM39.4554 134.633C40.6191 135.796 41.8643 136.438 42.2367 136.065C42.609 135.693 41.9676 134.448 40.8039 133.284C39.6402 132.12 38.395 131.479 38.0227 131.851C37.6503 132.224 38.2918 133.469 39.4554 134.633Z" fill="white"/>
<path fill-rule="evenodd" clip-rule="evenodd" d="M39.0127 125.468C41.5116 126.185 44.3144 125.56 46.283 123.591C49.1688 120.705 49.1688 116.026 46.283 113.14C43.3971 110.255 38.7182 110.255 35.8323 113.14C33.8634 115.109 33.2378 117.913 33.9554 120.412L31.3795 122.988C30.6739 123.693 30.6739 124.838 31.3795 125.543L33.881 128.045C34.5866 128.75 35.7307 128.75 36.4363 128.045L39.0127 125.468Z" fill="#FFE600"/>
<path fill-rule="evenodd" clip-rule="evenodd" d="M33.026 67.8646C32.0712 68.8194 30.5242 69.2318 28.2544 68.618C25.9745 68.0014 23.3078 66.4015 20.8213 63.915L17.4102 67.3262C20.3265 70.2425 23.7011 72.384 26.9951 73.2748C29.4385 73.9356 32.0215 73.9359 34.2441 72.8485L65.7946 104.399L69.7442 100.449L38.1271 68.8325C39.0963 66.6675 39.0723 64.1859 38.4362 61.8337C37.5454 58.5397 35.4039 55.1651 32.4876 52.2488L29.0764 55.6599C31.5629 58.1464 33.1628 60.8131 33.7794 63.093C34.3932 65.3628 33.9808 66.9098 33.026 67.8646Z" fill="#A3A3A3"/>
<path d="M16.1558 67.1743C15.2138 66.2324 15.2138 64.7051 16.1558 63.7632L28.5427 51.3762C29.4847 50.4342 31.0119 50.4342 31.9539 51.3762L33.0565 52.4788C33.9985 53.4208 33.9985 54.948 33.0565 55.8899L20.6695 68.2769C19.7276 69.2189 18.2003 69.2189 17.2584 68.2769L16.1558 67.1743Z" fill="white"/>
<path d="M89.986 97.1346C90.8755 97.9322 91.7547 98.764 92.6203 99.6296C108.387 115.396 111.951 131.591 104.161 139.381C96.371 147.171 80.1763 143.607 64.4094 127.841C63.5437 126.975 62.7119 126.096 61.9144 125.206L89.986 97.1346Z" fill="#E63F49"/>
<path fill-rule="evenodd" clip-rule="evenodd" d="M104.709 138.798C111.772 130.804 108.005 115.013 92.6211 99.6288C91.7554 98.7632 90.8763 97.9314 89.9867 97.1339L76.5156 110.605L104.709 138.798Z" fill="#346DFF"/>
<path d="M84.2144 122.82C84.9476 123.554 86.1314 123.559 86.8585 122.831L88.175 121.515C88.9021 120.788 88.8971 119.604 88.1639 118.871L69.7439 100.451L65.7943 104.4L84.2144 122.82Z" fill="white"/>
<path d="M62.4121 154.635L108.844 201.67H15.9805L62.4121 154.635Z" fill="#FFE600"/>
<path d="M110.485 56.1799C110.909 61.3827 115.663 65.3341 120.396 63.1315C130.38 58.4844 137.302 48.3622 137.302 36.6235C137.302 20.4843 124.218 7.40088 108.079 7.40088C91.9399 7.40088 78.8564 20.4843 78.8564 36.6235C78.8564 37.09 78.8674 37.5539 78.889 38.0151H102.592C106.216 38.0151 109.233 40.7965 109.527 44.4084L110.485 56.1799Z" fill="#A3A3A3"/>
<path fill-rule="evenodd" clip-rule="evenodd" d="M119.854 33.0791C121.996 33.0791 123.732 31.343 123.732 29.2014C123.732 27.0598 121.996 25.3237 119.854 25.3237C117.713 25.3237 115.977 27.0598 115.977 29.2014C115.977 31.343 117.713 33.0791 119.854 33.0791ZM119.853 30.7961C120.734 30.7961 121.448 30.0823 121.448 29.2018C121.448 28.3212 120.734 27.6074 119.853 27.6074C118.973 27.6074 118.259 28.3212 118.259 29.2018C118.259 30.0823 118.973 30.7961 119.853 30.7961Z" fill="white"/>
<rect x="74.3965" y="26.4185" width="43.602" height="5.56621" fill="white"/>
<path d="M74.3965 31.9849H111.505L109.09 63.0344C108.62 69.0719 103.584 73.7315 97.5282 73.7315H74.3965V31.9849Z" fill="#346DFF"/>
<path d="M110.044 50.7596L111.504 31.9849H79.2225C78.9816 33.4955 78.8564 35.0447 78.8564 36.6232C78.8564 37.0897 78.8674 37.5536 78.889 38.0147H102.592C106.216 38.0147 109.233 40.7962 109.527 44.4081L110.044 50.7596Z" fill="#C4C4C4"/>
<path d="M56.083 190.489H76.0029V210.409H95.9228V230.329H115.843V250.248" stroke="white" stroke-width="2"/>
<path d="M86.0156 67.6753L66.0957 67.6753L66.0957 47.7554L46.1758 47.7554L46.1758 27.8355L26.2559 27.8355L26.2559 7.91558" stroke="#FFE500" stroke-width="2"/>
<path d="M56.083 190.489H76.0029V201.449" stroke="#346DFF" stroke-width="2"/>
<path d="M134.85 187.245C134.85 189.589 132.712 191.489 130.076 191.489C127.439 191.489 125.302 189.589 125.302 187.245L134.85 187.245Z" fill="#A3A3A3"/>
<path d="M127.568 159.664L108.183 159.664L108.183 164.968L127.568 164.968L127.568 159.664Z" fill="#A3A3A3"/>
<path d="M109.389 167.089C107.045 167.089 105.146 164.952 105.146 162.316C105.146 159.679 107.045 157.542 109.389 157.542L109.389 167.089Z" fill="#A3A3A3"/>
<rect width="112.16" height="5.30424" rx="2.65212" transform="matrix(2.87868e-08 -1 -1 -2.87868e-08 132.728 189.077)" fill="#A3A3A3"/>
<rect width="8.47476" height="8.47476" transform="matrix(2.87868e-08 -1 -1 -2.87868e-08 134.313 166.552)" fill="white"/>
</svg>
