<svg width="238" height="292" viewBox="0 0 238 292" fill="none" xmlns="http://www.w3.org/2000/svg">
<path fill-rule="evenodd" clip-rule="evenodd" d="M179.48 277.121C184.041 279.196 189.236 280.452 194.686 280.452C206.077 280.452 216.3 279.015 221.955 274.808C222.806 274.889 223.609 274.931 224.342 274.931C231.589 274.931 237.636 274.487 237.636 270.023C238.81 263.997 237.715 257.014 225.645 253.229C221.926 241.333 210.838 230.76 198.029 230.76C184.176 230.76 169.819 240.007 164.647 249.494C154.233 247.304 143.928 251.091 140.767 256.806C134.384 256.692 127.889 257.762 127.15 260.523C126.017 264.757 131.254 278.126 144.386 278.867C146.999 279.015 149.544 278.498 151.841 277.535C154.409 279.251 157.244 280.635 160.197 281.472C167.086 283.425 174.366 281.265 179.48 277.121Z" fill="#123658"/>
<path fill-rule="evenodd" clip-rule="evenodd" d="M121.34 27.9957C120.086 27.8464 118.828 27.768 117.575 27.768C106.842 27.768 97.4476 35.463 93.4645 44.6069C90.1661 43.8105 86.5005 43.6542 82.5324 44.4652C70.6738 46.8891 62.5446 58.8762 64.2182 67.0893C64.2182 72.9692 72.5493 73.5533 82.5324 73.5533C88.7191 73.5533 98.4887 71.467 105.024 68.4808C109.547 69.413 114.909 69.784 120.594 69.784C124.914 69.784 129.057 68.9655 132.791 67.5791C140.396 72.3374 149.895 75.4401 160.026 75.4401C170.422 75.4401 180.118 74.5851 187.779 72.3548C190.408 72.7807 192.89 73.0161 194.969 73.0161C204.952 73.0161 213.283 72.4321 213.283 66.5521C214.583 60.1737 213.863 52.9811 204.899 47.8152C204 27.8163 186.062 6.76001 164.677 6.76001C147.705 6.76001 130.191 16.6733 121.34 27.9957Z" fill="#DBC5BE"/>
<path d="M1.62323 232.28C1.62323 232.28 32.9525 242.186 36.4602 213.726" stroke="#63A6AE" stroke-width="2"/>
<path d="M175.872 256.689C175.872 256.689 186.667 249.976 192.36 253.271C198.581 256.871 194.66 265.56 196.597 271.199C199.103 278.494 217.633 264.189 221.161 282.529" stroke="#63A6AE" stroke-width="2"/>
<path d="M38.8721 256.689C38.8721 256.689 49.6671 249.976 55.3601 253.271C61.5811 256.871 57.6596 265.56 59.5967 271.199C62.1027 278.494 80.6326 264.189 84.161 282.529" stroke="#63A6AE" stroke-width="2"/>
<path d="M177 129.776C177 129.776 187.426 124.152 192.06 111.392" stroke="#63A6AE" stroke-width="2"/>
<path d="M85.6052 246.004C85.6052 246.004 79.213 236.021 66.1548 232.363" stroke="#63A6AE" stroke-width="2"/>
<path d="M5.30619 67.1051C7.36991 64.7218 11.0994 62.7032 13.7697 61.4635C15.4037 60.7049 17.2503 61.6924 17.6579 63.4473L18.904 68.8126C19.0413 69.4036 18.9961 70.0223 18.7746 70.5871L13.1617 84.8933C12.8922 85.5802 12.379 86.1437 11.7202 86.476L4.98937 89.8717C3.33534 90.7061 1.34267 89.8508 0.934938 88.0436C0.356355 85.4792 -0.232645 81.9653 0.093079 79.2851C0.717406 74.148 1.92058 71.0151 5.30619 67.1051Z" fill="#63A6AE"/>
<path d="M118.164 54.1404C131.487 58.2004 150.192 58.6731 157.552 67.6847C168.629 83.3444 161.166 114.916 161.028 115.825C160.261 120.858 162.58 127.062 162.765 132.065C175.508 176.725 154.956 206.379 153.604 208.595C149.693 215.005 148.838 225.804 148.722 225.994C146.547 260.825 134.145 266.556 129.749 263.145C126.57 260.678 124.256 257.28 123.877 256.541C123.85 256.487 123.83 256.448 123.817 256.425C119.154 247.87 119.99 237.388 120.481 232.405C120.528 231.926 120.573 231.473 120.616 231.044C121.112 226.045 117.89 224.809 117.419 223.003C116.501 219.478 115.119 216.998 112.853 213.265C112.712 213.033 112.567 212.795 112.418 212.551C110.168 208.86 108.769 202.753 106.579 195.865C102.928 184.378 101.351 180.968 101.578 172.877C101.991 158.165 106.579 143.353 83.6723 143.353C79.9737 143.353 76.3698 142.061 72.0806 141.465L72.0771 141.465C70.5243 141.249 68.8925 141.023 67.1566 140.768C55.5864 139.074 38.9772 136.248 27.4028 123.413L27.2083 123.197L27.2082 123.197C23.5579 119.15 19.4048 114.545 16.8526 108.85C13.9759 102.431 13.6145 95.9857 14.0612 89.009C15.4578 67.2004 29.3853 62.4255 44.0221 56.0851C53.2898 52.0705 67.1915 43.1203 118.164 54.1404Z" stroke="#63A6AE" stroke-width="2"/>
<path d="M51.0644 62.5328C62.4741 57.5903 70.4749 61.724 82.8696 62.5328C96.2874 63.4084 103.761 64.7576 116.988 67.1912C129.06 69.4123 139.841 64.6348 147.637 74.1788C152.309 79.8996 151.997 84.9627 153.419 92.23C156.304 106.971 151.127 115.648 151.685 130.662C152.202 144.615 153.627 152.381 155.732 166.182C156.742 172.796 159.456 176.429 158.624 183.069C157.926 188.641 155.719 191.345 153.419 196.461C150.462 203.042 147.399 206.055 144.745 212.766C140.322 223.953 144.912 232.6 138.962 243.045C136.4 247.544 135.611 253.527 130.867 253.527C128.107 253.527 127.669 252.818 126.343 250.385C121.434 241.379 127.093 231.438 124.506 221.5C121.585 210.284 115.294 205.758 111.783 194.715C105.981 176.459 111.783 162.805 107.736 145.801C106.463 140.455 105.949 138.662 101.436 135.545C84.6379 123.945 53.4239 131.501 37.7198 114.085C29.7083 105.201 27.1665 101.877 27.9333 89.9008C28.8302 75.8954 38.2612 68.0789 51.0644 62.5328Z" stroke="#C0D4D7" stroke-width="2"/>
<path fill-rule="evenodd" clip-rule="evenodd" d="M66.2307 100.164C67.0397 100.255 68.1523 100.38 69.4912 100.528C72.3833 100.848 76.3316 101.279 80.5553 101.723C88.9885 102.611 98.5634 103.557 102.999 103.773C107.633 103.999 113.565 104.435 118.345 104.815C120.542 104.99 122.494 105.153 123.961 105.278C124.003 105.57 124.068 105.865 124.158 106.159C124.729 108.037 126.148 109.392 127.769 109.829L127.803 110.229C127.931 111.732 128.107 113.833 128.297 116.225C128.676 121.011 129.112 126.95 129.337 131.59C129.551 135.982 129.693 141.618 129.783 146.163C129.81 147.568 129.833 148.868 129.85 149.994C128.828 150.687 127.432 152.195 127.432 155.265C127.433 160.11 132.645 180.205 132.645 180.205C132.645 180.205 135.607 163.385 134.383 156.425C133.672 152.378 132.612 150.684 131.85 149.975C131.832 148.845 131.81 147.537 131.782 146.123C131.693 141.575 131.55 135.915 131.335 131.493C131.108 126.821 130.67 120.856 130.29 116.066C130.1 113.67 129.924 111.565 129.796 110.058L129.781 109.884C129.891 109.86 130.001 109.832 130.11 109.798C132.558 109.051 133.862 106.21 133.022 103.452C132.183 100.694 129.518 99.0648 127.07 99.8122C125.494 100.293 124.393 101.641 124.031 103.276C122.573 103.152 120.656 102.993 118.503 102.821C113.719 102.441 107.762 102.003 103.096 101.775C98.7289 101.562 89.2171 100.624 80.7644 99.7341C76.5452 99.2901 72.6006 98.8594 69.7108 98.5397C68.2659 98.3799 67.0848 98.2478 66.265 98.1557C65.8552 98.1097 65.5356 98.0736 65.3185 98.0491L65.1624 98.0314C64.1166 97.6137 62.555 97.1359 60.2406 96.6852C54.2078 95.5101 42.2842 101.905 42.2842 101.905C42.2842 101.905 55.4617 103.064 59.6612 103.065C62.5035 103.066 64.9476 101.304 66.2307 100.164Z" fill="#C0D4D7"/>
<path d="M198.985 196.419C200.089 199.226 199.399 202.893 196.596 203.999C193.793 205.105 189.937 203.23 188.833 200.423C187.729 197.616 189.273 194.868 192.076 193.762C194.879 192.656 197.88 193.612 198.985 196.419Z" stroke="#63A6AE" stroke-width="2"/>
<path fill-rule="evenodd" clip-rule="evenodd" d="M50.7858 185.94C47.9111 187.248 44.6366 188.04 41.2021 188.04C34.0222 188.04 27.5788 187.134 24.0147 184.483C23.4784 184.533 22.9723 184.56 22.51 184.56C17.9426 184.56 14.1311 184.28 14.1311 181.467C13.3912 177.669 14.0813 173.267 21.6893 170.882C24.0329 163.384 31.0216 156.72 39.0946 156.72C47.8263 156.72 56.8752 162.548 60.1351 168.528C66.6985 167.147 73.1932 169.534 75.186 173.136C79.2086 173.064 83.3025 173.739 83.7682 175.479C84.4823 178.148 81.1813 186.574 72.9045 187.041C71.2576 187.134 69.6542 186.808 68.2061 186.201C66.5878 187.283 64.8011 188.155 62.9393 188.683C58.5975 189.914 54.0091 188.552 50.7858 185.94Z" fill="#C0D4D7"/>
</svg>
