<svg width="393" height="321" viewBox="0 0 393 321" fill="none" xmlns="http://www.w3.org/2000/svg">
<path d="M108.969 105.222C108.969 105.222 105.659 102.802 108.91 98.5933C112.161 94.3844 119.048 95.7496 126.823 93.5996C132.96 91.9024 137.65 84.9239 146.047 87.0281C149.801 87.9689 148.733 92.8462 148.803 99.315C148.927 110.854 149.352 126.379 149.352 126.379L129.062 128.979L108.969 105.222Z" fill="#B37299"/>
<path d="M114.867 147.318L136.704 135.066C136.704 135.066 138.746 145.653 140.274 152.389C141.148 156.241 142.393 161.209 143.371 165.032C144.171 168.158 142.06 171.291 138.859 171.701L128.057 173.085C125.703 173.387 123.433 172.102 122.515 169.914C121.454 167.384 120.082 164.022 119.147 161.398C117.217 155.985 114.867 147.318 114.867 147.318Z" fill="#DFEBDA"/>
<path d="M162.411 135.491L138.878 134.198C138.878 134.198 139.619 143.725 140.968 150.5C141.863 155.001 143.561 161.451 144.735 165.749C145.445 168.347 147.998 169.979 150.64 169.453C152.662 169.05 154.981 168.532 156.8 167.968C158.695 167.381 161.059 166.432 162.929 165.639C164.867 164.816 166.081 162.89 166.033 160.784C165.965 157.842 165.834 153.625 165.6 150.597C165.158 144.866 162.411 135.491 162.411 135.491Z" fill="#DFEBDA"/>
<path d="M181.393 134.291L164.173 135.147C164.173 135.147 164.743 142.347 165.733 147.326C166.424 150.798 167.211 155.663 167.681 158.676C167.898 160.065 169.369 160.877 170.658 160.316L180.831 155.895C183.065 154.924 184.356 152.566 184.024 150.153C183.755 148.199 183.469 145.912 183.334 144.17C183.009 139.959 181.393 134.291 181.393 134.291Z" fill="#DFEBDA"/>
<path d="M194.132 123.052L181.281 128.143C181.281 128.143 182.472 135.799 183.462 140.778C184.126 144.111 184.766 147.186 185.157 149.044C185.327 149.851 186.308 150.164 186.917 149.608L195.494 141.766C196.104 141.208 196.579 140.515 196.73 139.702C196.911 138.728 197.076 137.182 196.916 135.115C196.591 130.904 194.132 123.052 194.132 123.052Z" fill="#DFEBDA"/>
<path d="M209.721 112.093L194.769 115.724C194.769 115.724 195.96 123.38 196.951 128.359C197.614 131.693 198.255 134.77 198.645 136.627C198.815 137.434 199.796 137.748 200.405 137.192L209.285 129.095C210.087 128.363 210.653 127.404 210.784 126.325C210.931 125.111 211.056 123.32 210.898 121.282C210.573 117.071 209.721 112.093 209.721 112.093Z" fill="#DFEBDA"/>
<path d="M218.898 97.6564L208.823 98.9472C208.823 98.9472 210.014 106.603 211.005 111.582C211.653 114.838 212.413 118.577 212.912 121.021C213.106 121.968 214.358 122.188 214.866 121.364L219.233 114.283C219.539 113.787 219.763 113.246 219.853 112.67C220.031 111.533 220.272 109.38 220.076 106.846C219.751 102.634 218.898 97.6564 218.898 97.6564Z" fill="#DFEBDA"/>
<path d="M227.352 83.7087L217.276 84.9995C217.276 84.9995 218.467 92.6551 219.458 97.6341C220.106 100.89 220.866 104.629 221.366 107.073C221.559 108.021 222.811 108.24 223.319 107.417L227.686 100.336C227.992 99.8395 228.216 99.298 228.306 98.7219C228.485 97.5852 228.725 95.4325 228.529 92.898C228.204 88.6864 227.352 83.7087 227.352 83.7087Z" fill="#DFEBDA"/>
<path d="M97.3537 155.982L112.553 147.844C112.553 147.844 115.775 154.308 117.491 159.085C118.888 162.975 120.951 168.624 121.883 171.172C122.127 171.84 121.662 172.555 120.952 172.604L108.372 173.467C106.129 173.621 104.031 172.354 103.092 170.31C102.384 168.767 101.535 166.957 100.78 165.449C98.8888 161.672 97.3537 155.982 97.3537 155.982Z" fill="#DFEBDA"/>
<path d="M79.6625 156.127L93.2858 150.783C93.2858 150.783 96.2096 157.958 97.9258 162.735C99.0746 165.934 100.111 168.899 100.732 170.692C101.003 171.472 100.323 172.246 99.514 172.083L88.1232 169.781C87.3129 169.618 86.5483 169.268 86.0002 168.649C85.3431 167.908 84.4056 166.667 83.4777 164.814C81.5865 161.037 79.6625 156.127 79.6625 156.127Z" fill="#DFEBDA"/>
<path d="M60.1798 149.827L74.8652 145.235C74.8652 145.235 77.789 152.41 79.5052 157.187C80.6546 160.387 81.691 163.354 82.3128 165.147C82.5829 165.926 81.904 166.7 81.0956 166.538L69.3137 164.173C68.2484 163.959 67.2695 163.429 66.6016 162.572C65.8495 161.607 64.8201 160.136 63.9052 158.309C62.0141 154.532 60.1798 149.827 60.1798 149.827Z" fill="#DFEBDA"/>
<path d="M46.8598 144.287L56.1599 140.202C56.1599 140.202 59.0837 147.377 60.7999 152.154C61.9223 155.279 63.1971 158.875 64.0283 161.227C64.3507 162.139 63.3908 162.972 62.5314 162.528L55.1401 158.709C54.6221 158.442 54.1509 158.093 53.7767 157.646C53.0385 156.763 51.7234 155.042 50.5853 152.769C48.6941 148.992 46.8598 144.287 46.8598 144.287Z" fill="#DFEBDA"/>
<path d="M129.928 190.286C129.852 189.159 130.667 188.168 131.788 188.025L139.315 187.06L145.034 187.034C147.674 187.022 150.103 188.471 151.348 190.799L153.322 194.493L145.262 198.339L130.404 197.43L129.928 190.286Z" fill="#DFEBDA"/>
<path d="M171.76 179.184C171.449 177.712 169.747 177.006 168.464 177.793C166.464 179.019 163.692 180.637 161.465 181.633C159.252 182.623 156.368 184.038 154.313 185.063C152.799 185.819 152.044 187.541 152.497 189.171L154.225 195.39L173.107 185.543L171.76 179.184Z" fill="#DFEBDA"/>
<path d="M186.63 172.879C186.982 172.552 187.214 172.12 187.266 171.643C187.493 169.567 187.837 163.887 184.584 165.343C181.737 166.616 176.877 171.129 174.53 173.401C173.679 174.226 173.325 175.427 173.562 176.588L175.005 183.675L186.63 172.879Z" fill="#DFEBDA"/>
<path d="M199.022 157.466C199.193 157.221 199.31 156.946 199.359 156.651C199.64 154.966 200.472 149.064 198.288 149.344C194.838 149.786 190.053 157.88 188.473 160.722C188.119 161.357 187.992 162.084 188.085 162.805L189.206 171.558L199.022 157.466Z" fill="#DFEBDA"/>
<path d="M210.506 140.077C210.682 139.791 210.79 139.468 210.794 139.131C210.805 138.081 210.674 135.734 209.307 135.215C207.87 134.67 202.925 142.033 201.099 144.85C200.651 145.54 200.471 146.367 200.575 147.183L201.532 154.652L210.506 140.077Z" fill="#DFEBDA"/>
<path d="M217.428 128.306C217.594 127.956 217.668 127.567 217.586 127.188C217.44 126.508 217.096 125.46 216.35 125.321C215.514 125.165 213.631 129.301 212.736 131.392C212.413 132.148 212.382 132.995 212.63 133.78L213.503 136.551L217.428 128.306Z" fill="#DFEBDA"/>
<path d="M107.91 185.478C107.84 183.974 109.309 182.862 110.749 183.3C112.994 183.982 116.084 184.849 118.49 185.252C120.881 185.652 124.029 186.293 126.276 186.767C127.931 187.116 129.096 188.593 129.069 190.285L128.965 196.738L108.21 191.971L107.91 185.478Z" fill="#DFEBDA"/>
<path d="M92.3771 186.208C91.8877 186.006 91.4903 185.633 91.2916 185.142C90.5261 183.251 88.9253 178.449 92.4098 178.441C95.349 178.435 100.461 180.308 103.297 181.447C104.558 181.954 105.374 183.163 105.426 184.52L105.701 191.705L92.3771 186.208Z" fill="#DFEBDA"/>
<path d="M76.9156 179.607C76.4538 179.396 76.0807 179.03 75.8897 178.559C75.2421 176.966 73.9657 173.265 75.9596 173.01C78.9257 172.63 83.6109 174.512 86.0934 175.643C87.1534 176.126 87.8541 177.137 88.0022 178.293L88.8683 185.051L76.9156 179.607Z" fill="#DFEBDA"/>
<path d="M60.2806 170.849C59.9454 170.655 59.6674 170.374 59.5072 170.021C59.0587 169.033 58.2825 166.922 59.2904 165.914C60.3773 164.827 67.9079 169.512 70.7292 171.331C71.421 171.777 71.9243 172.457 72.1639 173.244L73.8264 178.708L60.2806 170.849Z" fill="#DFEBDA"/>
<path d="M49.2962 164.113C48.965 163.912 48.6903 163.627 48.5506 163.265C48.3002 162.617 48.0131 161.551 48.5604 161.026C49.1732 160.437 53.0166 162.863 54.9113 164.12C55.5971 164.576 56.0871 165.267 56.3107 166.059L57.0999 168.855L49.2962 164.113Z" fill="#DFEBDA"/>
<path fill-rule="evenodd" clip-rule="evenodd" d="M203.663 52.9409C194.146 54.5185 182.146 58.9896 173.977 64.1206C169.634 66.8485 166.987 70.4556 164.247 74.1886C162.379 76.7347 160.467 79.3396 157.945 81.7637C151.585 87.8774 148.093 93.7555 143.64 101.372C142.663 103.043 141.67 104.515 140.726 105.915C138.181 109.689 135.992 112.935 135.434 118.124C135.164 120.639 134.935 122.859 134.879 124.883C133.291 122.61 131.345 120.385 129.298 118.044C129.054 117.766 128.81 117.486 128.564 117.204C123.86 111.812 120.188 109.5 113.689 106.507C108.051 103.91 103.688 103.484 98.5611 102.984C96.4016 102.774 94.1066 102.55 91.5235 102.145C89.2152 101.783 87.1801 101.396 85.2684 101.033L85.2666 101.032C80.1202 100.053 75.8673 99.2446 69.5851 99.5547C59.95 100.03 54.272 101.173 45.5683 105.333C36.611 109.615 32.112 113.539 25.5139 120.957C24.594 121.991 23.7071 122.937 22.862 123.838C19.1799 127.763 16.2911 130.843 14.9298 136.718C13.8795 141.25 14.6696 146.809 15.7139 150.74C15.7139 150.74 16.444 154.544 17.4978 156.757C18.8577 159.613 20.3502 160.274 22.3776 163.221C26.5911 169.347 30.2071 171.914 36.2077 176.303C44.3264 182.242 50.1734 183.481 59.2811 187.751C70.6799 193.095 77.058 196.178 88.8382 200.618C103.003 205.957 111.128 208.63 125.867 212.078C137.252 214.741 143.751 218.808 155.346 217.303C164.991 216.051 170.244 213.237 178.466 208.038C188.548 201.664 192.061 195.28 199.996 186.374C211.234 173.762 215.906 165.354 226.195 151.957C233.405 142.57 238.535 138.062 244.729 127.976C252.115 115.948 258.649 109.101 259.558 95.0162C260.051 87.3602 257.06 75.5303 257.06 75.5303C255.909 72.0609 250.813 64.7586 246.756 61.1068C242.274 57.0725 238.142 56.2036 232.875 55.0961L232.873 55.0957C231.665 54.8416 230.397 54.575 229.051 54.2546C219.393 51.9556 213.457 51.3173 203.663 52.9409ZM233.999 94.4632C225.901 100.196 213.671 108.916 206.693 114.187C202.117 117.642 198.713 121.079 195.467 124.357C190.447 129.426 185.804 134.114 177.787 137.904C176.82 138.361 175.91 138.803 175.039 139.227C169.869 141.743 166.076 143.589 159.727 143.84C152.247 144.134 146.697 144.249 141.114 139.264C140.188 138.437 139.389 137.628 138.703 136.826C138.637 137.726 138.493 138.658 138.265 139.626C136.545 146.911 131.931 149.997 125.632 154.041C120.285 157.474 116.118 158.134 110.44 159.035L110.437 159.035C109.481 159.187 108.483 159.345 107.429 159.524C98.6873 161.013 92.1959 159.831 85.1774 158.553C80.6389 157.726 75.88 156.86 70.1497 156.649C58.637 156.226 41.7523 156.543 36.3361 156.663C47.3752 163.198 71.9924 177.205 90.7242 183.722C94.3138 184.97 97.5753 186.208 100.659 187.379C111.997 191.683 120.925 195.072 134.896 194.716C141.694 194.543 152.167 192.503 152.167 192.503C152.167 192.503 166.903 187.646 175.174 182.352C191.386 171.976 206.789 144.541 206.789 144.541L233.999 94.4632Z" fill="#17414A"/>
<path d="M5.20604 82.3646C13.6298 122.344 57.3613 115.027 71.6465 92.4243C74.0638 88.5996 75.4081 80.7517 75.4081 80.7517C75.4081 80.7517 67.0649 65.7403 54.5212 58.2672C38.3352 48.6241 14.7825 49.7996 5.20604 82.3646Z" fill="url(#paint0_linear)"/>
<circle cx="29.3414" cy="76.8666" r="1.89841" transform="rotate(-17.2312 29.3414 76.8666)" fill="white"/>
<path d="M51.2335 106.643C51.8489 98.6961 52.0902 89.167 49.9883 80.2701C47.8864 71.3731 43.6801 64.1186 39.5732 57.2871C38.9577 65.2343 38.4741 72.1519 40.576 81.0488C42.6779 89.9458 47.1266 99.8117 51.2335 106.643Z" fill="#17414A"/>
<path d="M214.911 17.2215C230.589 54.9511 190.392 73.6649 165.823 63.1122C161.666 61.3266 156.117 55.6167 156.117 55.6167C156.117 55.6167 154.501 38.5186 160.615 25.2591C168.503 8.14932 188.588 -4.20925 214.911 17.2215Z" fill="url(#paint1_linear)"/>
<circle r="1.89841" transform="matrix(-0.955117 0.296229 0.296229 0.955117 162.372 35.5041)" fill="white"/>
<path d="M190.7 63.2844C185.695 57.0802 180.104 49.36 176.803 40.8351C173.501 32.3103 172.864 23.9487 172.385 15.9922C177.389 22.1963 181.702 27.6262 185.004 36.1511C188.305 44.676 190.22 55.3278 190.7 63.2844Z" fill="#17414A"/>
<path d="M315.664 204.885C315.664 204.885 318.143 203.66 316.47 200.489C314.797 197.317 310.064 197.428 305.148 195.101C301.268 193.264 298.959 188.086 293.138 188.514C290.535 188.704 290.681 192.068 289.887 196.357C288.471 204.007 286.394 214.271 286.394 214.271L299.571 218.343L315.664 204.885Z" fill="#B37299"/>
<path d="M306.878 232.165L293.789 221.503C293.789 221.503 291.209 228.299 289.415 232.597C288.63 234.478 287.625 236.767 286.707 238.826C285.394 241.773 286.935 245.222 290.018 246.175L293.892 247.372C296.159 248.073 298.619 247.196 299.886 245.19C300.74 243.835 301.688 242.296 302.407 241.024C304.315 237.651 306.878 232.165 306.878 232.165Z" fill="#DFEBDA"/>
<path d="M276.665 218.813L292.446 220.675C292.446 220.675 290.852 226.918 289.174 231.262C288.236 233.689 286.762 236.965 285.558 239.564C284.425 242.007 281.621 243.193 279.131 242.164C278.253 241.801 277.375 241.413 276.637 241.035C275.757 240.585 274.729 239.974 273.788 239.385C272.002 238.268 271.138 236.155 271.556 234.091C271.922 232.287 272.384 230.112 272.8 228.479C273.756 224.724 276.665 218.813 276.665 218.813Z" fill="#DFEBDA"/>
<path d="M264.194 215.822L275.533 218.381C275.533 218.381 274.322 223.098 273.089 226.291C272.346 228.213 271.436 230.817 270.776 232.745C270.321 234.075 268.732 234.624 267.558 233.851L263.195 230.978C261.161 229.639 260.301 227.096 261.015 224.768C261.295 223.857 261.566 222.93 261.762 222.16C262.465 219.4 264.194 215.822 264.194 215.822Z" fill="#DFEBDA"/>
<path d="M257.033 206.884L264.981 211.751C264.981 211.751 263.305 216.699 262.071 219.892C261.365 221.719 260.692 223.423 260.215 224.622C259.91 225.389 258.889 225.53 258.385 224.877L254.215 219.481C253.71 218.827 253.359 218.06 253.387 217.234C253.41 216.577 253.508 215.678 253.789 214.575C254.492 211.815 257.033 206.884 257.033 206.884Z" fill="#DFEBDA"/>
<path d="M247.943 197.802L257.455 201.942C257.455 201.942 255.779 206.89 254.546 210.083C253.839 211.912 253.166 213.617 252.689 214.816C252.384 215.582 251.364 215.724 250.859 215.072L246.601 209.576C245.935 208.717 245.538 207.673 245.629 206.59C245.693 205.818 245.827 204.836 246.099 203.77C246.802 201.01 247.943 197.802 247.943 197.802Z" fill="#DFEBDA"/>
<path d="M243.516 187.151L250.059 189.173C250.059 189.173 248.383 194.121 247.149 197.314C246.473 199.065 245.704 201.033 245.111 202.546C244.759 203.447 243.487 203.449 243.128 202.551L241.478 198.423C241.261 197.882 241.132 197.309 241.154 196.726C241.183 195.907 241.296 194.593 241.671 193.119C242.374 190.359 243.516 187.151 243.516 187.151Z" fill="#DFEBDA"/>
<path d="M239.513 176.909L246.056 178.931C246.056 178.931 244.38 183.879 243.146 187.072C242.47 188.823 241.701 190.791 241.108 192.304C240.756 193.205 239.485 193.207 239.125 192.309L237.475 188.181C237.259 187.64 237.129 187.067 237.151 186.484C237.18 185.665 237.293 184.351 237.668 182.877C238.371 180.117 239.513 176.909 239.513 176.909Z" fill="#DFEBDA"/>
<path d="M317.512 239.945L308.356 232.782C308.356 232.782 305.469 236.704 303.777 239.679C302.506 241.914 300.685 245.078 299.693 246.799C299.338 247.415 299.674 248.199 300.365 248.369L306.986 249.995C309.17 250.532 311.45 249.639 312.739 247.796C313.207 247.128 313.695 246.442 314.141 245.838C315.834 243.548 317.512 239.945 317.512 239.945Z" fill="#DFEBDA"/>
<path d="M329.245 242.087L320.814 236.962C320.814 236.962 318.042 241.39 316.35 244.365C315.381 246.068 314.487 247.668 313.86 248.795C313.459 249.517 313.996 250.397 314.821 250.375L321.637 250.19C322.464 250.168 323.28 249.954 323.902 249.41C324.396 248.977 325.03 248.332 325.707 247.416C327.4 245.126 329.245 242.087 329.245 242.087Z" fill="#DFEBDA"/>
<path d="M342.916 240.154L333.692 235.406C333.692 235.406 330.92 239.834 329.228 242.809C328.259 244.514 327.364 246.114 326.737 247.242C326.337 247.962 326.872 248.842 327.696 248.821L334.647 248.642C335.733 248.614 336.793 248.261 337.574 247.506C338.131 246.968 338.807 246.242 339.461 245.358C341.154 243.067 342.916 240.154 342.916 240.154Z" fill="#DFEBDA"/>
<path d="M352.403 238.014L346.698 234.225C346.698 234.225 343.926 238.653 342.234 241.628C341.305 243.261 340.267 245.101 339.471 246.517C338.996 247.36 339.798 248.346 340.721 248.056L344.962 246.723C345.518 246.548 346.044 246.285 346.482 245.9C347.097 245.359 348.044 244.441 348.948 243.218C350.641 240.927 352.403 238.014 352.403 238.014Z" fill="#DFEBDA"/>
<path d="M291.752 259.603C292.019 258.506 291.386 257.39 290.307 257.056L286.044 255.739L283.624 255.306C281.025 254.842 278.383 255.853 276.758 257.933L275.881 259.057L280.79 262.543L290.765 263.657L291.752 259.603Z" fill="#DFEBDA"/>
<path d="M265.024 247.703C265.583 246.306 267.38 245.902 268.522 246.882C269.596 247.802 270.87 248.84 271.959 249.573C273.055 250.312 274.411 251.286 275.549 252.118C276.915 253.116 277.364 254.944 276.638 256.473L275.177 259.548L263.773 250.825L265.024 247.703Z" fill="#DFEBDA"/>
<path d="M256.4 241.041C256.11 240.659 255.954 240.191 255.992 239.712C256.114 238.16 256.597 234.808 258.485 236.08C260.078 237.153 262.475 240.217 263.866 242.096C264.571 243.049 264.713 244.295 264.281 245.399L262.728 249.365L256.4 241.041Z" fill="#DFEBDA"/>
<path d="M249.866 229.312C249.74 229.041 249.671 228.749 249.675 228.45C249.694 227.138 249.867 223.447 251.23 223.868C253.356 224.525 255.484 229.897 256.312 232.214C256.557 232.898 256.559 233.642 256.344 234.337L254.695 239.674L249.866 229.312Z" fill="#DFEBDA"/>
<path d="M244.248 216.455C244.124 216.142 244.072 215.804 244.133 215.474C244.274 214.722 244.647 213.382 245.545 213.209C246.506 213.024 248.729 217.883 249.721 220.179C250.048 220.934 250.082 221.778 249.839 222.564L248.462 227.019L244.248 216.455Z" fill="#DFEBDA"/>
<path d="M241 207.867C240.896 207.493 240.887 207.094 241.049 206.742C241.241 206.327 241.564 205.828 242.01 205.822C242.535 205.816 243.227 208.305 243.611 209.869C243.807 210.669 243.691 211.509 243.312 212.24L242.602 213.611L241 207.867Z" fill="#DFEBDA"/>
<path d="M306.867 259.313C307.193 257.844 305.937 256.497 304.441 256.661C303.036 256.815 301.399 256.953 300.086 256.944C298.764 256.936 297.095 256.975 295.686 257.019C293.995 257.073 292.593 258.329 292.33 260L291.8 263.364L306.138 262.596L306.867 259.313Z" fill="#DFEBDA"/>
<path d="M317.06 260.657C317.577 260.542 318.035 260.241 318.306 259.786C319.074 258.496 320.373 255.819 318.198 255.436C316.458 255.129 313.399 255.615 311.327 256.028C309.995 256.293 308.982 257.347 308.698 258.676L307.836 262.71L317.06 260.657Z" fill="#DFEBDA"/>
<path d="M328.108 258.066C328.599 257.938 329.03 257.642 329.291 257.207C329.934 256.136 330.96 254.103 329.753 253.73C328.023 253.195 325.16 253.712 323.305 254.16C322.173 254.433 321.308 255.312 320.964 256.425L319.787 260.236L328.108 258.066Z" fill="#DFEBDA"/>
<path d="M340.237 254.174C340.6 254.04 340.924 253.811 341.134 253.485C341.554 252.832 342.154 251.665 341.646 250.943C341.083 250.143 336.109 252.096 333.801 253.059C333.042 253.376 332.431 253.96 332.06 254.694L330.511 257.761L340.237 254.174Z" fill="#DFEBDA"/>
<path d="M348.313 250.973C348.673 250.831 348.998 250.599 349.181 250.257C349.397 249.854 349.602 249.296 349.338 248.937C349.027 248.513 346.622 249.458 345.142 250.093C344.385 250.417 343.785 251.015 343.428 251.758L342.76 253.15L348.313 250.973Z" fill="#DFEBDA"/>
<path fill-rule="evenodd" clip-rule="evenodd" d="M258.807 159.211C264.946 161.359 272.4 165.716 277.234 170.069C279.803 172.383 281.145 175.085 282.533 177.881C283.48 179.788 284.449 181.74 285.844 183.642C289.362 188.438 291.002 192.746 293.079 198.32C293.535 199.543 294.024 200.636 294.489 201.675C295.744 204.476 296.823 206.885 296.593 210.397C296.482 212.098 296.377 213.6 296.181 214.95C297.499 213.624 299.048 212.371 300.679 211.053C300.873 210.896 301.068 210.739 301.263 210.58C305.011 207.542 307.718 206.43 312.381 205.193C316.426 204.12 319.373 204.342 322.837 204.602C324.296 204.712 325.846 204.829 327.609 204.858C329.184 204.885 330.58 204.863 331.892 204.843L331.893 204.843C335.425 204.787 338.344 204.742 342.481 205.674C348.826 207.104 352.466 208.519 357.766 212.289C363.221 216.168 365.756 219.295 369.281 224.985C369.773 225.779 370.253 226.509 370.71 227.205C372.702 230.239 374.265 232.619 374.49 236.678C374.664 239.81 373.496 243.412 372.348 245.902C372.348 245.902 371.423 248.344 370.468 249.693C369.234 251.432 368.166 251.699 366.479 253.422C362.972 257.004 360.273 258.292 355.78 260.514C349.7 263.52 345.673 263.667 339.13 265.45C330.94 267.682 326.347 268.993 318.009 270.581C307.982 272.49 302.276 273.326 292.087 273.912C284.217 274.365 279.429 276.315 271.902 273.975C265.639 272.029 262.475 269.552 257.615 265.149C251.655 259.749 250.059 255.102 245.817 248.269C239.811 238.592 237.679 232.467 232.393 222.378C228.689 215.31 225.803 211.722 222.855 204.306C219.339 195.463 215.789 190.159 216.814 180.698C217.371 175.555 220.726 168.043 220.726 168.043C221.892 165.872 226.121 161.61 229.238 159.653C232.681 157.492 235.527 157.392 239.153 157.265L239.155 157.265C239.987 157.236 240.86 157.206 241.791 157.148C248.472 156.738 252.489 157 258.807 159.211ZM233.856 183.285C238.572 188.03 245.688 195.236 249.714 199.543C252.354 202.368 254.218 205.044 255.995 207.597C258.744 211.544 261.286 215.195 266.173 218.639C266.763 219.055 267.316 219.454 267.846 219.836C270.989 222.105 273.296 223.77 277.484 224.67C282.418 225.731 286.092 226.448 290.377 223.782C291.087 223.34 291.711 222.895 292.26 222.442C292.2 223.047 292.188 223.683 292.228 224.352C292.528 229.39 295.236 231.973 298.952 235.388C302.107 238.286 304.799 239.207 308.467 240.461L308.469 240.462C309.086 240.673 309.731 240.894 310.41 241.135C316.045 243.134 320.493 243.099 325.303 243.062C328.414 243.037 331.675 243.012 335.506 243.534C343.202 244.584 354.381 246.746 357.965 247.452C349.877 250.517 331.905 256.976 318.709 259.139C316.18 259.553 313.871 259.999 311.687 260.42C303.658 261.968 297.336 263.187 288.097 261.336C283.601 260.435 276.88 257.869 276.88 257.869C276.88 257.869 267.653 252.94 262.771 248.467C253.202 239.7 246.141 219.695 246.141 219.695L233.856 183.285Z" fill="#17414A"/>
<path d="M387.232 201.697C377.015 227.28 348.811 217.365 341.935 200.699C340.772 197.879 340.786 192.511 340.786 192.511C340.786 192.511 348.064 183.504 357.26 179.99C369.126 175.455 384.635 178.959 387.232 201.697Z" fill="url(#paint2_linear)"/>
<circle r="1.28" transform="matrix(-0.890185 -0.4556 -0.4556 0.890185 351.14 188.323)" fill="white"/>
<path d="M353.849 212.504C354.359 207.153 355.3 200.796 357.725 195.129C360.15 189.462 363.783 185.129 367.3 181.066C366.791 186.416 366.312 191.067 363.887 196.734C361.463 202.401 357.367 208.44 353.849 212.504Z" fill="#17414A"/>
<path d="M255.464 134.183C240.688 157.433 265.226 174.511 282.765 170.341C285.733 169.635 290.08 166.484 290.08 166.484C290.08 166.484 293.129 155.313 290.601 145.799C287.339 133.522 275.426 122.99 255.464 134.183Z" fill="url(#paint3_linear)"/>
<circle cx="267.553" cy="145.469" r="1.28" transform="rotate(27.1036 267.553 145.469)" fill="white"/>
<path d="M266.222 167.58C270.263 164.037 274.87 159.555 278.048 154.274C281.227 148.993 282.617 143.513 283.855 138.283C279.813 141.826 276.321 144.934 273.142 150.215C269.964 155.496 267.46 162.35 266.222 167.58Z" fill="#17414A"/>
<path d="M146.93 273.225C146.93 273.225 145.725 272.331 146.926 270.8C148.128 269.269 150.644 269.788 153.495 269.023C155.745 268.419 157.481 265.879 160.548 266.673C161.919 267.027 161.514 268.809 161.522 271.176C161.534 275.399 161.646 281.081 161.646 281.081L154.215 281.975L146.93 273.225Z" fill="#B37299"/>
<path d="M148.97 288.645L156.995 284.224C156.995 284.224 157.713 288.103 158.253 290.572C158.406 291.272 158.591 292.071 158.782 292.871C159.351 295.259 157.731 297.629 155.293 297.922C153.501 298.138 151.774 297.148 151.116 295.467C150.892 294.896 150.673 294.315 150.497 293.809C149.806 291.823 148.97 288.645 148.97 288.645Z" fill="#DFEBDA"/>
<path d="M166.4 284.452L157.793 283.912C157.793 283.912 158.037 287.401 158.511 289.883C158.696 290.852 158.981 292.068 159.269 293.226C159.826 295.469 162.043 296.986 164.255 296.32C164.319 296.3 164.384 296.28 164.45 296.259C166.456 295.616 167.675 293.627 167.6 291.522C167.581 290.979 167.556 290.446 167.524 289.988C167.379 287.89 166.4 284.452 166.4 284.452Z" fill="#DFEBDA"/>
<path d="M173.349 284.066L167.045 284.331C167.045 284.331 167.234 286.967 167.582 288.792C167.726 289.543 167.88 290.472 168.016 291.335C168.224 292.657 169.619 293.443 170.85 292.919L171.055 292.832C173.068 291.975 174.183 289.87 174.031 287.686C173.924 286.144 173.349 284.066 173.349 284.066Z" fill="#DFEBDA"/>
<path d="M178.041 279.989L173.324 281.816C173.324 281.816 173.738 284.621 174.087 286.445C174.215 287.117 174.341 287.76 174.451 288.316C174.612 289.126 175.591 289.448 176.204 288.896L177.894 287.374C178.509 286.821 178.996 286.124 179.037 285.298C179.049 285.041 179.049 284.744 179.026 284.411C178.919 282.869 178.041 279.989 178.041 279.989Z" fill="#DFEBDA"/>
<path d="M183.776 276.023L178.295 277.31C178.295 277.31 178.709 280.115 179.058 281.939C179.186 282.612 179.313 283.256 179.423 283.813C179.583 284.622 180.561 284.944 181.175 284.393L182.782 282.95C183.59 282.224 184.183 281.266 184.202 280.179C184.206 279.933 184.201 279.667 184.181 279.389C184.074 277.847 183.776 276.023 183.776 276.023Z" fill="#DFEBDA"/>
<path d="M187.176 270.767L183.486 271.211C183.486 271.211 183.9 274.015 184.248 275.84C184.359 276.417 184.478 277.036 184.592 277.623C184.777 278.572 186.027 278.804 186.541 277.984L186.955 277.325C187.265 276.831 187.498 276.289 187.555 275.709C187.597 275.287 187.623 274.74 187.581 274.132C187.474 272.59 187.176 270.767 187.176 270.767Z" fill="#DFEBDA"/>
<path d="M190.308 265.687L186.617 266.131C186.617 266.131 187.032 268.935 187.38 270.76C187.49 271.338 187.61 271.957 187.724 272.543C187.909 273.493 189.158 273.724 189.673 272.904L190.086 272.245C190.396 271.751 190.63 271.209 190.687 270.629C190.729 270.207 190.755 269.66 190.713 269.053C190.605 267.511 190.308 265.687 190.308 265.687Z" fill="#DFEBDA"/>
<path d="M142.537 291.766L148.122 288.831C148.122 288.831 149.282 291.205 149.897 292.958C150.276 294.041 150.793 295.496 151.167 296.544C151.405 297.214 150.935 297.926 150.224 297.969L148.485 298.075C146.484 298.197 144.648 297.04 143.764 295.24C143.083 293.853 142.537 291.766 142.537 291.766Z" fill="#DFEBDA"/>
<path d="M136.064 291.77L141.063 289.852C141.063 289.852 142.113 292.486 142.728 294.239C142.954 294.884 143.168 295.504 143.351 296.04C143.619 296.821 142.934 297.591 142.126 297.421L139.901 296.953C139.092 296.783 138.32 296.425 137.871 295.731C137.73 295.515 137.582 295.259 137.435 294.959C136.754 293.571 136.064 291.77 136.064 291.77Z" fill="#DFEBDA"/>
<path d="M128.952 289.409L134.339 287.77C134.339 287.77 135.388 290.404 136.003 292.157C136.229 292.803 136.444 293.424 136.628 293.961C136.895 294.741 136.211 295.51 135.404 295.342L133.29 294.901C132.226 294.679 131.232 294.147 130.671 293.217C130.543 293.006 130.414 292.774 130.292 292.523C129.61 291.136 128.952 289.409 128.952 289.409Z" fill="#DFEBDA"/>
<path d="M124.094 287.345L127.508 285.876C127.508 285.876 128.558 288.51 129.173 290.263C129.367 290.818 129.574 291.413 129.77 291.977C130.087 292.891 129.122 293.719 128.266 293.268L127.577 292.905C127.061 292.634 126.588 292.282 126.247 291.809C125.998 291.466 125.702 291.005 125.433 290.459C124.752 289.071 124.094 287.345 124.094 287.345Z" fill="#DFEBDA"/>
<path d="M154.435 305.683C154.369 304.555 155.192 303.571 156.313 303.436L157.804 303.256L158.365 303.258C160.273 303.264 162.022 304.325 162.909 306.015L159.949 307.4L154.514 307.025L154.435 305.683Z" fill="#DFEBDA"/>
<path d="M170.094 302.411C169.794 300.937 168.103 300.231 166.768 300.925C166.476 301.076 166.189 301.217 165.924 301.333C165.626 301.463 165.296 301.614 164.96 301.771C163.427 302.486 162.66 304.212 163.101 305.845L163.236 306.346L170.173 302.796L170.094 302.411Z" fill="#DFEBDA"/>
<path d="M174.81 298.518C175.164 298.194 175.405 297.76 175.435 297.281C175.492 296.373 175.425 295.001 174.429 295.437C173.67 295.77 172.516 296.726 171.611 297.54C170.729 298.332 170.368 299.538 170.595 300.701L170.873 302.118L174.81 298.518Z" fill="#DFEBDA"/>
<path d="M179.568 292.831C179.741 292.586 179.862 292.309 179.906 292.013C180.029 291.193 180.192 289.537 179.489 289.622C178.424 289.75 176.997 291.864 176.223 293.145C175.848 293.768 175.715 294.5 175.802 295.222L176.103 297.724L179.568 292.831Z" fill="#DFEBDA"/>
<path d="M183.814 286.54C183.992 286.255 184.109 285.931 184.087 285.595C184.058 285.177 183.946 284.632 183.561 284.483C183.129 284.315 181.81 286.107 180.98 287.316C180.515 287.995 180.33 288.822 180.429 289.639L180.662 291.573L183.814 286.54Z" fill="#DFEBDA"/>
<path d="M186.387 282.315C186.557 281.967 186.661 281.564 186.501 281.211C186.428 281.051 186.321 280.913 186.165 280.882C185.942 280.839 185.509 281.631 185.161 282.359C184.806 283.102 184.776 283.952 185.017 284.739L185.092 284.983L186.387 282.315Z" fill="#DFEBDA"/>
<path d="M146.394 304.573C146.336 303.069 147.811 301.982 149.273 302.339C149.592 302.417 149.904 302.486 150.189 302.536C150.509 302.592 150.866 302.66 151.23 302.733C152.889 303.064 154.042 304.558 154.002 306.25L153.99 306.768L146.409 304.965L146.394 304.573Z" fill="#DFEBDA"/>
<path d="M141.111 303.015C140.624 302.809 140.22 302.432 140.062 301.927C139.811 301.119 139.632 299.964 140.665 299.97C141.366 299.974 142.402 300.273 143.325 300.598C144.607 301.049 145.412 302.28 145.453 303.637L145.491 304.861L141.111 303.015Z" fill="#DFEBDA"/>
<path d="M135.444 300.563C134.984 300.349 134.606 299.982 134.451 299.498C134.245 298.853 134.089 298.005 134.661 297.937C135.395 297.848 136.413 298.14 137.276 298.468C138.364 298.883 139.054 299.917 139.193 301.074L139.351 302.379L135.444 300.563Z" fill="#DFEBDA"/>
<path d="M129.253 297.293C128.919 297.096 128.634 296.815 128.513 296.446C128.387 296.06 128.306 295.564 128.581 295.293C128.911 294.968 130.833 296.09 132.073 296.871C132.769 297.31 133.266 297.996 133.5 298.786L133.864 300.015L129.253 297.293Z" fill="#DFEBDA"/>
<path d="M125.25 294.804C124.92 294.6 124.616 294.315 124.562 293.932C124.538 293.758 124.554 293.583 124.67 293.474C124.835 293.318 125.625 293.755 126.309 294.184C127.006 294.621 127.487 295.322 127.705 296.116L127.772 296.363L125.25 294.804Z" fill="#DFEBDA"/>
<path fill-rule="evenodd" clip-rule="evenodd" d="M181.726 254.362C178.239 254.913 173.836 256.515 170.832 258.369C169.235 259.355 168.257 260.668 167.244 262.026C166.553 262.952 165.846 263.9 164.916 264.78C162.572 266.999 161.277 269.14 159.627 271.914C159.265 272.523 158.897 273.059 158.548 273.569C157.606 274.942 156.796 276.124 156.577 278.021C156.471 278.941 156.381 279.752 156.355 280.493C155.78 279.656 155.074 278.837 154.332 277.975C154.244 277.872 154.155 277.769 154.066 277.665C152.36 275.679 151.023 274.823 148.653 273.709C146.597 272.743 145.002 272.575 143.127 272.377C142.338 272.294 141.499 272.206 140.555 272.051C139.711 271.912 138.968 271.764 138.269 271.626L138.268 271.626C136.388 271.253 134.834 270.945 132.535 271.041C129.008 271.188 126.927 271.59 123.73 273.088C120.441 274.629 118.783 276.052 116.348 278.748C116.009 279.124 115.682 279.467 115.37 279.795C114.011 281.221 112.946 282.34 112.431 284.485C112.034 286.141 112.307 288.177 112.678 289.618C112.678 289.618 112.935 291.012 113.314 291.825C113.804 292.874 114.348 293.12 115.082 294.204C116.606 296.457 117.922 297.407 120.105 299.03C123.059 301.226 125.195 301.696 128.516 303.284C132.672 305.271 134.997 306.417 139.295 308.075C144.463 310.069 147.428 311.07 152.812 312.373C156.97 313.379 159.337 314.885 163.583 314.368C167.116 313.937 169.046 312.922 172.069 311.043C175.776 308.739 177.08 306.412 180.009 303.176C184.156 298.593 185.889 295.529 189.692 290.657C192.356 287.242 194.246 285.607 196.541 281.934C199.278 277.554 201.688 275.067 202.06 269.915C202.262 267.115 201.201 262.778 201.201 262.778C200.789 261.506 198.945 258.819 197.471 257.472C195.843 255.983 194.333 255.653 192.409 255.233L192.408 255.233C191.967 255.137 191.504 255.035 191.012 254.914C187.485 254.046 185.314 253.796 181.726 254.362ZM192.709 269.641C189.73 271.716 185.23 274.872 182.662 276.781C180.978 278.033 179.723 279.281 178.526 280.471C176.675 282.312 174.963 284.014 172.019 285.378C171.663 285.542 171.329 285.702 171.009 285.854C169.111 286.76 167.717 287.425 165.393 287.499C162.656 287.586 160.625 287.612 158.596 285.772C158.259 285.467 157.969 285.169 157.721 284.874C157.694 285.203 157.638 285.543 157.552 285.897C156.902 288.557 155.205 289.674 152.889 291.136C150.923 292.377 149.396 292.607 147.316 292.92L147.315 292.92C146.965 292.973 146.599 293.028 146.213 293.091C143.01 293.611 140.638 293.16 138.074 292.673C136.415 292.358 134.677 292.027 132.58 291.934C128.369 291.747 122.19 291.815 120.208 291.844C124.229 294.266 133.197 299.461 140.032 301.898C141.342 302.365 142.532 302.827 143.657 303.264C147.794 304.871 151.051 306.136 156.164 306.045C158.652 306.001 162.49 305.284 162.49 305.284C162.49 305.284 167.896 303.549 170.937 301.635C176.898 297.884 182.612 287.888 182.612 287.888L192.709 269.641Z" fill="#17414A"/>
<path d="M109.026 264.57C111.996 279.222 128.018 276.668 133.309 268.438C134.204 267.045 134.718 264.177 134.718 264.177C134.718 264.177 131.708 258.661 127.139 255.891C121.244 252.317 112.622 252.681 109.026 264.57Z" fill="url(#paint4_linear)"/>
<circle cx="117.874" cy="262.626" r="0.694666" transform="rotate(-16.7901 117.874 262.626)" fill="white"/>
<path d="M125.801 273.583C126.048 270.677 126.163 267.191 125.419 263.929C124.675 260.668 123.157 258.002 121.673 255.49C121.426 258.396 121.229 260.926 121.973 264.188C122.717 267.449 124.317 271.072 125.801 273.583Z" fill="#17414A"/>
<path d="M185.944 241.324C191.574 255.174 176.813 261.908 167.853 257.977C166.337 257.312 164.322 255.207 164.322 255.207C164.322 255.207 163.779 248.946 166.054 244.112C168.988 237.874 176.372 233.408 185.944 241.324Z" fill="url(#paint5_linear)"/>
<circle r="0.694666" transform="matrix(-0.957369 0.288867 0.288867 0.957369 166.667 247.866)" fill="white"/>
<path d="M176.954 258.11C175.14 255.826 173.116 252.986 171.932 249.857C170.748 246.728 170.538 243.667 170.385 240.754C172.199 243.039 173.762 245.038 174.946 248.166C176.13 251.295 176.801 255.198 176.954 258.11Z" fill="#17414A"/>
<defs>
<linearGradient id="paint0_linear" x1="57.0504" y1="110.297" x2="26.0867" y2="48.9136" gradientUnits="userSpaceOnUse">
<stop stop-color="#57CE86"/>
<stop offset="1" stop-color="#0D4346"/>
</linearGradient>
<linearGradient id="paint1_linear" x1="187.972" y1="69.5882" x2="178.767" y2="1.45658" gradientUnits="userSpaceOnUse">
<stop stop-color="#57CE86"/>
<stop offset="1" stop-color="#0D4346"/>
</linearGradient>
<linearGradient id="paint2_linear" x1="349.565" y1="214.258" x2="377.229" y2="177.063" gradientUnits="userSpaceOnUse">
<stop stop-color="#57CE86"/>
<stop offset="1" stop-color="#0D4346"/>
</linearGradient>
<linearGradient id="paint3_linear" x1="267.304" y1="172.082" x2="281.295" y2="127.889" gradientUnits="userSpaceOnUse">
<stop stop-color="#57CE86"/>
<stop offset="1" stop-color="#0D4346"/>
</linearGradient>
<linearGradient id="paint4_linear" x1="127.918" y1="274.936" x2="116.761" y2="252.388" gradientUnits="userSpaceOnUse">
<stop stop-color="#57CE86"/>
<stop offset="1" stop-color="#0D4346"/>
</linearGradient>
<linearGradient id="paint5_linear" x1="175.939" y1="260.409" x2="172.763" y2="235.454" gradientUnits="userSpaceOnUse">
<stop stop-color="#57CE86"/>
<stop offset="1" stop-color="#0D4346"/>
</linearGradient>
</defs>
</svg>
