<svg width="308" height="357" viewBox="0 0 308 357" fill="none" xmlns="http://www.w3.org/2000/svg">
<path d="M68.8343 69.2985C37.8263 85.632 33.3589 108.277 38.9265 117.016C47.6504 130.709 72.7289 124.998 95.2 110.681C117.671 96.3643 138.725 70.1167 121.083 42.4269C117.437 36.7042 97.1605 9.75471 51.9471 33.8554" stroke="#B9A917" stroke-width="7" stroke-linecap="round"/>
<path d="M144.734 188.211C163.475 176.27 165.287 150.731 156.369 136.734C142.604 115.13 121.538 115.718 104.603 125.224C87.669 134.73 75.2031 149.222 81.8549 159.663C85.2238 164.95 96.5724 171.41 122.48 154.904" stroke="#B9A917" stroke-width="7" stroke-linecap="round"/>
<path d="M163.984 218.688C177.284 211.278 177.014 190.626 169.659 179.081C158.306 161.262 143.311 160.027 131.044 166.987C118.778 173.947 110.9 184.165 116.387 192.777C119.165 197.138 128.229 200.011 144.615 188.287" stroke="#B9A917" stroke-width="7" stroke-linecap="round"/>
<path d="M122.481 154.904C153.349 135.237 143.901 97.2964 137.262 86.8772C116.519 54.3189 79.5901 62.4462 68.1982 69.7042" stroke="#B9A917" stroke-width="7" stroke-linecap="round"/>
<path d="M163.937 218.756C155.311 224.252 147.762 220.94 144.657 216.067C141.552 211.193 145.599 200.921 159.919 199.07" stroke="#B9A917" stroke-width="7" stroke-linecap="round"/>
<path d="M62.3927 310.375C71.0785 322.79 81.5579 322.958 85.306 319.796C91.1789 314.842 87.5644 304.202 80.142 295.403C72.7197 286.604 59.9292 279.386 48.0529 289.404C45.5984 291.475 34.1655 302.6 46.9598 320.679" stroke="white" stroke-width="3" stroke-linecap="round"/>
<path d="M113.39 267.291C107.2 259.952 95.5121 261.191 89.5087 266.256C80.2425 274.072 81.3645 283.346 86.3745 290.08C91.3844 296.813 98.4807 301.171 102.959 297.394C105.227 295.481 107.703 289.943 99.1461 279.799" stroke="white" stroke-width="3" stroke-linecap="round"/>
<path d="M126.469 256.338C122.559 251.046 113.179 252.815 108.227 256.992C100.584 263.439 100.631 270.172 104.294 275.044C107.957 279.916 112.923 282.585 116.616 279.469C118.487 277.891 119.426 273.651 113.43 267.338" stroke="white" stroke-width="3" stroke-linecap="round"/>
<path d="M99.1452 279.798C88.9492 267.711 72.0789 274.923 67.61 278.693C53.6455 290.473 58.8397 306.163 62.6025 310.624" stroke="white" stroke-width="3" stroke-linecap="round"/>
<path d="M126.5 256.353C129.349 259.73 128.149 263.335 126.059 265.098C123.969 266.862 119.133 265.892 117.711 259.703" stroke="white" stroke-width="3" stroke-linecap="round"/>
<path d="M249.557 181.737C223.07 158.754 199.547 164.113 192.968 173.226C182.659 187.506 196.798 209.298 218.401 224.894C240.004 240.489 272.708 249.618 293.555 220.741C297.863 214.773 317.089 183.667 278.192 150.277M160.078 305.881C178.096 318.888 203.519 309.727 214.057 295.13C230.322 272.599 222.533 252.495 207.499 240.194C192.465 227.892 174.12 222.039 166.259 232.927C162.279 238.441 159.894 252.167 184.8 270.147C214.476 291.571 248.086 266.232 255.93 255.366C280.442 221.412 259.896 189.202 248.945 181.296M137.076 337.501C148.828 347.187 168.792 338.103 177.484 326.063C190.9 307.48 186.961 292.464 175.999 283.585C165.037 274.706 152.415 271.46 145.931 280.44C142.648 284.989 142.963 294.973 159.963 305.798M136.993 337.485C128.701 331.499 129.33 322.79 132.999 317.707C136.669 312.625 148.031 312.147 154.735 325.193" stroke="#940035" stroke-width="3" stroke-linecap="round"/>
<path d="M258.546 67.3166L261.201 82.1221L269.247 92.9045L260.056 94.5695L257.652 98.8674L257.915 106.925L262.293 119.379L266.722 125.812L272.468 128.851L280.165 127.048L282.386 124.742L285.178 138.054L293.631 149.878L281 150.724L272.719 147.954L263.671 142.603L257.702 136.53L250.875 128.873L245.547 115.83L243.173 92.5144L249.893 74.0523L258.546 67.3166Z" fill="white"/>
<path d="M284.417 123.09C287.147 121.943 291.854 126.944 294.929 134.261C298.004 141.578 298.284 148.44 295.554 149.587C292.824 150.735 288.117 145.733 285.042 138.417C281.967 131.1 281.687 124.238 284.417 123.09Z" fill="#B9A917" stroke="#940035" stroke-width="3" stroke-linecap="round"/>
<path d="M260.814 66.9323C263.544 65.7848 268.25 70.7861 271.325 78.1031C274.401 85.4201 274.68 92.2819 271.95 93.4294C269.22 94.5769 264.514 89.5755 261.438 82.2586C258.363 74.9416 258.083 68.0798 260.814 66.9323Z" fill="#B9A917" stroke="#940035" stroke-width="3" stroke-linecap="round"/>
<path d="M260.814 66.9331C243.122 74.3689 238.329 100.348 247.139 121.309C256.732 144.133 280.589 154.947 295.554 149.588M284.417 123.091C280.878 125.742 279.059 127.204 276.382 128.33C271.795 130.258 264.289 125.023 260.388 115.74C256.486 106.458 256.824 96.298 261.411 94.3702C264.233 93.184 265.168 92.7911 271.358 93.6795" stroke="#940035" stroke-width="3" stroke-linecap="round"/>
<path d="M262.545 93.1944C257.198 92.65 255.994 87.5718 255.994 87.5718" stroke="#940035" stroke-width="3" stroke-linecap="round"/>
<path d="M115.267 245.659L101.147 240.474L87.7773 241.974L90.9818 233.2L88.4862 228.954L81.3984 225.112L68.439 222.601L60.6499 223.176L55.1252 226.6L52.7936 234.154L53.6628 237.236L40.7631 232.923L26.2891 234.248L31.937 222.918L38.51 217.17L47.698 212.063L55.9534 209.978L66.0106 207.952L79.9586 209.94L101.282 219.666L113.823 234.789L115.267 245.659Z" fill="#B9A917"/>
<path d="M54.062 239.823C53.6737 242.759 46.9803 244.295 39.1118 243.254C31.2434 242.214 25.1796 238.99 25.5679 236.054C25.9563 233.118 32.6497 231.582 40.5182 232.622C48.3866 233.663 54.4504 236.887 54.062 239.823Z" fill="white" stroke="#940035" stroke-width="3" stroke-linecap="round"/>
<path d="M114.453 247.811C114.064 250.747 107.371 252.283 99.5025 251.243C91.634 250.202 85.5702 246.978 85.9586 244.042C86.3469 241.106 93.0404 239.57 100.909 240.61C108.777 241.651 114.841 244.875 114.453 247.811Z" fill="white" stroke="#940035" stroke-width="3" stroke-linecap="round"/>
<path d="M114.452 247.811C116.968 228.786 96.9655 211.529 74.4254 208.547C49.8806 205.301 28.4992 220.431 25.5673 236.054M54.0613 239.823C53.5607 235.429 53.2169 233.121 53.5978 230.241C54.2502 225.309 62.5588 221.474 72.5409 222.794C82.5231 224.115 91.1217 229.537 90.4693 234.469C90.0679 237.505 89.9349 238.51 86.0421 243.404" stroke="#940035" stroke-width="3" stroke-linecap="round"/>
<path d="M90.9109 236.042C94.0814 231.702 99.0723 233.227 99.0723 233.227" stroke="#940035" stroke-width="3" stroke-linecap="round"/>
<path d="M171.664 155.772L160.714 145.459L147.829 141.588L154.222 134.777L153.593 129.893L148.584 123.576L137.651 116.179L130.262 113.649L123.836 114.629L118.726 120.661L118.315 123.836L108.145 114.805L94.3131 110.339L103.956 102.137L112.258 99.4315L122.714 98.3426L131.125 99.6663L141.17 101.752L153.217 109.058L169.008 126.375L174.604 145.208L171.664 155.772Z" fill="#D23F74"/>
<path d="M117.666 126.372C116.156 128.92 109.397 127.704 102.57 123.658C95.7417 119.611 91.4308 114.265 92.9408 111.717C94.4508 109.17 101.21 110.385 108.038 114.432C114.865 118.478 119.176 123.824 117.666 126.372Z" fill="white" stroke="#940035" stroke-width="3" stroke-linecap="round"/>
<path d="M170.07 157.431C168.56 159.979 161.801 158.764 154.973 154.717C148.145 150.67 143.834 145.324 145.344 142.777C146.854 140.229 153.613 141.444 160.441 145.491C167.269 149.538 171.58 154.884 170.07 157.431Z" fill="white" stroke="#940035" stroke-width="3" stroke-linecap="round"/>
<path d="M170.069 157.431C179.854 140.922 168.234 117.197 148.675 105.604C127.376 92.9807 101.771 98.4999 92.94 111.717M117.666 126.372C118.93 122.134 119.521 119.876 121.002 117.378C123.538 113.098 132.685 112.833 141.347 117.967C150.009 123.101 155.788 131.464 153.252 135.744C151.691 138.378 151.174 139.25 145.672 142.223" stroke="#940035" stroke-width="3" stroke-linecap="round"/>
<path d="M153.04 137.364C157.66 134.617 161.651 137.98 161.651 137.98" stroke="#940035" stroke-width="3" stroke-linecap="round"/>
</svg>
